<svg width="64" height="64" viewBox="0 0 64 64" fill="none" xmlns="http://www.w3.org/2000/svg">
<g clip-path="url(#clip0_1609_37985)">
<rect width="64" height="64" rx="32" fill="#E2E4E9"/>
<path d="M46.6465 27.2285C44.5066 26.4733 43.0641 28.094 43.0641 28.094C42.7134 24.277 41.5729 18.6347 40.2119 15.101C40.2119 15.101 40.2626 13.9676 40.9684 13.9432C41.1582 13.9362 41.3947 14.0093 41.6909 14.2061C42.4589 14.7164 43.2859 16.1768 44.0565 18.0738C45.138 20.7381 46.108 24.2635 46.6459 27.2292L46.6465 27.2285Z" fill="#6D1249" stroke="black" stroke-width="0.569857" stroke-linecap="round" stroke-linejoin="round"/>
<path d="M46.7732 32.9062C46.5411 33.2075 46.2686 33.2677 45.9737 33.1575C45.039 32.8094 43.8883 30.747 43.1472 29.2237C43.1286 28.8705 43.101 28.4922 43.0645 28.0941C43.0645 28.0941 44.5069 26.4728 46.6469 27.2287C47.1469 29.9847 47.2745 32.2567 46.7738 32.9062H46.7732Z" fill="#F5D256" stroke="black" stroke-width="0.569857" stroke-linecap="round" stroke-linejoin="round"/>
<path d="M44.0576 18.0736C43.9557 18.0852 43.8461 18.0704 43.7505 18.0371C43.2338 17.8595 42.9223 17.3396 42.7113 16.8351C42.5011 16.3312 42.335 15.7837 41.9472 15.399C41.7683 15.2214 41.5503 15.0881 41.358 14.9253C41.04 14.656 40.9003 14.3457 40.9695 13.9431C41.1593 13.9361 41.3958 14.0091 41.692 14.2059C42.46 14.7163 43.287 16.1767 44.0576 18.0736Z" fill="#961E6C"/>
<path d="M46.6465 27.2284C44.5066 26.4732 43.0641 28.0939 43.0641 28.0939C42.7134 24.2768 41.5729 18.6346 40.2119 15.1009C40.2119 15.1009 40.2927 13.277 41.6909 14.2053C43.5379 15.4317 45.7246 22.1497 46.6459 27.2277L46.6465 27.2284Z" stroke="black" stroke-width="0.569857" stroke-linecap="round" stroke-linejoin="round"/>
<path d="M42.5422 19.4651C43.1769 20.6133 44.0032 21.6788 44.3725 22.9379C44.5918 23.6841 44.6123 24.5695 44.1039 25.158C44.0379 25.2349 43.9411 25.3112 43.8443 25.2798C43.7071 25.2356 43.7167 25.042 43.734 24.8984C43.791 24.4374 43.634 23.9733 43.4064 23.5681C43.1788 23.1629 42.882 22.8026 42.6243 22.4161C41.7594 21.1185 41.3632 19.5741 40.9818 18.0624C40.8363 17.4867 40.6907 16.9104 40.5792 16.327C40.5305 16.0712 40.2202 15.207 40.6388 15.1717C41.035 15.1384 41.1177 15.984 41.2049 16.2513C41.3748 16.7725 41.5562 17.2899 41.7601 17.7983C41.9883 18.3682 42.2447 18.9273 42.5422 19.4645V19.4651Z" fill="#450832"/>
<path d="M65.2009 64.821H4.48968C4.48968 64.821 3.8659 53.9949 7.57717 50.0811C8.06888 49.5624 9.17091 49.0592 10.623 48.5783C11.0602 48.4328 11.5282 48.2905 12.0212 48.1501C15.9985 47.0166 21.5722 46.03 24.9956 45.3062L27.0907 45.2453L28.485 45.2043L44.3603 44.7401L45.0431 44.7203C49.6795 45.9005 58.7137 47.8007 61.5415 49.6252C61.7775 49.7785 61.9717 49.931 62.1153 50.0823C65.8266 53.9962 65.2022 64.8223 65.2022 64.8223L65.2009 64.821Z" fill="#E86F3A" stroke="black" stroke-width="0.569857" stroke-linecap="round" stroke-linejoin="round"/>
<path d="M43.1461 30.9929C43.1019 31.5295 43.0057 31.9013 42.8506 32.0616C41.8793 33.0604 40.5048 29.737 39.8285 27.8554C39.7618 27.6676 39.7009 27.4945 39.649 27.3419C39.5047 26.9207 39.4214 26.6508 39.4214 26.6508L38.7886 24.1653L37.995 21.0515L37.986 21.015L37.8777 20.5899C37.7597 17.5781 37.3866 14.4996 36.716 12.7513C36.7128 12.7404 36.7089 12.7308 36.7045 12.7199C36.6923 12.6898 36.6807 12.6603 36.6686 12.6308C36.6333 12.543 36.5968 12.459 36.5596 12.3788C36.6897 12.0968 37.0269 11.5871 37.736 11.7448C37.9007 11.7813 38.0847 11.8538 38.2912 11.973C38.9015 12.325 39.5188 13.3712 40.099 14.8143C40.1368 14.9086 40.1747 15.0041 40.2119 15.1009C40.7914 16.6049 41.3306 18.4923 41.7864 20.4572C42.221 22.3318 42.5788 24.2775 42.8224 26.0321C42.9865 27.2085 43.0974 28.299 43.1468 29.2228C43.1833 29.9178 43.1846 30.5191 43.1455 30.9922L43.1461 30.9929Z" fill="#6D1249" stroke="black" stroke-width="0.569857" stroke-linecap="round" stroke-linejoin="round"/>
<path d="M40.0991 14.8148C40.0581 14.9911 40.01 15.1654 39.9548 15.3379C39.6997 15.4026 39.4247 15.293 39.2285 15.1167C39.0323 14.9411 38.8996 14.7077 38.7695 14.4788C38.506 14.0134 38.2431 13.5473 37.9796 13.0825C37.8572 12.8652 37.7322 12.644 37.6738 12.4004C37.6219 12.1824 37.6296 11.9401 37.7354 11.7446C37.9002 11.7811 38.0841 11.8536 38.2906 11.9728C38.9009 12.3248 39.5183 13.371 40.0985 14.8141L40.0991 14.8148Z" fill="#961E6C"/>
<path d="M43.1465 30.9932C43.1022 31.5298 43.0061 31.9016 42.8509 32.0619C41.8797 33.0607 40.5052 29.7373 39.8288 27.8557C39.7621 27.6679 39.7012 27.4948 39.6493 27.3422C39.5051 26.921 39.4217 26.6511 39.4217 26.6511L38.789 24.1656L37.9953 21.0518L37.878 20.5902C37.751 17.3514 37.3292 14.0351 36.5605 12.3798C36.7202 12.0323 37.1959 11.3393 38.2921 11.974C38.9422 12.3497 39.6 13.5113 40.2128 15.1019C40.7924 16.6059 41.3315 18.4932 41.7874 20.4582C42.222 22.3327 42.5797 24.2784 42.8233 26.0331C42.9875 27.2095 43.0984 28.3 43.1477 29.2238C43.1843 29.9187 43.1856 30.5201 43.1465 30.9932Z" stroke="black" stroke-width="0.569857" stroke-linecap="round" stroke-linejoin="round"/>
<path d="M38.4874 20.7481C38.4066 20.9328 38.2207 21.1302 38.0373 21.0475C38.0181 21.0392 38.0008 21.0283 37.9854 21.0148L37.8771 20.5898C37.7591 17.5779 37.386 14.4994 36.7154 12.7512L36.4929 12.771L36.416 12.7775C36.4853 12.7037 36.5724 12.6556 36.668 12.6306C36.8545 12.5832 37.0706 12.6236 37.2379 12.7274C37.4898 12.8845 37.6508 13.1525 37.7828 13.4192C38.6483 15.1617 38.6842 17.1843 38.7021 19.13C38.7073 19.6788 38.7086 20.2462 38.4867 20.7475L38.4874 20.7481Z" fill="#450832"/>
<path d="M42.8231 26.0329C41.9922 26.6964 40.7998 27.1285 39.6484 27.342C39.701 27.4946 39.7613 27.6677 39.8279 27.8555C39.8856 28.6409 40.0049 30.2128 40.169 32.1117C40.169 32.1117 40.169 32.113 40.1696 32.1162C40.6184 37.3283 41.4012 43.2494 42.1589 43.8449C42.1589 43.8449 39.9145 53.0439 33.876 53.0439C27.8376 53.0439 27.8633 44.47 27.8633 44.47C28.4377 44.018 28.5492 43.6815 28.5165 41.7018C28.4922 40.242 28.389 38.8387 28.3351 38.1867C28.3152 37.945 28.3018 37.8065 28.3018 37.8065C26.9452 38.2361 25.5085 38.447 24.1623 38.1816C22.8262 37.9174 21.5793 37.1853 20.5856 35.7326C19.7125 34.4568 19.415 32.8932 19.499 31.2052C19.6009 29.1422 20.2728 26.8945 21.16 24.7629C22.121 22.4511 23.3365 20.2759 24.3533 18.6213C24.3578 18.6142 24.7809 18.4264 25.4714 18.2078C26.4984 17.8827 28.1171 17.491 29.8276 17.5263C29.7019 20.6452 29.8301 25.0911 31.5835 25.0879C31.9393 25.0873 32.2079 24.2782 32.3996 23.1563C32.5516 22.2665 32.6548 21.1792 32.7157 20.1432C32.658 21.1799 32.5567 22.2684 32.4067 23.1589C32.4067 23.1589 33.0657 28.0979 34.3575 27.4946C34.5729 27.3939 34.7325 27.0349 34.8447 26.4996C35.2467 27.7991 35.9218 29.1537 36.977 29.0178C37.6687 28.9281 38.0092 25.2008 37.8963 21.1856C37.9284 21.1401 37.9611 21.0952 37.9938 21.051C38.1438 20.851 38.306 20.6619 38.4804 20.4932C39.3093 19.6938 40.4113 19.3592 41.7858 20.4573C42.0012 20.6292 42.2237 20.8369 42.4526 21.083C42.6994 21.3485 42.9109 21.6049 43.0898 21.853C44.4457 23.7199 43.988 25.1033 42.8218 26.0323L42.8231 26.0329Z" fill="#94624B" stroke="black" stroke-width="0.569857" stroke-linecap="round" stroke-linejoin="round"/>
<path d="M34.459 34.7542C34.4641 37.6513 32.7646 40.4881 30.2073 41.8492C29.9079 42.0082 29.5764 42.1524 29.2412 42.105C28.9604 42.0652 28.7257 41.9005 28.5174 41.7011C28.493 40.2413 28.3898 38.838 28.3359 38.186C28.5661 37.968 28.818 37.7699 29.0687 37.575L34.459 34.7542Z" fill="#663421"/>
<path d="M25.4912 18.8605C25.2649 19.5599 24.8867 20.2286 24.6347 20.9248C23.6026 23.7719 23.1205 26.8158 23.2115 29.843C23.2622 31.5445 23.4949 33.2408 23.9129 34.891C24.109 35.668 24.3475 36.4488 24.3296 37.2502C24.3225 37.5624 24.268 37.8829 24.1623 38.181C22.8262 37.9169 21.5793 37.1848 20.5856 35.7321C19.7125 34.4563 19.415 32.8927 19.499 31.2047C19.6009 29.1417 20.2728 26.894 21.16 24.7624C22.121 22.4506 23.3365 20.2754 24.3533 18.6207C24.3578 18.6137 24.7809 18.4258 25.4714 18.2072C25.5611 18.3822 25.5727 18.6066 25.4912 18.8605Z" fill="#AD8679"/>
<path d="M29.1083 19.5001C29.0359 21.1784 28.9647 22.8748 29.2763 24.5256C29.3756 25.0519 29.5577 25.6295 30.0302 25.8808C30.3834 26.0693 30.8155 26.0251 31.1951 26.1533C31.8567 26.377 32.2285 27.0611 32.5324 27.69C32.8363 28.3189 33.1933 29.0061 33.8473 29.251C34.0736 29.3357 34.3178 29.3587 34.5525 29.4158C35.1057 29.5504 35.6083 29.8832 35.9487 30.3396C36.0834 30.5198 36.1936 30.7198 36.3546 30.8775C36.5155 31.0352 36.745 31.1461 36.9636 31.0922C37.1771 31.0397 37.3284 30.839 37.3861 30.6275C37.4438 30.4159 37.4233 30.1909 37.4002 29.9723C37.1123 27.2534 36.4533 24.589 35.7532 21.9458C35.3436 20.3989 34.8749 18.7788 33.7319 17.6595C33.044 16.9857 32.0952 16.5318 31.1354 16.6081C30.5591 16.6543 29.543 16.9492 29.2352 17.4986C29.1231 17.6979 29.1686 17.9499 29.1647 18.1685C29.157 18.6121 29.1275 19.0564 29.1083 19.5001Z" fill="#7C412E"/>
<path d="M27.0788 51.0939C26.9243 52.2959 26.6942 53.5377 25.9864 54.5218C25.278 55.5059 23.9619 56.1521 22.8252 55.7309C21.177 55.1212 20.7558 52.7562 19.1274 52.0959C17.1176 51.2804 14.8411 53.6172 12.8204 52.8312C11.9248 52.4831 11.3523 51.5933 11.0272 50.69C10.783 50.0124 10.6484 49.2969 10.6221 48.5776C11.0593 48.4321 11.5273 48.2898 12.0203 48.1494C15.9976 47.0159 21.5712 46.0293 24.9947 45.3055L27.0897 45.2446C27.4314 47.1704 27.3282 49.1527 27.0782 51.0939H27.0788Z" fill="#49A2A6" stroke="black" stroke-width="0.569857" stroke-linecap="round" stroke-linejoin="round"/>
<path d="M61.3941 49.6236C60.8806 51.2796 59.8312 52.7624 58.3624 53.6817C57.0553 54.4998 55.2057 54.8062 54.0543 53.7805C53.1568 52.981 52.9811 51.6668 52.4285 50.5994C51.5047 48.8152 49.3577 47.7548 47.3799 48.1062C46.7587 48.2164 46.1606 48.4498 45.5336 48.5139C44.9053 48.578 44.2027 48.4325 43.8187 47.9318C43.3481 47.3176 43.527 46.4368 43.8001 45.713C43.9161 45.4046 44.0552 45.0764 44.2142 44.7385L44.8976 44.7186C49.5333 45.8989 58.5682 47.7991 61.3948 49.6236H61.3941Z" fill="#49A2A6" stroke="black" stroke-width="0.569857" stroke-linecap="round" stroke-linejoin="round"/>
<path d="M57.8302 64.8208H38.4738C38.227 63.8919 38.2199 62.8995 38.4904 61.9757C39.061 60.028 40.8362 58.4907 42.8454 58.2054C44.934 57.9086 46.999 58.8606 49.1082 58.9215C50.3705 58.9581 51.6354 58.6734 52.89 58.8112C54.8267 59.0234 56.6134 60.3178 57.4007 62.0988C57.7764 62.9488 57.9155 63.8951 57.8296 64.8202L57.8302 64.8208Z" fill="#49A2A6" stroke="black" stroke-width="0.569857" stroke-linecap="round" stroke-linejoin="round"/>
<path d="M25.7835 64.821H7.51758C7.8939 62.5066 10.773 60.6795 12.8175 60.2404C15.5286 59.6583 18.3533 60.3725 20.942 61.3694C22.1024 61.8162 23.2531 62.3291 24.2346 63.0926C24.8469 63.5696 25.3918 64.1536 25.7835 64.821Z" fill="#49A2A6" stroke="black" stroke-width="0.569857" stroke-linecap="round" stroke-linejoin="round"/>
<path d="M39.4878 24.9871C39.9051 24.8031 40.3616 24.7088 40.8174 24.712C41.0501 24.714 41.2918 24.7396 41.5091 24.6563C41.6957 24.5845 41.8438 24.4402 41.9765 24.2909C42.1034 24.1479 42.224 23.9934 42.2829 23.812C42.3419 23.6305 42.3291 23.4158 42.2086 23.2677C42.1054 23.1414 41.9387 23.0805 41.7765 23.0709C41.6143 23.0612 41.4521 23.0959 41.2931 23.1305C40.7283 23.2536 40.1603 23.3773 39.6243 23.594C39.1326 23.7921 38.3665 24.1479 38.2229 24.7217C38.1639 24.9582 38.2838 25.1429 38.514 25.2153C38.855 25.3224 39.1871 25.1198 39.4878 24.9871Z" fill="#663421"/>
<path d="M43.0905 21.8534C42.9155 22.1592 42.6258 22.4143 42.2873 22.372C42.0552 22.3425 41.8629 22.1771 41.7193 21.9918C41.5769 21.8066 41.4686 21.5956 41.316 21.4181C40.9794 21.0264 40.4281 20.8315 39.9197 20.9257C39.5703 20.9904 39.2087 21.1789 38.8805 21.0437C38.6593 20.9526 38.5241 20.7327 38.4805 20.493C39.3094 19.6935 40.4114 19.3589 41.7859 20.4571C42.0013 20.6289 42.2238 20.8366 42.4527 21.0828C42.6995 21.3482 42.911 21.6046 43.0899 21.8527L43.0905 21.8534Z" fill="#AD8679"/>
<path d="M30.022 14.709C29.9823 15.1084 29.8823 16.1963 29.8284 17.5259C26.9679 17.4663 24.3651 18.6017 24.3535 18.6203C24.4728 18.426 24.5894 18.2388 24.7023 18.06C24.7036 18.0587 24.7042 18.0574 24.7048 18.0561C25.6318 16.5861 26.3274 15.6392 26.3883 15.5578C26.3903 15.5552 26.3915 15.5533 26.3915 15.5527H26.3922V15.5514C26.3922 15.5514 27.2327 15.1302 28.5046 14.8821C28.961 14.793 29.4733 14.7263 30.0214 14.7096L30.022 14.709Z" fill="#4C70F5" stroke="black" stroke-width="0.569857" stroke-linecap="round" stroke-linejoin="round"/>
<path d="M24.703 18.0592C24.5902 18.2381 24.4735 18.4253 24.3543 18.6195C23.6048 19.8395 22.7477 21.341 21.9643 22.9719C21.1982 21.5525 19.7256 22.3289 19.7256 22.3289C19.9371 21.8057 20.1102 21.4499 20.1102 21.4499C20.7693 22.0942 22.1643 20.4152 23.0522 19.1734C23.0682 19.2048 23.0868 19.2324 23.1073 19.2574C23.3792 19.5844 24.0427 18.9138 24.7024 18.0579L24.703 18.0592Z" fill="#6D1249" stroke="black" stroke-width="0.569857" stroke-linecap="round" stroke-linejoin="round"/>
<path d="M21.162 24.7619C20.2753 26.8935 19.6035 29.1412 19.5009 31.2036C18.6329 32.5076 17.7565 33.4621 17.3347 32.8397C16.3423 31.3773 18.9643 25.3171 18.9643 25.3171C18.9637 25.5479 18.99 25.7595 19.0521 25.9415C19.3015 26.6756 20.2965 25.7627 21.162 24.7626V24.7619Z" fill="#6D1249" stroke="black" stroke-width="0.569857" stroke-linecap="round" stroke-linejoin="round"/>
<path d="M28.3027 37.8055C31.5511 36.7766 34.3412 34.4911 34.3412 34.4911" stroke="black" stroke-width="0.569857" stroke-linecap="round" stroke-linejoin="round"/>
<path d="M39.6492 27.3419C39.1742 27.431 38.7068 27.4817 38.2734 27.4964" stroke="black" stroke-width="0.569857" stroke-linecap="round" stroke-linejoin="round"/>
<path d="M36.6084 23.9534C36.6084 23.9534 37.0386 22.4019 37.897 21.1864" stroke="black" stroke-width="0.569857" stroke-linecap="round" stroke-linejoin="round"/>
<path d="M38.292 24.6483C38.292 24.6483 40.4557 22.1403 42.386 23.627" stroke="black" stroke-width="0.569857" stroke-linecap="round" stroke-linejoin="round"/>
<path d="M40.5552 25.0872C40.5552 25.0872 40.5456 24.0492 40.2129 23.4171" stroke="black" stroke-width="0.569857" stroke-linecap="round" stroke-linejoin="round"/>
<path d="M44.8965 44.7186C44.8965 44.7186 42.159 56.0524 33.639 56.0524C25.7568 56.0524 24.8496 45.3046 24.8496 45.3046C26.4587 44.9641 27.5928 44.6821 27.864 44.4686C27.864 44.4686 27.8384 53.0425 33.8768 53.0425C39.9152 53.0425 42.1597 43.8435 42.1597 43.8435C42.4193 44.0467 43.4412 44.3461 44.8971 44.718L44.8965 44.7186Z" fill="#F5D256" stroke="black" stroke-width="0.569857" stroke-linecap="round" stroke-linejoin="round"/>
<path d="M32.7163 20.1427C32.6554 21.1788 32.5516 22.266 32.4003 23.1559C32.2086 24.2771 31.94 25.0868 31.5842 25.0875C30.3238 25.0894 29.9032 22.793 29.8135 20.3434C29.8135 20.3434 30.9014 19.1414 32.7163 20.1434V20.1427Z" fill="#F5D256" stroke="black" stroke-width="0.569857" stroke-linecap="round" stroke-linejoin="round"/>
<path d="M32.7823 18.109C32.7816 18.6033 32.7662 19.177 32.7367 19.779C32.7348 19.8188 32.7329 19.8592 32.731 19.8996C32.731 19.9028 32.7303 19.906 32.7303 19.9098C32.7303 19.9188 32.7297 19.9278 32.7291 19.9361C32.7258 20.0047 32.722 20.0733 32.7175 20.1425C30.9019 19.1411 29.8147 20.3425 29.8147 20.3425C29.7794 19.3841 29.7948 18.402 29.83 17.525C29.8839 16.1953 29.9839 15.1074 30.0237 14.708C29.4749 14.7247 28.9633 14.7913 28.5068 14.8805C28.5068 14.8805 28.6261 14.1105 29.1601 13.5823C29.23 13.5124 29.3069 13.4476 29.3915 13.3893C29.4082 13.3765 29.4255 13.3656 29.4428 13.3547C29.4441 13.354 29.4448 13.3534 29.446 13.3527C29.4672 13.3386 29.4883 13.3265 29.5108 13.3143C29.5255 13.3066 29.5403 13.2983 29.5544 13.2906C29.5685 13.2835 29.5826 13.2758 29.5973 13.2688C29.8538 13.1412 30.1698 13.0726 30.5551 13.1021C31.652 13.1886 32.1828 13.9727 32.4598 14.9959H32.4604C32.6258 15.6055 32.7015 16.2998 32.7521 16.9813C32.7733 17.2634 32.7842 17.6525 32.7823 18.109Z" fill="#6D1249" stroke="black" stroke-width="0.569857" stroke-linecap="round" stroke-linejoin="round"/>
<path d="M30.0391 14.5441C30.0391 14.5441 30.0334 14.6018 30.0225 14.7082" stroke="black" stroke-width="0.569857" stroke-linecap="round" stroke-linejoin="round"/>
<path d="M34.8453 26.4996C34.7325 27.0349 34.5735 27.3939 34.3581 27.4945C33.067 28.0972 32.4073 23.1589 32.4073 23.1589C32.5573 22.2684 32.6586 21.1798 32.7163 20.1432C32.7201 20.0739 32.724 20.0053 32.7278 19.9367C32.7285 19.9284 32.7291 19.9194 32.7291 19.9105C32.7291 19.9072 32.7297 19.904 32.7297 19.9002C32.7317 19.8598 32.7336 19.8194 32.7355 19.7797C32.7631 19.179 32.7772 18.6058 32.7772 18.1116C32.7778 17.8583 32.7746 17.6256 32.7669 17.4198C32.7618 17.2557 32.7541 17.1095 32.7445 16.9839C32.6919 16.3024 32.615 15.6081 32.4489 14.9991H32.4483C32.1681 13.9772 31.6367 13.1931 30.5385 13.1091C30.2673 13.088 30.0308 13.1168 29.825 13.1803C29.7442 13.2047 29.6679 13.2348 29.5961 13.2694C29.5813 13.2765 29.5666 13.2841 29.5531 13.2912C29.5384 13.2989 29.5236 13.3072 29.5095 13.3149C29.4871 13.3271 29.466 13.3393 29.4448 13.3534C29.4435 13.354 29.4429 13.3547 29.4416 13.3553C29.4243 13.3662 29.407 13.3771 29.3903 13.3899C29.3057 13.447 29.2281 13.5111 29.1576 13.5797C29.1531 13.5842 29.1493 13.588 29.1448 13.5925C29.1448 13.5887 29.1428 13.5701 29.1409 13.5399C29.1326 13.3752 29.1249 12.8572 29.3307 12.3308C29.5301 11.8218 29.9275 11.3083 30.7135 11.0987C30.9437 11.0371 31.2078 11.0019 31.5097 11.0006C31.9893 10.9987 32.4053 11.1288 32.7631 11.3513C33.6228 11.8853 34.1536 12.9546 34.4447 14.0246V14.0259C34.5652 14.467 34.644 14.9087 34.6896 15.3126C34.8562 16.8044 35.4108 23.8384 34.846 26.4989L34.8453 26.4996Z" fill="#6D1249" stroke="black" stroke-width="0.569857" stroke-linecap="round" stroke-linejoin="round"/>
<path d="M24.7051 18.0554C25.5193 16.9983 26.3277 15.6584 26.3886 15.5571" stroke="black" stroke-width="0.569857" stroke-linecap="round" stroke-linejoin="round"/>
<path d="M29.1416 13.5397C29.1499 13.5596 29.1563 13.573 29.1583 13.5794" stroke="black" stroke-width="0.569857" stroke-linecap="round" stroke-linejoin="round"/>
<path d="M29.8291 17.5259C29.8829 16.1963 29.9829 15.1084 30.0227 14.709C29.4739 14.7257 28.9623 14.7923 28.5059 14.8815" stroke="black" stroke-width="0.569857" stroke-linecap="round" stroke-linejoin="round"/>
<path d="M36.978 29.018C35.9227 29.154 35.2477 27.7987 34.8457 26.4998C35.0823 25.3843 35.122 23.5002 35.0765 21.5776C35.0765 21.5776 36.192 19.8267 37.8915 20.9794C37.8934 21.0487 37.8954 21.1173 37.8973 21.1865C38.0101 25.201 37.6697 28.9289 36.978 29.0187V29.018Z" fill="#F5D256" stroke="black" stroke-width="0.569857" stroke-linecap="round" stroke-linejoin="round"/>
<path d="M37.8914 20.979C37.1811 20.4969 36.5721 20.5225 36.1053 20.7161C35.454 20.9841 35.0764 21.5771 35.0764 21.5771C35.0136 18.9147 34.786 16.1785 34.6892 15.3124C34.5757 14.2956 34.2449 13.0397 33.5942 12.1467C33.5903 12.1403 33.5859 12.1338 33.5807 12.1281C33.5448 12.0787 33.5076 12.0319 33.4698 11.9858C33.264 11.7332 33.0294 11.5158 32.7627 11.3511C32.7627 11.3511 33.3865 10.6177 34.3084 10.6337C34.3834 10.6343 34.4609 10.6401 34.5404 10.6529C35.0219 10.7254 35.5707 11.0126 36.1464 11.696C36.2945 11.8716 36.4323 12.1024 36.5605 12.3794C36.6477 12.5666 36.7298 12.7743 36.8073 13.0006C37.4209 14.7822 37.7658 17.7165 37.878 20.5898C37.8831 20.72 37.8882 20.8501 37.8921 20.979H37.8914Z" fill="#6D1249" stroke="black" stroke-width="0.569857" stroke-linecap="round" stroke-linejoin="round"/>
<path d="M29.1586 13.5822C28.6245 14.1111 28.5053 14.881 28.5053 14.881C27.2334 15.1291 26.3929 15.5503 26.3929 15.5503C26.3929 15.5503 26.3929 15.551 26.3923 15.5516C26.3923 15.5523 26.391 15.5542 26.3891 15.5567C26.3474 15.6132 26.0057 16.078 25.4947 16.8402C24.8594 15.2433 23.7824 15.8414 23.751 15.8593C24.0433 15.1984 24.3966 14.5304 24.7748 13.9438C25.3678 13.0238 26.0236 12.3019 26.6038 12.1147C27.3398 11.8762 27.9046 12.084 28.3123 12.4128C28.8066 12.8097 29.0727 13.3802 29.14 13.5405C29.1419 13.5706 29.1438 13.5892 29.1438 13.5931C29.1477 13.5892 29.1515 13.5854 29.1566 13.5809C29.1573 13.5815 29.1579 13.5822 29.1579 13.5828L29.1586 13.5822Z" fill="#6D1249" stroke="black" stroke-width="0.569857" stroke-linecap="round" stroke-linejoin="round"/>
<path d="M29.3308 12.3306C29.125 12.8569 29.1327 13.3749 29.1411 13.5397C29.018 13.2473 28.2339 11.5856 26.6049 12.1145C24.8669 12.6774 22.4532 18.0196 23.0533 19.1742C22.1654 20.416 20.7704 22.0944 20.1113 21.4507C19.4273 20.784 20.6037 16.8624 22.3853 13.9698C23.2341 12.5915 24.2201 11.4471 25.208 11.0003C26.178 10.5618 26.9453 10.5304 27.5422 10.6945C28.8135 11.0433 29.3103 12.2761 29.3315 12.3299L29.3308 12.3306Z" fill="#6D1249" stroke="black" stroke-width="0.569857" stroke-linecap="round" stroke-linejoin="round"/>
<path d="M34.5402 10.6524C33.492 10.4934 32.7625 11.3506 32.7625 11.3506C32.4041 11.1275 31.9887 10.998 31.5091 10.9999C30.1776 11.0056 29.5884 11.673 29.3301 12.3295C29.3301 12.2891 29.3378 9.96388 31.1149 9.55679C33.2888 9.05994 34.5402 10.6518 34.5402 10.6518V10.6524Z" fill="#6D1249" stroke="black" stroke-width="0.569857" stroke-linecap="round" stroke-linejoin="round"/>
<path d="M29.3301 12.3305L29.3309 12.3329" stroke="black" stroke-width="0.569857" stroke-linecap="round" stroke-linejoin="round"/>
<path d="M43.5474 36.2405C43.5013 37.5541 43.2621 38.601 42.6217 38.6119C40.9164 38.6394 40.1926 32.3144 40.1708 32.1163C40.1702 32.1131 40.1702 32.1119 40.1702 32.1119C40.006 30.213 39.8868 28.641 39.8291 27.8557C40.5048 29.7373 41.8799 33.0607 42.8512 32.0619C43.0063 31.9022 43.1025 31.5298 43.1467 30.9932C43.1467 30.9932 43.6256 34.0044 43.5474 36.2405Z" fill="#6D1249" stroke="black" stroke-width="0.569857" stroke-linecap="round" stroke-linejoin="round"/>
<path d="M45.8807 40.0329C44.2126 39.9701 43.5472 36.2396 43.5472 36.2396C43.6254 34.0035 43.1465 30.9923 43.1465 30.9923C43.1856 30.5185 43.1843 29.9178 43.1478 29.2229C43.8895 30.7461 45.0403 32.8091 45.9743 33.1573C45.9942 33.2451 47.538 40.0945 45.8801 40.0329H45.8807Z" fill="#6D1249" stroke="black" stroke-width="0.569857" stroke-linecap="round" stroke-linejoin="round"/>
<path d="M25.2759 24.8262C25.2759 24.8262 23.3302 27.8265 24.1188 28.3188C24.9067 28.8112 25.7689 27.9989 25.7689 27.9989" stroke="black" stroke-width="0.569857" stroke-linecap="round" stroke-linejoin="round"/>
<path d="M25.9159 30.9538C25.9159 30.9538 28.5873 31.8648 30.0221 29.8703C30.0221 29.8703 30.8324 32.8501 28.6495 33.2329C25.4973 33.7855 25.9159 30.9538 25.9159 30.9538Z" fill="white" stroke="black" stroke-width="0.569857" stroke-linecap="round" stroke-linejoin="round"/>
<path d="M25.8799 49.6643C26.4325 49.2918 26.9845 48.92 27.5371 48.5475" stroke="black" stroke-width="0.569857" stroke-linecap="round" stroke-linejoin="round"/>
<path d="M28.6982 54.1491C29.0175 53.8202 29.3368 53.4913 29.6554 53.1631" stroke="black" stroke-width="0.569857" stroke-linecap="round" stroke-linejoin="round"/>
<path d="M34.082 55.7047L34.3417 54.1282" stroke="black" stroke-width="0.569857" stroke-linecap="round" stroke-linejoin="round"/>
<path d="M39.2329 53.8846C38.9835 53.5455 38.7347 53.207 38.4854 52.8678" stroke="black" stroke-width="0.569857" stroke-linecap="round" stroke-linejoin="round"/>
<path d="M42.3774 50.0144C41.9684 49.806 41.5594 49.5977 41.1504 49.3887" stroke="black" stroke-width="0.569857" stroke-linecap="round" stroke-linejoin="round"/>
<path d="M44.3763 45.7519C43.8173 45.7031 43.2582 45.6544 42.6992 45.6057" stroke="black" stroke-width="0.569857" stroke-linecap="round" stroke-linejoin="round"/>
<path d="M32.5547 24.0524C32.5547 24.0524 33.3881 22.3125 35.087 23.9017" stroke="black" stroke-width="0.569857" stroke-linecap="round" stroke-linejoin="round"/>
<path d="M32.7559 25.004C33.0892 24.5969 33.8425 24.0372 35.0247 25.0944" stroke="#F5D256" stroke-width="0.569857" stroke-linecap="round" stroke-linejoin="round"/>
<path d="M37.9948 21.0514C37.9602 21.0258 37.9256 21.0014 37.8916 20.979" stroke="black" stroke-width="0.569857" stroke-linecap="round" stroke-linejoin="round"/>
<path d="M21.9638 22.9719C21.6837 23.554 21.4131 24.1534 21.1606 24.7612C20.2951 25.7613 19.3001 26.6748 19.0507 25.9402C18.9892 25.7587 18.9623 25.5472 18.9629 25.3157C18.9635 24.39 19.3918 23.1514 19.7252 22.3282C19.7252 22.3282 21.1977 21.5512 21.9638 22.9713V22.9719Z" fill="#F5D256" stroke="black" stroke-width="0.569857" stroke-linecap="round" stroke-linejoin="round"/>
<path d="M25.4954 16.8402C25.4954 16.8402 25.4954 16.8409 25.4947 16.8409C25.2627 17.1877 24.996 17.5961 24.7062 18.0551C24.7056 18.0564 24.7049 18.0576 24.7036 18.0589C24.044 18.9148 23.3804 19.5854 23.1086 19.2584C23.0881 19.2334 23.0695 19.2052 23.0535 19.1744C22.7816 18.6513 23.1291 17.2685 23.751 15.8593H23.7516C23.783 15.8414 24.8601 15.2433 25.4954 16.8402Z" fill="#F5D256" stroke="black" stroke-width="0.569857" stroke-linecap="round" stroke-linejoin="round"/>
<path d="M25.4949 16.8402L25.4941 16.841C25.4941 16.841 25.4944 16.8407 25.4949 16.8402Z" fill="#F5D256" stroke="black" stroke-width="0.569857" stroke-linecap="round" stroke-linejoin="round"/>
<path d="M20.373 18.4114C20.373 18.4114 21.8117 17.5062 22.79 19.5327" stroke="black" stroke-width="0.569857" stroke-linecap="round" stroke-linejoin="round"/>
<path d="M17.6641 28.8989C17.6641 28.8989 19.154 28.1155 19.6777 29.6272" stroke="#F5D256" stroke-width="0.569857" stroke-linecap="round" stroke-linejoin="round"/>
<path d="M40.6885 35.1321C40.6872 35.127 41.6636 33.6076 43.5465 34.8872L40.6885 35.1321Z" fill="#6D1249"/>
<path d="M40.6885 35.1321C40.6872 35.127 41.6636 33.6076 43.5465 34.8872" stroke="black" stroke-width="0.569857" stroke-linecap="round" stroke-linejoin="round"/>
<path d="M40.5713 33.9142C40.57 33.9091 41.5464 32.3897 43.4293 33.6694L40.5713 33.9142Z" fill="#6D1249"/>
<path d="M40.5713 33.9142C40.57 33.9091 41.5464 32.3897 43.4293 33.6694" stroke="black" stroke-width="0.569857" stroke-linecap="round" stroke-linejoin="round"/>
<path d="M33.6704 11.8869L33.5806 12.1292C33.5447 12.0799 33.5076 12.0331 33.4697 11.9869C33.5319 11.9465 33.5992 11.9126 33.6697 11.8876L33.6704 11.8869Z" fill="#450832"/>
<path d="M36.1059 20.7166C35.4545 20.9846 35.0769 21.5776 35.0769 21.5776C35.0141 18.9151 34.7865 16.179 34.6897 15.3129C34.5762 14.2961 34.2454 13.0402 33.5947 12.1472C33.7742 11.9696 34.0922 11.9779 34.3102 12.1145C34.5429 12.2606 34.6865 12.5126 34.8057 12.76C35.5494 14.298 35.7424 16.036 35.9244 17.7355C36.0309 18.726 36.1366 19.7242 36.1052 20.7166H36.1059Z" fill="#450832"/>
<path d="M42.8234 26.0328C41.9926 26.6964 40.8002 27.1285 39.6488 27.3419C39.7013 27.4945 39.7616 27.6676 39.8283 27.8555C39.886 28.6408 40.0052 30.2127 40.1693 32.1116C40.1693 32.1116 40.1693 32.1129 40.17 32.1161C40.6187 37.3282 41.4015 43.2493 42.1593 43.8449C42.1593 43.8449 39.9148 53.0439 33.8764 53.0439C27.838 53.0439 27.8636 44.4699 27.8636 44.4699C29.0188 43.5622 28.3021 37.8058 28.3021 37.8058C25.6006 38.6623 22.5823 38.6488 20.5866 35.7319C19.7134 34.4561 19.416 32.8925 19.4999 31.2045C19.6019 29.1415 20.2737 26.8938 21.161 24.7622C22.122 22.4504 23.3375 20.2752 24.3543 18.6205C24.3658 18.602 26.968 17.4666 29.8292 17.5262C29.7035 20.6451 29.8318 25.0911 31.5851 25.0879C31.9409 25.0872 32.2096 24.2782 32.4012 23.1563C32.5532 22.2664 32.6564 21.1791 32.7173 20.1431C32.6596 21.1798 32.5583 22.2683 32.4083 23.1588C32.4083 23.1588 33.0673 28.0978 34.3591 27.4945C34.5745 27.3939 34.7342 27.0349 34.8464 26.4995C35.2483 27.799 35.9234 29.1537 36.9786 29.0177C37.6704 28.928 38.0108 25.2007 37.8979 21.1855C37.93 21.14 37.9627 21.0952 37.9954 21.0509C38.8589 19.8982 40.1238 19.1276 41.7881 20.4573C42.0035 20.6291 42.2259 20.8368 42.4548 21.083C44.5569 23.3447 44.1454 24.9795 42.8241 26.0322L42.8234 26.0328Z" stroke="black" stroke-width="0.569857" stroke-linecap="round" stroke-linejoin="round"/>
<path d="M35.0708 10.0819L34.9746 10.0844C35.0067 10.0819 35.0381 10.0806 35.0708 10.0819Z" fill="#961E6C"/>
<path d="M36.8071 13.001C36.7796 13.2087 36.7411 13.4145 36.6936 13.6184C36.6488 13.81 36.5597 14.0344 36.3661 14.0671C36.2257 14.0908 36.0885 13.9947 36.0141 13.8735C35.9397 13.7523 35.9141 13.6087 35.8807 13.4703C35.7288 12.8388 35.389 12.2541 34.9165 11.8086C34.6922 11.5976 34.4287 11.4027 34.3229 11.1136C34.2665 10.9604 34.2633 10.7899 34.3088 10.6334C34.3838 10.6341 34.4614 10.6398 34.5409 10.6527C35.0223 10.7251 35.5711 11.0123 36.1468 11.6957C36.2949 11.8714 36.4327 12.1022 36.5609 12.3791C36.6481 12.5663 36.7302 12.774 36.8078 13.0003L36.8071 13.001Z" fill="#961E6C"/>
<path d="M34.8453 26.4995C34.7325 27.0349 34.5735 27.3939 34.3581 27.4945C33.067 28.0971 32.4073 23.1588 32.4073 23.1588C32.5573 22.2684 32.6586 21.1798 32.7163 20.1431C32.7201 20.0739 32.724 20.0053 32.7278 19.9367C32.7285 19.9284 32.7291 19.9194 32.7291 19.9104C32.7291 19.9072 32.7297 19.904 32.7297 19.9002C32.7317 19.8598 32.7336 19.8194 32.7355 19.7796C32.7631 19.1789 32.7772 18.6058 32.7772 18.1115C32.7785 17.6551 32.7663 17.2659 32.7445 16.9838C32.6919 16.3024 32.615 15.6081 32.4489 14.999H32.4483C32.1681 13.9771 31.6367 13.1931 30.5385 13.1091C30.1603 13.0796 29.85 13.1469 29.5961 13.2687C29.5813 13.2758 29.5666 13.2835 29.5531 13.2905C29.5384 13.2982 29.5237 13.3066 29.5095 13.3142C29.4871 13.3264 29.466 13.3386 29.4448 13.3527C29.4435 13.3534 29.4429 13.354 29.4416 13.3546C29.4243 13.3655 29.407 13.3764 29.3903 13.3893C29.3057 13.4463 29.2281 13.5104 29.1576 13.579C29.1531 13.5835 29.1493 13.5874 29.1448 13.5918C29.1448 13.588 29.1428 13.5694 29.1409 13.5393C29.1326 13.3745 29.1249 12.8565 29.3307 12.3302C29.5884 11.6731 30.1776 11.005 31.5097 10.9999C31.9893 10.998 32.4053 11.1281 32.7631 11.3506C33.9779 12.1045 34.5344 13.9297 34.6889 15.3125C34.8556 16.8043 35.4101 23.8384 34.8453 26.4989V26.4995Z" stroke="black" stroke-width="0.569857" stroke-linecap="round" stroke-linejoin="round"/>
<path d="M21.162 24.7619C20.2753 26.8935 19.6035 29.1412 19.5009 31.2036C18.6329 32.5076 17.7565 33.4621 17.3347 32.8396C16.3423 31.3773 18.9643 25.3171 18.9643 25.3171C18.9637 25.5479 18.99 25.7595 19.0521 25.9415C19.3015 26.6756 20.2965 25.7627 21.162 24.7626V24.7619Z" stroke="black" stroke-width="0.569857" stroke-linecap="round" stroke-linejoin="round"/>
<path d="M43.5469 36.2402C43.5469 36.2402 44.9983 34.6413 46.4568 35.8434" stroke="#F5D256" stroke-width="0.569857" stroke-linecap="round" stroke-linejoin="round"/>
<path d="M34.4438 14.0246V14.0259C34.4438 14.1778 34.4297 14.331 34.4021 14.4817C34.3887 14.5522 34.3669 14.6304 34.3034 14.6638C34.2271 14.7042 34.1342 14.6574 34.0649 14.6054C33.6296 14.2855 33.3758 13.7842 33.0975 13.322C32.818 12.8597 32.4635 12.393 31.9474 12.2347C31.7435 12.1725 31.5275 12.1622 31.3185 12.1206C31.1095 12.0789 30.896 11.9956 30.7665 11.8269C30.6242 11.6398 30.612 11.3743 30.6915 11.1532C30.6979 11.1346 30.7056 11.1166 30.7133 11.0987C30.9435 11.0371 31.2076 11.0019 31.5095 11.0006C31.9891 10.9987 32.4051 11.1288 32.7629 11.3513C33.6226 11.8853 34.1534 12.9546 34.4444 14.0246H34.4438Z" fill="#961E6C"/>
<path d="M27.5407 10.6945C27.5221 10.7169 27.5023 10.7381 27.4817 10.758C27.3035 10.9285 27.0657 11.0195 26.8387 11.1183C25.5309 11.6888 24.4019 12.6646 23.648 13.8756C23.5179 14.0846 23.3749 14.3192 23.1364 14.3808C22.8191 14.4635 22.5659 14.2333 22.3838 13.9698C23.2326 12.5915 24.2186 11.4471 25.2065 11.0003C26.1765 10.5618 26.9439 10.5304 27.5407 10.6945Z" fill="#961E6C"/>
<path d="M28.3136 12.4122C28.195 12.7494 27.8263 12.9783 27.4712 13.095C27.0583 13.2315 26.6019 13.2956 26.2711 13.5783C25.9941 13.8155 25.8063 14.2047 25.4473 14.2726C25.185 14.3233 24.9299 14.1675 24.7754 13.9438C25.3684 13.0238 26.0242 12.3019 26.6044 12.1147C27.3404 11.8762 27.9052 12.084 28.3129 12.4128L28.3136 12.4122Z" fill="#961E6C"/>
<path d="M45.8807 40.0329C44.2126 39.9701 43.5472 36.2396 43.5472 36.2396C43.6254 34.0035 43.1465 30.9923 43.1465 30.9923C43.1856 30.5185 43.1843 29.9178 43.1478 29.2229C43.8895 30.7461 45.0403 32.8091 45.9743 33.1573C45.9942 33.2451 47.538 40.0945 45.8801 40.0329H45.8807Z" stroke="black" stroke-width="0.569857" stroke-linecap="round" stroke-linejoin="round"/>
<path d="M39.4792 26.5069C39.8238 26.5069 40.103 26.2276 40.103 25.8831C40.103 25.5386 39.8238 25.2594 39.4792 25.2594C39.1347 25.2594 38.8555 25.5386 38.8555 25.8831C38.8555 26.2276 39.1347 26.5069 39.4792 26.5069Z" fill="#4C70F5" stroke="black" stroke-width="0.569857" stroke-linecap="round" stroke-linejoin="round"/>
<path d="M40.6221 29.918C41.2958 29.7485 41.6587 28.883 41.4327 27.9847C41.2068 27.0865 40.4775 26.4957 39.8038 26.6651C39.1301 26.8346 38.7672 27.7002 38.9931 28.5984C39.2191 29.4967 39.9484 30.0875 40.6221 29.918Z" fill="#4C70F5" stroke="black" stroke-width="0.569857" stroke-linecap="round" stroke-linejoin="round"/>
<path d="M33.4416 17.1053C33.4191 17.2329 33.3903 17.3624 33.314 17.4669C33.2377 17.5701 33.1012 17.64 32.9781 17.6009C32.8877 17.5727 32.8249 17.4938 32.7672 17.4201C32.762 17.256 32.7543 17.1098 32.7447 16.9842C32.6921 16.3027 32.6152 15.6084 32.4492 14.9993H32.4485C32.1684 13.9774 31.6369 13.1934 30.5387 13.1094C30.2675 13.0883 30.031 13.1171 29.8252 13.1806C29.847 13.0703 29.8951 12.9645 29.9637 12.8754L29.8976 12.8831C30.297 12.4914 30.9118 12.36 31.4568 12.4863C32.0011 12.6139 32.4742 12.9767 32.8005 13.4306C33.1268 13.8851 33.3172 14.4256 33.4243 14.975C33.5602 15.6763 33.566 16.4021 33.4416 17.1047V17.1053Z" fill="#450832"/>
<path d="M27.6163 11.6878C27.2118 11.5365 26.7553 11.5608 26.345 11.6948C25.9341 11.8288 25.5642 12.0654 25.2251 12.3327C24.1307 13.1963 23.3191 14.4111 22.9396 15.7523C22.8966 15.9036 22.8646 16.0831 22.9646 16.2049C23.0729 16.337 23.2903 16.3235 23.4294 16.2235C23.5678 16.1235 23.6473 15.9638 23.7243 15.8113C24.1865 14.8913 24.7327 14.0143 25.3533 13.1931C25.5975 12.8706 25.8565 12.5532 26.1777 12.3071C26.4919 12.0673 26.8784 11.8936 27.2798 11.8981C27.499 11.9 27.6779 11.9692 27.876 12.0506C27.9696 12.0891 28.1016 12.159 28.1952 12.1077C28.1036 11.9102 27.8131 11.7609 27.6163 11.6878Z" fill="#450832"/>
<path d="M29.1586 13.5826C28.6245 14.1115 28.5053 14.8814 28.5053 14.8814C27.2334 15.1295 26.3929 15.5507 26.3929 15.5507C26.3929 15.5507 26.3929 15.5514 26.3923 15.552C26.3923 15.5526 26.391 15.5546 26.3891 15.5571C26.3474 15.6135 26.0057 16.0783 25.4947 16.8406C24.8594 15.2436 23.7824 15.8418 23.751 15.8597C24.5017 14.1595 25.6537 12.4228 26.6045 12.1151C28.2335 11.5862 29.0175 13.2479 29.1406 13.5403C29.1425 13.5704 29.1445 13.589 29.1445 13.5928C29.1483 13.589 29.1522 13.5851 29.1573 13.5806C29.1579 13.5813 29.1586 13.5819 29.1586 13.5826Z" stroke="black" stroke-width="0.569857" stroke-linecap="round" stroke-linejoin="round"/>
<path d="M29.3308 12.3308C29.125 12.8571 29.1327 13.3751 29.141 13.5399C29.0179 13.2475 28.2339 11.5858 26.6049 12.1147C24.8669 12.6776 22.4532 18.0198 23.0532 19.1744C22.1653 20.4162 20.7703 22.0946 20.1113 21.4509C19.1015 20.4668 22.1467 12.3853 25.2079 11.0005C28.2428 9.62665 29.3 12.2513 29.3314 12.3301L29.3308 12.3308Z" stroke="black" stroke-width="0.569857" stroke-linecap="round" stroke-linejoin="round"/>
<path d="M34.8453 26.4995C34.7325 27.0349 34.5735 27.3939 34.3581 27.4945C33.067 28.0971 32.4073 23.1588 32.4073 23.1588C32.5573 22.2684 32.6586 21.1798 32.7163 20.1431C32.7201 20.0739 32.724 20.0053 32.7278 19.9367C32.7285 19.9284 32.7291 19.9194 32.7291 19.9104C32.7291 19.9072 32.7297 19.904 32.7297 19.9002C32.7317 19.8598 32.7336 19.8194 32.7355 19.7796C32.7631 19.1789 32.7772 18.6058 32.7772 18.1115C32.7785 17.6551 32.7663 17.2659 32.7445 16.9838C32.6919 16.3024 32.615 15.6081 32.4489 14.999H32.4483C32.1681 13.9771 31.6367 13.1931 30.5385 13.1091C30.1603 13.0796 29.85 13.1469 29.5961 13.2687C29.5813 13.2758 29.5666 13.2835 29.5531 13.2905C29.5384 13.2982 29.5237 13.3066 29.5095 13.3142C29.4871 13.3264 29.466 13.3386 29.4448 13.3527C29.4435 13.3534 29.4429 13.354 29.4416 13.3546C29.4243 13.3655 29.407 13.3764 29.3903 13.3893C29.3057 13.4463 29.2281 13.5104 29.1576 13.579C29.1531 13.5835 29.1493 13.5874 29.1448 13.5918C29.1448 13.588 29.1428 13.5694 29.1409 13.5393C29.1326 13.3745 29.1249 12.8565 29.3307 12.3302C29.5884 11.6731 30.1776 11.005 31.5097 10.9999C31.9893 10.998 32.4053 11.1281 32.7631 11.3506C33.9779 12.1045 34.5344 13.9297 34.6889 15.3125C34.8556 16.8043 35.4101 23.8384 34.8453 26.4989V26.4995Z" stroke="black" stroke-width="0.569857" stroke-linecap="round" stroke-linejoin="round"/>
<path d="M37.8908 20.9792C36.1912 19.8265 35.0757 21.5773 35.0757 21.5773C35.0129 18.9149 34.7853 16.1787 34.6885 15.3126C34.534 13.9298 33.9776 12.1052 32.7627 11.3507C32.7627 11.3507 33.4923 10.4923 34.5404 10.6525C35.0219 10.725 35.5707 11.0122 36.1464 11.6956C36.2945 11.8712 36.4323 12.102 36.5605 12.379C37.3292 14.0343 37.751 17.3506 37.878 20.5894C37.8831 20.7196 37.8882 20.8497 37.8921 20.9786L37.8908 20.9792Z" stroke="black" stroke-width="0.569857" stroke-linecap="round" stroke-linejoin="round"/>
</g>
<defs>
<clipPath id="clip0_1609_37985">
<rect width="64" height="64" rx="32" fill="white"/>
</clipPath>
</defs>
</svg>
