<svg width="64" height="64" viewBox="0 0 64 64" fill="none" xmlns="http://www.w3.org/2000/svg">
<g clip-path="url(#clip0_1609_38437)">
<rect y="-0.000434875" width="64" height="64" rx="32" fill="#E2E4E9"/>
<path d="M41.5988 22.8539C40.6641 23.9585 39.0543 24.9797 38.0395 25.5612C38.0395 25.5612 38.044 25.6356 38.0517 25.774C38.1023 26.6273 38.3043 29.9155 38.6062 33.212C38.746 34.7422 38.9075 36.2738 39.0851 37.5643C39.1063 37.7175 39.1274 37.8676 39.1492 38.0137C39.2101 38.4247 39.2723 38.8048 39.3364 39.1459C39.4089 39.5344 39.4839 39.8729 39.5602 40.1473C39.6653 40.523 39.7204 40.9897 39.73 41.5231C38.4703 43.5976 35.7502 46.7101 32.5537 46.6614C30.992 46.6383 29.6771 45.9613 28.6174 45.0612C27.6154 44.2111 26.8409 43.1617 26.2999 42.277V36.1462C25.4312 36.4104 24.5381 36.552 23.6624 36.4931C23.0739 36.4533 22.4924 36.3232 21.9321 36.0802C17.6567 34.2236 20.6403 22.3852 21.4423 19.8106H21.443C21.4615 19.8061 22.2405 19.6189 23.4746 19.3651C26.4838 18.7464 32.2011 17.7316 36.1919 18.0059C36.8124 18.0483 37.3913 18.122 37.9119 18.2335H37.9126C38.2889 18.0822 38.6601 18.0162 38.9813 18.1092C39.3294 18.2098 39.8018 18.4932 40.2686 18.8868C40.3045 18.9169 40.341 18.9484 40.3769 18.9798C41.5366 19.9997 42.6034 21.6666 41.5988 22.8539Z" fill="#CC927A" stroke="black" stroke-width="0.569857" stroke-linecap="round" stroke-linejoin="round"/>
<mask id="mask0_1609_38437" style="mask-type:luminance" maskUnits="userSpaceOnUse" x="1" y="41" width="63" height="29">
<path d="M63.4396 52.284C63.4396 52.284 51.3628 70.7038 32.9174 69.3351C14.4719 67.9663 1.88477 52.284 1.88477 52.284C1.88477 52.284 6.13583 48.8061 8.14501 47.338C9.27717 46.511 12.2223 45.9045 14.7527 45.3487C16.7157 44.9179 18.4281 44.5178 18.8499 44.0684C19.816 43.0414 22.1137 41.4797 22.1137 41.4797C23.0023 42.417 24.1928 47.2168 28.1855 49.444C29.3965 50.1203 30.8659 50.5588 32.6622 50.5813C34.9201 50.5531 36.6607 49.8671 38.0224 48.8798C41.315 46.4924 42.3914 42.3439 43.2107 41.4797C43.2107 41.4797 45.5084 43.0414 46.4745 44.0684C46.8963 44.5178 48.6087 44.9179 50.5717 45.3487C53.1021 45.9045 56.0472 46.511 57.1794 47.338C59.1886 48.8061 63.4396 52.284 63.4396 52.284Z" fill="white"/>
</mask>
<g mask="url(#mask0_1609_38437)">
<path d="M63.4396 52.2836C63.4396 52.2836 51.3628 70.7034 32.9174 69.3347C14.4719 67.966 1.88477 52.2836 1.88477 52.2836C1.88477 52.2836 6.13583 48.8057 8.14501 47.3376C9.27717 46.5106 12.2223 45.9041 14.7527 45.3483C16.7157 44.9175 18.4281 44.5174 18.8499 44.068C19.816 43.041 22.1137 41.4793 22.1137 41.4793C23.0023 42.4166 24.1928 47.2164 28.1855 49.4436C29.3965 50.1199 30.8659 50.5584 32.6622 50.5809C34.9201 50.5527 36.6607 49.8667 38.0224 48.8794C41.315 46.492 42.3914 42.3435 43.2107 41.4793C43.2107 41.4793 45.5084 43.041 46.4745 44.068C46.8963 44.5174 48.6087 44.9175 50.5717 45.3483C53.1021 45.9041 56.0472 46.5106 57.1794 47.3376C59.1886 48.8057 63.4396 52.2836 63.4396 52.2836Z" fill="#BF9EF9" stroke="black" stroke-width="0.569857" stroke-linecap="round" stroke-linejoin="round"/>
<path d="M43.868 50.97L40.9004 56.0161L47.8613 57.3021L50.3225 50.6392C50.3225 50.6392 47.1222 48.2999 46.9734 48.3396C46.8247 48.3794 43.868 50.9694 43.868 50.9694V50.97Z" fill="#F5D256" stroke="black" stroke-width="0.569857" stroke-linecap="round" stroke-linejoin="round"/>
<path d="M19.498 53.9867L25.0794 58.809L28.681 52.1551L19.498 53.9867Z" fill="#E938B5" stroke="black" stroke-width="0.569857" stroke-linecap="round" stroke-linejoin="round"/>
<path d="M53.8242 61.1935L61.141 60.2543L58.5882 53.1318L53.8242 61.1935Z" fill="#4C70F5" stroke="black" stroke-width="0.569857" stroke-linecap="round" stroke-linejoin="round"/>
<path d="M31.1562 54.1205L38.473 53.1813L35.9202 46.0588L31.1562 54.1205Z" fill="#4C70F5" stroke="black" stroke-width="0.569857" stroke-linecap="round" stroke-linejoin="round"/>
<path d="M5.23828 46.1509L13.8379 50.0891L15.8893 40.6074L5.23828 46.1509Z" fill="#4C70F5" stroke="black" stroke-width="0.569857" stroke-linecap="round" stroke-linejoin="round"/>
<path d="M30.209 61.1091L32.5938 67.4008C32.5938 67.4008 39.0272 63.4497 39.2022 63.3036C39.3772 63.1574 35.7352 58.2159 35.7352 58.2159L30.2096 61.1085L30.209 61.1091Z" fill="#49A2A6" stroke="black" stroke-width="0.569857" stroke-linecap="round" stroke-linejoin="round"/>
<path d="M8.09473 55.0473L10.4796 61.339C10.4796 61.339 16.9129 57.388 17.0879 57.2418C17.263 57.0956 13.6209 52.1541 13.6209 52.1541L8.09537 55.0467L8.09473 55.0473Z" fill="#49A2A6" stroke="black" stroke-width="0.569857" stroke-linecap="round" stroke-linejoin="round"/>
<path d="M55.5186 45.7143C55.334 45.915 53.3018 50.9642 53.3018 50.9642C53.3018 50.9642 64.1394 49.7122 64.2317 49.7532C64.324 49.7942 55.5186 45.7143 55.5186 45.7143Z" fill="#49A2A6" stroke="black" stroke-width="0.569857" stroke-linecap="round" stroke-linejoin="round"/>
<path d="M39.0361 69.4067L43.2103 61.1924C43.2103 61.1924 49.4372 62.1156 49.5301 62.1021C49.6231 62.0887 51.4502 66.191 51.4502 66.191L40.7581 71.5191L39.0361 69.4067Z" fill="#E938B5" stroke="black" stroke-width="0.569857" stroke-linecap="round" stroke-linejoin="round"/>
<path d="M18.6885 49.2803L21.5798 43.59C21.5798 43.59 25.893 44.2298 25.9578 44.2202C26.0225 44.2106 27.2881 47.0525 27.2881 47.0525L19.8815 50.7433L18.6885 49.2797V49.2803Z" fill="#F5D256" stroke="black" stroke-width="0.569857" stroke-linecap="round" stroke-linejoin="round"/>
<path d="M14.1787 68.8677L18.3528 60.6534C18.3528 60.6534 24.5798 61.5765 24.6727 61.5631C24.7657 61.5496 26.5928 65.652 26.5928 65.652L15.9007 70.9801L14.1787 68.8677Z" fill="#4C70F5" stroke="black" stroke-width="0.569857" stroke-linecap="round" stroke-linejoin="round"/>
<path opacity="0.7" d="M4.75941 51.5945C5.23061 51.7413 5.75054 51.5797 6.16148 51.306C6.57241 51.0323 6.90129 50.6559 7.25646 50.3136C8.47902 49.1353 10.0664 48.3416 11.7428 48.0691C12.7948 47.898 13.9501 47.8999 14.7899 47.2434C15.3553 46.8017 15.6951 46.0741 15.6355 45.3586C15.5752 44.6438 15.1015 43.97 14.4347 43.704C13.7045 43.4129 12.8795 43.6123 12.1287 43.8456C10.0817 44.4816 8.10911 45.3516 6.257 46.4299C5.07483 47.1184 3.95484 47.7076 3.78624 49.1789C3.68687 50.0507 3.74585 51.2784 4.76005 51.5945H4.75941Z" fill="#E7DCFF"/>
<path opacity="0.7" d="M54.6254 44.2446C53.9266 44.1754 53.2093 44.1074 52.5316 44.2914C51.854 44.4748 51.2129 44.9671 51.0616 45.6531C50.9001 46.3865 51.3315 47.1353 51.8989 47.6276C53.5619 49.0695 56.1455 48.8431 57.9835 50.0548C58.6156 50.4715 59.2246 51.0767 59.9805 51.0338C60.7619 50.9895 61.3473 50.1984 61.3857 49.4163C61.4242 48.6342 61.0389 47.8911 60.5651 47.268C58.9669 45.1665 56.1871 44.0318 53.5753 44.4145" fill="#E7DCFF"/>
<path opacity="0.7" d="M18.0098 43.7763C18.8906 43.1467 20.1036 43.0147 21.0985 43.441C22.2044 43.9141 22.941 44.9604 23.5917 45.972C24.2424 46.9836 24.9124 48.0556 25.9644 48.6389C26.435 48.8999 27.0921 49.0197 27.4607 48.628C27.7056 48.3684 27.7313 47.9716 27.6896 47.617C27.5928 46.792 27.2133 46.0297 26.8196 45.2982C26.2349 44.2122 25.5804 43.1217 24.5963 42.3781C23.7334 41.7261 22.6436 41.3812 21.5627 41.4177C20.4818 41.4542 19.4176 41.8735 18.6015 42.5826" fill="#835ED3"/>
<path opacity="0.7" d="M37.7244 48.2035C37.4558 48.4939 37.3884 48.9522 37.5609 49.3081C37.7334 49.6639 38.1366 49.8934 38.5302 49.862C38.9078 49.8318 39.2309 49.5921 39.5316 49.3619C41.0959 48.1624 42.6601 46.9636 44.225 45.7641C44.7982 45.3243 45.3771 44.8794 45.8335 44.3191C46.1355 43.9479 46.3804 43.5299 46.706 43.1792C46.8663 43.0068 47.0561 42.8305 47.0817 42.5965C47.1247 42.2061 46.7022 41.9362 46.3291 41.8137C44.4302 41.1906 42.2819 41.7829 40.6792 42.9779C39.0771 44.1723 37.9507 45.8994 37.0596 47.6887" fill="#835ED3"/>
</g>
<path d="M63.4406 52.284C63.4406 52.284 51.3638 70.7038 32.9183 69.3351C14.4729 67.9663 1.88574 52.284 1.88574 52.284C1.88574 52.284 6.13681 48.8061 8.14598 47.338C9.27815 46.511 12.2233 45.9045 14.7537 45.3487C16.7167 44.9179 18.4291 44.5178 18.8509 44.0684C19.817 43.0414 22.1147 41.4797 22.1147 41.4797C23.0032 42.417 24.1937 47.2168 28.1865 49.444C29.3975 50.1203 30.8668 50.5588 32.6632 50.5813C34.9211 50.5531 36.6617 49.8671 38.0233 48.8798C41.316 46.4924 42.3924 42.3439 43.2117 41.4797C43.2117 41.4797 45.5093 43.0414 46.4755 44.0684C46.8973 44.5178 48.6097 44.9179 50.5727 45.3487C53.103 45.9045 56.0482 46.511 57.1804 47.338C59.1896 48.8061 63.4406 52.284 63.4406 52.284Z" stroke="black" stroke-width="0.569857" stroke-linecap="round" stroke-linejoin="round"/>
<path d="M26.2998 36.1464V36.1456" stroke="black" stroke-width="0.569857" stroke-linecap="round" stroke-linejoin="round"/>
<path d="M39.3367 39.1455H39.3359" stroke="black" stroke-width="0.569857" stroke-linecap="round" stroke-linejoin="round"/>
<path d="M22.115 41.4795C22.115 41.4795 19.8173 43.0412 18.8512 44.0682C18.4294 44.5176 16.717 44.9177 14.754 45.3485C14.6848 41.5847 17.9518 39.6999 18.5384 39.3921C18.5223 39.4011 18.507 39.4094 18.4916 39.4184C18.4678 39.4319 18.4448 39.4453 18.423 39.4588C18.4101 39.4659 18.398 39.4736 18.3858 39.4812C18.3557 39.5005 18.3274 39.5191 18.2999 39.5377C18.2505 39.5723 18.205 39.6069 18.1646 39.6422C18.1563 39.6492 18.1486 39.6563 18.1409 39.6633C18.0755 39.7223 18.0249 39.7826 17.989 39.8428C17.9864 39.8473 17.9838 39.8512 17.9819 39.8556C17.9742 39.8691 17.9672 39.8832 17.9614 39.8967C17.9582 39.9037 17.9556 39.9108 17.9531 39.9178C17.9454 39.9377 17.9396 39.9582 17.9357 39.9787C17.9345 39.9839 17.9338 39.9883 17.9332 39.9935C17.9281 40.0275 17.9281 40.0621 17.9338 40.0967C18.1588 41.4795 20.9572 40.2576 22.115 41.4795Z" fill="#835ED3" stroke="black" stroke-width="0.569857" stroke-linecap="round" stroke-linejoin="round"/>
<path d="M26.2989 39.9649V42.2766C25.7553 41.3874 25.4469 40.6643 25.3802 40.4745C25.1764 39.8963 26.2989 39.9649 26.2989 39.9649Z" fill="black" stroke="black" stroke-width="0.569857" stroke-linecap="round" stroke-linejoin="round"/>
<path d="M39.7296 41.5233C39.7199 40.9899 39.6648 40.5232 39.5597 40.1475C39.4834 39.8732 39.4084 39.5347 39.3359 39.1462C39.3686 39.1442 40.3072 39.0936 40.4739 39.777C40.5239 39.9809 40.2521 40.663 39.7296 41.5233Z" fill="black" stroke="black" stroke-width="0.569857" stroke-linecap="round" stroke-linejoin="round"/>
<path d="M47.3925 40.0967C47.3444 40.3896 47.1816 40.5659 46.9431 40.6724C46.9431 40.6724 46.9431 40.673 46.9424 40.6724C46.0545 41.0718 44.1236 40.5166 43.2113 41.4795C42.392 42.3437 41.3156 46.4922 38.023 48.8796C36.6613 49.8669 34.9207 50.5528 32.6628 50.581C30.8665 50.5586 29.3971 50.1201 28.1861 49.4438C24.1934 47.2166 23.0029 42.4168 22.1143 41.4795C21.2431 40.5602 19.4442 41.0243 18.5101 40.7211C18.2024 40.6224 17.9889 40.4396 17.9331 40.0967C17.9274 40.062 17.9274 40.0274 17.9325 39.9934C17.9331 39.9883 17.9338 39.9838 17.935 39.9787C17.9389 39.9582 17.9447 39.9377 17.9524 39.9178C17.9549 39.9107 17.9575 39.9037 17.9607 39.8966C17.9665 39.8832 17.9735 39.8691 17.9812 39.8556C17.9831 39.8511 17.9857 39.8473 17.9883 39.8428C18.0242 39.7825 18.0748 39.7223 18.1402 39.6633C18.1479 39.6562 18.1556 39.6492 18.1639 39.6421C18.2043 39.6069 18.2498 39.5722 18.2992 39.5376C18.3268 39.519 18.355 39.5004 18.3851 39.4812C18.3973 39.4735 18.4095 39.4658 18.4223 39.4588C18.4441 39.4453 18.4671 39.4318 18.4909 39.4184C18.5063 39.4094 18.5216 39.4011 18.5377 39.3921C18.546 39.3883 18.5543 39.3831 18.5633 39.3786C18.5768 39.3722 18.5896 39.3652 18.6031 39.3581C18.6069 39.3562 18.6108 39.3543 18.6146 39.3524C18.6172 39.3511 18.6191 39.3498 18.621 39.3491C18.6255 39.3472 18.6274 39.3459 18.6274 39.3459C20.3641 38.4593 24.8223 37.7695 26.0064 37.5977C26.1936 37.5701 26.2993 37.556 26.2993 37.556V39.9652C26.2993 39.9652 25.1768 39.8966 25.3807 40.4749C25.4473 40.6647 25.7557 41.3878 26.2993 42.277C27.4129 44.0983 29.5151 46.6159 32.5532 46.6614C35.7497 46.7101 38.4698 43.5977 39.7295 41.5231C40.252 40.6627 40.5238 39.9806 40.4738 39.7768C40.3072 39.0933 39.3686 39.144 39.3359 39.1459C39.2494 38.6831 39.1654 38.1484 39.0846 37.5644C39.275 37.5906 39.9174 37.6817 40.7662 37.8253C42.6023 38.1343 45.4045 38.6856 46.6982 39.3459C46.6982 39.3459 46.7001 39.3472 46.7046 39.3491C46.7059 39.3498 46.7078 39.3504 46.7091 39.3517C46.7097 39.3517 46.7104 39.3517 46.711 39.3524C46.7149 39.3543 46.7187 39.3562 46.7225 39.3581C46.736 39.3652 46.7488 39.3722 46.7623 39.3786C46.7713 39.3831 46.7796 39.3883 46.7879 39.3921C47.1995 39.6171 47.4322 39.8537 47.3925 40.0967Z" fill="#BF9EF9" stroke="black" stroke-width="0.569857" stroke-linecap="round" stroke-linejoin="round"/>
<path d="M50.5729 45.3484C48.6099 44.9176 46.8975 44.5176 46.4757 44.0681C45.5096 43.0411 43.2119 41.4794 43.2119 41.4794C44.3697 40.2575 47.1681 41.4794 47.3931 40.0966C47.4328 39.8536 47.2001 39.6171 46.7886 39.392C47.3752 39.6998 50.6421 41.5846 50.5729 45.3484Z" fill="#835ED3" stroke="black" stroke-width="0.569857" stroke-linecap="round" stroke-linejoin="round"/>
<path d="M26.0064 37.5977L25.7108 37.9279C24.4408 38.5074 23.1702 39.087 21.8995 39.6665C20.8187 40.1595 19.6775 40.6628 18.5101 40.7211C18.2024 40.6224 17.9889 40.4397 17.9331 40.0967C17.9274 40.0621 17.9274 40.0274 17.9325 39.9935C17.9331 39.9883 17.9338 39.9838 17.935 39.9787C17.9389 39.9582 17.9447 39.9377 17.9524 39.9178C17.9549 39.9108 17.9575 39.9037 17.9607 39.8967C17.9665 39.8832 17.9735 39.8691 17.9812 39.8556C17.9831 39.8511 17.9857 39.8473 17.9883 39.8428C18.0242 39.7825 18.0748 39.7223 18.1402 39.6633C18.1479 39.6562 18.1556 39.6492 18.1639 39.6421C18.2043 39.6069 18.2498 39.5723 18.2992 39.5376C18.3268 39.5191 18.355 39.5005 18.3851 39.4812C18.3973 39.4735 18.4095 39.4658 18.4223 39.4588C18.4441 39.4453 18.4671 39.4319 18.4909 39.4184C18.5063 39.4094 18.5216 39.4011 18.5377 39.3921C18.546 39.3883 18.5543 39.3831 18.5633 39.3787C18.5768 39.3722 18.5896 39.3652 18.6031 39.3581C18.6069 39.3562 18.6108 39.3543 18.6146 39.3524C18.6172 39.3511 18.6191 39.3498 18.621 39.3492C18.6255 39.3472 18.6274 39.346 18.6274 39.346C20.3641 38.4593 24.8223 37.7695 26.0064 37.5977Z" fill="#E7DCFF"/>
<path d="M47.3929 40.0967C47.3448 40.3896 47.182 40.5659 46.9435 40.6724C46.9435 40.6724 46.9435 40.673 46.9429 40.6724C46.8563 40.655 46.7717 40.6281 46.6909 40.5941C46.3973 40.4698 46.1479 40.2621 45.8921 40.0723C44.81 39.269 43.5303 38.7343 42.1988 38.5292C41.6987 38.4523 40.9698 38.3343 40.7666 37.8253C42.6027 38.1343 45.4049 38.6856 46.6986 39.3459C46.6986 39.3459 46.7005 39.3472 46.705 39.3491C46.7063 39.3498 46.7082 39.3504 46.7095 39.3517C46.7101 39.3517 46.7108 39.3517 46.7114 39.3523C46.7153 39.3543 46.7191 39.3562 46.723 39.3581C46.7364 39.3652 46.7493 39.3722 46.7627 39.3786C46.7717 39.3831 46.78 39.3882 46.7884 39.3921C47.1999 39.6171 47.4327 39.8537 47.3929 40.0967Z" fill="#E7DCFF"/>
<path d="M47.3925 40.0967C47.1675 41.4795 44.3691 40.2576 43.2113 41.4795C42.392 42.3437 41.3156 46.4922 38.023 48.8796C36.6613 49.8669 34.9207 50.5528 32.6628 50.581C30.8665 50.5586 29.3971 50.1201 28.1861 49.4438C24.1934 47.2166 23.0029 42.4168 22.1143 41.4795C20.9565 40.2576 18.1581 41.4795 17.9331 40.0967C17.9274 40.062 17.9274 40.0274 17.9325 39.9934C17.9331 39.9883 17.9338 39.9838 17.935 39.9787C17.9389 39.9582 17.9447 39.9377 17.9524 39.9178C17.9549 39.9107 17.9575 39.9037 17.9607 39.8966C17.9665 39.8832 17.9735 39.8691 17.9812 39.8556C17.9831 39.8511 17.9857 39.8473 17.9883 39.8428C18.0242 39.7825 18.0748 39.7223 18.1402 39.6633C18.1479 39.6562 18.1556 39.6492 18.1639 39.6421C18.2043 39.6069 18.2498 39.5722 18.2992 39.5376C18.3268 39.519 18.355 39.5004 18.3851 39.4812C18.3973 39.4735 18.4095 39.4658 18.4223 39.4588C18.4441 39.4453 18.4671 39.4318 18.4909 39.4184C18.5063 39.4094 18.5216 39.4011 18.5377 39.3921C18.546 39.3883 18.5543 39.3831 18.5633 39.3786C18.5768 39.3722 18.5896 39.3652 18.6031 39.3581C18.6069 39.3562 18.6108 39.3543 18.6146 39.3524C18.6172 39.3511 18.6191 39.3498 18.621 39.3491C18.6255 39.3472 18.6274 39.3459 18.6274 39.3459C20.6385 38.3189 26.2993 37.556 26.2993 37.556V39.9652C26.2993 39.9652 25.1768 39.8966 25.3807 40.4749C25.4473 40.6647 25.7557 41.3878 26.2993 42.277C27.4129 44.0983 29.5151 46.6159 32.5532 46.6614C35.7497 46.7101 38.4698 43.5977 39.7295 41.5231C40.252 40.6627 40.5238 39.9806 40.4738 39.7768C40.3072 39.0933 39.3686 39.144 39.3359 39.1459C39.2494 38.6831 39.1654 38.1484 39.0846 37.5644C39.6866 37.6477 44.8063 38.3798 46.6982 39.3459C46.6982 39.3459 46.7001 39.3472 46.7046 39.3491C46.7059 39.3498 46.7078 39.3504 46.7091 39.3517C46.7097 39.3517 46.7104 39.3517 46.711 39.3524C46.7149 39.3543 46.7187 39.3562 46.7225 39.3581C46.736 39.3652 46.7488 39.3722 46.7623 39.3786C46.7713 39.3831 46.7796 39.3883 46.7879 39.3921C47.1995 39.6171 47.4322 39.8537 47.3925 40.0967Z" stroke="black" stroke-width="0.569857" stroke-linecap="round" stroke-linejoin="round"/>
<path d="M33.0806 31.9988C33.0806 31.9988 32.3107 37.8148 26.5787 39.1444L26.2998 39.1457C26.2998 39.1457 26.2998 36.6025 26.2998 36.5384C26.2998 36.4743 32.6524 33.1489 33.0806 31.9988Z" fill="#B27059"/>
<path d="M39.7295 41.5229C38.4698 43.5975 35.7497 46.7099 32.5532 46.6612C30.9915 46.6381 29.6766 45.9612 28.6169 45.0611C28.6021 45.0284 28.5887 44.9963 28.5746 44.9636L28.4297 44.6642C30.2965 44.9284 32.2455 44.5758 33.9014 43.6737C35.5573 42.7717 36.9107 41.3254 37.7018 39.6137C37.8601 39.2701 37.9992 38.9124 38.2223 38.6066C38.4454 38.3014 38.7724 38.0475 39.1487 38.0136C39.2096 38.4245 39.2718 38.8047 39.3359 39.1457C39.4084 39.5342 39.4834 39.8727 39.5596 40.1471C39.6648 40.5228 39.7199 40.9895 39.7295 41.5229Z" fill="#B27059"/>
<path d="M29.6527 48.8819C30.1264 48.8819 30.5105 48.4979 30.5105 48.0241C30.5105 47.5504 30.1264 47.1663 29.6527 47.1663C29.179 47.1663 28.7949 47.5504 28.7949 48.0241C28.7949 48.4979 29.179 48.8819 29.6527 48.8819Z" fill="black" stroke="black" stroke-width="0.569857" stroke-linecap="round" stroke-linejoin="round"/>
<path d="M29.8143 48.0449C29.3194 48.4238 29.0642 49.0572 29.0354 49.6797C29.0065 50.3022 29.1809 50.9176 29.4142 51.4959C29.6476 52.0741 29.9399 52.6268 30.165 53.2082C31.0022 55.37 30.831 57.8997 29.7091 59.9288" stroke="black" stroke-width="0.569857" stroke-linecap="round" stroke-linejoin="round"/>
<path d="M28.6983 60.6693C28.6682 60.8885 28.6797 61.1193 28.7759 61.3187C28.8721 61.5181 29.0644 61.679 29.2849 61.6969C29.4638 61.7117 29.6407 61.6328 29.7773 61.5168C29.9138 61.4008 30.017 61.2501 30.1132 61.0988C30.3619 60.7071 31.0806 59.2871 30.1651 59.2025C29.4131 59.1332 28.7887 60.0192 28.6983 60.6699V60.6693Z" fill="#F5D256" stroke="black" stroke-width="0.569857" stroke-linecap="round" stroke-linejoin="round"/>
<path d="M35.6742 48.8819C36.1479 48.8819 36.532 48.4979 36.532 48.0241C36.532 47.5504 36.1479 47.1663 35.6742 47.1663C35.2004 47.1663 34.8164 47.5504 34.8164 48.0241C34.8164 48.4979 35.2004 48.8819 35.6742 48.8819Z" fill="black" stroke="black" stroke-width="0.569857" stroke-linecap="round" stroke-linejoin="round"/>
<path d="M35.512 48.0448C36.0069 48.4237 36.2621 49.0571 36.2909 49.6796C36.3198 50.3021 36.1454 50.9175 35.912 51.4958C35.6787 52.0741 35.3863 52.6267 35.1613 53.2082C34.324 55.3699 34.4952 57.8997 35.6171 59.9287" stroke="black" stroke-width="0.569857" stroke-linecap="round" stroke-linejoin="round"/>
<path d="M36.6284 60.6691C36.6586 60.8883 36.647 61.1191 36.5508 61.3185C36.4547 61.5179 36.2624 61.6788 36.0418 61.6968C35.863 61.7115 35.686 61.6327 35.5495 61.5166C35.4129 61.4006 35.3097 61.2499 35.2135 61.0986C34.9648 60.7069 34.2461 59.2869 35.1616 59.2023C35.9136 59.133 36.538 60.019 36.6284 60.6697V60.6691Z" fill="#F5D256" stroke="black" stroke-width="0.569857" stroke-linecap="round" stroke-linejoin="round"/>
<path d="M37.3878 22.2702C37.3724 21.8143 37.5275 21.3547 37.816 21.0021C38.1051 20.6495 38.5251 20.4065 38.9745 20.3321C39.1751 20.2988 39.3873 20.2994 39.5745 20.3789C39.7617 20.4584 39.9188 20.6277 39.9431 20.8296" stroke="black" stroke-width="0.569857" stroke-linecap="round" stroke-linejoin="round"/>
<path d="M38.1602 20.8781C38.4801 21.0255 38.8083 21.1781 39.0519 21.4326C39.2955 21.6871 39.4385 22.0705 39.3128 22.3994" stroke="black" stroke-width="0.569857" stroke-linecap="round" stroke-linejoin="round"/>
<path d="M24.991 21.6394C24.9679 21.8773 23.8685 26.179 24.3595 26.413C24.8506 26.647 25.8091 25.1507 25.8091 25.1507" stroke="black" stroke-width="0.569857" stroke-linecap="round" stroke-linejoin="round"/>
<path d="M26.7508 27.8009C26.704 27.8708 25.0205 30.0921 25.0205 30.0921" stroke="black" stroke-width="0.569857" stroke-linecap="round" stroke-linejoin="round"/>
<path d="M28.5986 26.2481L31.3111 24.8729" stroke="black" stroke-width="0.569857" stroke-linecap="round" stroke-linejoin="round"/>
<path d="M27.7334 30.0924C27.7334 30.0924 30.5157 30.1155 30.3984 26.8896" stroke="black" stroke-width="0.569857" stroke-linecap="round" stroke-linejoin="round"/>
<path d="M23.6624 36.4931C23.0739 36.4533 22.4924 36.3232 21.9321 36.0802C17.6567 34.2236 20.6403 22.3853 21.4423 19.8106H21.443C21.4615 19.8062 22.2405 19.619 23.4746 19.3651C22.5674 24.7945 22.5969 30.379 23.5611 35.7988C23.6015 36.0238 23.6406 36.2591 23.6624 36.4931Z" fill="#FFC7B3"/>
<path d="M40.3764 18.9798C39.6629 18.9971 38.9545 19.2151 38.3583 19.6068C37.9518 19.8741 37.5762 20.2274 37.0992 20.3203C36.6677 20.4043 36.1972 20.2427 35.908 19.9113C35.8555 19.851 35.8099 19.7901 35.7715 19.7292C36.1363 19.3939 37.0376 18.5849 37.9114 18.2336H37.9121C38.2884 18.0823 38.6596 18.0162 38.9808 18.1092C39.3289 18.2098 39.8014 18.4932 40.2681 18.8868C40.304 18.917 40.3405 18.9484 40.3764 18.9798Z" fill="#FFC7B3"/>
<path d="M38.8946 18.0884C38.594 18.0288 38.2555 18.0961 37.9125 18.234H37.9119C37.5573 18.3763 37.1977 18.5943 36.8714 18.8257C33.28 18.7135 24.5586 19.3905 24.5586 19.3905L24.8458 19.0949L26.4229 17.4736C26.4229 17.4736 37.5086 16.1312 37.6868 16.1049C37.7997 16.0876 38.9286 17.2704 38.8946 18.0884Z" fill="#B27059"/>
<path d="M38.6059 33.2119C37.9045 31.2636 37.3314 29.2692 36.8916 27.2459C36.8031 26.8401 36.6678 26.3394 37.1025 26.1163C37.3788 25.9753 37.7179 25.824 38.0513 25.774C38.102 26.6273 38.3039 29.9154 38.6059 33.2119Z" fill="#B27059"/>
<path d="M37.9119 18.2332C37.5573 18.3755 37.1977 18.5935 36.8714 18.8249C36.3944 19.1634 35.9886 19.5295 35.7719 19.7288C35.6854 19.8083 35.6289 19.8615 35.6104 19.8757" stroke="black" stroke-width="0.569857" stroke-linecap="round" stroke-linejoin="round"/>
<path d="M40.2683 18.8865C39.8016 18.4929 39.3291 18.2095 38.981 18.1089C38.9528 18.1005 38.924 18.0935 38.8945 18.0877C38.5938 18.0281 38.2553 18.0954 37.9123 18.2332H37.9117C36.8058 17.9967 35.4371 17.93 33.9639 17.971C33.9017 17.973 33.8388 17.9749 33.776 17.9768C33.2119 17.996 32.6336 18.0307 32.0502 18.0775C31.9579 18.0845 31.8649 18.0922 31.772 18.1005C31.679 18.1082 31.5861 18.1166 31.4931 18.1249C31.4001 18.1339 31.3072 18.1422 31.2142 18.1518C30.9353 18.1787 30.6558 18.2082 30.3763 18.2403C30.2834 18.2505 30.1904 18.2614 30.0981 18.2723C30.0237 18.2813 29.9494 18.2903 29.8756 18.2993C29.4871 18.3467 29.1005 18.3974 28.7197 18.4512C28.6287 18.4634 28.5383 18.4762 28.4486 18.4897C28.3582 18.5025 28.2684 18.5153 28.1793 18.5288C28.1011 18.5403 28.0229 18.5519 27.9453 18.5634C27.4908 18.6326 27.0459 18.7038 26.617 18.7762C26.533 18.7903 26.4496 18.8045 26.3676 18.8192C26.2022 18.8474 26.0393 18.8756 25.8791 18.9045C25.8034 18.9173 25.7291 18.9307 25.6547 18.9442C25.3752 18.9949 25.1053 19.0449 24.8456 19.0942C24.845 19.0942 24.8437 19.0942 24.8431 19.0949C24.77 19.1083 24.6975 19.1218 24.6264 19.1359C24.4116 19.1769 24.2052 19.218 24.0077 19.2571C23.9417 19.2705 23.8769 19.2833 23.8128 19.2962C23.7122 19.3167 23.6141 19.3366 23.5186 19.3558C23.432 19.3737 23.348 19.391 23.266 19.4084C23.2609 19.409 23.2551 19.4103 23.2493 19.4116C23.2205 19.4173 23.1916 19.4237 23.1634 19.4295C22.9929 19.4654 22.8326 19.4994 22.6839 19.5314C22.6422 19.5404 22.6012 19.5494 22.5608 19.5584C22.53 19.5648 22.4999 19.5712 22.4698 19.5776C22.4473 19.5827 22.4249 19.5879 22.4024 19.5924C22.3877 19.5956 22.3736 19.5988 22.3595 19.602C22.2954 19.6161 22.2345 19.6295 22.1768 19.6424C22.1184 19.6552 22.0633 19.6674 22.0114 19.6795C21.9864 19.6847 21.9627 19.6904 21.9389 19.6956C21.8902 19.7065 21.8441 19.7167 21.8017 19.727C21.7665 19.7347 21.7338 19.7424 21.7037 19.7494C21.6921 19.752 21.6806 19.7545 21.669 19.7578C21.6466 19.7622 21.6261 19.7674 21.6068 19.7719C21.5972 19.7744 21.5883 19.7763 21.5793 19.7783C21.5088 19.7943 21.4645 19.8052 21.4491 19.809C21.4453 19.8097 21.4434 19.8103 21.4427 19.8103H21.4421C21.4421 19.8103 20.5644 20.4892 20.1875 19.8103C19.9137 19.3173 20.5273 17.0229 20.8837 15.8022C21.0267 15.3137 21.3972 14.9246 21.8787 14.7592C21.9723 14.7271 22.0742 14.6925 22.1825 14.6566C22.2576 14.6316 22.3364 14.606 22.4178 14.579C22.4601 14.5656 22.5037 14.5515 22.548 14.5374C22.6743 14.497 22.8076 14.4553 22.9467 14.4123C22.9615 14.4079 22.9756 14.4034 22.9903 14.3989C23.039 14.3841 23.0884 14.3687 23.1391 14.354C23.3025 14.3046 23.4737 14.254 23.6513 14.2033C23.684 14.1937 23.7167 14.1848 23.75 14.1751C24.0654 14.086 24.4014 13.9956 24.7533 13.9065C24.7879 13.8982 24.8226 13.8892 24.8572 13.8809C25.1348 13.8116 25.422 13.7437 25.7162 13.6789C25.7528 13.6706 25.79 13.6629 25.8271 13.6546C25.8643 13.6462 25.9015 13.6385 25.9387 13.6309C26.0015 13.6174 26.0643 13.6039 26.1278 13.5911C26.1958 13.577 26.2644 13.5629 26.333 13.5494C26.4227 13.5315 26.5125 13.5142 26.6022 13.4969C26.6856 13.4808 26.7689 13.4655 26.8529 13.4501C26.8638 13.4481 26.874 13.4462 26.8849 13.4443C26.9728 13.4289 27.0606 13.4135 27.1491 13.3988C27.2343 13.384 27.319 13.3706 27.4042 13.3571C27.4164 13.3545 27.4286 13.3526 27.4401 13.3513C27.6209 13.3225 27.803 13.2956 27.9857 13.2712C28.0793 13.2584 28.1735 13.2462 28.2678 13.2347C28.271 13.234 28.2742 13.234 28.2774 13.2334C28.3684 13.2225 28.4595 13.2116 28.5505 13.202C28.6402 13.1917 28.7294 13.1827 28.8191 13.1738C28.8364 13.1725 28.8531 13.1706 28.8704 13.1693C28.9486 13.1616 29.0268 13.1545 29.105 13.1488C29.1127 13.1475 29.1198 13.1468 29.1275 13.1468C29.2185 13.1391 29.3095 13.1321 29.4006 13.1263H29.4025C29.4698 13.1212 29.5371 13.1173 29.6044 13.1141C29.6423 13.1116 29.6807 13.109 29.7192 13.1077C29.8025 13.1032 29.8859 13.1 29.9686 13.0968C30.1955 13.0885 30.4238 13.0853 30.6513 13.0853C30.7417 13.0853 30.8321 13.0859 30.9219 13.0872C30.9437 13.0872 30.9661 13.0872 30.9873 13.0879C31.0911 13.0898 31.195 13.0923 31.2988 13.0955C31.4065 13.0987 31.5136 13.1026 31.6213 13.1077C31.7245 13.1122 31.8277 13.1173 31.9303 13.1238C31.9342 13.1238 31.9387 13.1238 31.9425 13.1244C32.0887 13.1327 32.2336 13.143 32.3784 13.1539C32.4297 13.1577 32.4817 13.1622 32.5329 13.1661C32.5541 13.1673 32.5746 13.1693 32.5951 13.1712C32.7387 13.184 32.8817 13.1975 33.024 13.2116C33.1663 13.2263 33.308 13.2417 33.4478 13.2584H33.4484C33.5183 13.2667 33.5882 13.275 33.6574 13.284C33.7158 13.2917 33.7741 13.2988 33.8318 13.3065C33.8427 13.3077 33.8542 13.309 33.8651 13.311C33.9337 13.3206 34.0023 13.3295 34.0703 13.3392C34.1389 13.3481 34.2068 13.3584 34.2741 13.3686C34.335 13.3783 34.3953 13.3872 34.4556 13.3962C34.4626 13.3969 34.469 13.3981 34.4754 13.3994C34.5421 13.4103 34.6088 13.4206 34.6748 13.4315C34.6832 13.4321 34.6915 13.434 34.6998 13.4353C34.7569 13.4449 34.8146 13.4546 34.871 13.4642C35.0011 13.486 35.13 13.509 35.2563 13.5328C35.3223 13.5443 35.3877 13.5565 35.4531 13.5693C35.5121 13.5815 35.5711 13.593 35.63 13.6046C35.7108 13.62 35.7903 13.6366 35.8692 13.6533C35.9384 13.668 36.007 13.6821 36.075 13.6969C36.2224 13.7283 36.366 13.761 36.5064 13.7943C36.5616 13.8072 36.6167 13.82 36.6705 13.8334C36.6789 13.8347 36.6872 13.8373 36.6949 13.8392C36.7411 13.8501 36.7859 13.8616 36.8308 13.8725C36.8834 13.8854 36.9353 13.8988 36.986 13.9117C37.0174 13.9193 37.0488 13.9277 37.0796 13.936C37.1103 13.9437 37.1411 13.952 37.1719 13.9604C37.211 13.9706 37.2494 13.9809 37.2873 13.9911C37.336 14.0046 37.3841 14.0174 37.4309 14.0309C37.4956 14.0488 37.5597 14.0674 37.6213 14.0847C37.6719 14.1001 37.7213 14.1149 37.7694 14.129C37.7905 14.1354 37.8117 14.1418 37.8328 14.1482C37.8892 14.1655 37.9444 14.1828 37.9982 14.2001C38.6355 14.404 39.0535 14.5886 39.1637 14.706C39.5657 15.1336 40.3344 18.6666 40.2683 18.8865Z" fill="#E86F3A" stroke="black" stroke-width="0.569857" stroke-linecap="round" stroke-linejoin="round"/>
<path d="M37.9983 14.1998C37.9445 14.1825 37.8893 14.1652 37.8329 14.1478C36.4815 13.7343 34.2768 13.2606 31.9426 13.124C31.2893 13.0849 30.6264 13.0734 29.9687 13.0965C26.953 13.2029 23.786 14.1235 22.1826 14.6562C22.1826 14.6562 22.4083 13.769 23.091 12.6983C24.129 11.0713 26.2253 9.02105 30.1956 9.02105C30.5777 9.02105 30.9418 9.03836 31.288 9.0717C34.7281 9.39737 36.4693 11.2405 37.3034 12.6246C37.7387 13.3458 37.9271 13.9427 37.981 14.135C37.9919 14.1735 37.997 14.1953 37.9983 14.1998Z" fill="#E86F3A" stroke="black" stroke-width="0.569857" stroke-linecap="round" stroke-linejoin="round"/>
<path d="M31.2888 9.0717C31.2785 9.09606 31.267 9.12042 31.2535 9.14414C31.0875 9.43583 30.7253 9.53841 30.4009 9.62367C28.2212 10.1962 26.1427 11.1527 24.2906 12.4361C23.972 12.6573 23.588 12.899 23.2239 12.7663C23.1758 12.749 23.1315 12.7259 23.0918 12.6983C24.1297 11.0713 26.2261 9.02105 30.1964 9.02105C30.5784 9.02105 30.9426 9.03836 31.2888 9.0717Z" fill="#FF8E66"/>
<path d="M37.9805 14.1351C37.9311 14.1408 37.8817 14.1453 37.8324 14.1479C37.1079 14.1908 36.3906 13.9543 35.6866 13.76C34.4641 13.4234 33.2075 13.2106 31.942 13.1241C30.9169 13.0529 29.8867 13.0651 28.8635 13.1606C28.8898 13.1471 28.9161 13.1337 28.9424 13.1209L27.6416 13.2997C29.504 12.7945 31.4144 12.465 33.3383 12.3163C34.6667 12.2137 36.0521 12.2079 37.3028 12.6247C37.7381 13.3459 37.9266 13.9427 37.9805 14.1351Z" fill="#C14216"/>
<path d="M22.9903 14.3985C22.3236 16.0147 21.8338 17.704 21.5331 19.4259C21.5107 19.5542 21.4889 19.6849 21.4491 19.8087C21.4453 19.8093 21.4434 19.81 21.4427 19.81H21.4421C21.4421 19.81 20.5644 20.4889 20.1875 19.81C19.9137 19.317 20.5273 17.0225 20.8837 15.8019C21.0267 15.3133 21.3972 14.9242 21.8787 14.7588C21.9723 14.7268 22.0742 14.6921 22.1825 14.6562C22.4191 14.5774 22.6903 14.4902 22.9903 14.3985Z" fill="#FF8E66"/>
<path d="M40.2683 18.8865C39.8016 18.4929 39.3291 18.2095 38.981 18.1089C38.9528 18.1005 38.924 18.0935 38.8945 18.0877C38.5938 18.0281 38.2553 18.0954 37.9123 18.2332H37.9117C36.8058 17.9967 35.4371 17.93 33.9639 17.971C33.901 17.973 33.8388 17.9749 33.776 17.9768C33.2119 17.996 32.6336 18.0307 32.0502 18.0775C31.9579 18.0845 31.8649 18.0922 31.772 18.1005C31.679 18.1082 31.5861 18.1166 31.4931 18.1249C31.4001 18.1332 31.3072 18.1422 31.2142 18.1518C30.9353 18.1787 30.6558 18.2082 30.3763 18.2403C30.2834 18.2505 30.191 18.2608 30.0981 18.2723C30.0237 18.2807 29.9494 18.2897 29.8756 18.2993C29.4871 18.3467 29.1005 18.3974 28.7197 18.4512C28.6287 18.4634 28.5383 18.4762 28.4486 18.4897C28.3582 18.5025 28.2684 18.5153 28.1793 18.5288C28.1011 18.5403 28.0229 18.5519 27.9453 18.5634C27.4908 18.6326 27.0459 18.7038 26.617 18.7762C26.533 18.7903 26.4496 18.8045 26.3676 18.8192C26.2022 18.8474 26.0393 18.8756 25.8791 18.9045C25.8034 18.9173 25.7291 18.9307 25.6547 18.9442C25.3752 18.9949 25.1053 19.0449 24.8456 19.0942C24.845 19.0942 24.8437 19.0942 24.8431 19.0949C24.77 19.1083 24.6975 19.1218 24.6264 19.1359C24.4116 19.1769 24.2052 19.218 24.0077 19.2571C23.9417 19.2699 23.8769 19.2833 23.8128 19.2962C23.7122 19.3167 23.6141 19.3366 23.5186 19.3558C23.432 19.3737 23.348 19.391 23.266 19.4084C23.2609 19.409 23.2551 19.4103 23.2493 19.4116C23.2205 19.4173 23.1916 19.4237 23.1634 19.4295C22.9929 19.4654 22.8326 19.4994 22.6839 19.5314C22.6422 19.5404 22.6012 19.5494 22.5608 19.5584C22.53 19.5648 22.4999 19.5712 22.4698 19.5776C22.4473 19.5827 22.4249 19.5879 22.4024 19.5924C22.3877 19.5956 22.3736 19.5988 22.3595 19.602C22.2954 19.6161 22.2345 19.6295 22.1768 19.6424C22.1184 19.6552 22.0633 19.6674 22.0114 19.6795C21.9864 19.6847 21.9627 19.6904 21.9389 19.6956C21.8902 19.7065 21.8441 19.7167 21.8017 19.727C21.7665 19.7347 21.7338 19.7424 21.7037 19.7494C21.6915 19.752 21.6799 19.7545 21.669 19.7578C21.6466 19.7622 21.6261 19.7674 21.6068 19.7719C21.5972 19.7738 21.5883 19.7763 21.5793 19.7783C21.5088 19.7943 21.4645 19.8052 21.4491 19.809C21.4453 19.8097 21.4434 19.8103 21.4427 19.8103H21.4421C21.4421 19.8103 20.5644 20.4892 20.1875 19.8103C19.9137 19.3173 20.5273 17.0229 20.8837 15.8022C21.0267 15.3137 21.3972 14.9246 21.8787 14.7592C21.9723 14.7271 22.0742 14.6925 22.1825 14.6566C22.2576 14.6316 22.3364 14.606 22.4178 14.579C22.4601 14.5656 22.5037 14.5515 22.548 14.5374C22.6743 14.497 22.8076 14.4553 22.9467 14.4123C22.9615 14.4079 22.9756 14.4034 22.9903 14.3995C23.039 14.3841 23.0884 14.3687 23.1391 14.354C23.3025 14.3046 23.4737 14.254 23.6513 14.2033C23.684 14.1937 23.7167 14.1848 23.75 14.1751C24.0654 14.086 24.4014 13.9956 24.7533 13.9065C24.7879 13.8982 24.8226 13.8892 24.8572 13.8809C25.1348 13.8116 25.422 13.7437 25.7162 13.6789C25.7528 13.6706 25.79 13.6629 25.8271 13.6546C25.8643 13.6462 25.9015 13.6385 25.9387 13.6309C26.0015 13.6174 26.0643 13.6039 26.1278 13.5911C26.1958 13.577 26.2644 13.5629 26.333 13.5494C26.4227 13.5315 26.5125 13.5142 26.6022 13.4969C26.6856 13.4808 26.7689 13.4655 26.8529 13.4501C26.8638 13.4481 26.874 13.4462 26.8849 13.4443C26.9728 13.4289 27.0606 13.4135 27.1491 13.3988C27.2343 13.384 27.319 13.3706 27.4042 13.3571C27.4164 13.3545 27.4286 13.3526 27.4401 13.3513C27.6209 13.3225 27.803 13.2956 27.9857 13.2712C28.0793 13.2584 28.1735 13.2462 28.2678 13.2347C28.271 13.234 28.2742 13.234 28.2774 13.2334C28.3684 13.2225 28.4595 13.2116 28.5505 13.202C28.6402 13.1917 28.7294 13.1827 28.8191 13.1738C28.8364 13.1725 28.8531 13.1706 28.8704 13.1693C28.9486 13.1616 29.0268 13.1545 29.105 13.1488C29.1127 13.1475 29.1198 13.1468 29.1275 13.1468C29.2185 13.1391 29.3095 13.1321 29.4006 13.1263H29.4025C29.4698 13.1212 29.5371 13.1173 29.6044 13.1141C29.6423 13.1116 29.6807 13.109 29.7192 13.1077C29.8025 13.1032 29.8859 13.1 29.9686 13.0968C30.1955 13.0885 30.4238 13.0853 30.6513 13.0853C30.7417 13.0853 30.8321 13.0859 30.9219 13.0872C30.9437 13.0872 30.9661 13.0872 30.9873 13.0879C31.0911 13.0898 31.195 13.0923 31.2988 13.0955C31.4065 13.0987 31.5136 13.1026 31.6213 13.1077C31.7245 13.1122 31.8277 13.1173 31.9303 13.1238C31.9342 13.1238 31.9387 13.1238 31.9425 13.1244C32.0887 13.1327 32.2336 13.143 32.3784 13.1539C32.4297 13.1577 32.4817 13.1622 32.5329 13.1661C32.5541 13.1673 32.5746 13.1693 32.5951 13.1712C32.7387 13.184 32.8817 13.1975 33.024 13.2116C33.1663 13.2263 33.308 13.2417 33.4478 13.2584H33.4484C33.5183 13.2667 33.5882 13.275 33.6574 13.284C33.7158 13.2917 33.7741 13.2988 33.8318 13.3065C33.8427 13.3077 33.8542 13.309 33.8651 13.311C33.9337 13.3206 34.0023 13.3295 34.0703 13.3392C34.1389 13.3481 34.2068 13.3584 34.2741 13.3686C34.335 13.3783 34.3953 13.3872 34.4556 13.3962C34.4626 13.3969 34.469 13.3981 34.4754 13.3994C34.5421 13.4103 34.6088 13.4206 34.6748 13.4315C34.6832 13.4321 34.6915 13.434 34.6998 13.4353C34.7569 13.4449 34.8146 13.4546 34.871 13.4642C35.0011 13.486 35.13 13.509 35.2563 13.5328C35.3223 13.5443 35.3877 13.5565 35.4531 13.5693C35.5121 13.5815 35.5711 13.593 35.63 13.6046C35.7108 13.62 35.7903 13.6366 35.8692 13.6533C35.9384 13.668 36.007 13.6821 36.075 13.6969C36.2224 13.7283 36.366 13.761 36.5064 13.7943C36.5616 13.8072 36.6167 13.82 36.6705 13.8334C36.6789 13.8347 36.6872 13.8373 36.6949 13.8392C36.7411 13.8501 36.7859 13.8616 36.8308 13.8725C36.8834 13.8854 36.9353 13.8988 36.986 13.9117C37.0174 13.9193 37.0488 13.9277 37.0796 13.936C37.1103 13.9437 37.1411 13.952 37.1719 13.9604C37.211 13.9706 37.2494 13.9809 37.2873 13.9911C37.336 14.0046 37.3841 14.0174 37.4309 14.0309C37.4956 14.0488 37.5597 14.0674 37.6213 14.0847C37.6719 14.1001 37.7213 14.1149 37.7694 14.129C37.7905 14.1354 37.8117 14.1418 37.8328 14.1482C37.8892 14.1655 37.9444 14.1828 37.9982 14.2001C38.6355 14.404 39.0535 14.5886 39.1637 14.706C39.5657 15.1336 40.3344 18.6666 40.2683 18.8865Z" stroke="black" stroke-width="0.569857" stroke-linecap="round" stroke-linejoin="round"/>
<path d="M37.9983 14.1998C36.3078 13.66 33.0741 12.9868 29.9687 13.0965C26.953 13.2029 23.786 14.1235 22.1826 14.6562C22.1826 14.6562 23.6129 9.02105 30.1956 9.02105C36.7783 9.02105 37.9816 14.1299 37.9983 14.1998Z" stroke="black" stroke-width="0.569857" stroke-linecap="round" stroke-linejoin="round"/>
<path d="M38.039 25.5612C37.4903 25.8754 37.1152 26.0606 37.1152 26.0606" stroke="black" stroke-width="0.569857" stroke-linecap="round" stroke-linejoin="round"/>
<path d="M41.5988 22.8539C40.6641 23.9585 39.0543 24.9797 38.0395 25.5612C38.0395 25.5612 38.4626 33.0408 39.0851 37.5643C39.1659 38.1484 39.2499 38.683 39.3364 39.1459C39.4089 39.5344 39.4839 39.8729 39.5602 40.1473C39.6653 40.523 39.7204 40.9897 39.73 41.5231C38.4703 43.5976 35.7502 46.7101 32.5537 46.6614C29.5156 46.6159 27.4134 44.0983 26.2999 42.277V36.1462C24.8484 36.5879 23.3284 36.686 21.9321 36.0802C17.6567 34.2236 20.6403 22.3852 21.4423 19.8106H21.443C21.5077 19.7952 30.565 17.6194 36.1919 18.0059C36.8124 18.0483 37.3913 18.122 37.9119 18.2335H37.9126C38.2889 18.0822 38.6601 18.0162 38.9813 18.1092C39.3294 18.2098 39.8018 18.4932 40.2686 18.8868C40.3045 18.9169 40.341 18.9484 40.3769 18.9798C41.5366 19.9997 42.6034 21.6666 41.5988 22.8539Z" stroke="black" stroke-width="0.569857" stroke-linecap="round" stroke-linejoin="round"/>
<path d="M26.2998 36.146C29.8085 35.0773 32.9184 31.9988 32.9184 31.9988" stroke="black" stroke-width="0.569857" stroke-linecap="round" stroke-linejoin="round"/>
<path d="M40.3333 24.7509C40.4308 24.9137 40.5141 25.0932 40.5776 25.2868C40.9205 26.3273 40.5814 27.3736 39.8198 27.6249C39.0582 27.8762 38.1632 27.2364 37.8202 26.1959C37.5638 25.4176 37.6888 24.6348 38.0876 24.1854" stroke="#49A2A6" stroke-width="0.569857" stroke-linecap="round" stroke-linejoin="round"/>
</g>
<defs>
<clipPath id="clip0_1609_38437">
<rect y="-0.000434875" width="64" height="64" rx="32" fill="white"/>
</clipPath>
</defs>
</svg>
