<svg width="64" height="64" viewBox="0 0 64 64" fill="none" xmlns="http://www.w3.org/2000/svg">
<g clip-path="url(#clip0_1609_38195)">
<rect width="64" height="64" rx="32" fill="#C2EFFF"/>
<path d="M25.8169 13.7965C25.6367 14.1921 25.5944 14.4613 25.5944 14.4613C25.5944 14.4613 23.407 17.1783 21.36 20.7825C21.36 20.7825 21.1664 14.9947 24.1327 12.8137C24.2597 12.7201 24.3776 12.6509 24.4866 12.6022H24.4872C25.6072 12.0989 25.8117 13.7568 25.8169 13.7965Z" fill="#3D0027" stroke="black" stroke-width="0.569857" stroke-linecap="round" stroke-linejoin="round"/>
<path d="M27.9684 11.62C26.6946 12.2912 26.0932 13.1907 25.8169 13.7965C25.8118 13.7568 25.6073 12.0989 24.4873 12.6015C24.5091 12.572 25.2412 11.6373 27.9684 11.62Z" fill="#3D0027" stroke="black" stroke-width="0.569857" stroke-linecap="round" stroke-linejoin="round"/>
<path d="M62.2413 50.48C61.2111 53.1027 56.7863 58.0435 50.3152 62.0747C45.6865 64.9583 40.0103 67.3765 33.7808 68.1465C32.5384 68.301 31.2741 68.3888 29.992 68.4023C24.6369 68.458 19.9313 66.9104 16.0092 64.7814C7.69806 60.27 2.90527 53.1482 2.90527 53.1482C2.90527 53.1482 4.80418 50.5011 7.51343 48.474C7.52368 48.4656 7.53458 48.4573 7.54548 48.4496C10.2714 46.4199 25.9319 44.5056 26.6859 44.0415C26.6859 44.0415 26.6788 44.1562 26.6737 44.3608C26.6346 46.0449 26.7673 53.8354 32.573 53.9886C34.0417 54.0277 35.2297 53.4956 36.1894 52.6481C39.4846 49.7395 40.0846 43.1138 40.0846 43.1138C40.2532 43.56 44.2107 44.5281 48.4438 45.4589C53.0206 46.4648 57.9198 47.4271 58.7032 47.638C59.6379 47.8893 60.7733 48.9215 61.5009 49.669C61.9477 50.128 62.2413 50.48 62.2413 50.48Z" fill="#E86F3A" stroke="black" stroke-width="0.569857" stroke-linecap="round" stroke-linejoin="round"/>
<path d="M16.0092 64.7812C7.69806 60.2699 2.90527 53.148 2.90527 53.148C2.90527 53.148 4.80418 50.5009 7.51343 48.4738C7.68268 48.536 7.84872 48.6149 8.01027 48.7104C9.01935 49.3079 9.57517 50.4458 9.92841 51.5639C10.2817 52.6826 10.4964 53.8615 11.0779 54.8802C12.0915 56.6567 14.0731 57.6972 15.1661 59.4262C15.8168 60.4564 16.1136 61.6828 16.1585 62.9003C16.1816 63.5285 16.1297 64.1606 16.0092 64.7812Z" fill="#49A2A6" stroke="black" stroke-width="0.569857" stroke-linecap="round" stroke-linejoin="round"/>
<path d="M28.1106 43.7323C25.5937 44.6619 23.3621 46.3486 21.7805 48.5161C21.5023 48.8976 21.2337 49.3277 21.2497 49.7996C21.2843 50.7869 22.4274 51.26 23.2897 51.7421C24.8969 52.6403 25.972 54.243 26.8939 55.8367C27.4266 56.758 28.101 57.8119 29.1627 57.8863C29.5762 57.9151 29.9826 57.7818 30.375 57.6478C31.102 57.3997 31.8277 57.1458 32.5502 56.8849C33.5221 56.5349 34.5337 56.1425 35.2024 55.3553C36.0037 54.4122 36.1557 53.0961 36.273 51.8645C36.4057 50.4702 36.5051 48.9405 35.6967 47.7975C34.6491 46.3165 32.4822 46.0582 31.2821 44.6978" fill="#49A2A6"/>
<path d="M28.1106 43.7323C25.5937 44.6619 23.3621 46.3486 21.7805 48.5161C21.5023 48.8976 21.2337 49.3277 21.2497 49.7996C21.2843 50.7869 22.4274 51.26 23.2897 51.7421C24.8969 52.6403 25.972 54.243 26.8939 55.8367C27.4266 56.758 28.101 57.8119 29.1627 57.8863C29.5762 57.9151 29.9826 57.7818 30.375 57.6478C31.102 57.3997 31.8277 57.1458 32.5502 56.8849C33.5221 56.5349 34.5337 56.1425 35.2024 55.3553C36.0037 54.4122 36.1557 53.0961 36.273 51.8645C36.4057 50.4702 36.5051 48.9405 35.6967 47.7975C34.6491 46.3165 32.4822 46.0582 31.2821 44.6978" stroke="black" stroke-width="0.569857" stroke-linecap="round" stroke-linejoin="round"/>
<path d="M50.3157 62.0746C45.6871 64.9582 40.0109 67.3764 33.7814 68.1463C33.6884 66.9969 33.6365 65.8442 33.6269 64.6915C33.616 63.3907 33.6904 61.9932 34.4808 60.9597C35.1847 60.0391 36.34 59.5775 37.4766 59.3519C38.6133 59.1262 39.7846 59.0935 40.9103 58.8179C42.5137 58.4242 44.0311 57.5382 45.682 57.5876C47.5719 57.644 49.2906 59.0217 49.9811 60.7821C50.1452 61.1995 50.2555 61.6335 50.3157 62.0746Z" fill="#49A2A6" stroke="black" stroke-width="0.569857" stroke-linecap="round" stroke-linejoin="round"/>
<path d="M61.5007 49.6689C61.182 50.2587 60.7288 50.7536 60.1236 51.0703C59.1011 51.6056 57.8811 51.5204 56.7361 51.6685C54.6987 51.9313 52.5421 52.9474 50.7028 52.032C49.2014 51.2845 48.5301 49.4798 48.4186 47.8059C48.3667 47.0257 48.4058 46.2416 48.4436 45.4589C53.0203 46.4647 57.9195 47.427 58.7029 47.6379C59.6377 47.8892 60.773 48.9214 61.5007 49.6689Z" fill="#49A2A6" stroke="black" stroke-width="0.569857" stroke-linecap="round" stroke-linejoin="round"/>
<path d="M40.0852 43.114C40.0852 43.114 40.0679 43.3082 40.0224 43.6442C39.939 44.2603 39.7608 45.3533 39.4242 46.6047C38.5581 49.8256 36.6412 54.0965 32.5735 53.9888C26.0633 53.817 26.6864 44.0417 26.6864 44.0417C27.441 43.5781 26.9723 36.8941 26.9723 36.8941C24.9907 37.5391 22.8976 37.75 21.1339 36.8852C20.8191 36.7307 20.5146 36.5422 20.2236 36.3152C15.8033 32.8771 18.4381 25.9264 21.3602 20.7823C23.4072 17.1781 25.5946 14.4611 25.5946 14.4611C25.5946 14.4611 26.9845 13.688 28.4994 14.1444C29.8399 14.547 31.2792 15.9113 31.9414 19.6219C32.0376 20.161 32.1171 20.7502 32.178 21.3932C33.1294 31.4571 33.5506 34.4035 37.5298 36.7762C37.5279 36.7832 37.5259 36.7922 37.524 36.8025C37.5215 36.8185 37.5195 36.8377 37.5183 36.8595C37.5163 36.8909 37.5157 36.9275 37.517 36.9704C37.517 36.982 37.517 36.9942 37.5176 37.007C37.5189 37.0435 37.5208 37.0833 37.524 37.1262C37.524 37.1358 37.5253 37.1454 37.526 37.1557C37.5285 37.1858 37.5311 37.2172 37.5343 37.2506C37.5356 37.2615 37.5368 37.2724 37.5381 37.2833C37.5388 37.2897 37.5394 37.2961 37.5401 37.3032C37.5439 37.3391 37.5484 37.3762 37.5535 37.4153C37.5657 37.5064 37.5811 37.6058 37.6003 37.7102C37.6035 37.7276 37.6067 37.7449 37.6099 37.7628C37.6208 37.8218 37.6336 37.8827 37.6465 37.9449C37.6535 37.9757 37.6606 38.0077 37.6683 38.0398C37.6772 38.0782 37.6862 38.1167 37.6958 38.1558C37.7055 38.1949 37.7157 38.234 37.7266 38.2738C37.7324 38.2949 37.7381 38.3161 37.7439 38.3379C37.749 38.3565 37.7542 38.3751 37.7599 38.3943C37.8292 38.6366 37.9164 38.8899 38.0234 39.1418C38.0305 39.1598 38.0382 39.1777 38.0465 39.1957C38.0574 39.2207 38.0683 39.2457 38.0798 39.2707C38.0895 39.2918 38.0991 39.3123 38.1087 39.3335C38.1292 39.3764 38.1497 39.4194 38.1709 39.4617C38.2017 39.5233 38.2337 39.5842 38.2677 39.6451C38.2786 39.6656 38.2901 39.6861 38.3023 39.7066C38.3376 39.7675 38.3735 39.8284 38.4119 39.888C38.4491 39.9477 38.4882 40.0066 38.5299 40.0643C38.5427 40.0836 38.5568 40.1028 38.5716 40.122C38.585 40.1413 38.5998 40.1599 38.6139 40.1791C38.6421 40.2169 38.6709 40.2535 38.7017 40.29C38.7165 40.3086 38.7312 40.3265 38.7472 40.3445C38.7626 40.3624 38.778 40.3804 38.794 40.3983C38.7979 40.4035 38.8024 40.408 38.8062 40.4124C38.8306 40.44 38.8562 40.4676 38.8819 40.4939C38.9094 40.5227 38.937 40.5516 38.9658 40.5791C38.9729 40.5862 38.9799 40.5932 38.9876 40.6003C39.0107 40.6227 39.0344 40.6445 39.0588 40.6657C39.0646 40.6714 39.0703 40.6766 39.0761 40.6817C39.1037 40.7067 39.1325 40.7311 39.1614 40.7548C39.1627 40.7561 39.1646 40.7573 39.1665 40.7586C39.1973 40.7843 39.2287 40.8093 39.2607 40.833C39.2672 40.8381 39.2736 40.8433 39.2806 40.8477C39.3107 40.8702 39.3415 40.8926 39.3723 40.9138C39.4011 40.933 39.4306 40.9529 39.4608 40.9715C39.4768 40.9817 39.4928 40.992 39.5095 41.001C39.539 41.0196 39.5691 41.0375 39.5999 41.0542C39.5999 41.0542 39.6364 41.9254 40.0852 43.114Z" fill="#94624B" stroke="black" stroke-width="0.569857" stroke-linecap="round" stroke-linejoin="round"/>
<path d="M62.2413 50.48C60.3271 55.3522 46.6968 68.2285 29.992 68.4023C13.2877 68.5766 2.90527 53.1482 2.90527 53.1482C2.90527 53.1482 4.81957 50.48 7.54548 48.4496C10.2714 46.4199 25.9319 44.5056 26.6859 44.0415C26.6859 44.0415 26.0627 53.8168 32.573 53.9886C39.0839 54.1611 40.0846 43.1138 40.0846 43.1138C40.4353 44.0428 57.1953 47.2316 58.7032 47.638C60.211 48.0438 62.2413 50.48 62.2413 50.48Z" stroke="black" stroke-width="0.569857" stroke-linecap="round" stroke-linejoin="round"/>
<path d="M32.1773 34.278C30.8554 35.1524 28.97 36.2436 26.9717 36.8936" stroke="black" stroke-width="0.569857" stroke-linecap="round" stroke-linejoin="round"/>
<path d="M46.3844 31.46C44.7086 37.9157 42.8315 36.5303 42.7821 40.0788C42.2461 38.3953 41.5147 38.8357 37.5348 36.463C36.9302 36.1021 36.4077 35.7283 35.9532 35.3187C33.5094 33.1153 33.0241 29.8662 32.2714 22.0064V22.0058C32.2419 21.7039 32.2131 21.3961 32.183 21.0801C31.2322 11.0156 25.5996 14.148 25.5996 14.148C25.5996 14.148 25.6419 13.8787 25.8221 13.4838C26.0984 12.8773 26.6997 11.9779 27.9736 11.3067C28.6794 10.9342 29.593 10.6322 30.7719 10.4899C31.847 10.3591 33.1427 10.3617 34.7044 10.5636C38.84 11.0989 42.1474 14.6249 44.2342 18.835C46.3754 23.1527 47.2332 28.191 46.3844 31.46Z" fill="#3D0027" stroke="black" stroke-width="0.569857" stroke-linecap="round" stroke-linejoin="round"/>
<path d="M43.2351 42.3352C42.7915 41.296 41.2484 41.9665 39.6001 41.0543C39.3526 40.9171 39.1334 40.7465 38.9385 40.5517C38.8885 40.5023 38.8411 40.4516 38.7943 40.3991C38.0955 39.6105 37.7506 38.5213 37.6057 37.7392C37.514 37.2436 37.5018 36.8712 37.53 36.7763C41.5099 39.1489 42.2414 38.7085 42.7774 40.392L43.2351 42.3352Z" fill="#3D0027" stroke="black" stroke-width="0.569857" stroke-linecap="round" stroke-linejoin="round"/>
<path d="M43.3487 42.8228L43.2705 42.4907" stroke="black" stroke-width="0.569857" stroke-linecap="round" stroke-linejoin="round"/>
<path d="M46.496 37.7698C46.4774 37.8531 46.4581 37.9352 46.4383 38.0147C45.8158 40.4848 44.3797 41.2188 43.8271 41.4618C43.3309 41.6804 43.245 42.0927 43.263 42.4068C43.254 42.3824 43.2444 42.3587 43.2341 42.3356L42.7764 40.3925C42.8257 36.844 44.7028 38.2294 46.3787 31.7737C46.4806 32.3398 46.5582 32.8731 46.6146 33.3751C46.8236 35.2311 46.7396 36.6633 46.496 37.7698Z" fill="#3D0027" stroke="black" stroke-width="0.569857" stroke-linecap="round" stroke-linejoin="round"/>
<path d="M46.3767 42.3352C46.31 42.4897 46.2356 42.6256 46.1542 42.7468C45.6837 43.4558 45.0137 43.6584 44.6194 44.0719C43.8117 44.9194 43.7328 45.6689 43.7328 45.6689L43.3494 42.825C43.3341 42.6634 43.3046 42.5249 43.2629 42.407C43.245 42.0922 43.3309 41.68 43.8271 41.4614C44.3797 41.2184 45.8157 40.4844 46.4382 38.0142C46.5337 38.5399 46.5998 39.0124 46.6408 39.4381C46.7754 40.8344 46.6395 41.7274 46.3767 42.3352Z" fill="#3D0027" stroke="black" stroke-width="0.569857" stroke-linecap="round" stroke-linejoin="round"/>
<path d="M43.7326 45.6693C43.5165 44.3333 41.8798 45.2443 40.3649 43.9762C40.2559 43.8845 40.1546 43.7883 40.0604 43.687C40.0566 43.6838 40.0527 43.68 40.0495 43.6761C39.4212 42.9979 39.1045 42.1305 38.9468 41.4554C38.8699 41.1272 38.8308 40.8445 38.8109 40.6502C38.7987 40.5271 38.7943 40.4399 38.793 40.3995C38.8398 40.4521 38.8872 40.5028 38.9372 40.5521C39.1321 40.747 39.3514 40.9175 39.5988 41.0547C41.2471 41.967 42.7902 41.2964 43.2338 42.3356L43.2703 42.4914C43.2921 42.6735 43.3421 42.8075 43.3486 42.8235C43.3486 42.8248 43.3486 42.8254 43.3486 42.8254L43.7319 45.6693H43.7326Z" fill="#3D0027" stroke="black" stroke-width="0.569857" stroke-linecap="round" stroke-linejoin="round"/>
<path d="M38.793 40.3994C38.793 40.3833 38.793 40.3744 38.7936 40.3744" stroke="black" stroke-width="0.569857" stroke-linecap="round" stroke-linejoin="round"/>
<path d="M43.2704 42.4913C43.2672 42.4644 43.2646 42.4362 43.2627 42.4073" stroke="black" stroke-width="0.569857" stroke-linecap="round" stroke-linejoin="round"/>
<path d="M46.2144 45.5209C46.1843 45.5869 46.1529 45.651 46.1189 45.7126C45.7426 46.4165 45.1874 46.8274 44.7553 47.1255C43.8994 47.716 43.9918 48.4846 43.9982 48.5321C43.9834 48.4744 43.9668 48.4199 43.9482 48.3686L43.7334 45.669C43.7334 45.669 43.8123 44.9195 44.62 44.072C45.0143 43.6585 45.6842 43.4559 46.1548 42.7469C46.2362 42.6257 46.3106 42.4898 46.3773 42.3353C46.3971 42.4289 46.4151 42.5206 46.4311 42.6103C46.4856 42.9091 46.5196 43.188 46.5356 43.4482C46.5927 44.3265 46.4523 44.9977 46.2144 45.5209Z" fill="#3D0027" stroke="black" stroke-width="0.569857" stroke-linecap="round" stroke-linejoin="round"/>
<path d="M43.9476 48.3685C43.5149 47.1568 42.1455 47.4684 41.2634 46.619C41.2192 46.576 41.1756 46.5305 41.1339 46.4824C40.6755 45.9554 40.3909 45.14 40.2293 44.5239C40.121 44.1129 40.0678 43.7905 40.0537 43.7007C40.0511 43.6847 40.0498 43.6757 40.0498 43.6757C40.053 43.6796 40.0569 43.6834 40.0607 43.6866C40.1549 43.7879 40.2562 43.8841 40.3652 43.9758C41.8801 45.2438 43.5168 44.3328 43.7329 45.6689L43.9476 48.3685Z" fill="#3D0027" stroke="black" stroke-width="0.569857" stroke-linecap="round" stroke-linejoin="round"/>
<path d="M44.4134 50.9899C44.2409 50.0918 43.5569 50.4482 42.5856 50.077C42.3933 50.0033 42.2273 49.9033 42.085 49.7821C42.085 49.7821 42.0845 49.7817 42.0837 49.7808C42.0196 49.727 41.9606 49.6693 41.9067 49.6078C41.4041 49.0481 41.2586 48.2076 41.2304 47.5608C41.2067 47.0229 41.2637 46.619 41.2637 46.619C42.1459 47.4684 43.5152 47.1569 43.948 48.3685C43.9666 48.4198 43.9832 48.4743 43.998 48.532C43.998 48.5326 43.9986 48.5339 43.9986 48.5346L44.4134 50.9899Z" fill="#3D0027" stroke="black" stroke-width="0.569857" stroke-linecap="round" stroke-linejoin="round"/>
<path d="M46.4034 48.5323C46.3272 48.7195 46.2368 48.8926 46.138 49.049C45.8265 49.549 45.4335 49.8843 45.1411 49.9927C44.3667 50.2799 44.4212 51.0338 44.4212 51.0338C44.4186 51.0191 44.4161 51.0043 44.4135 50.9902L43.9987 48.5348C43.9987 48.5348 43.9981 48.5329 43.9981 48.5323C43.9917 48.4848 43.8993 47.7162 44.7552 47.1257C45.1873 46.8276 45.7425 46.4167 46.1188 45.7128C46.1528 45.6512 46.1842 45.5871 46.2143 45.5211C46.2291 45.5493 46.2425 45.5775 46.256 45.605C46.3765 45.8512 46.4669 46.0929 46.5297 46.3276C46.758 47.1674 46.6515 47.9245 46.4034 48.5323Z" fill="#3D0027" stroke="black" stroke-width="0.569857" stroke-linecap="round" stroke-linejoin="round"/>
<path d="M44.79 53.8667C44.6695 53.4334 44.7778 53.0756 43.2623 52.2672C43.1905 52.2287 43.1225 52.189 43.059 52.1467C42.9462 52.073 42.8455 51.9941 42.7564 51.9114C42.1384 51.3396 42.0666 50.601 42.0737 50.1606C42.0769 49.9452 42.0993 49.8016 42.0859 49.7823C42.2282 49.9035 42.3942 50.0035 42.5866 50.0772C43.5578 50.4484 44.2418 50.092 44.4143 50.9902C44.4169 51.0043 44.4194 51.019 44.422 51.0338L44.7707 53.7097C44.7746 53.7853 44.7848 53.8417 44.79 53.8667Z" fill="#3D0027" stroke="black" stroke-width="0.569857" stroke-linecap="round" stroke-linejoin="round"/>
<path d="M46.4437 51.4666C46.4437 51.4666 46.4437 51.4666 46.4437 51.4679C46.1873 52.2225 45.711 52.6122 45.3244 52.7911C44.8154 53.0264 44.7589 53.4668 44.7705 53.7098L44.4217 51.0339C44.4217 51.0339 44.3672 50.28 45.1417 49.9927C45.434 49.8844 45.827 49.5491 46.1386 49.0491C46.2373 48.8926 46.3277 48.7195 46.404 48.5323C46.4283 48.6324 46.4501 48.7298 46.47 48.8253C46.5142 49.0369 46.5482 49.2375 46.5732 49.4279C46.6886 50.2998 46.6149 50.964 46.4444 51.4666H46.4437Z" fill="#3D0027" stroke="black" stroke-width="0.569857" stroke-linecap="round" stroke-linejoin="round"/>
<path d="M44.791 53.8752C44.791 53.8752 44.7918 53.8792 44.7926 53.8816" stroke="black" stroke-width="0.569857" stroke-linecap="round" stroke-linejoin="round"/>
<path d="M42.0856 49.7822L42.084 49.7806" stroke="black" stroke-width="0.569857" stroke-linecap="round" stroke-linejoin="round"/>
<path d="M45.3241 56.2914L45.2715 56.0523" stroke="black" stroke-width="0.569857" stroke-linecap="round" stroke-linejoin="round"/>
<path d="M46.1642 54.5964C46.0899 54.7221 46.0065 54.8176 45.9135 54.8721C45.3911 55.1798 45.3295 55.9613 45.3237 56.212C45.318 56.1722 45.3039 56.1184 45.2712 56.0517L44.7923 53.8797L44.7698 53.7091C44.7583 53.4662 44.8147 53.0257 45.3237 52.7905C45.7103 52.6116 46.1867 52.2218 46.4431 51.4672C46.5226 51.6711 46.5675 51.9711 46.5796 52.309C46.6091 53.0943 46.463 54.0906 46.1642 54.5964Z" fill="#3D0027" stroke="black" stroke-width="0.569857" stroke-linecap="round" stroke-linejoin="round"/>
<path d="M45.3238 56.2129C45.3309 56.2642 45.3238 56.2911 45.3238 56.2911C45.3238 56.2911 45.3225 56.2623 45.3238 56.2129Z" fill="#3D0027" stroke="black" stroke-width="0.569857" stroke-linecap="round" stroke-linejoin="round"/>
<path d="M45.2715 56.0516C45.1683 55.8446 44.8824 55.5144 44.1073 55.1118C43.9361 55.0227 43.7867 54.9041 43.656 54.765C43.2258 54.3091 43.0014 53.6328 42.8841 53.0532C42.8527 52.8975 42.8289 52.7487 42.811 52.6135C42.7578 52.2134 42.7559 51.9268 42.7559 51.9108C42.845 51.9935 42.9456 52.0724 43.0585 52.1461C43.1219 52.1884 43.1899 52.2282 43.2617 52.2666C44.7772 53.075 44.6689 53.4328 44.7894 53.8661C44.7843 53.8411 44.774 53.7847 44.7702 53.7091L44.7926 53.8796L45.2715 56.0516Z" fill="#3D0027" stroke="black" stroke-width="0.569857" stroke-linecap="round" stroke-linejoin="round"/>
<path d="M45.3236 56.2127C45.3236 56.2127 43.8459 57.466 44.0132 58.2879C44.1805 59.1098 47.2917 58.2212 47.5584 57.7321C47.8251 57.2429 45.3236 56.212 45.3236 56.212V56.2127Z" fill="#3D0027" stroke="black" stroke-width="0.569857" stroke-linecap="round" stroke-linejoin="round"/>
<path d="M40.0842 43.1138C40.0842 43.1138 40.0669 43.3081 40.0214 43.644C39.938 44.2601 39.7598 45.3532 39.4232 46.6046C38.9975 46.1622 38.6296 45.6641 38.3334 45.1262C37.0679 42.8285 37.0384 39.7731 35.0298 38.0864C34.6048 37.7293 34.1131 37.4588 33.697 37.0921C32.8924 36.3849 32.4206 35.3598 32.1943 34.3129C31.968 33.266 31.9661 32.1852 31.9654 31.1139C31.9622 27.9341 31.9597 24.7543 31.9571 21.5751C31.9571 20.9238 31.9558 20.2724 31.9404 19.6217C32.0366 20.1609 32.1161 20.75 32.177 21.3931C33.1284 31.4569 33.5496 34.4033 37.5288 36.776C37.5269 36.7831 37.525 36.792 37.523 36.8023C37.5205 36.8183 37.5186 36.8376 37.5173 36.8594C37.5153 36.8908 37.5147 36.9273 37.516 36.9703C37.516 36.9818 37.516 36.994 37.5166 37.0068C37.5179 37.0433 37.5198 37.0831 37.523 37.126C37.523 37.1357 37.5243 37.1453 37.525 37.1555C37.5275 37.1857 37.5301 37.2171 37.5333 37.2504C37.5346 37.2613 37.5359 37.2722 37.5371 37.2831C37.5378 37.2895 37.5384 37.2959 37.5391 37.303C37.5429 37.3389 37.5474 37.3761 37.5525 37.4152C37.5647 37.5062 37.5801 37.6056 37.5993 37.7101C37.6025 37.7274 37.6057 37.7447 37.6089 37.7627C37.6198 37.8216 37.6327 37.8825 37.6455 37.9447C37.6525 37.9755 37.6596 38.0075 37.6673 38.0396C37.6763 38.0781 37.6852 38.1165 37.6949 38.1556C37.7045 38.1947 37.7147 38.2339 37.7256 38.2736C37.7314 38.2948 37.7372 38.3159 37.7429 38.3377C37.7481 38.3563 37.7532 38.3749 37.759 38.3941C37.8282 38.6365 37.9154 38.8897 38.0224 39.1416C38.0295 39.1596 38.0372 39.1775 38.0455 39.1955C38.0564 39.2205 38.0673 39.2455 38.0789 39.2705C38.0885 39.2916 38.0981 39.3122 38.1077 39.3333C38.1282 39.3763 38.1487 39.4192 38.1699 39.4615C38.2007 39.5231 38.2327 39.584 38.2667 39.6449C38.2776 39.6654 38.2891 39.6859 38.3013 39.7064C38.3366 39.7673 38.3725 39.8282 38.4109 39.8879C38.4481 39.9475 38.4872 40.0065 38.5289 40.0642C38.5417 40.0834 38.5558 40.1026 38.5706 40.1219C38.584 40.1411 38.5988 40.1597 38.6129 40.1789C38.6411 40.2167 38.6699 40.2533 38.7007 40.2898C38.7155 40.3084 38.7302 40.3264 38.7462 40.3443C38.7616 40.3623 38.777 40.3802 38.793 40.3982C38.7969 40.4033 38.8014 40.4078 38.8052 40.4123C38.8296 40.4398 38.8552 40.4674 38.8809 40.4937C38.9084 40.5225 38.936 40.5514 38.9649 40.579C38.9719 40.586 38.979 40.5931 38.9866 40.6001C39.0097 40.6226 39.0334 40.6443 39.0578 40.6655C39.0636 40.6713 39.0693 40.6764 39.0751 40.6815C39.1027 40.7065 39.1315 40.7309 39.1604 40.7546C39.1617 40.7559 39.1636 40.7572 39.1655 40.7585C39.1963 40.7841 39.2277 40.8091 39.2598 40.8328C39.2662 40.838 39.2726 40.8431 39.2796 40.8476C39.3098 40.87 39.3405 40.8925 39.3713 40.9136C39.4002 40.9328 39.4296 40.9527 39.4598 40.9713C39.4758 40.9816 39.4918 40.9918 39.5085 41.0008C39.538 41.0194 39.5681 41.0373 39.5989 41.054C39.5989 41.054 39.6354 41.9252 40.0842 43.1138Z" fill="#894B38"/>
<path d="M32.1946 34.3127C32.1946 34.3127 30.9561 39.0305 27.1108 40.2326L26.9717 36.8938" fill="#663421"/>
<path d="M28.3218 14.8753C27.2403 17.0043 26.2421 19.0443 25.4965 21.3265C25.0747 22.6171 24.6933 23.9198 24.2977 25.218C23.1213 29.0741 21.7923 32.9207 21.1339 36.8852C20.8191 36.7307 20.5146 36.5422 20.2236 36.3152C15.8033 32.8771 18.4381 25.9264 21.3602 20.7823C23.4072 17.1781 25.5946 14.4611 25.5946 14.4611C25.5946 14.4611 26.9845 13.688 28.4994 14.1444C28.5174 14.3534 28.4635 14.5957 28.3218 14.8753Z" fill="#AD8679"/>
<path d="M40.0852 43.1142C40.0852 43.1142 40.0679 43.3085 40.0224 43.6444C39.939 44.2605 39.7608 45.3535 39.4242 46.6049C38.5581 49.8258 36.6412 54.0967 32.5735 53.989C26.0633 53.8172 26.6864 44.0419 26.6864 44.0419C27.441 43.5783 26.9723 36.8943 26.9723 36.8943C24.6368 37.6547 22.1468 37.8117 20.2236 36.3154C15.8033 32.8773 18.4381 25.9266 21.3602 20.7825C23.4072 17.1783 25.5946 14.4613 25.5946 14.4613C25.5946 14.4613 30.5304 11.7162 31.9414 19.6221C32.0376 20.1613 32.1171 20.7504 32.178 21.3934C33.1294 31.4573 33.5506 34.4037 37.5298 36.7764C37.5279 36.7834 37.5259 36.7924 37.524 36.8027C37.5215 36.8187 37.5195 36.8379 37.5183 36.8597C37.5163 36.8911 37.5157 36.9277 37.517 36.9706C37.517 36.9822 37.517 36.9944 37.5176 37.0072C37.5189 37.0437 37.5208 37.0835 37.524 37.1264C37.524 37.136 37.5253 37.1457 37.526 37.1559C37.5285 37.186 37.5311 37.2175 37.5343 37.2508C37.5356 37.2617 37.5368 37.2726 37.5381 37.2835C37.5388 37.2899 37.5394 37.2963 37.5401 37.3034C37.5439 37.3393 37.5484 37.3764 37.5535 37.4155C37.5657 37.5066 37.5811 37.606 37.6003 37.7105C37.6035 37.7278 37.6067 37.7451 37.6099 37.763C37.6208 37.822 37.6337 37.8829 37.6465 37.9451C37.6535 37.9759 37.6606 38.0079 37.6683 38.04C37.6772 38.0784 37.6862 38.1169 37.6958 38.156C37.7055 38.1951 37.7157 38.2342 37.7266 38.274C37.7324 38.2951 37.7381 38.3163 37.7439 38.3381C37.749 38.3567 37.7542 38.3753 37.7599 38.3945C37.8292 38.6368 37.9164 38.8901 38.0234 39.142C38.0305 39.16 38.0382 39.1779 38.0465 39.1959C38.0574 39.2209 38.0683 39.2459 38.0798 39.2709C38.0895 39.292 38.0991 39.3125 38.1087 39.3337C38.1292 39.3766 38.1497 39.4196 38.1709 39.4619C38.2017 39.5235 38.2337 39.5844 38.2677 39.6453C38.2786 39.6658 38.2901 39.6863 38.3023 39.7068C38.3376 39.7677 38.3735 39.8286 38.4119 39.8882C38.4491 39.9479 38.4882 40.0068 38.5299 40.0645C38.5427 40.0838 38.5568 40.103 38.5716 40.1222C38.585 40.1415 38.5998 40.1601 38.6139 40.1793C38.6421 40.2171 38.6709 40.2537 38.7017 40.2902C38.7165 40.3088 38.7312 40.3267 38.7472 40.3447C38.7626 40.3626 38.778 40.3806 38.794 40.3985C38.7979 40.4037 38.8024 40.4082 38.8062 40.4126C38.8306 40.4402 38.8562 40.4678 38.8819 40.4941C38.9094 40.5229 38.937 40.5518 38.9658 40.5793C38.9729 40.5864 38.9799 40.5934 38.9876 40.6005C39.0107 40.6229 39.0344 40.6447 39.0588 40.6659C39.0646 40.6716 39.0703 40.6768 39.0761 40.6819C39.1037 40.7069 39.1325 40.7313 39.1614 40.755C39.1627 40.7563 39.1646 40.7576 39.1665 40.7588C39.1973 40.7845 39.2287 40.8095 39.2607 40.8332C39.2672 40.8383 39.2736 40.8435 39.2806 40.8479C39.3107 40.8704 39.3415 40.8928 39.3723 40.914C39.4011 40.9332 39.4306 40.9531 39.4608 40.9717C39.4768 40.9819 39.4928 40.9922 39.5095 41.0012C39.539 41.0198 39.5691 41.0377 39.5999 41.0544C39.5999 41.0544 39.6364 41.9256 40.0852 43.1142Z" stroke="black" stroke-width="0.569857" stroke-linecap="round" stroke-linejoin="round"/>
<path d="M46.3776 42.3348C46.3975 42.4284 46.4154 42.5201 46.4314 42.6098C46.3468 42.6707 46.2551 42.7195 46.1551 42.7464C46.1519 42.747 46.1487 42.7483 46.1455 42.749C45.9416 42.8009 45.6929 42.7323 45.6006 42.5438C45.5499 42.4412 45.5519 42.322 45.5602 42.2079C45.6192 41.4193 45.9423 40.7032 46.3244 40.0224C46.3814 39.9211 46.4962 39.6935 46.6417 39.4377C46.7763 40.834 46.6404 41.7271 46.3776 42.3348Z" fill="#6D1151"/>
<path d="M44.229 19.1484C44.1174 19.4452 43.9777 19.7324 43.8097 20.0043C43.3616 18.6939 42.8474 17.329 41.7928 16.4315C41.0242 15.7769 40.0446 15.439 39.1278 15.0166C36.9609 14.0178 34.9915 12.4682 32.6394 12.0656C31.981 11.9534 31.1963 11.865 30.8796 11.2771C30.7988 11.1271 30.7642 10.9655 30.7667 10.8033C31.8418 10.6725 33.1375 10.6751 34.6992 10.8771C38.8349 11.4124 42.1422 14.9384 44.229 19.1484Z" fill="#6D1151"/>
<path d="M46.4965 37.7699C46.3958 37.8436 46.2849 37.8981 46.1612 37.9135C45.917 37.9443 45.6727 37.8077 45.5265 37.6103C45.3804 37.4128 45.3201 37.1634 45.3021 36.9179C45.2483 36.1755 45.5509 35.4568 45.8836 34.7914C46.1131 34.3317 46.3446 33.8304 46.6151 33.3752C46.8241 35.2312 46.7401 36.6634 46.4965 37.7699Z" fill="#6D1151"/>
<path d="M46.2146 45.5209C46.2293 45.5491 46.2428 45.5774 46.2562 45.6049C46.2107 45.6408 46.1646 45.6767 46.119 45.7126C46.1158 45.7152 46.1133 45.7171 46.1101 45.7197C46.0389 45.7755 45.953 45.8351 45.8645 45.8126C45.8139 45.8005 45.7729 45.7614 45.7421 45.7184C45.6068 45.5293 45.6427 45.269 45.7126 45.0472C45.8248 44.6888 46.0101 44.3586 46.1934 44.031C46.3037 43.8349 46.4139 43.6374 46.5358 43.4483C46.5928 44.3266 46.4524 44.9978 46.2146 45.5209Z" fill="#6D1151"/>
<path d="M46.4039 48.5321C46.4282 48.6321 46.45 48.7295 46.4699 48.8251C46.3878 48.9071 46.3013 48.9879 46.1936 49.0315C46.1756 49.0385 46.1571 49.045 46.1385 49.0488C46.0397 49.0738 45.9295 49.0603 45.8545 48.993C45.7455 48.8949 45.7468 48.7257 45.7628 48.5802C45.8102 48.1506 45.9134 47.7269 46.0667 47.3223C46.166 47.0601 46.3218 46.6729 46.5302 46.3274C46.7584 47.1672 46.652 47.9243 46.4039 48.5321Z" fill="#6D1151"/>
<path d="M46.4434 51.466C46.3703 51.5275 46.2915 51.5807 46.2036 51.6198C46.1427 51.6468 46.0728 51.6666 46.0087 51.6474C45.8626 51.6025 45.8453 51.4038 45.8632 51.2518C45.9395 50.6018 46.1459 49.9357 46.5723 49.4273C46.6877 50.2992 46.6139 50.9634 46.4434 51.466Z" fill="#6D1151"/>
<path d="M46.1643 54.5968C46.0777 54.6719 45.9764 54.7187 45.8783 54.6731C45.7501 54.6129 45.7341 54.4385 45.745 54.2975C45.7847 53.8064 45.9348 53.3262 46.1777 52.898C46.2854 52.7069 46.4201 52.4915 46.5797 52.3094C46.6092 53.0948 46.463 54.091 46.1643 54.5968Z" fill="#6D1151"/>
<path d="M36.1696 35.1006C36.1163 35.2788 36.0439 35.4641 35.9484 35.6314C33.5045 33.428 33.0192 30.1789 32.2666 22.3191V22.3185C32.3371 22.2121 32.4115 22.1082 32.4897 22.0057C32.6121 21.8447 32.7827 21.6748 32.9821 21.7063C33.2077 21.7415 33.3097 22.0037 33.3571 22.2268C33.702 23.8501 33.4231 25.615 34.1174 27.1215C34.438 27.8178 34.9464 28.4082 35.3522 29.0583C36.4613 30.8347 36.7671 33.0927 36.1696 35.1006Z" fill="#6D1151"/>
<path d="M39.0441 40.3713C39.0165 40.4354 38.9825 40.4989 38.9383 40.5515C38.912 40.5823 38.8819 40.6098 38.8473 40.631C38.8357 40.638 38.8242 40.6444 38.812 40.6496C38.7998 40.5265 38.7953 40.4393 38.794 40.3989C38.0953 39.6104 37.7504 38.5211 37.6055 37.739C37.8786 37.757 38.1376 37.8954 38.3543 38.0666C38.6928 38.3346 38.9614 38.6955 39.0934 39.1065C39.2261 39.5168 39.2172 39.9764 39.0441 40.3713Z" fill="#6D1151"/>
<path d="M40.2349 43.1444C40.1964 43.3303 40.1471 43.5181 40.0618 43.6861C40.0593 43.6912 40.0567 43.6957 40.0548 43.7002C40.0522 43.6842 40.0509 43.6752 40.0509 43.6752C39.4226 42.9969 39.106 42.1295 38.9482 41.4545C39.4637 41.4115 40.0048 41.7449 40.2195 42.2699C40.3311 42.5443 40.2952 42.8546 40.2349 43.1444Z" fill="#6D1151"/>
<path d="M41.2075 46.1956C41.1876 46.2911 41.1645 46.3879 41.135 46.4822C40.6767 45.9552 40.392 45.1397 40.2305 44.5237C40.6401 44.6044 41.0203 44.9013 41.1915 45.3218C41.3037 45.5956 41.2678 45.9059 41.2075 46.1956Z" fill="#6D1151"/>
<path d="M43.136 51.846C43.1148 51.9467 43.0911 52.048 43.059 52.146C43.0142 52.2884 42.9539 52.4249 42.8667 52.5454C42.8494 52.5685 42.8314 52.5916 42.8116 52.6134C42.7584 52.2134 42.7564 51.9268 42.7564 51.9108C42.1384 51.3389 42.0666 50.6004 42.0737 50.1599C42.5147 50.2132 42.9366 50.5228 43.1206 50.9716C43.2321 51.2453 43.1962 51.5562 43.136 51.846Z" fill="#6D1151"/>
<path d="M42.029 49.1836C41.9988 49.3272 41.9623 49.4721 41.9078 49.608C41.4052 49.0483 41.2597 48.2078 41.2314 47.561C41.5693 47.6822 41.8674 47.9514 42.0136 48.3091C42.1251 48.5829 42.0892 48.8938 42.029 49.1836Z" fill="#6D1151"/>
<path d="M43.6762 54.6732C43.6698 54.704 43.6634 54.7341 43.6557 54.7649C43.2255 54.3091 43.0011 53.6327 42.8838 53.0532C43.2197 53.175 43.5153 53.443 43.6608 53.7994C43.7723 54.0731 43.7364 54.3834 43.6762 54.6732Z" fill="#6D1151"/>
<path d="M23.657 24.0597C23.657 24.0597 22.4101 27.0414 22.8434 27.4754C23.2768 27.9094 24.2532 26.3368 24.2532 26.3368" stroke="black" stroke-width="0.569857" stroke-linecap="round" stroke-linejoin="round"/>
<path d="M26.4727 32.3022C25.2046 33.0946 23.875 31.7323 23.875 31.7323C23.875 31.7323 24.9783 31.738 25.9976 31.0713C27.017 30.4046 27.3497 29.6725 27.3497 29.6725C27.3497 29.6725 27.7401 31.5105 26.4727 32.3022Z" fill="#E938B5" stroke="black" stroke-width="0.569857" stroke-linecap="round" stroke-linejoin="round"/>
<path d="M27.3497 29.6722C27.3497 29.6722 27.017 30.4043 25.9976 31.071C24.9783 31.7377 23.875 31.732 23.875 31.732C23.875 31.732 24.4635 30.3286 24.8027 30.3966C25.1424 30.4645 25.3232 30.6633 25.4591 30.394C25.595 30.1254 25.4367 29.8536 25.7758 29.6722C26.1156 29.4914 27.3497 29.6722 27.3497 29.6722Z" fill="#E938B5" stroke="black" stroke-width="0.569857" stroke-linecap="round" stroke-linejoin="round"/>
<path d="M27.6849 28.7003L27.3496 29.6728" stroke="black" stroke-width="0.569857" stroke-linecap="round" stroke-linejoin="round"/>
<path d="M27.0361 28.5294C27.2131 28.4723 27.4099 28.5082 27.5779 28.589C27.7458 28.6698 27.8894 28.7922 28.0298 28.914C28.1119 28.9852 28.1991 29.0666 28.2157 29.1737" stroke="black" stroke-width="0.569857" stroke-linecap="round" stroke-linejoin="round"/>
<path d="M32.1773 34.278C30.8554 35.1524 28.97 36.2436 26.9717 36.8936" stroke="black" stroke-width="0.569857" stroke-linecap="round" stroke-linejoin="round"/>
<path d="M46.3795 31.7734C44.7037 38.2292 42.8266 36.8438 42.7772 40.3922C42.2413 38.7087 41.5098 39.1491 37.5299 36.7765C33.5507 34.4038 33.1295 31.4573 32.1781 21.3935C31.2273 11.329 25.5947 14.4614 25.5947 14.4614C25.5947 14.4614 25.637 14.1921 25.8172 13.7972C26.0935 13.1908 26.6948 12.2913 27.9687 11.6201C29.3188 10.9085 31.4242 10.4533 34.6995 10.8771C43.0772 11.9612 48.0553 25.317 46.3795 31.7734Z" stroke="black" stroke-width="0.569857" stroke-linecap="round" stroke-linejoin="round"/>
<path d="M43.2352 42.3352C42.7916 41.2959 41.2485 41.9665 39.6002 41.0543C39.2899 40.8824 39.0232 40.6568 38.7944 40.3991C37.6526 39.1124 37.4571 37.0212 37.5301 36.7763C41.51 39.1489 42.2415 38.7085 42.7775 40.392L43.2352 42.3352Z" stroke="black" stroke-width="0.569857" stroke-linecap="round" stroke-linejoin="round"/>
<path d="M43.3497 42.8236L43.2715 42.4915" stroke="black" stroke-width="0.569857" stroke-linecap="round" stroke-linejoin="round"/>
<path d="M46.4392 38.0147C45.8168 40.4848 44.3807 41.2188 43.8281 41.4618C43.3319 41.6804 43.246 42.0926 43.2639 42.4068C43.255 42.3824 43.2453 42.3587 43.2351 42.3356L42.7773 40.3925C42.8267 36.844 44.7038 38.2294 46.3796 31.7737C46.8867 34.59 46.7983 36.5908 46.4392 38.0147Z" stroke="black" stroke-width="0.569857" stroke-linecap="round" stroke-linejoin="round"/>
<path d="M46.3776 42.3351C45.9212 43.3929 45.082 43.5877 44.6204 44.0718C43.8126 44.9193 43.7338 45.6687 43.7338 45.6687L43.3504 42.8248C43.335 42.6633 43.3055 42.5248 43.2639 42.4069C43.2459 42.0921 43.3318 41.6799 43.828 41.4613C44.3807 41.2183 45.8167 40.4842 46.4392 38.0141C46.8476 40.2631 46.7206 41.542 46.3776 42.3351Z" stroke="black" stroke-width="0.569857" stroke-linecap="round" stroke-linejoin="round"/>
<path d="M43.7335 45.6693C43.5175 44.3333 41.8808 45.2442 40.3659 43.9762C40.2531 43.8813 40.1479 43.7813 40.0505 43.6761C38.9228 42.4594 38.7997 40.6329 38.7939 40.3995C39.0228 40.6572 39.2895 40.8829 39.5998 41.0547C41.248 41.967 42.7911 41.2964 43.2348 42.3356L43.2713 42.4914C43.2931 42.6735 43.3431 42.8075 43.3495 42.8235C43.3495 42.8248 43.3495 42.8254 43.3495 42.8254L43.7329 45.6693H43.7335Z" stroke="black" stroke-width="0.569857" stroke-linecap="round" stroke-linejoin="round"/>
<path d="M38.7946 40.3744C38.7946 40.3744 38.7939 40.3833 38.7939 40.3987" stroke="black" stroke-width="0.569857" stroke-linecap="round" stroke-linejoin="round"/>
<path d="M43.2714 42.4911C43.2682 42.4642 43.2656 42.436 43.2637 42.4072" stroke="black" stroke-width="0.569857" stroke-linecap="round" stroke-linejoin="round"/>
<path d="M46.2144 45.5209C45.8407 46.3441 45.2252 46.8012 44.7553 47.1256C43.8994 47.716 43.9918 48.4847 43.9982 48.5321C43.9834 48.4744 43.9668 48.4199 43.9482 48.3686L43.7334 45.669C43.7334 45.669 43.8123 44.9196 44.62 44.072C45.0816 43.588 45.9208 43.3931 46.3773 42.3353C46.6863 43.7868 46.5439 44.7958 46.2144 45.5209Z" stroke="black" stroke-width="0.569857" stroke-linecap="round" stroke-linejoin="round"/>
<path d="M43.9486 48.3683C43.5159 47.1567 42.1465 47.4683 41.2644 46.6188C40.3431 45.7335 40.0508 43.6756 40.0508 43.6756C40.1482 43.7807 40.2534 43.8807 40.3662 43.9756C41.8811 45.2437 43.5178 44.3327 43.7338 45.6687L43.9486 48.3683Z" stroke="black" stroke-width="0.569857" stroke-linecap="round" stroke-linejoin="round"/>
<path d="M44.4132 50.9901C44.2408 50.0919 43.5567 50.4484 42.5855 50.0772C42.3931 50.0035 42.2271 49.9035 42.0848 49.7823C40.9532 48.8283 41.2635 46.6191 41.2635 46.6191C42.1457 47.4686 43.515 47.157 43.9478 48.3687C43.9664 48.42 43.983 48.4745 43.9978 48.5322C43.9978 48.5328 43.9984 48.5341 43.9984 48.5347L44.4132 50.9901Z" stroke="black" stroke-width="0.569857" stroke-linecap="round" stroke-linejoin="round"/>
<path d="M46.4034 48.5323C46.0829 49.3157 45.5251 49.8503 45.1411 49.9927C44.3667 50.2799 44.4212 51.0338 44.4212 51.0338C44.4186 51.019 44.4161 51.0043 44.4135 50.9902L43.9987 48.5348C43.9987 48.5348 43.9981 48.5329 43.9981 48.5323C43.9917 48.4848 43.8993 47.7161 44.7552 47.1257C45.2251 46.8013 45.8406 46.3442 46.2143 45.5211C46.8105 46.6814 46.7291 47.7354 46.4034 48.5323Z" stroke="black" stroke-width="0.569857" stroke-linecap="round" stroke-linejoin="round"/>
<path d="M44.7901 53.8667C44.6696 53.4333 44.7779 53.0756 43.2624 52.2672C43.0624 52.1608 42.8957 52.0403 42.7566 51.9114C41.8373 51.0607 42.1264 49.84 42.086 49.7823C42.2283 49.9035 42.3944 50.0035 42.5867 50.0772C43.5579 50.4484 44.242 50.092 44.4144 50.9901C44.417 51.0043 44.4196 51.019 44.4221 51.0337L44.7709 53.7097C44.7747 53.7853 44.785 53.8417 44.7901 53.8667Z" stroke="black" stroke-width="0.569857" stroke-linecap="round" stroke-linejoin="round"/>
<path d="M46.4437 51.4679C46.1873 52.2225 45.711 52.6122 45.3244 52.7911C44.8154 53.0264 44.7589 53.4668 44.7705 53.7098L44.4217 51.0339C44.4217 51.0339 44.3672 50.2799 45.1417 49.9927C45.5257 49.8504 46.0834 49.3157 46.404 48.5323C46.7258 49.8613 46.6694 50.8056 46.4437 51.4679Z" stroke="black" stroke-width="0.569857" stroke-linecap="round" stroke-linejoin="round"/>
<path d="M44.792 53.8752C44.792 53.8752 44.7928 53.8792 44.7936 53.8816" stroke="black" stroke-width="0.569857" stroke-linecap="round" stroke-linejoin="round"/>
<path d="M42.0856 49.7822L42.084 49.7806" stroke="black" stroke-width="0.569857" stroke-linecap="round" stroke-linejoin="round"/>
<path d="M45.3241 56.2912L45.2715 56.0521" stroke="black" stroke-width="0.569857" stroke-linecap="round" stroke-linejoin="round"/>
<path d="M45.9145 54.8729C45.392 55.1807 45.3305 55.9621 45.3247 56.2128C45.319 56.1731 45.3048 56.1192 45.2722 56.0525L44.7933 53.8805L44.7708 53.71C44.7593 53.467 44.8157 53.0266 45.3247 52.7913C45.7113 52.6124 46.1876 52.2227 46.4441 51.4681C46.7531 52.265 46.5409 54.5043 45.9145 54.8729Z" stroke="black" stroke-width="0.569857" stroke-linecap="round" stroke-linejoin="round"/>
<path d="M45.3238 56.2131C45.3309 56.2643 45.3238 56.2913 45.3238 56.2913C45.3238 56.2913 45.3225 56.2624 45.3238 56.2131Z" stroke="black" stroke-width="0.569857" stroke-linecap="round" stroke-linejoin="round"/>
<path d="M45.2715 56.0525C45.1683 55.8454 44.8824 55.5152 44.1073 55.1126C42.7751 54.4183 42.7559 51.9591 42.7559 51.9117C42.895 52.0405 43.0617 52.1611 43.2617 52.2675C44.7772 53.0759 44.6689 53.4336 44.7894 53.867C44.7843 53.842 44.774 53.7856 44.7702 53.7099L44.7926 53.8805L45.2715 56.0525Z" stroke="black" stroke-width="0.569857" stroke-linecap="round" stroke-linejoin="round"/>
<path d="M45.3246 56.2127C45.3246 56.2127 43.8469 57.466 44.0142 58.2879C44.1815 59.1098 47.2927 58.2212 47.5594 57.7321C47.8261 57.2429 45.3246 56.212 45.3246 56.212V56.2127Z" stroke="black" stroke-width="0.569857" stroke-linecap="round" stroke-linejoin="round"/>
<path d="M25.5947 14.4613C25.5947 14.4613 27.4064 13.4548 28.5027 15.4909C29.599 17.5263 27.0763 24.2796 30.2144 28.916C30.2144 28.916 29.3246 24.9816 30.2144 22.5467C31.1043 20.1119 31.5735 16.6448 29.8285 14.9081C29.8285 14.9081 28.5155 13.1131 25.5947 14.4613Z" fill="#3D0027" stroke="black" stroke-width="0.569857" stroke-linecap="round" stroke-linejoin="round"/>
<path d="M13.7968 62.7716C13.7968 62.7716 17.7043 64.3962 21.9868 63.4332C22.1015 63.4076 22.2175 63.38 22.3329 63.3499C22.299 63.2044 22.265 63.0588 22.2304 62.9146C22.2233 62.8845 22.2163 62.8543 22.2086 62.8249C22.0034 61.9536 21.8008 61.0952 21.6136 60.2977C21.0777 58.0141 20.67 56.2312 20.6648 56.0838C20.6616 55.9895 20.7443 55.8145 20.877 55.5901C21.3514 54.7901 22.4644 53.3656 22.5875 52.7841C22.7458 52.0392 22.5592 48.442 21.0104 47.3265C20.954 47.2861 20.8065 47.2643 20.5943 47.2618C20.4828 47.2605 20.3533 47.263 20.2103 47.272C20.1712 47.2746 20.1314 47.2771 20.0904 47.2803C20.05 47.2835 20.0083 47.2874 19.966 47.2906C19.9654 47.2906 19.9654 47.2893 19.9648 47.2906C19.9648 47.2906 19.9641 47.2906 19.9635 47.2906C19.9615 47.2906 19.9603 47.2906 19.959 47.2906C19.9564 47.2906 19.9526 47.2906 19.9481 47.2906C19.9449 47.2906 19.941 47.2906 19.9378 47.2906C19.9301 47.2906 19.9224 47.2919 19.9141 47.2932C19.8865 47.2964 19.857 47.2989 19.8276 47.3021C19.8128 47.3034 19.7981 47.3047 19.7833 47.3066C19.7231 47.3124 19.6628 47.3194 19.6006 47.3265C19.5795 47.3297 19.557 47.3323 19.5346 47.3355C19.5237 47.3361 19.5128 47.3374 19.5012 47.3393C19.4782 47.3419 19.4551 47.3451 19.4326 47.3483C19.3987 47.3528 19.3647 47.3573 19.3301 47.3624C19.3185 47.3637 19.307 47.365 19.2955 47.3675C19.2615 47.3727 19.2262 47.3778 19.191 47.3829C19.1788 47.3842 19.1666 47.3868 19.1557 47.388C19.1204 47.3938 19.0845 47.3996 19.0486 47.4054C19.0006 47.413 18.9531 47.4207 18.905 47.4297C18.8807 47.4336 18.8563 47.4381 18.8319 47.4425C18.6992 47.4663 18.564 47.4925 18.4274 47.5207C18.3774 47.5316 18.3287 47.5419 18.2793 47.5528C18.1146 47.5887 17.9492 47.6285 17.787 47.6714C17.7171 47.69 17.6485 47.7086 17.5799 47.7278C17.5318 47.7419 17.4844 47.756 17.4363 47.7701C17.4094 47.7785 17.3831 47.7868 17.3562 47.7951C17.3267 47.8041 17.2965 47.8137 17.2664 47.8227C17.2061 47.8419 17.1465 47.8618 17.0882 47.883C17.0805 47.8855 17.0728 47.8887 17.0651 47.8913C17.0613 47.8926 17.0581 47.8932 17.0542 47.8951C17.0497 47.8964 17.0452 47.8977 17.0401 47.8996C17.0369 47.9003 17.0331 47.9022 17.0305 47.9035C17.0151 47.9086 17.0004 47.9137 16.9856 47.9195C16.9452 47.9336 16.9055 47.9484 16.867 47.9637C16.8497 47.9702 16.8317 47.9772 16.8144 47.9843C16.7939 47.9919 16.7734 48.0003 16.7529 48.0086H16.751C16.7401 48.0137 16.7292 48.0182 16.7183 48.0227C16.6978 48.0311 16.6772 48.04 16.6574 48.0484C16.633 48.0586 16.6093 48.0689 16.5856 48.0798C16.5785 48.0823 16.5727 48.0849 16.5663 48.0881C16.549 48.0958 16.5324 48.1035 16.515 48.1112C16.5099 48.1131 16.5048 48.1157 16.5003 48.1176C16.483 48.1259 16.4657 48.1343 16.449 48.142C16.433 48.1503 16.4163 48.158 16.4003 48.1663C16.3926 48.1702 16.3855 48.1734 16.3785 48.1766C16.3714 48.1798 16.3644 48.1836 16.358 48.1875C16.2458 48.2452 16.1419 48.3048 16.0483 48.3676C16.0304 48.3798 16.0131 48.3914 15.9951 48.4035C15.9535 48.433 15.9137 48.4625 15.8772 48.4926C15.874 48.4958 15.8708 48.4978 15.8675 48.5003C15.856 48.51 15.8451 48.5196 15.8342 48.5292C15.8175 48.5433 15.8022 48.558 15.7868 48.5728L15.7848 48.5741C15.7765 48.5824 15.7682 48.5894 15.7611 48.5978C15.7393 48.6196 15.7188 48.6407 15.7002 48.6632C15.6874 48.6773 15.6759 48.6914 15.665 48.7061C15.6624 48.7087 15.6605 48.7106 15.6586 48.7138C15.6528 48.7215 15.6477 48.7292 15.6419 48.7369C15.6368 48.744 15.631 48.7504 15.6265 48.7574C15.6246 48.7613 15.622 48.7645 15.6194 48.7677C15.6194 48.7677 15.6182 48.7696 15.6182 48.7702C15.6118 48.7792 15.6066 48.7882 15.6015 48.7978C15.5957 48.8068 15.5906 48.817 15.5855 48.826C15.5842 48.8286 15.5823 48.8311 15.581 48.8343C15.5765 48.8408 15.5733 48.8478 15.5707 48.8549C15.5701 48.8561 15.5701 48.8568 15.5694 48.8581C15.565 48.8664 15.5605 48.8754 15.5573 48.8837C15.5521 48.8933 15.5489 48.9036 15.5451 48.9132C15.5432 48.9183 15.5406 48.9241 15.5393 48.9286C15.538 48.9324 15.5367 48.9363 15.5355 48.9401C15.5348 48.9414 15.5342 48.9427 15.5335 48.9446C15.5297 48.9594 15.5252 48.9728 15.522 48.9882C15.5201 48.9965 15.5182 49.0042 15.5162 49.0126C15.5149 49.0215 15.513 49.0299 15.5124 49.0389C15.5124 49.0408 15.5124 49.0421 15.5117 49.044C15.5105 49.0587 15.5085 49.0735 15.5073 49.0895C15.506 49.1062 15.506 49.1222 15.506 49.1389C15.506 49.1389 15.506 49.1395 15.506 49.1401L15.54 49.1972L15.9342 49.8684C15.9823 49.9575 16.0272 50.0441 16.0669 50.1255C16.1509 50.2967 16.2157 50.4486 16.2573 50.5755C16.2625 50.5916 16.2676 50.6082 16.2721 50.6249C16.2823 50.6563 16.29 50.6858 16.2952 50.7134C16.299 50.7275 16.3016 50.7409 16.3022 50.7538C16.3105 50.8051 16.3118 50.848 16.3048 50.8813C16.3028 50.8897 16.3009 50.898 16.2977 50.9051C16.2919 50.9192 16.2849 50.9314 16.2753 50.9403C16.2637 50.9506 16.2528 50.9615 16.2407 50.9717C16.2182 50.9916 16.1951 51.0096 16.1708 51.0256C16.158 51.0352 16.1445 51.0435 16.1304 51.0519C16.1156 51.0615 16.0996 51.0698 16.0842 51.0775C16.0586 51.0916 16.0336 51.1025 16.0067 51.1121C16.0009 51.1147 15.9958 51.1166 15.9894 51.1185C15.9778 51.1224 15.9663 51.1269 15.9541 51.1301C15.8733 51.1557 15.7887 51.1686 15.7009 51.1711C15.6746 51.1711 15.647 51.1711 15.6194 51.1705C15.5291 51.1673 15.4367 51.1538 15.3444 51.1327C15.329 51.1301 15.313 51.1262 15.2983 51.1218C15.0502 51.0596 14.8001 50.9448 14.5777 50.8211C14.5559 50.8089 14.5347 50.7967 14.5142 50.7852C14.4943 50.7736 14.4751 50.7615 14.4559 50.7499C14.4328 50.7358 14.4104 50.7217 14.3873 50.7083C14.1667 50.5717 13.9892 50.4377 13.8879 50.3589C13.8763 50.3492 13.8648 50.3403 13.8558 50.3326C13.85 50.3281 13.8449 50.3249 13.8398 50.3204C13.8167 50.3005 13.802 50.2883 13.7981 50.2858C13.7776 50.2454 13.7564 50.2056 13.7346 50.1659C13.7205 50.1396 13.7064 50.1133 13.691 50.087C13.6776 50.0627 13.6635 50.0383 13.6494 50.0133C13.5699 49.8742 13.4833 49.7344 13.3923 49.596C13.3801 49.5761 13.3679 49.5581 13.3551 49.5395C13.3141 49.478 13.2724 49.4158 13.2295 49.3549C13.2083 49.3261 13.1878 49.2972 13.1666 49.2677L13.1577 49.2549C13.1493 49.2434 13.1404 49.2318 13.132 49.2203C13.1115 49.1908 13.0903 49.1619 13.0679 49.1337C13.05 49.1081 13.0301 49.0824 13.0102 49.0574C12.9679 49.001 12.9249 48.9459 12.8807 48.8914C12.8538 48.8574 12.8262 48.8222 12.798 48.7888C12.7878 48.7747 12.7769 48.7619 12.7666 48.7497C12.7403 48.7177 12.714 48.6863 12.6871 48.6555C12.6557 48.6177 12.6236 48.5811 12.5916 48.5446C12.5666 48.5151 12.5416 48.4869 12.5153 48.458C12.4852 48.4228 12.4537 48.3894 12.4223 48.3555C12.3537 48.2811 12.2851 48.2093 12.2165 48.1407C12.1941 48.1182 12.1717 48.0958 12.1479 48.0734C12.1255 48.0509 12.1031 48.0285 12.08 48.0073C12.0633 47.9913 12.046 47.9746 12.0293 47.9593C12.0108 47.94 11.9915 47.9234 11.9729 47.9067C11.9434 47.8804 11.9152 47.8541 11.8864 47.8298C11.8838 47.8272 11.8813 47.8246 11.8787 47.8227C11.7896 47.7439 11.7024 47.6733 11.6171 47.6086C11.5953 47.5926 11.5742 47.5765 11.553 47.5618C11.5242 47.54 11.4947 47.5201 11.4665 47.5009C11.4511 47.49 11.4338 47.4791 11.4177 47.4682C11.3831 47.4457 11.3485 47.4239 11.3145 47.4047C11.3023 47.397 11.2889 47.3906 11.2761 47.3829C11.2607 47.3746 11.2459 47.3669 11.2312 47.3592C11.1863 47.3355 11.1414 47.3156 11.0998 47.2983C9.924 46.8322 9.37395 47.7201 9.23868 48.3106C9.10405 48.8997 10.8895 54.4458 11.1882 54.9843C11.7915 56.0748 14.2199 56.9839 14.2199 56.9839L14.0565 59.2129L13.9315 60.9112L13.7949 62.7729L13.7968 62.7716Z" fill="#94624B" stroke="black" stroke-width="0.569857" stroke-linecap="round" stroke-linejoin="round"/>
<path d="M13.8011 50.2829C14.1947 51.0484 14.3621 51.7632 14.0537 52.1549C13.2325 53.1973 10.5713 49.5489 10.5713 49.5489" fill="#FFD9D4"/>
<path d="M13.8011 50.2829C14.1947 51.0484 14.3621 51.7632 14.0537 52.1549C13.2325 53.1973 10.5713 49.5489 10.5713 49.5489" stroke="black" stroke-width="0.569857" stroke-linecap="round" stroke-linejoin="round"/>
<path d="M15.9346 49.8675C17.027 50.7785 19.4811 50.1214 19.4811 50.1214" stroke="black" stroke-width="0.569857" stroke-linecap="round" stroke-linejoin="round"/>
<path d="M13.3144 46.378C13.3817 46.4415 13.4516 46.5082 13.5208 46.5787C13.5227 46.5813 13.5253 46.5838 13.5259 46.5845C14.2125 47.2743 14.9588 48.2699 15.5056 49.1386V49.1399C15.5056 49.1225 15.5056 49.1059 15.5069 49.0892C15.5082 49.0719 15.5095 49.0552 15.512 49.0386C15.5146 49.0219 15.5178 49.0052 15.5217 48.9886C15.5255 48.9719 15.53 48.9559 15.5351 48.9398C15.5364 48.9366 15.5377 48.9328 15.539 48.9283C15.546 48.9091 15.5537 48.8898 15.5627 48.8706C15.5678 48.8584 15.5742 48.845 15.5819 48.8328C15.5877 48.8206 15.5941 48.8091 15.6018 48.7969C15.6095 48.7834 15.6178 48.7693 15.6268 48.7565C15.6313 48.7494 15.6364 48.7424 15.6422 48.736C15.6492 48.7257 15.6569 48.7155 15.6653 48.7052C15.6762 48.6904 15.6871 48.6763 15.7005 48.6622C15.7056 48.6552 15.7114 48.6488 15.7178 48.6424C15.7313 48.627 15.746 48.6116 15.7614 48.5969C15.7691 48.5879 15.7781 48.5795 15.7877 48.5712C15.8024 48.5571 15.8178 48.5417 15.8351 48.5276C15.8492 48.5154 15.8627 48.5033 15.8781 48.4911C15.9223 48.4545 15.9711 48.4186 16.023 48.384C16.0313 48.3782 16.0403 48.3718 16.0493 48.3661C16.0679 48.3526 16.0884 48.3404 16.1089 48.327C16.1339 48.3109 16.1595 48.2955 16.1865 48.2802C16.1961 48.2737 16.2063 48.2686 16.216 48.2635C16.2358 48.2519 16.2557 48.241 16.2762 48.2301C16.3031 48.2154 16.3307 48.2007 16.3589 48.1859C16.373 48.1789 16.3865 48.1718 16.4012 48.1648C16.4384 48.1462 16.4769 48.1276 16.516 48.1096C16.5391 48.0987 16.5628 48.0878 16.5865 48.0782C16.6102 48.0673 16.6339 48.0564 16.6583 48.0468C16.6782 48.0385 16.6987 48.0295 16.7192 48.0212C16.7307 48.016 16.7423 48.0122 16.7538 48.007C16.7743 47.9994 16.7942 47.9904 16.8154 47.9827C16.8327 47.9763 16.8506 47.9692 16.8679 47.9622C16.9064 47.9468 16.9462 47.932 16.9865 47.9179C17.0045 47.9115 17.0231 47.9045 17.0417 47.8981C17.0468 47.8961 17.0513 47.8949 17.0558 47.8936C17.0667 47.8891 17.0782 47.8852 17.0898 47.8814C17.1122 47.8731 17.1346 47.8654 17.1577 47.8577C17.1814 47.85 17.2039 47.8423 17.2269 47.8346C17.25 47.8269 17.2731 47.8192 17.2962 47.8115C17.343 47.7968 17.3898 47.7827 17.4372 47.7679C17.7103 47.6859 17.9956 47.6134 18.2803 47.5512C18.3296 47.5403 18.3796 47.5294 18.4284 47.5192C18.5143 47.5012 18.6008 47.4839 18.6861 47.4679C18.7348 47.4583 18.7842 47.4493 18.8322 47.441C18.954 47.4192 19.0739 47.3993 19.1912 47.3813C19.2259 47.3756 19.2611 47.3704 19.2957 47.366C19.3079 47.364 19.3188 47.3621 19.3304 47.3608C19.365 47.3551 19.3996 47.3506 19.4329 47.3467C19.4567 47.3435 19.4797 47.3403 19.5028 47.3378C19.5246 47.3339 19.5464 47.332 19.5682 47.3294C19.6413 47.3204 19.7137 47.3121 19.7836 47.3051C19.808 47.3018 19.833 47.2993 19.8573 47.2974C19.8855 47.2948 19.9131 47.2922 19.9394 47.2897C19.9907 47.2852 20.0407 47.2813 20.0894 47.2775C20.1304 47.2743 20.1702 47.2717 20.2093 47.2692C20.2093 47.2692 20.0106 46.219 19.6868 44.8362C19.0374 42.0648 17.8854 37.9612 16.8256 38.3279C16.5019 38.4401 16.3256 38.9087 16.2461 39.5632C15.9832 41.7205 16.7634 45.9024 16.7404 46.0722C16.7115 46.2947 12.5867 39.0542 11.0488 40.2473C10.0012 41.0596 12.5085 45.1516 13.3137 46.3755L13.3144 46.378Z" fill="#94624B" stroke="black" stroke-width="0.569857" stroke-linecap="round" stroke-linejoin="round"/>
<path d="M13.65 54.1602C13.8314 54.3192 14.0225 54.4737 14.2462 54.566C14.4693 54.6577 14.7322 54.6795 14.9489 54.5731C15.2521 54.4237 15.3931 54.0653 15.4303 53.7287C15.4675 53.3928 15.4284 53.0485 15.497 52.7177C15.5656 52.3863 15.7836 52.0504 16.1163 51.9914C16.3663 51.9472 16.6125 52.067 16.86 52.1241C17.5876 52.2921 18.3236 51.9119 18.9403 51.4913C19.1794 51.3285 19.4198 51.1496 19.5609 50.897C19.7609 50.5387 19.609 50.5118 19.4827 50.1213C19.2769 49.486 18.9653 48.5122 18.43 48.1128C17.8947 47.7134 16.1657 49.2539 15.5073 49.1398C14.4636 48.959 14.461 47.3262 13.4904 47.7499C12.8878 48.0134 12.3345 48.3788 11.8434 48.8154C11.544 49.0815 11.1523 49.3713 10.9786 49.7431C10.7876 50.1521 10.9837 50.5688 11.1696 50.9406C11.4536 51.5099 11.7896 52.0536 12.1717 52.5626C12.6076 53.1441 13.1045 53.6813 13.6513 54.1596L13.65 54.1602Z" fill="#663421"/>
<path d="M16.2768 50.9387C15.4825 51.7061 13.8419 50.3175 13.8015 50.2829H13.8009C13.147 49.011 11.8674 47.6006 11.1025 47.2973C11.1025 47.2973 11.2083 46.3222 11.9892 45.7914C12.2777 45.5952 12.7674 45.8696 13.3156 46.3786C13.3835 46.4415 13.4528 46.5081 13.522 46.5787C13.5246 46.5819 13.5259 46.5838 13.5278 46.5851C14.2144 47.2755 14.9606 48.2718 15.5075 49.1398C15.51 49.2225 15.5305 49.3078 15.5722 49.3963C15.6607 49.5873 15.7857 49.7424 15.9364 49.8675C16.2351 50.4214 16.3832 50.8361 16.2774 50.9387H16.2768Z" fill="#94624B" stroke="black" stroke-width="0.569857" stroke-linecap="round" stroke-linejoin="round"/>
<path d="M10.5703 49.5492C10.5703 49.5492 12.977 53.0489 13.9694 52.3662C14.9618 51.6828 13.3924 49.2139 11.8801 47.8215" fill="#94624B"/>
<path d="M10.5703 49.5492C10.5703 49.5492 12.977 53.0489 13.9694 52.3662C14.9618 51.6828 13.3924 49.2139 11.8801 47.8215" stroke="black" stroke-width="0.569857" stroke-linecap="round" stroke-linejoin="round"/>
<path d="M19.9665 47.2894C19.9665 47.2894 15.0384 47.7881 15.5808 49.4825C16.1231 51.1769 19.4818 50.1211 19.4818 50.1211" fill="#94624B"/>
<path d="M19.9665 47.2894C19.9665 47.2894 15.0384 47.7881 15.5808 49.4825C16.1231 51.1769 19.4818 50.1211 19.4818 50.1211" stroke="black" stroke-width="0.569857" stroke-linecap="round" stroke-linejoin="round"/>
<path d="M18.7135 51.2632C17.0954 51.5453 15.7286 52.9242 15.46 54.5443" stroke="black" stroke-width="0.569857" stroke-linecap="round" stroke-linejoin="round"/>
<path d="M14.2219 56.982L13.9334 60.91L13.7969 62.7711C13.7969 62.7711 17.9178 64.4847 22.333 63.35C22.0842 62.2999 21.8381 61.2549 21.6137 60.2977C21.0777 58.0142 20.67 56.2313 20.6649 56.0845" stroke="black" stroke-width="0.569857" stroke-linecap="round" stroke-linejoin="round"/>
<path d="M20.8765 55.5909C21.351 54.7908 22.4639 53.3663 22.587 52.7848C22.7453 52.0399 22.5588 48.4427 21.0099 47.3272C20.9535 47.2868 20.806 47.265 20.5938 47.2625C20.5784 47.5067 20.5861 47.7433 20.6105 47.9478C20.7535 49.1556 20.8689 50.239 20.7374 51.4635C20.6111 52.6438 20.4445 53.8477 20.7009 55.0068C20.7445 55.2037 20.8035 55.3992 20.8765 55.5909Z" fill="#AD8679"/>
<path d="M18.9473 45.377C19.2301 45.4751 19.5371 45.243 19.6474 44.9655C19.6641 44.9244 19.6769 44.8828 19.6878 44.8398C19.0384 42.0684 17.8863 37.9647 16.8266 38.3315C16.5029 38.4436 16.3266 38.9123 16.2471 39.5668C16.4035 39.6341 16.5554 39.7079 16.6952 39.7944C17.4709 40.2759 17.8767 41.1856 18.069 42.0786C18.2614 42.9717 18.2857 43.8974 18.5281 44.7783C18.596 45.0232 18.7082 45.2937 18.9473 45.377Z" fill="#AD8679"/>
<path d="M11.1895 54.9839C11.7927 56.0744 14.2212 56.9835 14.2212 56.9835L14.0577 59.2125L13.9327 60.9108L13.7961 62.7719C13.7961 62.7719 17.7042 64.397 21.986 63.4335C22.1008 63.4078 22.2168 63.3809 22.3322 63.3508C22.2976 63.2052 22.2636 63.0597 22.229 62.9148C22.222 62.8847 22.2149 62.8552 22.2079 62.8251C22.0021 61.9538 21.8001 61.0954 21.6129 60.2979C21.077 58.0143 20.6692 56.2315 20.6641 56.0846C20.6494 55.6545 22.429 53.5293 22.5867 52.7843C22.7457 52.0394 22.5585 48.4429 21.0103 47.3267C20.9238 47.2652 20.6257 47.2479 20.2102 47.2722" stroke="black" stroke-width="0.569857" stroke-linecap="round" stroke-linejoin="round"/>
<path d="M19.9657 47.29C18.3488 47.4304 15.4729 48.0869 15.5062 49.1396C14.9594 48.2715 14.2132 47.2753 13.5259 46.5848C13.5246 46.5836 13.5227 46.5816 13.5208 46.5784C13.4509 46.5085 13.3817 46.4412 13.3143 46.3784C12.5091 45.1546 10.0018 41.0625 11.05 40.2502C12.588 39.0572 16.7128 46.297 16.7416 46.0758C16.7711 45.854 15.4357 38.8123 16.8262 38.3314C18.4142 37.782 20.2099 47.2727 20.2099 47.2727C20.1323 47.2772 20.0509 47.283 19.9663 47.2907" stroke="black" stroke-width="0.569857" stroke-linecap="round" stroke-linejoin="round"/>
</g>
<defs>
<clipPath id="clip0_1609_38195">
<rect width="64" height="64" rx="32" fill="white"/>
</clipPath>
</defs>
</svg>
