<svg width="64" height="64" viewBox="0 0 64 64" fill="none" xmlns="http://www.w3.org/2000/svg">
<g clip-path="url(#clip0_1609_38073)">
<rect width="64" height="64" rx="32" fill="#FBDFB1"/>
<path d="M39.8953 41.7575C39.8953 41.7575 38.2112 44.1699 35.5218 46.6554C33.2857 48.7204 31.6567 49.3999 31.7964 49.8461L31.4368 49.6019C31.0047 48.9351 27.078 42.8672 26.9447 42.7775C27.1703 40.6888 27.1197 36.4326 27.1197 36.4326C24.8368 37.2391 22.4673 37.4359 20.7024 36.0261C14.5921 31.1462 22.2884 18.7161 24.5502 15.3491C24.5662 15.4036 25.3464 18.0134 26.3504 18.5154C27.3639 19.0219 29.1154 18.8379 30.0828 19.529C31.0508 20.2201 31.1887 22.1094 31.8342 22.6626C32.4792 23.2159 35.1064 23.6768 35.4288 24.5058C35.7513 25.3353 35.1519 26.9022 36.0276 27.64C36.9033 28.3773 37.9169 27.8702 38.3779 29.0684C38.8388 30.2666 37.3681 31.9027 38.2894 32.9162C39.2113 33.9298 39.8812 34.2683 39.7895 35.8184C39.6972 37.3692 38.3311 39.0822 39.1606 40.5112C39.3946 40.9145 39.6472 41.3312 39.8953 41.7575Z" fill="#CC927A" stroke="black" stroke-width="0.569857" stroke-linecap="round" stroke-linejoin="round"/>
<path d="M63.9755 50.8956C63.9262 51.3911 56.9377 63.2366 56.4915 63.5834C56.2863 63.743 51.3159 66.1388 45.9757 68.6884C44.137 69.566 42.2548 70.4623 40.5078 71.2919C44.0248 66.0054 48.3548 59.0958 48.3548 58.5976C48.3548 57.7809 44.5569 56.4327 44.4345 55.9839C44.3114 55.5345 48.7221 52.9618 48.5997 52.3085C48.5663 52.1322 48.1964 51.3661 47.6162 50.3551C47.2219 49.666 46.7296 48.864 46.1815 48.0562C47.1925 48.1088 48.4304 48.8845 49.6683 48.8845C49.86 48.8845 50.0774 48.8755 50.3094 48.8614C51.5807 48.7851 53.295 48.5511 53.7232 48.746C54.2303 48.9768 55.9356 50.8661 57.2262 50.175C58.516 49.4832 59.2533 48.9768 59.3918 48.5158C59.418 48.4274 59.4007 48.2363 59.3578 47.9773C60.0284 48.1491 60.429 48.2549 60.4566 48.269C60.5323 48.3068 61.0733 48.628 61.7087 49.0377C62.7338 49.698 64.0063 50.5898 63.9755 50.8956Z" fill="#F5D256" stroke="black" stroke-width="0.569857" stroke-linecap="round" stroke-linejoin="round"/>
<path d="M48.3546 58.5974C48.3546 58.9898 45.6671 63.3614 42.8072 67.7836C42.0366 68.9747 41.2539 70.1697 40.5076 71.2916C39.3293 71.8513 38.2119 72.3802 37.2124 72.8521C35.9123 73.4669 34.8096 73.9861 34.0256 74.3522C33.6435 73.6669 33.3672 73.1354 33.3672 73.1354C33.3672 73.1354 38.2972 58.4154 40.3416 50.7005C40.8417 48.8125 41.1693 47.3437 41.209 46.6135C41.2353 46.1295 41.25 45.7198 41.2545 45.3737C41.2885 45.2717 41.3129 45.182 41.327 45.105C41.6033 46.6719 40.866 48.4695 42.1104 49.1606C42.9387 49.6202 44.0112 48.958 44.935 48.4772C45.3998 48.2355 45.8268 48.0393 46.1659 48.0547C46.171 48.0547 46.1762 48.0553 46.1813 48.056C46.7294 48.8638 47.2218 49.6658 47.6161 50.3549C48.1962 51.3659 48.5661 52.132 48.5995 52.3083C48.7219 52.9616 44.3112 55.5343 44.4343 55.9837C44.4555 56.06 44.5811 56.1613 44.7767 56.2818C45.7345 56.8742 48.3546 57.9191 48.3546 58.5974Z" fill="#F5D256" stroke="black" stroke-width="0.569857" stroke-linecap="round" stroke-linejoin="round"/>
<path d="M26.6416 17.5478C26.7173 18.714 27.3019 19.8378 28.2136 20.5687C28.8155 21.0514 29.5387 21.361 30.1644 21.8137C31.1395 22.5189 31.8537 23.576 32.1447 24.7434C32.2415 25.1332 32.2999 25.5486 32.5371 25.873C32.9403 26.4237 33.7263 26.5372 34.2257 27.0026C35.3162 28.0175 34.5193 30.0241 35.4271 31.2056C35.6585 31.5069 35.9848 31.7268 36.2009 32.0397C36.5746 32.582 36.5522 33.2943 36.5227 33.9521C36.3464 37.8768 36.5432 42.108 38.9031 45.2493C39.3012 45.7789 39.857 46.3103 40.5174 46.2526C41.2706 46.1866 41.7271 45.4077 42.0143 44.7083C43.0259 42.2446 43.5369 39.6026 43.842 36.9568C44.1042 34.6855 44.2152 32.3577 43.6754 30.1356C43.1651 28.0354 42.097 26.1218 41.1193 24.1947C40.2943 22.5682 39.4884 20.8623 38.1062 19.6724C36.9157 18.648 35.4008 18.0973 33.9225 17.5677C32.8313 17.1766 31.7408 16.7862 30.6497 16.3952C29.4105 15.9515 27.9103 15.5438 26.8794 16.3612" fill="#BA735A"/>
<path d="M17.0203 22.5139C16.5285 24.8 16.1407 27.1233 16.158 29.462C16.1753 31.8007 16.6145 34.167 17.6992 36.239C18.2172 37.2282 19.1038 38.2527 20.2142 38.1296C21.1553 38.0257 21.8195 37.0872 21.9631 36.1518C22.106 35.2158 21.8586 34.2708 21.672 33.3432C21.4521 32.2495 21.3156 31.1359 21.3316 30.0211C21.3944 25.5828 23.8081 21.5805 25.6782 17.5544C26.0192 16.8197 26.3488 16.06 26.4109 15.2529C26.4283 15.0324 26.4186 14.792 26.2814 14.6182C26.1391 14.4381 25.8949 14.3753 25.666 14.3528C24.9345 14.2791 24.203 14.4977 23.5299 14.7932C21.7361 15.5811 20.2244 16.9242 19.0282 18.4757C17.8325 20.0277 16.9344 21.7875 16.1445 23.5807" fill="#FFC7B3"/>
<path d="M31.4498 37.9994C30.3785 39.3201 28.8495 40.2631 27.1878 40.6266C27.1814 39.4259 27.1885 38.2245 27.2096 37.0237C27.2128 36.8307 27.2199 36.6275 27.3193 36.4621C27.4302 36.2787 27.634 36.1762 27.8276 36.0851C28.6572 35.6947 29.4983 35.3293 30.3183 34.9183C30.7401 34.7068 31.1568 34.4843 31.5607 34.2401C31.8466 34.067 32.4422 33.4579 32.7506 33.4246C33.5013 33.3432 32.8929 35.1818 32.7627 35.578C32.4755 36.455 32.0313 37.2814 31.4498 37.9981V37.9994Z" fill="#B27059"/>
<path d="M41.255 45.374C41.2524 45.5458 41.248 45.733 41.2403 45.9368C41.2332 46.1445 41.2229 46.3696 41.2095 46.6138C41.0056 50.3302 33.3677 73.1357 33.3677 73.1357H32.5163C32.5163 73.1357 24.9809 51.6509 24.3828 47.0594C24.3655 46.9305 24.3546 46.8151 24.3488 46.7138C24.2898 45.6394 24.3193 44.9245 24.3918 44.4514C24.4879 44.4335 24.5815 44.4155 24.6726 44.3976C24.6405 44.6168 24.9739 45.7426 25.4624 47.1793C26.5253 50.3078 28.3236 54.9121 28.682 54.857C28.8082 54.8377 29.0775 54.5858 29.4032 54.1998C30.4219 52.9895 31.9906 50.4559 31.4367 49.6019L31.7964 49.8462C31.7964 49.8462 33.3395 54.9672 34.3242 55.0333C35.0768 55.0833 38.5894 50.2783 40.3415 47.2286C40.5254 46.9087 40.6896 46.608 40.8293 46.3343C41.0229 45.9561 41.1691 45.6291 41.255 45.374Z" fill="#C9C4FE" stroke="black" stroke-width="0.569857" stroke-linecap="round" stroke-linejoin="round"/>
<path d="M41.2403 45.9366C41.2332 46.1443 41.223 46.3694 41.2095 46.6136C41.0056 50.33 33.3677 73.1355 33.3677 73.1355H32.5163C32.5163 73.1355 24.9809 51.6507 24.3828 47.0592C24.5219 46.7835 24.6732 46.5143 24.8361 46.252C25.0451 46.5604 25.2541 46.8694 25.4624 47.1791C26.6241 48.9062 27.7556 50.657 28.6634 52.5283C28.9301 53.0771 29.1762 53.6348 29.4032 54.1996C30.7694 57.5949 31.4521 61.2548 31.7303 64.9123C31.8009 65.8393 31.9906 66.9714 32.8683 67.2785C36.8084 61.3061 37.2771 53.6919 40.3415 47.2284C40.3838 47.1387 40.4267 47.0489 40.4703 46.9592C40.5755 46.7425 40.6857 46.5258 40.8293 46.3341C40.8729 46.2758 40.9191 46.2194 40.9697 46.1668C41.0531 46.0796 41.1441 46.0033 41.2403 45.9366Z" fill="#A2A0F2"/>
<path d="M32.9277 9.85162C34.5785 8.96563 36.7576 9.18745 38.1956 10.3882C38.4565 10.6062 38.6988 10.8562 39.004 11.0075C39.8925 11.4499 41.0029 10.9363 41.9395 11.2652C42.6768 11.5242 43.1724 12.3416 43.0614 13.1148C42.998 13.5552 42.7633 13.9892 42.864 14.4226C43.0294 15.1342 43.9468 15.3438 44.6751 15.2829C45.4033 15.2227 46.2188 15.0585 46.8003 15.5009C47.4311 15.9804 47.4414 16.9312 47.2304 17.6954C47.0189 18.4589 46.6445 19.2096 46.7131 19.9988C47.8465 20.5931 49.4832 19.7161 50.4141 20.595C51.0988 21.2419 50.8738 22.3606 50.6077 23.2639C50.3417 24.1672 50.1493 25.3025 50.8654 25.9141C51.645 26.5802 52.9759 26.1206 53.7638 26.7764C54.6184 27.488 54.2023 28.8407 53.8677 29.9011C53.4849 31.1159 53.3086 32.3955 53.3503 33.6687C53.3612 34.0028 53.3945 34.3586 53.599 34.6233C53.9023 35.0176 54.4786 35.0772 54.969 34.9913C55.4588 34.9054 55.9339 34.7086 56.4314 34.7131C57.6116 34.724 58.4995 35.8786 58.7374 37.0345C58.9752 38.191 58.7572 39.3866 58.7675 40.5669C58.772 41.1176 58.9823 41.8266 59.5323 41.8426C59.715 42.9774 58.4777 44.1083 58.9489 45.1564C59.0791 45.4462 59.3233 45.6668 59.5015 45.9296C59.9272 46.5598 59.926 47.4496 59.4977 48.0779C59.0695 48.7062 58.2412 49.0331 57.4994 48.8664" stroke="black" stroke-width="0.569857" stroke-linecap="round" stroke-linejoin="round"/>
<path d="M31.8174 9.09033C33.4682 8.20434 35.6473 8.42616 37.0852 9.62692C37.3461 9.84489 37.5885 10.0949 37.8936 10.2462C38.7822 10.6886 39.8926 10.1751 40.8292 10.5039C41.5664 10.7629 42.062 11.5803 41.9511 12.3535C41.8876 12.7939 41.653 13.2279 41.7536 13.6613C41.919 14.3729 42.8364 14.5825 43.5647 14.5216C44.293 14.4614 45.1085 14.2973 45.6899 14.7396C46.3208 15.2192 46.331 16.1699 46.1201 16.9341C45.9085 17.6976 45.5341 18.4483 45.6027 19.2375C46.7362 19.8318 48.3729 18.9548 49.3037 19.8337C49.9884 20.4806 49.7634 21.5993 49.4974 22.5026C49.2313 23.4059 49.039 24.5412 49.7551 25.1528C50.5346 25.8189 51.8655 25.3593 52.6534 26.0151C53.508 26.7267 53.0919 28.0794 52.7573 29.1398C52.3746 30.3546 52.1983 31.6343 52.2399 32.9075C52.2508 33.2415 52.2842 33.5973 52.4887 33.862C52.7919 34.2563 53.3683 34.3159 53.8587 34.23C54.3485 34.1441 54.8235 33.9473 55.321 33.9518C56.5013 33.9627 57.3892 35.1173 57.627 36.2732C57.8649 37.4297 57.6469 38.6253 57.6571 39.8056C57.6616 40.3563 57.8719 41.0653 58.422 41.0814C58.6047 42.2161 57.3674 43.347 57.8386 44.3952C57.9687 44.6849 58.213 44.9055 58.3912 45.1683C58.8169 45.7985 58.8156 46.6883 58.3874 47.3166C57.9591 47.9449 57.1308 48.2718 56.3891 48.1051" stroke="black" stroke-width="0.569857" stroke-linecap="round" stroke-linejoin="round"/>
<path d="M19.292 12.9091C18.6311 12.5186 17.7393 12.7661 17.179 13.2912C16.6187 13.8162 16.3187 14.556 16.0629 15.2798C15.8071 16.0036 15.5692 16.7543 15.0935 17.3569C14.3858 18.2526 13.2203 18.7302 12.6132 19.6976C11.7515 21.0701 12.3067 22.8928 11.8625 24.4513C11.5426 25.5732 10.7143 26.5111 10.4745 27.6522C10.0014 29.9018 11.9125 32.3181 10.9713 34.4157C10.6264 35.1857 9.94752 35.7505 9.48786 36.4576C8.86536 37.4147 8.67239 38.6405 8.9705 39.7432C9.11026 40.2599 9.35387 40.7638 9.33336 41.2985C9.31669 41.7453 9.11603 42.1626 8.91921 42.564C8.49289 43.4352 8.06656 44.3071 7.64024 45.1783C7.46073 45.5444 7.27802 45.9278 7.2793 46.3355C7.28187 47.0593 7.84859 47.6401 8.37685 48.1357C8.55892 48.3069 8.75189 48.4838 8.99422 48.5466C9.29553 48.6248 9.60902 48.5107 9.8988 48.3985C10.9752 47.9825 12.0516 47.5658 13.128 47.1497" stroke="black" stroke-width="0.569857" stroke-linecap="round" stroke-linejoin="round"/>
<path d="M20.751 10.9621C20.0901 10.5716 19.1983 10.8191 18.638 11.3442C18.0777 11.8692 17.7777 12.609 17.5219 13.3328C17.2661 14.0566 17.0282 14.8073 16.5525 15.41C15.8448 16.3056 14.6793 16.7832 14.0722 17.7506C13.2105 19.1231 13.7657 20.9458 13.3214 22.5043C13.0015 23.6262 12.1732 24.5641 11.9335 25.7052C11.4604 27.9548 13.3714 30.3711 12.4303 32.4687C12.0854 33.2387 11.4065 33.8035 10.9468 34.5106C10.3243 35.4677 10.1314 36.6935 10.4295 37.7962C10.5692 38.3129 10.8129 38.8168 10.7923 39.3515C10.7757 39.7983 10.575 40.2157 10.3782 40.617C9.95187 41.4882 9.52555 42.3601 9.09922 43.2313C8.91972 43.5974 8.73701 43.9808 8.73829 44.3885C8.74085 45.1123 9.30758 45.6931 9.83583 46.1887C10.0179 46.3599 10.2109 46.5368 10.4532 46.5996C10.7545 46.6778 11.068 46.5637 11.3578 46.4515C12.4342 46.0355 13.5106 45.6188 14.587 45.2027" stroke="black" stroke-width="0.569857" stroke-linecap="round" stroke-linejoin="round"/>
<path d="M25.1396 14.4965C25.1396 14.4965 24.9159 14.8036 24.5498 15.3485" stroke="black" stroke-width="0.569857" stroke-linecap="round" stroke-linejoin="round"/>
<path d="M33.0688 33.151C31.652 34.1794 29.4306 35.618 27.1201 36.4328" stroke="black" stroke-width="0.569857" stroke-linecap="round" stroke-linejoin="round"/>
<path d="M59.3582 47.9774C59.3294 47.8043 59.2896 47.6004 59.2435 47.376C58.9992 46.1855 58.5883 44.4296 58.8396 43.6769C59.2082 42.571 59.5307 41.1882 58.2863 40.5433C57.042 39.8983 56.8118 39.3912 56.858 37.9622C56.8933 36.8474 56.34 35.7325 55.613 34.5952C55.4085 34.2753 55.1905 33.9542 54.9681 33.6304C54.9027 33.5355 54.8463 33.4445 54.7956 33.356C54.0718 32.0693 54.8745 31.4161 54.1847 30.0358C54.0346 29.7358 53.8391 29.4992 53.6218 29.2998C52.7704 28.519 51.5857 28.317 51.5119 27.1791C51.5062 27.0913 51.5023 27.0002 51.5004 26.9073C51.4645 25.4879 51.7607 23.5275 50.6362 22.6626C50.5099 22.5652 50.3881 22.4703 50.2721 22.3754C49.3021 21.5914 48.6777 20.8862 48.3046 19.7258C48.2982 19.7066 48.2918 19.6873 48.286 19.6675C47.8731 18.3366 47.8257 17.28 46.3236 16.6338C46.3172 16.6313 46.3108 16.628 46.3044 16.6255C45.7486 16.3896 45.4575 15.9575 45.2626 15.467C44.9235 14.6157 44.8741 13.5912 44.2304 13.1232C43.9029 12.8847 43.5124 12.8251 43.0957 12.8091C42.2226 12.7757 41.2314 12.9373 40.4519 12.0635C40.1768 11.7558 39.9601 11.4455 39.7717 11.1506C39.1684 10.2095 38.8536 9.42604 37.8715 9.39078C37.4157 9.37476 36.8675 9.47348 36.3072 9.58503C35.4539 9.75621 34.5718 9.95815 33.9384 9.83314C33.8095 9.80749 33.6909 9.76903 33.5852 9.71325C32.6177 9.20615 32.7556 8.19259 31.5119 8.56121C30.6772 8.80867 30.1117 9.09716 29.6354 9.37219C29.4014 9.50682 29.1892 9.63824 28.977 9.75941C28.977 9.75941 27.021 7.66818 25.7312 8.48236C24.4406 9.2959 23.0405 10.696 22.5155 10.8127C22.3609 10.8473 22.1 10.8512 21.7923 10.8576C21.0557 10.873 20.0517 10.9025 19.5991 11.3961C18.9574 12.0962 18.549 14.0387 17.7913 14.4964C17.0329 14.9542 14.9326 16.4126 14.6409 17.1711C14.3492 17.9288 14.6409 18.9206 14.2326 19.9707C13.8242 21.0208 12.5414 22.8287 12.1913 23.8204C11.8413 24.8122 13.1248 26.0373 12.7747 27.1451C12.4247 28.2536 11.3746 30.0038 11.3163 30.8205C11.3047 30.9859 11.3163 31.1513 11.3419 31.3263C11.44 32.011 11.7355 32.8322 11.5496 34.3202C11.5067 34.6651 11.4195 34.9799 11.3054 35.2709C10.8021 36.557 9.76738 37.3827 9.62442 38.2866C9.5539 38.7341 9.7584 39.2765 10.0014 39.8368C10.3604 40.6651 10.8015 41.5338 10.5578 42.1947C10.5578 42.1947 10.5418 42.2037 10.5123 42.2216C10.2476 42.38 8.90704 43.2153 8.74997 44.0032C8.66278 44.4379 9.04231 45.1271 9.38144 45.8188C9.66032 46.3874 9.91226 46.9574 9.85585 47.3869C13.4254 46.3612 18.6587 45.4765 22.3456 44.8232C22.6725 44.5161 22.9995 44.2507 23.3194 44.0436C23.847 43.7019 24.3567 43.5173 24.8227 43.5583C24.9247 43.5327 25.0016 43.5852 25.0016 43.5852C25.4145 42.9031 26.1562 42.2479 26.9447 42.7775C27.1704 40.6888 27.1198 36.4326 27.1198 36.4326C24.8368 37.2391 22.4674 37.4359 20.7024 36.0262C18.2798 34.0913 18.0278 30.9699 18.7465 27.6971C19.8402 22.7146 23.1854 17.3813 24.5503 15.3491C24.5663 15.4036 25.3465 18.0134 26.3505 18.5154C27.364 19.0219 29.1155 18.8379 30.0829 19.529C31.0509 20.2201 31.1888 22.1094 31.8343 22.6626C32.4793 23.2159 35.1065 23.6768 35.4289 24.5058C35.7514 25.3353 35.152 26.9022 36.0277 27.6401C36.9034 28.3773 37.917 27.8702 38.3779 29.0684C38.8389 30.2666 37.3682 31.9027 38.2895 32.9162C39.2114 33.9298 39.8813 34.2683 39.7896 35.8184C39.6973 37.3692 38.3311 39.0822 39.1607 40.5112C39.3947 40.9145 39.6473 41.3312 39.8954 41.7575C39.9185 41.7966 39.9416 41.8363 39.964 41.8767C40.2352 42.3447 40.498 42.823 40.723 43.3057C40.9461 43.784 41.1321 44.2661 41.2513 44.7469C41.2814 44.8668 41.3064 44.986 41.3276 45.1053C41.6039 46.6721 40.8666 48.4697 42.111 49.1608C43.3554 49.8519 45.1523 48.0088 46.1665 48.0549C46.1717 48.0549 46.1768 48.0556 46.1819 48.0562C47.1929 48.1088 48.4309 48.8845 49.6688 48.8845C50.9068 48.8845 53.2172 48.5159 53.7237 48.746C54.2308 48.9768 55.9361 50.8661 57.2266 50.175C58.5165 49.4833 59.2537 48.9768 59.3922 48.5159C59.4185 48.4274 59.4012 48.2364 59.3582 47.9774ZM40.882 43.5852C40.882 43.5852 40.9545 43.4916 41.0353 43.5602C40.9833 43.566 40.9327 43.5737 40.882 43.5852Z" fill="#3D0027" stroke="black" stroke-width="0.569857" stroke-linecap="round" stroke-linejoin="round"/>
<path d="M59.3582 47.9774C59.3294 47.8043 59.2896 47.6004 59.2435 47.376C58.9992 46.1855 58.5883 44.4296 58.8396 43.6769C59.2082 42.571 59.5307 41.1882 58.2863 40.5433C57.042 39.8983 56.8118 39.3912 56.858 37.9622C56.8933 36.8474 56.34 35.7325 55.613 34.5952C55.4085 34.2753 55.1905 33.9542 54.9681 33.6304C54.9027 33.5355 54.8463 33.4445 54.7956 33.356C54.0718 32.0693 54.8745 31.4161 54.1847 30.0358C54.0346 29.7358 53.8391 29.4992 53.6218 29.2998C52.7704 28.519 51.5857 28.317 51.5119 27.1791C51.5062 27.0913 51.5023 27.0002 51.5004 26.9073C51.4645 25.4879 51.7607 23.5275 50.6362 22.6626C50.5099 22.5652 50.3881 22.4703 50.2721 22.3754C49.3021 21.5914 48.6777 20.8862 48.3046 19.7258C48.2982 19.7066 48.2918 19.6873 48.286 19.6675C47.8731 18.3366 47.8257 17.28 46.3236 16.6338C46.3172 16.6313 46.3108 16.628 46.3044 16.6255C45.7486 16.3896 45.4575 15.9575 45.2626 15.467C44.9235 14.6157 44.8741 13.5912 44.2304 13.1232C43.9029 12.8847 43.5124 12.8251 43.0957 12.8091C42.2226 12.7757 41.2314 12.9373 40.4519 12.0635C40.1768 11.7558 39.9601 11.4455 39.7717 11.1506C39.1684 10.2095 38.8536 9.42604 37.8715 9.39078C37.4157 9.37476 36.8675 9.47348 36.3072 9.58503C35.4539 9.75621 34.5718 9.95815 33.9384 9.83314C33.8095 9.80749 33.6909 9.76903 33.5852 9.71325C32.6177 9.20615 32.7556 8.19259 31.5119 8.56121C30.6772 8.80867 30.1117 9.09716 29.6354 9.37219C29.4014 9.50682 29.1892 9.63824 28.977 9.75941C28.977 9.75941 27.021 7.66818 25.7312 8.48236C24.4406 9.2959 23.0405 10.696 22.5155 10.8127C22.3609 10.8473 22.1 10.8512 21.7923 10.8576C21.0557 10.873 20.0517 10.9025 19.5991 11.3961C18.9574 12.0962 18.549 14.0387 17.7913 14.4964C17.0329 14.9542 14.9326 16.4126 14.6409 17.1711C14.3492 17.9288 14.6409 18.9206 14.2326 19.9707C13.8242 21.0208 12.5414 22.8287 12.1913 23.8204C11.8413 24.8122 13.1248 26.0373 12.7747 27.1451C12.4247 28.2536 11.3746 30.0038 11.3163 30.8205C11.3047 30.9859 11.3163 31.1513 11.3419 31.3263C11.44 32.011 11.7355 32.8322 11.5496 34.3202C11.5067 34.6651 11.4195 34.9799 11.3054 35.2709C10.8021 36.557 9.76738 37.3827 9.62442 38.2866C9.5539 38.7341 9.7584 39.2765 10.0014 39.8368C10.3604 40.6651 10.8015 41.5338 10.5578 42.1947C10.5578 42.1947 10.5418 42.2037 10.5123 42.2216C10.2476 42.38 8.90704 43.2153 8.74997 44.0032C8.66278 44.4379 9.04231 45.1271 9.38144 45.8188C9.66032 46.3874 9.91226 46.9574 9.85585 47.3869C13.4254 46.3612 18.6587 45.4765 22.3456 44.8232C22.6725 44.5161 22.9995 44.2507 23.3194 44.0436C23.847 43.7019 24.3567 43.5173 24.8227 43.5583C24.9247 43.5327 25.0016 43.5852 25.0016 43.5852C25.4145 42.9031 26.1562 42.2479 26.9447 42.7775C27.1704 40.6888 27.1198 36.4326 27.1198 36.4326C24.8368 37.2391 22.4674 37.4359 20.7024 36.0262C18.2798 34.0913 18.0278 30.9699 18.7465 27.6971C19.8402 22.7146 23.1854 17.3813 24.5503 15.3491C24.5586 15.3766 24.7663 16.0722 25.1016 16.8127C25.4222 17.5204 25.8594 18.2705 26.3505 18.5154C26.9306 18.8052 27.7525 18.8687 28.5302 19.0001C29.1116 19.0975 29.6687 19.2334 30.0829 19.529C30.6073 19.9034 30.8881 20.6297 31.1381 21.3048C31.3497 21.8754 31.5388 22.4088 31.8343 22.6626C32.3844 23.1345 34.3782 23.5396 35.1513 24.1628C35.2847 24.2705 35.3815 24.384 35.4289 24.5058C35.4956 24.6769 35.5232 24.8795 35.5321 25.1001C35.5668 25.9469 35.3328 27.0547 36.0277 27.6401C36.9034 28.3773 37.917 27.8702 38.3779 29.0684C38.8389 30.2666 37.3682 31.9027 38.2895 32.9162C39.2114 33.9298 39.8813 34.2683 39.7896 35.8184C39.6973 37.3692 38.3311 39.0822 39.1607 40.5112C39.3947 40.9145 39.6473 41.3312 39.8954 41.7575C39.9185 41.7966 39.9416 41.8363 39.964 41.8767C40.2352 42.3447 40.498 42.823 40.723 43.3057C40.9461 43.784 41.1321 44.2661 41.2513 44.7469C41.277 44.8501 41.2994 44.9527 41.3186 45.0553C41.3218 45.0719 41.3244 45.0886 41.3276 45.1053C41.6039 46.6721 40.8666 48.4697 42.111 49.1608C43.3554 49.8519 45.1523 48.0088 46.1665 48.0549C46.1717 48.0549 46.1768 48.0556 46.1819 48.0562C47.1929 48.1088 48.4309 48.8845 49.6688 48.8845C50.9068 48.8845 53.2172 48.5159 53.7237 48.746C54.2308 48.9768 55.9361 50.8661 57.2266 50.175C58.5165 49.4833 59.2537 48.9768 59.3922 48.5159C59.4185 48.4274 59.4012 48.2364 59.3582 47.9774ZM40.882 43.5852C40.882 43.5852 40.9545 43.4916 41.0353 43.5602C40.9833 43.566 40.9327 43.5737 40.882 43.5852Z" fill="#3D0027" stroke="black" stroke-width="0.569857" stroke-linecap="round" stroke-linejoin="round"/>
<path d="M32.5161 73.1359C32.5161 73.1359 32.1532 73.8341 31.6839 74.6617C30.5953 74.3604 28.7727 73.8373 26.677 73.2282C23.0395 67.8822 17.5287 59.1602 17.5287 58.5979C17.5287 57.7812 21.3265 56.433 21.4489 55.9842C21.5714 55.5348 17.1613 52.9621 17.2838 52.3088C17.3722 51.8357 19.8808 47.1346 22.3452 44.8235C22.6978 44.4927 23.0497 44.2106 23.3933 43.9971C23.894 43.6855 24.3781 43.5195 24.8223 43.5586C24.6819 43.5939 24.4935 43.7779 24.3915 44.4516C24.3191 44.9248 24.2896 45.6396 24.3486 46.714C24.471 48.947 27.395 58.0357 29.7094 64.9351C31.2473 69.5189 32.5161 73.1359 32.5161 73.1359Z" fill="#F5D256" stroke="black" stroke-width="0.569857" stroke-linecap="round" stroke-linejoin="round"/>
<path d="M25.0013 43.5852C24.8211 43.8827 24.7038 44.1859 24.6724 44.3975C24.5814 44.4154 24.4878 44.4334 24.3916 44.4513C24.4935 43.7775 24.682 43.5935 24.8224 43.5583C24.9243 43.5326 25.0013 43.5852 25.0013 43.5852Z" stroke="black" stroke-width="0.569857" stroke-linecap="round" stroke-linejoin="round"/>
<path d="M41.0351 43.5607C40.9831 43.5665 40.9325 43.5742 40.8818 43.5857C40.8818 43.5857 40.9543 43.4921 41.0351 43.5607Z" stroke="black" stroke-width="0.569857" stroke-linecap="round" stroke-linejoin="round"/>
<path d="M26.6771 73.2277C25.0161 72.7456 23.1838 72.2103 21.408 71.6897C16.8832 70.3633 12.7277 69.1343 12.7277 69.1343L3.36071 52.2333C3.36071 52.2333 3.26134 51.1928 6.38345 48.8137C7.03736 48.3156 8.28556 47.8373 9.85559 47.3866C12.8328 46.5314 16.9672 45.7737 20.3964 45.1665C21.0791 45.046 21.7337 44.9313 22.3453 44.8229C19.881 47.1341 17.3724 51.8352 17.2839 52.3083C17.1615 52.9616 21.5715 55.5343 21.4491 55.9837C21.3266 56.4324 17.5288 57.7806 17.5288 58.5974C17.5288 59.1596 23.0396 67.8817 26.6771 73.2277Z" fill="#F5D256" stroke="black" stroke-width="0.569857" stroke-linecap="round" stroke-linejoin="round"/>
<path d="M10.5123 42.2214C10.6675 42.8445 10.7739 43.4773 10.6764 44.1062C10.5617 44.8492 10.07 45.5852 9.38144 45.8185C9.04231 45.1268 8.66278 44.4376 8.74997 44.0029C8.90704 43.215 10.2476 42.3797 10.5123 42.2214Z" fill="#6D1151"/>
<path d="M11.3054 35.2708C11.3169 35.6529 11.29 36.0312 11.1894 36.3998C10.9464 37.289 10.2918 38.0269 10.0777 38.9238C10.0059 39.2244 9.98603 39.5302 10.0014 39.8367C9.75845 39.2764 9.55394 38.734 9.62446 38.2865C9.76742 37.3826 10.8021 36.5569 11.3054 35.2708Z" fill="#6D1151"/>
<path d="M21.792 10.8576C20.6874 12.0853 19.5552 13.3001 18.2179 14.2656C17.4492 14.8202 16.5921 15.3138 16.085 16.1139C15.3496 17.2749 15.5234 18.7975 14.9977 20.0675C14.4457 21.4016 13.1366 22.4357 13.0257 23.8749C12.9231 25.1994 13.8957 26.4624 13.6751 27.7721C13.4366 29.1844 11.9365 30.0326 11.3415 31.3263C11.3165 31.1513 11.3044 30.9859 11.3159 30.8205C11.3742 30.0037 12.4243 28.2536 12.7744 27.1451C13.1244 26.0373 11.841 24.8122 12.191 23.8204C12.541 22.8287 13.8238 21.0208 14.2322 19.9707C14.6406 18.9206 14.3489 17.9288 14.6406 17.171C14.9323 16.4126 17.0325 14.9542 17.7909 14.4964C18.5487 14.0387 18.9571 12.0962 19.5988 11.3961C20.0514 10.9025 21.0553 10.873 21.792 10.8576Z" fill="#6D1151"/>
<path d="M29.709 64.9351C29.5679 65.1287 29.3262 65.2595 29.0986 65.1947C28.9018 65.139 28.7704 64.9582 28.6557 64.7889C25.3406 59.8814 23.3635 54.0802 22.9923 48.17C22.9044 46.8865 22.9032 45.553 23.2878 44.3132C23.3205 44.2074 23.3558 44.1022 23.3929 43.9971C23.8936 43.6855 24.3777 43.5195 24.8219 43.5586C24.6815 43.5939 24.4931 43.7779 24.3911 44.4516C24.3187 44.9248 24.2892 45.6396 24.3482 46.714C24.4706 48.947 27.3946 58.0357 29.709 64.9351Z" fill="#FFE8A9"/>
<path d="M28.6815 54.8566C28.1583 54.9368 24.5695 45.0948 24.6721 44.3973C24.7035 44.1857 24.8208 43.8825 25.001 43.585C25.3965 42.9317 26.094 42.3028 26.8454 42.717C26.8781 42.7349 26.9114 42.7548 26.9441 42.7772C27.0665 42.8599 30.397 47.9976 31.2683 49.342C31.3439 49.4593 31.4016 49.5478 31.4362 49.6016C32.1664 50.728 29.2052 54.7759 28.6815 54.8566Z" fill="#49A2A6" stroke="black" stroke-width="0.569857" stroke-linecap="round" stroke-linejoin="round"/>
<path d="M41.2551 45.3736C40.5172 47.5731 35.2654 55.0963 34.3243 55.0335C33.7947 54.9982 33.103 53.4994 32.5779 52.1223C32.126 50.9395 31.7964 49.8464 31.7964 49.8464C31.6567 49.4003 33.2857 48.7207 35.5218 46.6557C36.3078 45.9294 37.0079 45.2088 37.6054 44.5536C39.0517 42.9663 39.8953 41.7578 39.8953 41.7578C39.9184 41.7969 39.9415 41.8367 39.9639 41.8771C40.5319 42.8829 41.0653 44.3497 41.2544 44.8927C41.257 45.0383 41.257 45.1973 41.2551 45.3736Z" fill="#49A2A6" stroke="black" stroke-width="0.569857" stroke-linecap="round" stroke-linejoin="round"/>
<path d="M41.2545 45.3732C41.2565 45.1969 41.2565 45.038 41.2539 44.8931C41.3013 45.0277 41.327 45.1053 41.327 45.1053C41.3129 45.1822 41.2885 45.272 41.2545 45.3732Z" stroke="black" stroke-width="0.569857" stroke-linecap="round" stroke-linejoin="round"/>
<path d="M25.0011 43.5852C24.9421 43.5724 24.8825 43.5634 24.8223 43.5583C24.9242 43.5326 25.0011 43.5852 25.0011 43.5852Z" stroke="black" stroke-width="0.569857" stroke-linecap="round" stroke-linejoin="round"/>
<path d="M41.0351 43.5607C40.9831 43.5665 40.9325 43.5742 40.8818 43.5857C40.8818 43.5857 40.9543 43.4921 41.0351 43.5607Z" stroke="black" stroke-width="0.569857" stroke-linecap="round" stroke-linejoin="round"/>
<path d="M41.2548 45.3737C41.2567 45.1974 41.2567 45.0385 41.2542 44.8936C41.2542 44.8423 41.2523 44.7942 41.251 44.7474C41.2811 44.8673 41.3061 44.9865 41.3273 45.1058C41.3132 45.1827 41.2888 45.2725 41.2548 45.3737Z" stroke="black" stroke-width="0.569857" stroke-linecap="round" stroke-linejoin="round"/>
<path d="M23.7975 24.1823C23.7975 24.1823 22.1608 27.3486 22.7262 27.7948C23.2917 28.241 24.72 26.6345 24.72 26.6345" stroke="black" stroke-width="0.569857" stroke-linecap="round" stroke-linejoin="round"/>
<path d="M26.9209 31.8148C25.6529 32.6071 24.3232 31.2448 24.3232 31.2448C24.3232 31.2448 25.4266 31.2506 26.4459 30.5839C27.4652 29.9171 27.7979 29.185 27.7979 29.185C27.7979 29.185 28.1884 31.023 26.9209 31.8148Z" fill="#E938B5" stroke="black" stroke-width="0.569857" stroke-linecap="round" stroke-linejoin="round"/>
<path d="M27.7979 29.1847C27.7979 29.1847 27.4652 29.9169 26.4459 30.5836C25.4266 31.2503 24.3232 31.2446 24.3232 31.2446C24.3232 31.2446 24.9118 29.8412 25.2509 29.9092C25.5907 29.9771 25.7715 30.1759 25.9074 29.9066C26.0433 29.638 25.8849 29.3662 26.2241 29.1847C26.5639 29.0039 27.7979 29.1847 27.7979 29.1847Z" fill="#E938B5" stroke="black" stroke-width="0.569857" stroke-linecap="round" stroke-linejoin="round"/>
<path d="M28.1331 28.212L27.7979 29.1845" stroke="black" stroke-width="0.569857" stroke-linecap="round" stroke-linejoin="round"/>
<path d="M27.4844 28.042C27.6613 27.9849 27.8581 28.0208 28.0261 28.1016C28.1941 28.1824 28.3377 28.3048 28.4781 28.4266C28.5601 28.4978 28.6473 28.5792 28.664 28.6863" stroke="black" stroke-width="0.569857" stroke-linecap="round" stroke-linejoin="round"/>
<path d="M61.7087 49.0377C60.6765 50.4212 59.2039 51.4803 57.5621 52.0271C55.7664 52.6252 53.7912 52.6201 51.9744 52.0854C51.5442 51.9591 51.123 51.8034 50.7153 51.6187C49.6966 51.1578 48.7016 50.5122 47.6162 50.3551C47.4393 50.3295 47.2598 50.3167 47.0777 50.3199C45.8776 50.341 44.8115 51.0514 43.8389 51.7553C43.3165 52.1335 42.7061 52.5355 42.09 52.5131C41.9779 52.5086 41.8663 52.4906 41.7541 52.4554C41.172 52.2733 40.8175 51.695 40.5495 51.1469C40.4777 51.0001 40.4085 50.8513 40.3418 50.7007C40.8418 48.8127 41.1694 47.3439 41.2092 46.6137C41.2355 46.1297 41.2502 45.7201 41.2547 45.3739C41.2887 45.2719 41.313 45.1822 41.3272 45.1053C41.6035 46.6721 40.8662 48.4697 42.1106 49.1608C42.9388 49.6205 44.0114 48.9582 44.9352 48.4774C45.4 48.2357 45.827 48.0395 46.1661 48.0549C46.1712 48.0549 46.1764 48.0556 46.1815 48.0562C47.1925 48.1088 48.4304 48.8845 49.6684 48.8845C49.8601 48.8845 50.0774 48.8755 50.3095 48.8614C51.5807 48.7851 53.295 48.5511 53.7233 48.746C54.2304 48.9768 55.9357 50.8661 57.2262 50.175C58.5161 49.4833 59.2533 48.9768 59.3918 48.5159C59.4181 48.4274 59.4008 48.2363 59.3578 47.9773C60.0284 48.1492 60.4291 48.2549 60.4566 48.269C60.5323 48.3069 61.0734 48.628 61.7087 49.0377Z" fill="#E0B836"/>
<path d="M52.0654 53.4717C51.9455 53.7461 51.6756 53.9198 51.4204 54.0775C50.2383 54.8052 49.0567 55.5335 47.8752 56.2611C48.7567 56.8451 50.1133 56.8092 50.5973 57.7497C50.8351 58.2113 50.7646 58.7665 50.6601 59.2755C49.9459 62.7393 47.9868 65.7351 45.9757 68.6886C44.137 69.5663 42.2548 70.4625 40.5078 71.2921C44.0248 66.0057 48.3548 59.096 48.3548 58.5979C48.3548 57.7811 44.5569 56.4329 44.4345 55.9841C44.3114 55.5347 48.7221 52.962 48.5997 52.3088C48.5663 52.1325 48.1964 51.3664 47.6162 50.3554C47.2219 49.6662 46.7296 48.8642 46.1815 48.0564C47.1925 48.109 48.4304 48.8847 49.6683 48.8847C49.86 48.8847 50.0774 48.8757 50.3094 48.8616C51.0249 49.8643 51.6666 50.9221 51.9743 52.0857C52.0327 52.3069 52.0788 52.5312 52.1115 52.7601C52.1455 52.9986 52.1615 53.2505 52.0654 53.4717Z" fill="#E0B836"/>
<path d="M48.3553 58.5976C48.3553 58.99 45.6679 63.3616 42.8079 67.7838C42.3726 67.905 41.9136 67.9268 41.4873 67.787C41.8155 66.3952 42.631 65.1682 43.5311 64.0572C44.4312 62.9461 45.4332 61.9133 46.2301 60.726C46.4929 60.335 46.7417 59.867 46.6128 59.4144C46.4487 58.838 45.7826 58.5989 45.2159 58.4047C44.6485 58.2111 44.0004 57.8501 43.9927 57.2513C43.9869 56.8058 44.3549 56.466 44.7774 56.282C45.7352 56.8744 48.3553 57.9194 48.3553 58.5976Z" fill="#FFE8A9"/>
<path d="M26.677 73.2277C25.0159 72.7456 23.1837 72.2103 21.4079 71.6897C20.6078 70.5505 19.8475 69.3818 19.0891 68.215C18.0819 66.6668 17.0754 65.1186 16.0682 63.5703C15.6964 62.9991 15.3201 62.417 15.122 61.7644C14.8046 60.7207 14.979 59.568 15.447 58.5826C15.915 57.5973 16.6593 56.7651 17.4831 56.0503C17.6222 55.9304 17.7723 55.7984 17.8075 55.6182C17.88 55.2509 17.4632 54.9977 17.1267 54.8323C15.865 54.2123 14.8104 53.1795 14.1648 51.9313C14.0475 51.7044 13.9411 51.4563 13.9667 51.2024C13.9975 50.9005 14.2078 50.6511 14.4123 50.4261C15.3797 49.3599 16.426 48.3662 17.5389 47.4533C18.4826 46.6795 19.4513 45.9397 20.3962 45.1665C21.079 45.046 21.7335 44.9313 22.3451 44.8229C19.8808 47.1341 17.3722 51.8352 17.2837 52.3083C17.1613 52.9616 21.5714 55.5343 21.4489 55.9837C21.3265 56.4324 17.5286 57.7806 17.5286 58.5974C17.5286 59.1596 23.0394 67.8817 26.677 73.2277Z" fill="#E0B836"/>
<path d="M31.2686 49.3422C31.2193 49.7525 31.1404 50.1602 30.9891 50.5436C30.9147 50.7315 30.8173 50.9199 30.6545 51.0398C30.2794 51.3161 29.7146 51.102 29.4351 50.7295C29.1556 50.3564 29.0748 49.8775 28.953 49.4281C28.6555 48.3267 28.0786 47.326 27.5843 46.2977C27.1419 45.3777 26.4983 44.0474 26.7419 42.9941C26.7656 42.8922 26.8002 42.7999 26.8457 42.7172C26.8784 42.7351 26.9118 42.755 26.9445 42.7774C27.0669 42.8601 30.3974 47.9978 31.2686 49.3422Z" fill="#63BABA"/>
<path d="M63.9755 50.8956C63.9262 51.3911 56.9377 63.2366 56.4915 63.5834C56.2158 63.7981 47.3284 68.0537 40.5078 71.2919C44.0248 66.0054 48.3548 59.0958 48.3548 58.5976C48.3548 57.7809 44.5569 56.4327 44.4345 55.9839C44.3114 55.5345 48.7221 52.9618 48.5997 52.3085C48.5439 52.0117 47.5348 50.0487 46.1815 48.0562C47.1925 48.1088 48.4304 48.8845 49.6683 48.8845C50.9063 48.8845 53.2168 48.5158 53.7232 48.746C54.2303 48.9768 55.9356 50.8661 57.2262 50.175C58.516 49.4832 59.2533 48.9768 59.3918 48.5158C59.418 48.4274 59.4007 48.2363 59.3578 47.9773C60.0284 48.1491 60.429 48.2549 60.4566 48.269C60.6547 48.3677 64.0249 50.4 63.9755 50.8956Z" stroke="black" stroke-width="0.569857" stroke-linecap="round" stroke-linejoin="round"/>
<path d="M48.3546 58.5974C48.3546 59.0955 44.0247 66.0052 40.5076 71.2916C37.7971 72.5783 35.4129 73.7041 34.0256 74.3522C33.6435 73.6669 33.3672 73.1354 33.3672 73.1354C33.3672 73.1354 41.0051 50.3299 41.209 46.6135C41.2353 46.1295 41.25 45.7198 41.2545 45.3737C41.2885 45.2717 41.3129 45.182 41.327 45.105C41.6033 46.6719 40.866 48.4695 42.1104 49.1606C43.3547 49.8517 45.1517 48.0085 46.1659 48.0547C46.171 48.0547 46.1762 48.0553 46.1813 48.056C47.5346 50.0485 48.5437 52.0115 48.5995 52.3083C48.7219 52.9616 44.3112 55.5343 44.4343 55.9837C44.5568 56.4325 48.3546 57.7807 48.3546 58.5974Z" stroke="black" stroke-width="0.569857" stroke-linecap="round" stroke-linejoin="round"/>
<path d="M32.5161 73.1359C32.5161 73.1359 32.1532 73.8341 31.6839 74.6617C30.5953 74.3604 28.7727 73.8373 26.677 73.2283C23.0395 67.8822 17.5287 59.1602 17.5287 58.5979C17.5287 57.7812 21.3265 56.433 21.4489 55.9842C21.5714 55.5348 17.1613 52.9621 17.2838 52.3089C17.3722 51.8357 19.8808 47.1346 22.3452 44.8235C23.2119 44.0099 24.0735 43.4926 24.8223 43.5586C24.6819 43.5939 24.4935 43.7779 24.3915 44.4517C24.3191 44.9248 24.2896 45.6396 24.3486 46.7141C24.5524 50.4305 32.5161 73.1359 32.5161 73.1359Z" stroke="black" stroke-width="0.569857" stroke-linecap="round" stroke-linejoin="round"/>
<path d="M26.6771 73.2277C20.7836 71.5166 12.7277 69.1343 12.7277 69.1343L3.36071 52.2333C3.36071 52.2333 3.26134 51.1928 6.38345 48.8137C7.03736 48.3156 8.28556 47.8373 9.85559 47.3866C13.4252 46.3609 18.6584 45.4762 22.3453 44.8229C19.881 47.1341 17.3724 51.8352 17.2839 52.3083C17.1615 52.9616 21.5715 55.5343 21.4491 55.9837C21.3266 56.4324 17.5288 57.7806 17.5288 58.5974C17.5288 59.1596 23.0396 67.8817 26.6771 73.2277Z" stroke="black" stroke-width="0.569857" stroke-linecap="round" stroke-linejoin="round"/>
<path d="M37.8676 45.1C37.7836 45.961 37.6778 46.8758 37.1342 47.549C36.5367 48.2875 35.5385 48.5728 34.8314 49.2075C33.9345 50.014 33.6191 51.2603 33.1773 52.3828C33.1568 52.4347 33.1325 52.4905 33.0825 52.5162C32.9959 52.5598 32.8978 52.486 32.8312 52.4162C32.7453 52.3258 32.6606 52.2277 32.5779 52.1225C32.126 50.9397 31.7964 49.8467 31.7964 49.8467C31.6567 49.4005 33.2857 48.7209 35.5218 46.656C36.3078 45.9296 37.0079 45.209 37.6054 44.5538C37.7022 44.5981 37.79 44.6596 37.8361 44.7526C37.8894 44.8583 37.8791 44.9827 37.8676 45.1Z" fill="#63BABA"/>
<path d="M33.5855 9.71365C33.6913 9.76942 33.8099 9.80789 33.9387 9.83353C33.8939 9.84635 33.8496 9.86046 33.8054 9.87392C32.5668 10.2592 30.3826 10.9067 29.6357 9.37259C30.1121 9.09756 30.6775 8.80907 31.5122 8.56161C32.7559 8.19298 32.6181 9.20655 33.5855 9.71365Z" fill="#6D1151"/>
<path d="M39.7711 11.1504C39.0947 11.0286 38.4402 10.8561 37.8722 10.4849C37.5388 10.267 37.2471 9.98682 36.8958 9.79962C36.7067 9.69897 36.5092 9.62973 36.3066 9.58486C36.867 9.47331 37.4151 9.37458 37.8709 9.39061C38.853 9.42587 39.1678 10.2093 39.7711 11.1504Z" fill="#6D1151"/>
<path d="M45.2626 15.467C44.7709 15.2503 44.2118 15.0798 43.8195 14.7349C43.2855 14.265 43.131 13.5418 43.0957 12.8091C43.5124 12.8251 43.9028 12.8847 44.2304 13.1232C44.8741 13.5912 44.9235 14.6157 45.2626 15.467Z" fill="#6D1151"/>
<path d="M48.2856 19.6673C48.2914 19.6872 48.2978 19.7064 48.3042 19.7257C48.2016 19.6641 48.1003 19.6019 48.0003 19.5378C47.1977 19.0224 46.4277 18.2781 46.345 17.328C46.3252 17.0978 46.347 16.8619 46.3232 16.6337C47.8253 17.2799 47.8728 18.3364 48.2856 19.6673Z" fill="#6D1151"/>
<path d="M51.5002 26.9077C49.9686 26.0942 49.2935 23.8485 50.2718 22.3759C50.3879 22.4708 50.5097 22.5656 50.636 22.6631C51.7604 23.5279 51.4643 25.4884 51.5002 26.9077Z" fill="#6D1151"/>
<path d="M54.7953 33.3565C54.235 33.1321 53.5388 32.9885 53.1586 32.5411C52.5867 31.8686 52.9669 30.8505 53.3394 30.0504C53.4477 29.8177 53.549 29.5613 53.6215 29.3004C53.8388 29.4997 54.0343 29.7363 54.1843 30.0363C54.8741 31.4166 54.0715 32.0699 54.7953 33.3565Z" fill="#6D1151"/>
<path d="M59.2432 47.3763C58.9419 47.1788 58.6804 46.9134 58.488 46.6114C58.0175 45.8748 57.8995 44.9632 57.9412 44.09C57.9809 43.2432 58.1579 42.377 57.9328 41.5597C57.6027 40.3627 56.5013 39.5569 55.8698 38.4882C55.2621 37.4605 55.1159 36.1719 55.4775 35.034C55.5236 34.8891 55.5781 34.7429 55.6127 34.5955C56.3397 35.7328 56.893 36.8476 56.8577 37.9625C56.8116 39.3915 57.0417 39.8986 58.2861 40.5435C59.5304 41.1885 59.208 42.5713 58.8394 43.6772C58.588 44.4298 58.999 46.1858 59.2432 47.3763Z" fill="#6D1151"/>
<path d="M28.6815 54.8569C28.1583 54.937 24.5695 45.095 24.6721 44.3975C24.7035 44.1859 24.8208 43.8827 25.001 43.5852C25.4138 42.9031 26.1556 42.2479 26.9441 42.7775C27.0774 42.8672 31.0041 48.9351 31.4362 49.6019C32.1664 50.7283 29.2052 54.7761 28.6815 54.8569Z" stroke="black" stroke-width="0.569857" stroke-linecap="round" stroke-linejoin="round"/>
<path d="M41.2551 45.3736C40.5172 47.5731 35.2654 55.0963 34.3243 55.0335C33.3395 54.9675 31.7964 49.8464 31.7964 49.8464C31.6567 49.4003 33.2857 48.7207 35.5218 46.6557C38.2112 44.1702 39.8953 41.7578 39.8953 41.7578C39.9184 41.7969 39.9415 41.8367 39.9639 41.8771C40.5319 42.8829 41.0653 44.3497 41.2544 44.8927C41.257 45.0383 41.257 45.1973 41.2551 45.3736Z" stroke="black" stroke-width="0.569857" stroke-linecap="round" stroke-linejoin="round"/>
<path d="M24.7197 15.467C24.2748 15.9318 24.4947 17.2307 24.6236 17.8609C24.6883 18.1769 24.7608 18.5084 24.9711 18.7533C25.2127 19.0354 25.591 19.1527 25.9513 19.2418C26.7706 19.4444 27.6091 19.5713 28.4522 19.6194C28.7112 19.6341 28.9766 19.6431 29.2157 19.7425C29.7093 19.9483 29.9722 20.4842 30.137 20.9926C30.3017 21.501 30.4242 22.051 30.787 22.4434C31.5916 23.3133 33.211 23.0434 33.9136 23.9974C34.2963 24.5173 34.2624 25.2219 34.2444 25.8675C34.2265 26.513 34.2765 27.2394 34.7579 27.6696C35.215 28.0786 35.8946 28.0734 36.5075 28.069C37.1203 28.0645 37.8146 28.1196 38.2044 28.5927C38.5884 29.0582 38.5198 29.7422 38.3641 30.325C38.2083 30.9077 37.9826 31.5097 38.1211 32.0969C38.1493 32.2168 38.2621 32.3611 38.3653 32.2937" stroke="black" stroke-width="0.569857" stroke-linecap="round" stroke-linejoin="round"/>
<path d="M24.5398 15.6754C23.6698 16.5902 23.4326 18.0512 23.9679 19.1949C24.5039 20.3386 25.7777 21.0913 27.0374 21.0086C27.751 20.9618 28.5645 20.7009 29.1152 21.1573C29.5396 21.5093 29.5909 22.1318 29.8416 22.6228C30.1737 23.2736 30.866 23.6806 31.5783 23.8428C32.2905 24.005 33.0323 23.9576 33.7612 23.9089" stroke="black" stroke-width="0.569857" stroke-linecap="round" stroke-linejoin="round"/>
<path d="M26.944 42.7774C26.1555 42.2479 25.4138 42.9031 25.0009 43.5852C25.0009 43.5852 24.924 43.5326 24.822 43.5583C24.356 43.5173 23.8463 43.7019 23.3187 44.0436C23.2988 43.8006 23.2866 43.557 23.2783 43.3153C23.2558 42.6768 23.2526 42.0254 23.0501 41.419C22.8475 40.8131 22.4013 40.2477 21.782 40.0887C21.1729 39.9323 20.5421 40.19 19.9145 40.2323C18.5195 40.3253 17.2277 39.2918 16.6622 38.0135C16.0968 36.7352 16.134 35.2696 16.3616 33.89C16.7187 31.7186 17.5412 29.7088 18.6682 27.8279C18.6939 27.7849 18.7201 27.7413 18.7458 27.6971C18.0271 30.9698 18.2791 34.0913 20.7017 36.0261C22.4667 37.4359 24.8361 37.2391 27.1191 36.4326C27.1191 36.4326 27.1697 40.6888 26.944 42.7774Z" fill="#210017"/>
<path d="M27.63 17.1797C28.1012 17.6721 28.2974 18.3471 28.5301 18.9998C27.7525 18.8683 26.9306 18.8049 26.3504 18.5151C25.8593 18.2702 25.4221 17.5201 25.1016 16.8124C25.9048 16.4001 26.9953 16.5155 27.63 17.1797Z" fill="#6D1151"/>
<path d="M35.1509 24.1627C34.3778 23.5395 32.384 23.1344 31.8339 22.6625C31.5384 22.4086 31.3493 21.8753 31.1377 21.3047C31.5557 21.422 31.9814 21.5278 32.3795 21.6772C33.5693 22.1227 34.5618 23.0395 35.1509 24.1627Z" fill="#6D1151"/>
<path d="M41.3182 45.055C41.299 44.9525 41.2766 44.8499 41.2509 44.7467C41.1317 44.2659 40.9457 43.7838 40.7226 43.3055C40.4976 42.8228 40.2348 42.3445 39.9636 41.8765C39.9412 41.8361 39.9181 41.7964 39.895 41.7573C39.6469 41.3309 39.3943 40.9142 39.1603 40.511C38.3307 39.082 39.6969 37.369 39.7892 35.8182C39.8809 34.2681 39.211 33.9296 38.2891 32.916C37.3678 31.9024 38.8385 30.2664 38.3775 29.0682C37.9166 27.87 36.903 28.3771 36.0273 27.6398C35.3324 27.0545 35.5664 25.9467 35.5317 25.0998C35.61 25.364 35.6664 25.6345 35.6991 25.9089C35.7234 26.1153 35.7369 26.3288 35.8318 26.5134C36.103 27.0417 36.8274 27.0584 37.4063 27.1898C38.8712 27.5238 39.8796 29.1945 39.4937 30.6459C39.3116 31.3299 38.8712 31.9531 38.8616 32.6608C38.8596 32.8115 38.8802 32.9686 38.9609 33.0955C39.1161 33.3372 39.4328 33.4 39.7001 33.5064C40.8214 33.9526 41.231 35.3746 41.0759 36.5715C40.9201 37.7684 40.3617 38.8794 40.1514 40.068C40.1014 40.3501 40.0719 40.6424 40.1348 40.9219C40.2252 41.322 40.4925 41.6534 40.7009 42.006C41.2439 42.9266 41.3766 43.978 41.3182 45.055Z" fill="#6D1151"/>
<path d="M59.3582 47.9774C59.1774 46.8817 58.5408 44.5712 58.8395 43.6769C59.2082 42.571 59.5306 41.1882 58.2863 40.5433C57.0419 39.8983 56.8118 39.3912 56.8579 37.9622C56.9034 36.5339 55.9822 35.1055 54.968 33.6304C53.9544 32.1559 54.9218 31.511 54.1846 30.0358C53.4473 28.5613 51.6042 28.6075 51.5119 27.1791C51.4196 25.7501 51.8343 23.5845 50.6361 22.6626C49.4379 21.7407 48.7007 21.0035 48.2859 19.6675C47.8711 18.3308 47.825 17.2711 46.3043 16.6255C44.7836 15.9805 45.2446 13.8605 44.2304 13.1232C43.2168 12.386 41.6038 13.354 40.4518 12.0635C39.2997 10.773 39.1613 9.43694 37.8714 9.39078C36.5809 9.34463 34.5531 10.2204 33.5851 9.71325C32.6177 9.20615 32.7555 8.19259 31.5118 8.56121C30.2674 8.92984 29.6219 9.39078 28.9769 9.75941C28.9769 9.75941 27.021 7.66818 25.7311 8.48236C24.4406 9.2959 23.0404 10.696 22.5154 10.8127C21.991 10.9294 20.2408 10.696 19.5991 11.3961C18.9573 12.0962 18.549 14.0387 17.7912 14.4964C17.0328 14.9542 14.9326 16.4126 14.6409 17.1711C14.3492 17.9288 14.6409 18.9206 14.2325 19.9707C13.8241 21.0208 12.5413 22.8287 12.1913 23.8204C11.8412 24.8122 13.1247 26.0373 12.7747 27.1451C12.4246 28.2536 11.3745 30.0038 11.3162 30.8205C11.2578 31.6366 11.7829 32.4534 11.5495 34.3202C11.3162 36.1864 9.79936 37.1782 9.62434 38.2866C9.44932 39.3951 10.9661 41.0863 10.5578 42.1947C10.5578 42.1947 8.92427 43.1281 8.7499 44.0032C8.59155 44.795 9.98143 46.4349 9.85578 47.3869C13.4254 46.3612 18.6586 45.4765 22.3455 44.8232C23.2122 44.0096 24.0739 43.4923 24.8227 43.5583C24.9246 43.5327 25.0015 43.5852 25.0015 43.5852C25.4144 42.9031 26.1561 42.2479 26.9447 42.7775C27.1703 40.6888 27.1197 36.4326 27.1197 36.4326C24.8368 37.2391 22.4673 37.4359 20.7024 36.0262C14.5921 31.1462 22.2884 18.7161 24.5502 15.3491C24.5662 15.4036 25.3464 18.0134 26.3504 18.5154C27.3639 19.0219 29.1154 18.8379 30.0828 19.529C31.0508 20.2201 31.1887 22.1094 31.8343 22.6626C32.4792 23.2159 35.1064 23.6768 35.4288 24.5058C35.7513 25.3353 35.1519 26.9022 36.0276 27.6401C36.9034 28.3773 37.9169 27.8702 38.3779 29.0684C38.8388 30.2666 37.3681 31.9027 38.2894 32.9162C39.2113 33.9298 39.8812 34.2683 39.7895 35.8184C39.6972 37.3692 38.3311 39.0822 39.1606 40.5112C39.3946 40.9145 39.6472 41.3312 39.8953 41.7575C39.9184 41.7966 39.9415 41.8364 39.9639 41.8767C40.2351 42.3447 40.4979 42.823 40.723 43.3057C40.9461 43.784 41.132 44.2661 41.2512 44.7469C41.2814 44.8668 41.3064 44.986 41.3275 45.1053C41.6038 46.6721 40.8666 48.4697 42.1109 49.1608C43.3553 49.8519 45.1523 48.0088 46.1665 48.0549C46.1716 48.0549 46.1767 48.0556 46.1818 48.0562C47.1928 48.1088 48.4308 48.8845 49.6687 48.8845C50.9067 48.8845 53.2172 48.5159 53.7236 48.746C54.2307 48.9768 55.936 50.8661 57.2265 50.175C58.5164 49.4833 59.2537 48.9768 59.3921 48.5159C59.4184 48.4274 59.4011 48.2364 59.3582 47.9774ZM40.882 43.5852C40.882 43.5852 40.9544 43.4916 41.0352 43.5602C40.9833 43.566 40.9326 43.5737 40.882 43.5852Z" stroke="black" stroke-width="0.569857" stroke-linecap="round" stroke-linejoin="round"/>
<path d="M24.8457 22.1759H30.7533V23.2914C30.7533 24.8909 29.4551 26.1891 27.8556 26.1891H27.7441C26.1446 26.1891 24.8463 24.8909 24.8463 23.2914V22.1759H24.8457Z" fill="#E86F3A" stroke="black" stroke-width="0.569857" stroke-linecap="round" stroke-linejoin="round"/>
<path d="M16.9395 22.1759H22.8471V23.2914C22.8471 24.8909 21.5489 26.1891 19.9494 26.1891H19.8378C18.2383 26.1891 16.9401 24.8909 16.9401 23.2914V22.1759H16.9395Z" fill="#E86F3A" stroke="black" stroke-width="0.569857" stroke-linecap="round" stroke-linejoin="round"/>
<path d="M22.8477 23.2915C22.8477 23.2915 23.5009 22.258 24.8466 23.2915" stroke="black" stroke-width="0.569857" stroke-linecap="round" stroke-linejoin="round"/>
</g>
<defs>
<clipPath id="clip0_1609_38073">
<rect width="64" height="64" rx="32" fill="white"/>
</clipPath>
</defs>
</svg>
