<svg width="64" height="64" viewBox="0 0 64 64" fill="none" xmlns="http://www.w3.org/2000/svg">
<g clip-path="url(#clip0_1609_38506)">
<rect y="-0.000326157" width="64" height="64" rx="32" fill="#FBDFB1"/>
<path d="M24.6318 45.1086C24.6318 45.1086 24.8075 45.4817 25.1813 46.7466C25.555 48.0115 28.7053 50.1892 29.8638 51.1951C31.0222 52.2016 32.5705 60.7275 32.5705 60.7275C32.5705 60.7275 32.9891 53.2254 33.6885 51.356C34.3873 49.4872 37.1446 47.8461 37.8017 46.8184C38.4595 45.7907 38.5005 44.3027 38.5005 44.3027C38.0492 43.6117 37.628 36.684 37.628 36.684C38.639 36.8148 39.6513 36.827 40.5674 36.6321C41.4931 36.4353 42.3195 36.0269 42.9459 35.3172C45.6795 32.2188 42.8907 25.715 41.9278 23.7635C41.9278 23.7635 41.9278 23.7622 41.9272 23.7622C40.7809 21.8678 40.7001 19.1047 40.2161 17.0987C40.0924 16.5884 39.9436 16.1275 39.7449 15.7422C38.4678 13.2689 36.3401 15.2659 36.3401 15.2659C36.3401 15.2659 34.9431 13.8042 33.9212 14.9447C32.8993 16.0852 33.0134 18.7592 33.3737 20.7331C33.6783 22.4057 33.4981 24.436 31.9191 25.8535C31.9191 25.8535 31.9178 25.8554 31.9172 25.856C31.8755 25.9176 31.1639 26.9536 29.2285 29.8936C26.6776 33.7677 27.4578 40.3645 24.7274 44.0348C24.6895 44.6573 24.6575 45.0483 24.6331 45.108L24.6318 45.1086Z" fill="#F3BBB0" stroke="black" stroke-width="0.569857" stroke-linecap="round" stroke-linejoin="round"/>
<path d="M36.3953 15.5399C35.7516 15.1816 34.8919 15.4207 34.3861 15.956C33.8803 16.4913 33.6784 17.2523 33.6489 17.9883C33.6194 18.7242 33.7425 19.4564 33.797 20.191C34.0124 23.1138 33.1309 26.0057 32.0564 28.7323C30.9813 31.4588 29.6972 34.1245 29.0433 36.9812C28.7548 38.2422 28.5894 39.5398 28.1265 40.7476C27.6636 41.9554 26.8411 43.101 25.6416 43.5851C24.4422 44.0697 22.8484 43.6799 22.2817 42.517C22.0387 42.0195 22.0015 41.4496 21.981 40.8963C21.6445 31.9948 24.5941 23.0061 30.1389 16.0342C30.8774 15.1053 31.7083 14.177 32.8193 13.7596C33.9303 13.3423 35.3875 13.6167 35.9561 14.6584" fill="#F09E8B"/>
<path d="M31.1963 34.6353C31.1963 34.6353 32.5471 40.0923 37.913 41.0135L37.8194 36.7073L31.1963 34.6353Z" fill="#ED7D66"/>
<path d="M40.1849 17.1949C40.4131 17.6109 40.6683 18.1514 41.142 18.1398C41.3914 18.1341 41.6113 17.9545 41.7299 17.7347C41.8485 17.5148 41.8812 17.2602 41.8979 17.0115C41.9735 15.8761 41.7293 14.6869 41.0343 13.7855C40.3394 12.8842 39.1482 12.3303 38.0353 12.5681C36.9743 12.7951 35.5075 14.3112 36.8506 15.1498C37.4077 15.4979 38.1097 15.4966 38.6969 15.7902C39.3162 16.0999 39.8509 16.5852 40.1849 17.1949Z" fill="#F09E8B"/>
<path d="M40.567 36.6324C41.4927 36.4356 42.3191 36.0272 42.9454 35.3175C45.679 32.2191 42.8903 25.7153 41.9274 23.7638C41.9274 23.7638 41.9274 23.7625 41.9267 23.7625C40.7805 21.8681 40.6997 19.105 40.2157 17.099L39.7861 16.4374C40.2028 20.5083 40.6195 24.5799 41.0363 28.6508C41.3106 31.3293 41.56 34.1578 40.5676 36.633L40.567 36.6324Z" fill="#F9DFDC"/>
<path d="M41.6279 23.1987C41.6408 23.2109 41.7549 23.4134 41.9273 23.7628" stroke="black" stroke-width="0.569857" stroke-linecap="round" stroke-linejoin="round"/>
<path d="M35.3721 11.6359L35.6535 12.4982L35.7317 12.7386L35.8266 13.029C35.8266 13.029 35.9023 12.9412 36.0478 12.8239C36.2196 12.6854 36.4869 12.5065 36.8395 12.3802C36.9152 12.3527 36.996 12.3276 37.0793 12.3065C37.5338 12.1911 38.0999 12.1764 38.7622 12.4136C38.7827 12.4206 38.8032 12.4277 38.8243 12.436C39.8443 12.8219 40.6322 13.4983 41.2021 14.5708C41.4951 15.1202 41.7304 15.7748 41.9099 16.5467C42.1619 17.6269 42.3067 18.9392 42.3484 20.5227C42.401 22.5319 43.7492 25.4444 43.7492 25.4444C42.9401 25.0635 42.3593 24.4744 41.9279 23.7628C42.1189 24.15 42.3811 24.7154 42.6587 25.3976C43.78 28.1581 45.1384 32.8323 42.9459 35.3159C41.6996 36.7288 39.661 36.9468 37.6287 36.6833C37.6287 36.6833 37.8294 39.9817 38.1025 42.2531C38.2249 43.2737 38.3615 44.0872 38.5012 44.302C38.9519 44.9925 54.3855 46.224 56.1607 46.9202C52.8142 45.0553 52.1584 42.3486 52.384 39.4041C52.4071 39.0957 52.4404 38.7848 52.4815 38.4719C52.9405 34.9581 51.7 31.4014 48.265 29.1543C47.7663 28.828 47.3245 28.4543 46.9328 28.0446C44.6275 25.6328 44.0832 21.9927 44.1665 19.7015C44.2217 18.1885 43.9236 15.9312 43.1767 14.0047C42.601 12.5187 41.7586 11.2295 40.6053 10.6326C39.4282 10.0229 38.2634 10.1524 37.3332 10.4864C36.1696 10.9031 35.3721 11.6353 35.3721 11.6353V11.6359Z" fill="#BF9EF9" stroke="black" stroke-width="0.569857" stroke-linecap="round" stroke-linejoin="round"/>
<path d="M56.1621 46.9219C56.3993 47.0552 56.6506 47.1828 56.916 47.3065" stroke="black" stroke-width="0.569857" stroke-linecap="round" stroke-linejoin="round"/>
<path d="M14.4883 48.4791C17.3437 47.5874 20.3292 46.6494 22.316 45.9853C23.343 45.5211 24.1213 44.8499 24.7265 44.0351C27.4562 40.3648 26.6767 33.768 29.2276 29.8939C31.163 26.9539 31.8746 25.9179 31.9163 25.8563C31.6317 26.1108 31.3021 26.3461 30.922 26.5557C30.922 26.5557 32.3112 23.7939 31.6721 21.3347C31.59 21.0206 31.5067 20.618 31.4336 20.1583C31.1015 18.0626 30.9829 14.7828 32.2413 13.3435C32.6157 12.9146 33.0074 12.6659 33.3876 12.5383C34.6666 12.1062 35.8263 13.0287 35.8263 13.0287L35.3711 11.6357C35.3711 11.6357 33.9364 10.3875 32.0298 10.2567C30.5425 10.1541 28.7666 10.7324 27.1613 13.1172C26.0215 14.8116 25.4926 16.1848 25.2419 17.4023C24.7053 20.0089 25.4445 21.9021 24.1899 24.7011C24.1277 24.8395 24.0642 24.9748 23.9995 25.1075C22.4551 28.295 20.3119 29.9067 20.1279 34.3687C20.1074 34.8662 20.1106 35.3977 20.1427 35.9721C20.5863 44.0037 15.6916 47.3912 14.4883 48.4804V48.4791Z" fill="#BF9EF9" stroke="black" stroke-width="0.569857" stroke-linecap="round" stroke-linejoin="round"/>
<path d="M7.17969 50.7615C8.55354 50.3121 11.2897 49.4639 14.1939 48.5567C14.2727 48.5324 14.3516 48.508 14.4304 48.483C15.6132 47.413 20.3618 44.1223 20.1034 36.385C20.0983 36.2497 20.0925 36.1132 20.0848 35.9747C19.9111 32.8302 20.5733 30.9313 21.4914 29.2708C22.3062 27.7951 23.323 26.5084 24.132 24.7037C25.5835 21.4656 24.366 19.4404 25.5437 16.1182C25.7796 15.4528 26.1124 14.7341 26.5816 13.943C26.615 13.8866 26.6489 13.8302 26.6848 13.7725C26.8143 13.5603 26.9535 13.343 27.1035 13.1199C30.7654 7.68085 35.3139 11.6383 35.3139 11.6383C35.203 11.378 33.2772 8.97457 29.7146 9.41692C29.0562 9.49834 28.3414 9.67657 27.5728 9.98493C23.4057 11.6518 20.4951 16.1881 19.697 19.918C19.5393 20.6507 19.4636 21.3527 19.4764 21.9958C19.5534 25.9109 20.4932 30.0062 17.4134 33.3507C17.3269 33.445 17.239 33.5386 17.1518 33.6309C14.1624 36.7895 11.2051 38.5115 9.51774 42.4895C9.51582 42.494 9.5139 42.4984 9.51197 42.5036C8.02528 46.0219 7.34381 49.7652 7.18033 50.7615H7.17969Z" fill="#BF9EF9" stroke="black" stroke-width="0.569857" stroke-linecap="round" stroke-linejoin="round"/>
<path d="M20.1925 33.4869C20.1925 33.4869 20.04 36.4006 17.8442 38.3373C15.6478 40.2741 10.4005 42.2813 11.0006 49.5673" stroke="black" stroke-width="0.569857" stroke-linecap="round" stroke-linejoin="round"/>
<path d="M48.386 45.7904C47.9469 45.7391 45.0396 42.7202 46.0544 39.2564C46.3301 38.3147 46.4339 37.4633 46.4211 36.7004" stroke="black" stroke-width="0.569857" stroke-linecap="round" stroke-linejoin="round"/>
<path d="M27.4208 26.8167C25.8398 27.6437 24.9641 30.1651 24.8442 31.9454C24.7243 33.7251 25.041 35.5195 24.8461 37.2928C24.6378 39.1897 23.848 40.9867 22.8184 42.5933C21.7881 44.2005 20.413 45.5827 19.1494 47.013" stroke="black" stroke-width="0.569857" stroke-linecap="round" stroke-linejoin="round"/>
<path d="M2.87643 55.3801C2.86104 55.3923 3.23864 55.7667 3.94513 56.3911C5.12345 57.4342 7.21404 59.1735 9.9188 61.0948C9.9188 61.0948 9.9188 61.0948 9.91944 61.0948C12.6998 63.0707 16.129 65.2382 19.8826 67.0371C19.8852 67.039 19.8884 67.0397 19.8916 67.0416C25.7909 69.8688 32.4903 71.785 38.7287 70.6176C43.4452 69.7342 48.6483 65.5786 52.8487 61.2416C54.1989 59.8479 55.4452 58.4362 56.5369 57.1072C58.3583 54.8942 59.7546 52.9152 60.4963 51.6432C60.963 50.8432 61.1707 50.3232 61.0617 50.2027C60.8239 49.9379 60.3924 49.5591 59.8565 49.1449C58.8006 48.3301 57.3396 47.3819 56.1619 46.9203C56.1613 46.9203 56.1606 46.9203 56.16 46.9203C55.6753 46.7299 54.1726 46.5004 52.2346 46.2523C50.9441 46.0869 49.4606 45.9138 47.9566 45.7388C45.323 45.4336 42.6266 45.1227 40.7879 44.8419C40.8745 45.2253 41.2739 47.3255 39.9577 48.3487C38.5627 49.4321 35.7073 50.8887 35.1925 52.5555C35.1707 52.6241 35.1534 52.6927 35.1406 52.7619C35.0604 53.1857 34.9828 54.0858 34.8841 55.2109C34.7553 56.6944 34.5899 58.5696 34.3398 60.2569C34.1956 61.2262 34.0231 62.134 33.8129 62.8706C33.5199 63.899 33.1532 64.5939 32.6858 64.658C32.2364 64.7195 31.7928 64.0547 31.3697 63.0066C31.0837 62.2994 30.8061 61.4179 30.542 60.4678C30.0933 58.8529 29.681 57.0399 29.3246 55.5468C29.056 54.4211 28.8207 53.478 28.6252 52.9402C28.5412 52.7087 28.4642 52.5523 28.3963 52.4888C27.1641 51.3406 24.1247 50.2469 23.701 49.2026C23.3118 48.2448 22.8252 46.1709 22.7483 45.8382C22.6105 45.885 22.4662 45.933 22.3162 45.9837C20.5609 46.5703 18.026 47.371 15.4899 48.1647C15.1559 48.2692 14.8212 48.3737 14.4885 48.4775C13.4377 48.8058 12.403 49.1282 11.4433 49.427C9.67198 49.9796 8.1526 50.4559 7.23776 50.7553C6.71592 50.9252 6.39152 51.0387 6.32806 51.0759C6.03059 51.2496 4.94907 52.6472 4.07463 53.8031C3.44443 54.6358 2.92259 55.343 2.87643 55.3782V55.3801Z" fill="#4C70F5" stroke="black" stroke-width="0.569857" stroke-linecap="round" stroke-linejoin="round"/>
<path d="M35.1412 52.7635C35.0611 53.1873 34.9835 54.0873 34.8848 55.2125C38.7352 54.3534 42.1868 52.3243 45.1948 50.4209C45.5301 50.2094 45.8647 49.9965 46.2 49.7824C48.154 48.5374 50.1472 47.2661 52.2352 46.2539C50.9447 46.0885 49.4612 45.9154 47.9572 45.7403C46.9046 46.368 45.8756 47.0245 44.8563 47.6739C44.5229 47.8867 44.1902 48.0983 43.8581 48.3086C41.2719 49.9453 38.3434 51.6807 35.1931 52.5571C35.1713 52.6257 35.154 52.6943 35.1412 52.7635Z" fill="#F5D256" stroke="black" stroke-width="0.569857" stroke-linecap="round" stroke-linejoin="round"/>
<path d="M11.4424 49.4292C13.7753 50.0787 15.9454 51.0371 18.2405 52.0506C19.1983 52.4738 20.1888 52.9116 21.1825 53.3194C23.4359 54.2451 26.2528 55.2503 29.3243 55.5484C29.0557 54.4227 28.8204 53.4796 28.6249 52.9418C26.2176 52.5789 23.9744 51.7622 22.1326 51.0057C21.169 50.6101 20.1939 50.1793 19.2509 49.7632C18.0238 49.2209 16.7737 48.6689 15.4896 48.1656C15.1556 48.2701 14.8209 48.3746 14.4882 48.4785C13.4375 48.8067 12.4027 49.1292 11.443 49.4279L11.4424 49.4292Z" fill="#F5D256" stroke="black" stroke-width="0.569857" stroke-linecap="round" stroke-linejoin="round"/>
<path d="M34.3395 60.2584C34.1952 61.2277 34.0228 62.1355 33.8125 62.8721C38.3206 62.2913 42.3191 59.9622 45.7438 57.7947C46.0791 57.5825 46.4138 57.3696 46.7491 57.1561C50.0417 55.0572 53.4459 52.8878 57.2245 51.9986C58.2605 51.755 59.3785 51.6312 60.4959 51.6441C60.9627 50.844 61.1704 50.3241 61.0614 50.2035C60.8235 49.9388 60.3921 49.5599 59.8561 49.1457C58.7817 49.1778 57.7008 49.3175 56.6513 49.5644C52.4592 50.5504 48.873 52.8365 45.4047 55.047C45.0713 55.2598 44.7386 55.4714 44.4065 55.681C41.4402 57.5581 38.0245 59.5654 34.3388 60.2571L34.3395 60.2584Z" fill="#F5D256" stroke="black" stroke-width="0.569857" stroke-linecap="round" stroke-linejoin="round"/>
<path d="M2.87643 55.3807C2.86104 55.3929 3.23864 55.7673 3.94513 56.3917C6.27741 55.8641 9.02127 55.9891 11.8857 56.7732C14.2603 57.4232 16.4611 58.3958 18.7915 59.4254C19.7493 59.8485 20.7398 60.2863 21.7334 60.6941C24.3485 61.7673 27.7212 62.9494 31.3703 63.0084C31.0844 62.3013 30.8068 61.4198 30.5427 60.4697C27.6225 60.2601 24.8697 59.2785 22.6835 58.3804C21.72 57.9848 20.7449 57.554 19.8012 57.1373C17.4901 56.1167 15.0994 55.0608 12.546 54.3614C10.2759 53.7395 7.1993 53.2452 4.07463 53.8049C3.44443 54.6377 2.92259 55.3448 2.87643 55.3801V55.3807Z" fill="#F5D256" stroke="black" stroke-width="0.569857" stroke-linecap="round" stroke-linejoin="round"/>
<path d="M9.91992 61.0958C12.7003 63.0716 16.1295 65.2392 19.8831 67.038C19.8857 67.04 19.8889 67.0406 19.8921 67.0425C20.6768 67.3874 21.4788 67.7375 22.2833 68.0676C25.2586 69.2889 29.2148 70.6512 33.4421 70.3409L33.4588 70.3397C38.3388 69.9762 42.6431 67.481 46.2947 65.1699C46.63 64.9577 46.9647 64.7449 47.2999 64.5308C49.102 63.3826 50.9375 62.2126 52.8492 61.2426C54.1994 59.8489 55.4456 58.4372 56.5374 57.1082C52.6287 58.1692 49.2392 60.3297 45.9562 62.4222C45.6229 62.6344 45.2901 62.8466 44.958 63.0562C41.5622 65.2052 37.5772 67.5246 33.2729 67.8458L33.2588 67.8471C29.5527 68.1196 25.9542 66.872 23.2334 65.7552C22.2699 65.3597 21.2948 64.9289 20.3511 64.5122C18.04 63.4915 15.6493 62.4357 13.0959 61.7356C12.1573 61.4792 11.0803 61.2439 9.91992 61.0958Z" fill="#F5D256" stroke="black" stroke-width="0.569857" stroke-linecap="round" stroke-linejoin="round"/>
<path d="M2.87642 55.3808C2.76808 55.4654 22.3406 73.6871 38.7287 70.6189C49.0759 68.6815 61.7689 50.99 61.0624 50.2047C60.3559 49.4193 57.9377 47.6185 56.1625 46.9223C56.1619 46.9223 56.1613 46.9223 56.1606 46.9223C54.7887 46.3844 45.2537 45.526 40.7886 44.8445C40.8751 45.2279 41.2745 47.3281 39.9583 48.3513C38.5063 49.4796 35.4714 51.0118 35.1412 52.7645C34.811 54.5179 34.5116 64.4099 32.6865 64.6612C30.8619 64.9125 29.1425 53.1864 28.3963 52.4914C27.1641 51.3432 24.1247 50.2495 23.7009 49.2052C23.3118 48.2474 22.8252 46.1735 22.7483 45.8408C22.6105 45.8876 22.4662 45.9356 22.3162 45.9863C20.3295 46.6505 17.3439 47.589 14.4885 48.4801C11.4972 49.4142 8.64816 50.2963 7.23776 50.7586C6.71591 50.9284 6.39152 51.0419 6.32805 51.0791C5.8171 51.3785 2.98413 55.2975 2.87642 55.3815V55.3808Z" stroke="black" stroke-width="0.569857" stroke-linecap="round" stroke-linejoin="round"/>
<path d="M22.7471 45.8395C22.824 46.1729 23.3112 48.2462 23.6997 49.204C24.1235 50.2477 27.1629 51.342 28.3951 52.4902C29.1413 53.1851 30.8607 64.9113 32.6852 64.66C34.5104 64.4087 34.8098 54.5167 35.14 52.7633C35.4701 51.0106 38.5051 49.479 39.9571 48.35C41.2733 47.3269 40.8739 45.226 40.7873 44.8433C39.4763 44.6439 38.6025 44.4593 38.4999 44.3028C38.4999 44.3028 38.4583 45.7908 37.8011 46.8185C37.144 47.8461 34.3873 49.4867 33.6879 51.3561C32.9885 53.2255 32.5698 60.7276 32.5698 60.7276C32.5698 60.7276 31.0216 52.2017 29.8632 51.1952C28.7047 50.1893 25.5544 48.0115 25.1806 46.7467C24.8069 45.4818 24.6312 45.1087 24.6312 45.1087C24.5992 45.1869 23.8818 45.4562 22.7471 45.8408V45.8395Z" fill="#F5D256" stroke="black" stroke-width="0.569857" stroke-linecap="round" stroke-linejoin="round"/>
<path d="M22.7373 45.7942C22.7373 45.7942 22.7412 45.8102 22.7476 45.8397" stroke="black" stroke-width="0.569857" stroke-linecap="round" stroke-linejoin="round"/>
<path d="M37.6283 36.6842C34.4043 36.2662 31.1963 34.6353 31.1963 34.6353" stroke="black" stroke-width="0.569857" stroke-linecap="round" stroke-linejoin="round"/>
<path d="M38.5995 25.9833C38.5995 25.9833 39.3528 27.4495 38.7348 27.7982C38.1167 28.147 37.627 27.161 37.627 27.161" stroke="black" stroke-width="0.569857" stroke-linecap="round" stroke-linejoin="round"/>
<path d="M38.1781 31.5142C38.1781 31.5142 34.6477 32.4214 34.5137 29.098" stroke="black" stroke-width="0.569857" stroke-linecap="round" stroke-linejoin="round"/>
<path d="M30.9209 26.5556C31.3011 26.3459 31.6306 26.1106 31.9152 25.8561C31.9152 25.8555 31.9165 25.8548 31.9172 25.8542C33.4962 24.4361 33.6769 22.4058 33.3718 20.7332C33.0115 18.7586 32.8974 16.0853 33.9193 14.9448C34.9412 13.8043 36.3381 15.266 36.3381 15.266L35.8246 13.0292C35.8246 13.0292 34.945 12.3291 33.8731 12.4343C33.3481 12.4855 32.7762 12.7298 32.2396 13.344C31.3953 14.3094 31.1703 16.1032 31.2152 17.8117C31.2504 19.2099 31.4671 20.5511 31.671 21.3352C32.3101 23.7937 30.9209 26.5562 30.9209 26.5562V26.5556Z" fill="#BF9EF9" stroke="black" stroke-width="0.569857" stroke-linecap="round" stroke-linejoin="round"/>
<path d="M19.7549 19.9144C20.3274 20.0971 20.9319 19.6464 21.3268 19.1758C23.0289 17.1474 23.588 14.1728 25.7664 12.6675C26.362 12.2559 27.0415 11.986 27.6897 11.661C28.3372 11.3353 28.9738 10.9365 29.3898 10.3435C29.5821 10.0698 29.7181 9.74475 29.7732 9.41395C29.1148 9.49537 28.4 9.67359 27.6313 9.98196C23.4642 11.6488 20.5537 16.1851 19.7555 19.915L19.7549 19.9144Z" fill="#DCCCFF"/>
<path d="M9.52408 42.5844C10.4723 42.5004 11.2512 41.76 11.7801 40.9599C12.325 40.1361 12.7103 39.2014 13.3713 38.468C13.9739 37.7987 14.7682 37.339 15.4913 36.8024C16.2151 36.2652 16.9049 35.5965 17.1415 34.7272C17.2293 34.406 17.2319 34.0553 17.1575 33.7265C14.1681 36.8851 11.2108 38.6071 9.52344 42.585L9.52408 42.5844Z" fill="#DCCCFF"/>
<path d="M25.2412 17.4014C25.4438 17.5059 25.7195 17.4072 25.872 17.2283C26.0387 17.0321 26.0996 16.7706 26.1695 16.5218C26.7125 14.6018 28.155 12.9567 29.9885 12.1676C30.4417 11.9727 30.9219 11.8246 31.329 11.5444C31.7355 11.2649 32.0675 10.811 32.0368 10.3187C32.0355 10.2975 32.0329 10.2763 32.0297 10.2558C30.5424 10.1533 28.7666 10.7315 27.1613 13.1164C26.0214 14.8108 25.4925 16.184 25.2419 17.4014H25.2412Z" fill="#DCCCFF"/>
<path d="M31.216 17.8114C31.2885 17.778 31.343 17.7011 31.3641 17.621C31.3923 17.5139 31.3757 17.4017 31.3705 17.2915C31.3398 16.5613 31.8373 15.9144 32.3931 15.4406C32.9495 14.9675 33.5951 14.5873 34.049 14.0148C34.3048 13.6924 34.4946 13.2513 34.3298 12.8737C34.2439 12.6762 34.0708 12.5288 33.8753 12.4339C33.3502 12.4852 32.7784 12.7295 32.2418 13.3436C31.3975 14.3091 31.1724 16.1029 31.2173 17.8114H31.216Z" fill="#DCCCFF"/>
<path d="M42.3995 14.3048L42.4713 14.1964C42.4944 14.1996 42.5169 14.2028 42.5399 14.2048C42.7688 14.2227 42.99 14.1419 43.1765 14.0047C42.6008 12.5187 41.7584 11.2295 40.6051 10.6326C39.4281 10.0229 38.2632 10.1524 37.333 10.4864C37.4356 10.5884 37.5491 10.6781 37.6677 10.7519C38.1889 11.0775 38.8075 11.2032 39.3723 11.4455C40.132 11.7731 40.7949 12.3232 41.2578 13.0091C41.4469 13.2899 41.6046 13.6028 41.8476 13.8445C42.0123 14.0079 42.2623 14.1118 42.3995 14.3041V14.3048Z" fill="#DCCCFF"/>
<path d="M47.1351 31.2488C47.3723 31.7578 47.7326 32.1963 48.0538 32.6566C49.4219 34.6184 50.1034 37.0289 51.6715 38.8354C51.867 39.0611 52.1145 39.2861 52.3831 39.4054C52.4062 39.097 52.4395 38.7861 52.4806 38.4732C52.9396 34.9594 51.6991 31.4026 48.2641 29.1556C47.7653 28.8293 47.3236 28.4556 46.9319 28.0459C46.855 28.3152 46.8165 28.5966 46.7947 28.8768C46.7306 29.682 46.7934 30.5173 47.1351 31.2501V31.2488Z" fill="#DCCCFF"/>
<path d="M20.1279 34.3681C20.1972 34.4418 20.2747 34.5079 20.3626 34.5592C20.5773 34.6854 20.8626 34.7124 21.071 34.5758C21.4601 34.3207 21.3614 33.7411 21.2941 33.2808C21.1235 32.1108 21.4928 30.8722 22.2762 29.9863C22.7872 29.408 23.4597 28.9772 23.9033 28.3463C24.4412 27.5815 24.5399 26.5558 24.2431 25.6794C24.1835 25.5038 24.1001 25.3089 23.9995 25.1076C22.4551 28.2951 20.3119 29.9068 20.1279 34.3687V34.3681Z" fill="#DCCCFF"/>
<path d="M14.1934 48.557C14.2722 48.5327 14.3511 48.5083 14.4299 48.4833C15.6127 47.4133 20.3613 44.1226 20.1029 36.3853C20.0792 36.4174 20.0555 36.4494 20.0318 36.4815L19.6131 37.1258C19.3727 39.058 18.4367 40.8313 17.4065 42.4846C16.3763 44.1374 15.2287 45.735 14.487 47.5351C14.3517 47.864 14.228 48.2044 14.1934 48.5564V48.557Z" fill="#936FE2"/>
<path d="M30.9593 19.7958C31.0484 19.9939 31.2196 20.2279 31.4267 20.1613C31.4286 20.1606 31.4312 20.1593 31.4331 20.1587C31.101 18.063 30.9824 14.7832 32.2409 13.3439C32.6153 12.915 33.007 12.6663 33.3871 12.5387C33.4089 12.4028 33.4153 12.2656 33.3628 12.1406C33.2923 11.9739 33.0679 11.8611 32.923 11.9701C32.7217 11.9515 32.5159 12.1835 32.3325 12.2675C31.0433 12.8599 30.2554 14.2632 30.1105 15.6743C29.965 17.086 30.3759 18.5015 30.9593 19.7952V19.7958Z" fill="#936FE2"/>
<path d="M35.6634 12.6483C35.6795 12.6829 35.7032 12.713 35.7314 12.738C35.8077 12.806 35.9205 12.8361 36.0257 12.8265C36.0333 12.8265 36.0404 12.8246 36.0481 12.8233C36.1814 12.8047 36.3039 12.7348 36.418 12.6617C36.5597 12.5707 36.6982 12.4707 36.8398 12.3797C37.0206 12.2623 37.2078 12.1591 37.4162 12.1072C37.8765 11.9931 38.3611 12.1521 38.7625 12.413C38.783 12.42 38.8035 12.4271 38.8247 12.4354C39.8446 12.8214 40.6325 13.4977 41.2025 14.5703C41.3563 14.6651 41.5211 14.7478 41.7064 14.8152C41.6166 14.0946 41.4134 13.3625 40.8582 12.8951C40.303 12.4271 39.6247 12.1284 38.9317 11.9117C38.397 11.7443 37.8329 11.6225 37.279 11.7091C36.7257 11.7956 36.184 12.1251 35.9731 12.6444L35.8378 12.3297C35.7461 12.3309 35.6763 12.4079 35.6545 12.497C35.6416 12.5476 35.6436 12.6015 35.6654 12.6476L35.6634 12.6483Z" fill="#936FE2"/>
<path d="M38.1023 42.2545C38.1229 42.2475 38.1427 42.2391 38.1626 42.2301C38.6473 42.0115 38.8524 41.4339 38.912 40.9057C38.9717 40.3774 38.9415 39.8235 39.164 39.3408C39.4166 38.792 39.9609 38.4304 40.5237 38.2118C41.0866 37.9932 41.6886 37.8906 42.2592 37.6932C43.3561 37.3149 44.3331 36.5764 44.953 35.5955C45.8653 34.1518 45.9441 32.3035 45.5454 30.6424C45.3851 29.977 45.1543 29.3301 44.8838 28.7006C44.6395 28.1332 44.3626 27.5812 44.0741 27.035C43.8786 26.6658 43.7087 26.21 43.442 25.8836C43.2407 25.6368 42.9637 25.4817 42.6579 25.3983C43.7792 28.1589 45.1377 32.8331 42.9451 35.3166C41.6989 36.7296 39.6602 36.9476 37.6279 36.6841C37.6279 36.6841 37.8286 39.9825 38.1017 42.2539L38.1023 42.2545Z" fill="#936FE2"/>
<path d="M26.582 13.944L26.4551 14.4665C26.4878 14.4435 26.5211 14.4281 26.5557 14.4184H26.5564C26.623 14.2088 26.6673 13.9934 26.6852 13.7735C26.6923 13.6806 26.6948 13.5863 26.6916 13.4921L26.582 13.944Z" fill="#936FE2"/>
<path d="M21.151 28.704C21.21 28.9213 21.3311 29.1137 21.4914 29.2707C22.3062 27.795 23.323 26.5083 24.1321 24.7036C25.5835 21.4655 24.3661 19.4403 25.5437 16.1181C25.4867 16.1848 25.4296 16.2502 25.3719 16.3149C24.6616 17.108 23.841 17.8343 23.373 18.7915C22.2665 21.0539 23.4102 23.9792 22.1691 26.1711C21.937 26.5801 21.6312 26.9429 21.4036 27.3539C21.1754 27.7648 21.0273 28.2514 21.1516 28.7047L21.151 28.704Z" fill="#936FE2"/>
<path d="M42.3491 20.5236C42.4016 22.5328 43.7498 25.4453 43.7498 25.4453C42.9408 25.0645 42.36 24.4753 41.9285 23.7637C42.8914 25.7152 45.6808 32.2184 42.9465 35.3174C41.7003 36.7304 39.6616 36.9483 37.6293 36.6849C37.6293 36.6849 38.0505 43.6125 38.5019 44.3036C38.9526 44.994 54.3862 46.2256 56.1613 46.9218C52.4648 44.862 52.0507 41.7738 52.4821 38.4729C52.9411 34.959 51.7006 31.4023 48.2657 29.1553C44.8314 26.9082 44.0691 22.3821 44.1665 19.7024C44.264 17.022 43.253 12.0061 40.6053 10.6335C37.9569 9.26095 35.3721 11.6362 35.3721 11.6362L35.8272 13.0293C35.8272 13.0293 36.9562 11.7291 38.825 12.4369C41.0983 13.2973 42.2189 15.5988 42.3491 20.5243V20.5236Z" stroke="black" stroke-width="0.569857" stroke-linecap="round" stroke-linejoin="round"/>
<path d="M14.4883 48.4795C17.3437 47.5878 20.3293 46.6498 22.316 45.9857C23.343 45.5215 24.1213 44.8503 24.7265 44.0355C27.4562 40.3652 26.6767 33.7684 29.2276 29.8943C31.163 26.9543 31.8746 25.9183 31.9163 25.8567C31.6317 26.1112 31.3021 26.3465 30.922 26.5562C30.922 26.5562 32.3112 23.7943 31.6721 21.3351C31.2188 19.592 30.7066 15.0992 32.2413 13.3439C33.8736 11.4751 35.827 13.0291 35.827 13.0291L35.3718 11.6361C35.3718 11.6361 30.8233 7.67797 27.1613 13.1176C23.5796 18.4393 26.0298 20.5947 24.1893 24.7015C22.4698 28.5365 19.8138 30.0328 20.1427 35.9725C20.5863 44.0041 15.6916 47.3916 14.4883 48.4808V48.4795Z" stroke="black" stroke-width="0.569857" stroke-linecap="round" stroke-linejoin="round"/>
<path d="M7.2373 50.7576C8.64834 50.2953 11.4973 49.4132 14.488 48.4791C15.6914 47.3906 20.5861 44.0024 20.1424 35.9708C19.8142 30.0311 22.4702 28.5348 24.189 24.6998C26.0296 20.5936 23.5787 18.4383 27.1611 13.116C30.823 7.67695 35.3715 11.6344 35.3715 11.6344C35.2408 11.326 32.561 8.0084 27.6304 9.98103C22.6446 11.9761 19.4578 18.0774 19.534 21.9919C19.611 25.907 20.5508 30.0023 17.471 33.3468C14.3906 36.6914 11.305 38.3954 9.56959 42.499C8.0829 46.0173 7.40142 49.7607 7.23795 50.7569L7.2373 50.7576Z" stroke="black" stroke-width="0.569857" stroke-linecap="round" stroke-linejoin="round"/>
<path d="M30.9212 26.5558C31.3014 26.3461 31.6309 26.1109 31.9155 25.8563C31.9155 25.8557 31.9168 25.8551 31.9175 25.8544C33.4965 24.4363 33.6772 22.406 33.3721 20.7334C33.0118 18.7588 32.8977 16.0855 33.9196 14.945C34.9415 13.8045 36.3384 15.2662 36.3384 15.2662L35.8249 13.0294C35.8249 13.0294 33.8715 11.4754 32.2393 13.3442C30.7045 15.1001 31.2167 19.5929 31.67 21.3354C32.3092 23.794 30.9199 26.5564 30.9199 26.5564L30.9212 26.5558Z" stroke="black" stroke-width="0.569857" stroke-linecap="round" stroke-linejoin="round"/>
<path d="M33.5234 27.0103C35.2789 26.8795 36.5799 25.1331 36.4291 23.1096C36.2784 21.0861 34.7331 19.5517 32.9775 19.6824C31.222 19.8132 29.921 21.5596 30.0717 23.5832C30.2225 25.6067 31.7678 27.1411 33.5234 27.0103Z" fill="#E938B5" stroke="black" stroke-width="0.569857" stroke-linecap="round" stroke-linejoin="round"/>
<path d="M42.1113 26.3711C43.8668 26.2404 45.1678 24.4939 45.017 22.4704C44.8663 20.4469 43.321 18.9125 41.5654 19.0432C39.8099 19.174 38.5089 20.9204 38.6596 22.944C38.8104 24.9675 40.3557 26.5019 42.1113 26.3711Z" fill="#E938B5" stroke="black" stroke-width="0.569857" stroke-linecap="round" stroke-linejoin="round"/>
<path d="M38.661 22.9406C38.661 22.9406 37.7834 21.3354 36.4307 23.1067" stroke="black" stroke-width="0.569857" stroke-linecap="round" stroke-linejoin="round"/>
<path d="M35.8252 13.0285L36.3387 15.2653C36.3387 15.2653 38.4665 13.2689 39.7435 15.7416C40.7263 17.6444 40.4891 21.3858 41.9264 23.7623C41.9264 23.7623 41.9271 23.7623 41.9271 23.7636C42.3579 24.4752 42.9394 25.0644 43.7484 25.4452C43.7484 25.4452 42.4002 22.5327 42.3476 20.5235C42.306 18.94 42.1611 17.6277 41.9091 16.5475C41.3777 14.2671 40.366 13.0202 38.8236 12.4362C38.135 12.1759 37.5472 12.1874 37.0785 12.3067C36.2759 12.5105 35.8252 13.0285 35.8252 13.0285Z" fill="#BF9EF9" stroke="black" stroke-width="0.569857" stroke-linecap="round" stroke-linejoin="round"/>
<path d="M37.0791 12.3062C37.1137 12.4204 37.1746 12.5293 37.2522 12.6178C37.4541 12.8499 37.742 12.9839 38.0132 13.1288C39.2383 13.7814 40.2794 14.7744 40.9878 15.9681C41.0795 16.1227 41.168 16.2829 41.2975 16.4079C41.427 16.5336 41.6084 16.6195 41.7853 16.5881C41.8289 16.5804 41.8706 16.5663 41.9097 16.5464C41.3782 14.2661 40.3666 13.0191 38.8242 12.4351C38.1356 12.1748 37.5477 12.1864 37.0791 12.3056V12.3062Z" fill="#DCCCFF"/>
<path d="M35.8252 13.0286L36.3387 15.2654C36.3387 15.2654 38.4665 13.269 39.7435 15.7417C40.7263 17.6445 40.4891 21.3859 41.9264 23.7624C41.9264 23.7624 41.9271 23.7624 41.9271 23.7637C42.3579 24.4753 42.9394 25.0645 43.7484 25.4453C43.7484 25.4453 42.4002 22.5328 42.3476 20.5236C42.2175 15.5981 41.0962 13.2966 38.8236 12.4363C36.9548 11.7291 35.8258 13.0286 35.8258 13.0286H35.8252Z" stroke="black" stroke-width="0.569857" stroke-linecap="round" stroke-linejoin="round"/>
</g>
<defs>
<clipPath id="clip0_1609_38506">
<rect y="-0.000326157" width="64" height="64" rx="32" fill="white"/>
</clipPath>
</defs>
</svg>
