<svg width="64" height="64" viewBox="0 0 64 64" fill="none" xmlns="http://www.w3.org/2000/svg">
<g clip-path="url(#clip0_1609_38300)">
<rect y="0.000326157" width="64" height="64" rx="32" fill="#CAC2FF"/>
<mask id="mask0_1609_38300" style="mask-type:luminance" maskUnits="userSpaceOnUse" x="1" y="43" width="60" height="31">
<path d="M1.34961 50.019C1.34961 50.019 3.72741 62.3535 3.96974 62.5952C4.21143 62.8369 30.8558 73.6803 30.8558 73.6803C30.8558 73.6803 48.0274 70.8986 48.0274 70.6165C48.0274 70.3345 60.3613 52.0339 60.3613 52.0339C60.3613 52.0339 59.1118 50.301 56.0083 48.2047C55.505 47.8655 54.6966 47.5347 53.6907 47.2167C53.4715 47.1475 53.2426 47.0783 53.0054 47.0103C53.0041 47.0097 53.0022 47.0097 53.0009 47.009C52.2143 46.7827 51.336 46.5628 50.4084 46.3513C47.8914 48.2675 37.0154 44.3543 35.5005 44.8466C34.1638 45.2807 32.9367 46.5609 32.2565 48.113C32.2501 48.1258 32.2444 48.1393 32.2386 48.1527C32.1533 48.3508 32.0764 48.5528 32.0097 48.7579C31.9918 48.8143 31.9738 48.8708 31.9572 48.9272C31.9572 48.9272 31.9366 48.8637 31.8956 48.7528C31.6129 47.9848 30.3692 44.9268 28.4049 44.6723C26.7855 44.4626 23.814 44.2979 21.4433 43.8645C20.1194 44.219 18.3295 44.646 16.4524 45.0768C16.1485 45.1467 15.8421 45.2165 15.5356 45.2858C14.892 45.4326 14.2451 45.5781 13.6098 45.7198C10.1646 46.4917 7.06428 47.1635 6.67001 47.318C5.743 47.6809 1.34961 50.019 1.34961 50.019Z" fill="white"/>
</mask>
<g mask="url(#mask0_1609_38300)">
<path d="M1.34961 50.0193C1.34961 50.0193 3.72741 62.3538 3.96974 62.5955C4.21143 62.8372 30.8558 73.6806 30.8558 73.6806C30.8558 73.6806 48.0274 70.8989 48.0274 70.6168C48.0274 70.3348 60.3613 52.0342 60.3613 52.0342C60.3613 52.0342 59.1118 50.3013 56.0083 48.205C55.505 47.8658 54.6966 47.535 53.6907 47.2171C53.4715 47.1478 53.2426 47.0786 53.0054 47.0106C53.0041 47.01 53.0022 47.01 53.0009 47.0093C52.2143 46.783 51.336 46.5631 50.4084 46.3516C47.8914 48.2678 37.0154 44.3546 35.5005 44.847C34.1638 45.281 32.9367 46.5612 32.2565 48.1133C32.2501 48.1261 32.2444 48.1396 32.2386 48.153C32.1533 48.3511 32.0764 48.5531 32.0097 48.7582C31.9918 48.8147 31.9738 48.8711 31.9572 48.9275C31.9572 48.9275 31.9366 48.864 31.8956 48.7531C31.6129 47.9851 30.3692 44.9271 28.4049 44.6726C26.7855 44.4629 23.814 44.2982 21.4433 43.8648C20.1194 44.2193 18.3295 44.6463 16.4524 45.0771C16.1485 45.147 15.8421 45.2169 15.5356 45.2861C14.892 45.4329 14.2451 45.5784 13.6098 45.7201C10.1646 46.492 7.06428 47.1639 6.67001 47.3184C5.743 47.6812 1.34961 50.0193 1.34961 50.0193Z" fill="#4C70F5" stroke="black" stroke-width="0.569857" stroke-linecap="round" stroke-linejoin="round"/>
<path d="M43.9242 59.9336L38.4961 54.6061L36.7119 61.2286L43.9242 59.9336Z" fill="#F5D256" stroke="black" stroke-width="0.569857" stroke-linecap="round" stroke-linejoin="round"/>
<path d="M24.6787 60.736L25.248 53.1513L19.0371 56.0592L24.6787 60.736Z" fill="#49A2A6" stroke="black" stroke-width="0.569857" stroke-linecap="round" stroke-linejoin="round"/>
<path d="M13.7331 59.9222L7.23242 63.8713L13.2106 67.2319L13.7331 59.9222Z" fill="#F5D256" stroke="black" stroke-width="0.569857" stroke-linecap="round" stroke-linejoin="round"/>
<path d="M56.2559 46.7103L49.7559 50.6588L55.734 54.0194L56.2559 46.7103Z" fill="#49A2A6" stroke="black" stroke-width="0.569857" stroke-linecap="round" stroke-linejoin="round"/>
<path d="M13.3156 55.3243L14.7869 46.878L4.5 51.6945L13.3156 55.3243Z" fill="#BF9EF9" stroke="black" stroke-width="0.569857" stroke-linecap="round" stroke-linejoin="round"/>
<path d="M42.7837 51.8071L44.2557 43.3613L33.9688 48.1778L42.7837 51.8071Z" fill="#E938B5" stroke="black" stroke-width="0.569857" stroke-linecap="round" stroke-linejoin="round"/>
<path d="M50.1387 58.9211L54.2718 66.4321L59.287 56.2407L50.1387 58.9211Z" fill="#BF9EF9" stroke="black" stroke-width="0.569857" stroke-linecap="round" stroke-linejoin="round"/>
<path d="M21.0034 49.8481L28.8138 46.3112L19.043 40.5184L21.0034 49.8481Z" fill="#F5D256" stroke="black" stroke-width="0.569857" stroke-linecap="round" stroke-linejoin="round"/>
</g>
<path opacity="0.52" d="M32.0088 48.7589C32.0133 48.7794 32.0178 48.7993 32.0223 48.8198L32.2101 50.3642C32.2312 49.1218 33.4192 48.1588 34.6392 47.9255C35.8592 47.6921 37.108 48.0005 38.3254 48.2486C40.5295 48.6967 42.774 48.95 45.0223 49.0032C48.0117 49.0737 51.1325 48.7512 53.6898 47.2177C53.4706 47.1485 53.2417 47.0793 53.0045 47.0113C53.0032 47.0107 53.0013 47.0107 53 47.01C52.2134 46.7837 51.3351 46.5638 50.4074 46.3523C47.8905 48.2685 37.0144 44.3553 35.4995 44.8476C34.1513 45.2855 32.9146 46.5837 32.2377 48.1537C32.1524 48.3518 32.0755 48.5538 32.0088 48.7589Z" fill="#0B41B7"/>
<path opacity="0.52" d="M15.5342 45.2866C18.9134 47.0906 23.0888 46.7412 26.609 48.2702C27.8482 48.8081 28.9881 49.5755 29.9523 50.5217C30.2818 50.8442 30.7472 51.216 31.1466 50.9859C31.2697 50.9154 31.3569 50.7968 31.4351 50.6782C31.8544 50.0377 32.2576 48.9588 32.2551 48.1138C32.2487 48.1266 32.2429 48.1401 32.2371 48.1536C32.1519 48.3516 32.0749 48.5536 32.0083 48.7587C31.9903 48.8152 31.9724 48.8716 31.9557 48.928C31.9557 48.928 31.9352 48.8645 31.8942 48.7536C31.6114 47.9856 30.3677 44.9276 28.4034 44.6731C26.784 44.4634 23.8126 44.2987 21.4418 43.8653C20.118 44.2198 18.328 44.6468 16.4509 45.0776C16.1471 45.1475 15.8406 45.2174 15.5342 45.2866Z" fill="#0B41B7"/>
<path d="M21.9109 23.5954C22.4738 24.5416 24.0701 25.5687 25.2702 26.245C25.6786 28.7164 25.1632 33.5291 24.6048 37.3833C24.4977 38.1218 24.3887 38.8258 24.2849 39.4707C24.072 40.7926 23.8791 41.8697 23.7585 42.5011C25.9139 42.7877 28.2096 42.8531 29.1783 42.9262C30.5746 43.0313 31.3131 45.8752 31.6715 47.6132C31.776 48.1177 31.8478 48.5293 31.8946 48.7537C31.9356 48.8646 31.9561 48.9281 31.9561 48.9281C31.9696 48.3549 32.0414 47.8228 32.1581 47.3305C32.1998 47.1542 32.2478 46.983 32.3011 46.8169C32.3639 46.6208 32.4338 46.4317 32.5107 46.2496C33.1332 44.7751 34.1865 43.7737 35.1943 43.2345C35.602 43.0166 36.2072 42.9659 36.9573 43.023C36.8483 42.5672 36.8028 41.928 36.7938 41.2292C36.7842 40.406 36.8259 39.5002 36.8759 38.7168C36.9368 37.7737 37.0105 37.0076 37.022 36.773C38.5799 37.3192 40.2345 37.5288 41.8084 37.0397C42.1444 36.9352 42.4764 36.7993 42.8034 36.6275C48.5142 33.6297 44.8395 24.7801 42.0264 19.602C40.7705 17.2903 39.6864 15.7106 39.6864 15.7106C39.5774 15.6395 38.7722 15.4779 37.6497 15.3215H37.649C34.718 14.9125 29.6226 14.5361 29.102 15.8779C28.3827 17.7339 29.788 18.7475 29.4091 19.5052C29.0302 20.2624 28.2353 22.1561 28.2353 22.1561C28.2353 22.1561 28.1083 21.885 27.8859 21.5022C27.2954 20.4861 26.0344 18.6859 24.7131 19.1263C24.1034 19.3296 23.4816 19.72 22.9597 20.2098C22.8918 20.2726 22.8257 20.338 22.7616 20.4047C21.8455 21.3561 21.323 22.6075 21.9109 23.5954Z" fill="#CC927A" stroke="black" stroke-width="0.569857" stroke-linecap="round" stroke-linejoin="round"/>
<path d="M41.4418 31.4233C41.3187 32.5126 41.1225 33.6075 41.2379 34.698C41.3226 35.4975 41.5719 36.2681 41.8091 37.0399C42.1451 36.9354 42.4772 36.7995 42.8041 36.6277C48.5149 33.63 44.8402 24.7804 42.0271 19.6023C40.7712 17.2905 39.6871 15.7109 39.6871 15.7109C39.5781 15.6397 38.7729 15.4782 37.6504 15.3217C40.7013 20.044 42.0733 25.835 41.4418 31.4233Z" fill="#FFC7B3"/>
<path d="M22.96 20.2094C23.8229 20.2735 24.6781 20.4101 25.4589 20.7704C26.0468 21.0422 26.5911 21.4397 27.229 21.5525C27.4469 21.5916 27.6874 21.5884 27.8861 21.5018C27.2956 20.4857 26.0346 18.6855 24.7133 19.126C24.1037 19.3292 23.4818 19.7196 22.96 20.2094Z" fill="#FFC7B3"/>
<path d="M30.9727 33.017C30.9727 33.017 31.0964 39.1132 36.7925 39.9415L37.022 36.7725C37.022 36.7725 32.7626 34.982 30.9727 33.017Z" fill="#B27059"/>
<path d="M23.7588 42.5015C25.9141 42.788 28.2099 42.8534 29.1786 42.9265C30.5749 43.0316 31.3134 45.8755 31.6718 47.6135C31.8083 47.5815 31.9378 47.5315 32.0513 47.4372C32.0898 47.4052 32.1257 47.3699 32.1583 47.3308C32.2564 47.2148 32.3314 47.0699 32.3866 46.9058C32.4532 46.7089 32.4917 46.4846 32.5109 46.2499C32.5654 45.5781 32.4603 44.8235 32.3872 44.3901C32.2898 43.8144 32.0808 43.2426 31.7551 42.7611C31.5108 42.3989 31.2012 42.0892 30.823 41.8681C29.5632 41.1302 27.9464 41.5424 26.5386 41.1571C25.6898 40.9244 24.9275 40.3904 24.4185 39.6723C24.3717 39.6063 24.3274 39.5396 24.2851 39.471C24.0723 40.793 23.8793 41.87 23.7588 42.5015Z" fill="#B27059"/>
<path d="M32.2523 46.8778C32.2433 46.8284 32.2337 46.7797 32.2253 46.7303C32.1151 46.6008 32.0189 46.4598 31.9375 46.3078L32.2523 46.8778Z" fill="#B27059"/>
<path d="M31.7549 43.231C31.8537 44.4042 32.0107 45.5722 32.2249 46.73C32.2492 46.7595 32.2742 46.7884 32.3011 46.8166C32.3287 46.8467 32.3569 46.8762 32.3864 46.9051C32.4531 46.7082 32.4915 46.4839 32.5108 46.2492C33.1333 44.7747 34.1866 43.7733 35.1944 43.2342C35.6021 43.0162 36.2073 42.9656 36.9574 43.0226C36.8484 42.5668 36.8029 41.9276 36.7939 41.2288C36.2227 41.6129 35.7701 42.2277 35.1014 42.3956C34.2578 42.6085 33.3942 42.0334 32.5281 42.1187C32.2819 42.143 32.0248 42.2328 31.88 42.4334C31.8101 42.5303 31.7729 42.6418 31.7549 42.7598C31.7319 42.913 31.7421 43.0758 31.7549 43.231Z" fill="#B27059"/>
<path d="M21.9109 23.5956C22.4738 24.5419 24.0701 25.5689 25.2702 26.2452C25.6786 28.7166 25.1632 33.5293 24.6048 37.3835C24.2785 39.6363 23.9374 41.5622 23.7585 42.5014C25.9139 42.7879 28.2096 42.8533 29.1783 42.9264C30.9798 43.0623 31.6863 47.7577 31.8946 48.7539C31.9356 48.8648 31.9561 48.9283 31.9561 48.9283C32.0273 45.9389 33.664 44.0534 35.1943 43.2348C35.602 43.0168 36.2072 42.9661 36.9573 43.0232C36.7201 42.0295 36.7829 40.1652 36.8759 38.717C36.9368 37.774 37.0105 37.0079 37.022 36.7732C38.9126 37.4361 40.9449 37.6028 42.8034 36.6277C48.5142 33.63 44.8395 24.7803 42.0264 19.6023C40.7705 17.2905 39.6864 15.7108 39.6864 15.7108C39.2934 15.4531 29.822 14.0222 29.102 15.8782C28.3827 17.7341 29.788 18.7477 29.4091 19.5055C29.0302 20.2626 28.2353 22.1564 28.2353 22.1564C28.2353 22.1564 26.5312 18.5207 24.7131 19.1266C24.0246 19.3561 23.32 19.8247 22.7616 20.4049C21.8455 21.3563 21.323 22.6077 21.9109 23.5956Z" stroke="black" stroke-width="0.569857" stroke-linecap="round" stroke-linejoin="round"/>
<path d="M1.34863 50.0198C1.34863 50.0198 3.72643 62.3543 3.96877 62.596C4.21046 62.8377 30.8548 73.6811 30.8548 73.6811C30.8548 73.6811 48.0264 70.8994 48.0264 70.6174C48.0264 70.3353 60.3603 52.0347 60.3603 52.0347C60.3603 52.0347 59.1108 50.3018 56.0073 48.2055C55.3944 47.792 54.3283 47.3919 53.0044 47.0111C53.0032 47.0105 53.0012 47.0105 53 47.0099C52.2133 46.7835 51.335 46.5637 50.4074 46.3521C47.8905 48.2683 37.0144 44.3551 35.4995 44.8475C33.9346 45.3558 32.521 47.022 31.9562 48.928C31.9562 48.928 31.9357 48.8645 31.8946 48.7536C31.6119 47.9856 30.3682 44.9276 28.4039 44.6731C26.7845 44.4634 23.8131 44.2987 21.4423 43.8653C20.1185 44.2198 18.3285 44.6468 16.4514 45.0776C12.0523 46.088 7.17101 47.1227 6.66904 47.3189C5.74202 47.6817 1.34863 50.0198 1.34863 50.0198Z" stroke="black" stroke-width="0.569857" stroke-linecap="round" stroke-linejoin="round"/>
<path d="M25.2705 26.2453C26.0866 26.7056 26.7207 27.0037 26.7207 27.0037" stroke="black" stroke-width="0.569857" stroke-linecap="round" stroke-linejoin="round"/>
<path d="M30.9727 33.017C32.235 34.1261 34.5019 35.8898 37.022 36.7725" stroke="black" stroke-width="0.569857" stroke-linecap="round" stroke-linejoin="round"/>
<path d="M20.2551 13.8591C20.3103 14.047 20.4795 14.1733 20.6154 14.3143C21.3052 15.0342 21.1565 16.1786 21.3232 17.162C21.3623 17.3922 21.511 17.68 21.7386 17.6249C21.5706 17.898 21.5854 18.2724 21.7745 18.5314C21.9636 18.791 22.3149 18.9192 22.6272 18.8436C22.6291 19.0519 22.538 19.259 22.3842 19.3988C22.5227 19.6866 22.5028 20.045 22.3335 20.3155C22.4797 20.2771 22.6419 20.3136 22.7618 20.4046C23.3202 19.8245 24.0247 19.3558 24.7133 19.1263C26.5314 18.5205 28.2354 22.1561 28.2354 22.1561C28.2354 22.1561 29.0304 20.2623 29.4092 19.5052C29.7881 18.7474 28.3829 17.7339 29.1022 15.8779C29.8221 14.022 39.2936 15.4529 39.6866 15.7106C39.6866 15.7106 40.7706 17.2902 42.0265 19.602C42.2471 19.1641 42.4163 18.6929 42.5202 18.2102C42.5913 17.8807 42.6317 17.5454 42.6375 17.2107C42.6452 16.7248 42.5945 16.2106 42.8176 15.7792C42.3964 15.5567 42.5375 14.9336 42.4522 14.4649C42.3522 13.9123 41.8579 13.4219 41.9855 12.8744C41.6124 12.5769 41.4451 12.0455 41.5791 11.5877C41.038 11.3569 40.6841 10.7492 40.7508 10.1645C40.2962 10.0427 39.9238 9.65485 39.8205 9.19583C39.5468 9.37085 39.1891 9.40675 38.8865 9.28943C38.7435 9.23365 38.6082 9.14518 38.4557 9.13877C38.1326 9.12595 37.8857 9.47663 37.5626 9.47919C37.0331 9.48432 36.7985 8.59897 36.2728 8.66372C36.0291 8.69385 35.8625 8.92785 35.6323 9.01312C35.2425 9.15736 34.8457 8.84195 34.5489 8.55089C34.3424 9.03556 33.7078 9.28366 33.2276 9.06697C33.0763 8.99837 32.9417 8.89195 32.7833 8.84195C32.7551 8.83297 32.7262 8.82592 32.698 8.82143C32.3307 8.75348 31.9595 8.97978 31.6095 9.13749C31.2319 9.30802 30.6895 9.35097 30.4953 8.98555C30.3561 9.38816 29.808 9.45355 29.3939 9.35546C28.9797 9.25673 28.5444 9.06889 28.1469 9.22019C27.7783 9.36059 27.3943 9.77281 27.0789 9.53689C27.0161 9.49009 26.9712 9.42277 26.9064 9.37918C26.7385 9.26507 26.5019 9.3529 26.3532 9.49137C26.2038 9.62985 26.0993 9.8132 25.9384 9.93757C25.5794 10.2145 24.9774 10.0658 24.7896 9.65293C24.4446 10.412 23.3093 10.6543 22.6842 10.103C22.4778 10.3684 22.4675 10.7312 22.3797 11.0556C22.2919 11.3807 22.0348 11.7262 21.7014 11.6813C21.5117 11.6557 21.3386 11.5044 21.1507 11.5435C20.959 11.5826 20.8642 11.7942 20.7994 11.9788C20.6417 12.4263 20.484 12.8738 20.3256 13.3206C20.2647 13.4943 20.2026 13.6822 20.2551 13.8591Z" fill="#3D0027" stroke="black" stroke-width="0.569857" stroke-linecap="round" stroke-linejoin="round"/>
<path d="M26.6293 24.2837C26.6556 24.0099 26.5447 23.7407 26.4017 23.5054C26.0542 22.9348 25.4971 22.4944 24.8612 22.288C24.5477 22.1867 24.163 22.1559 23.9277 22.3867" stroke="black" stroke-width="0.569857" stroke-linecap="round" stroke-linejoin="round"/>
<path d="M25.8131 22.8978C25.7279 22.8132 25.5952 22.7908 25.4772 22.8138C25.3592 22.8369 25.2528 22.8985 25.1522 22.9639C24.9951 23.0645 24.8432 23.1773 24.7239 23.3209C24.6047 23.4645 24.5188 23.6415 24.5117 23.828" stroke="black" stroke-width="0.569857" stroke-linecap="round" stroke-linejoin="round"/>
<path d="M40.3444 23.9988C40.4393 24.0623 42.0837 27.2568 41.3247 27.6992C40.5656 28.1422 39.1104 26.2452 39.1104 26.2452" stroke="black" stroke-width="0.569857" stroke-linecap="round" stroke-linejoin="round"/>
<path d="M35.9013 27.6308L39.3292 30.9625C39.3292 30.9625 38.0637 32.871 36.2129 31.442C33.9979 29.7316 35.9013 27.6308 35.9013 27.6308Z" fill="white" stroke="black" stroke-width="0.569857" stroke-linecap="round" stroke-linejoin="round"/>
<path d="M32.6438 8.96119C32.6386 9.06953 32.7297 9.15608 32.813 9.22596C33.2772 9.61446 33.7445 10.0049 34.2753 10.2953C35.069 10.73 35.9697 10.9216 36.8096 11.2569C37.8283 11.6634 38.7521 12.2782 39.6124 12.9584C40.2541 13.4648 40.876 14.0232 41.285 14.731C41.9024 15.7984 41.98 17.1069 42.5204 18.2102C42.5916 17.8807 42.6319 17.5454 42.6377 17.2107C42.6454 16.7248 42.5948 16.2106 42.8179 15.7792C42.3967 15.5567 42.5377 14.9336 42.4524 14.4649C42.3524 13.9123 41.8581 13.4219 41.9857 12.8744C41.6126 12.5769 41.4453 12.0455 41.5793 11.5877C41.0382 11.3569 40.6843 10.7492 40.751 10.1645C40.2965 10.0427 39.924 9.65485 39.8208 9.19583C39.547 9.37085 39.1893 9.40675 38.8867 9.28943C38.7437 9.23365 38.6085 9.14518 38.4559 9.13877C38.1328 9.12595 37.886 9.47663 37.5628 9.47919C37.0333 9.48432 36.7987 8.59897 36.273 8.66372C36.0294 8.69385 35.8627 8.92785 35.6325 9.01312C35.2427 9.15736 34.8459 8.84195 34.5491 8.55089C34.3426 9.03556 33.708 9.28366 33.2278 9.06697C33.0765 8.99837 32.9419 8.89195 32.7835 8.84195C32.7553 8.83297 32.7265 8.82592 32.6983 8.82143C32.67 8.86438 32.6463 8.91054 32.6438 8.96119Z" fill="#6D1151"/>
<path d="M31.9564 48.9276C31.8852 51.9164 31.4941 65.6505 31.4941 65.6505" stroke="black" stroke-width="0.569857" stroke-linecap="round" stroke-linejoin="round"/>
<path d="M36.9576 43.0229C39.0213 43.1793 42.185 44.1512 45.3764 44.6968C48.1831 45.177 51.0507 44.5166 49.121 42.7421C49.0158 42.6453 48.8908 42.5485 48.7485 42.4504C48.7466 42.4498 48.7453 42.4485 48.7434 42.4472C48.7421 42.4466 48.7415 42.4459 48.7415 42.4459C45.9989 40.5797 36.8762 38.7167 36.8762 38.7167C36.7832 40.1649 36.7204 42.0292 36.9576 43.0229Z" fill="#0638C4" stroke="black" stroke-width="0.569857" stroke-linecap="round" stroke-linejoin="round"/>
<path d="M19.1099 40.3529C19.0683 41.5716 21.3243 42.1774 23.7591 42.5012C23.938 41.562 24.2791 39.6361 24.6054 37.3834C24.6054 37.3834 21.7378 37.7392 20.1453 38.8175C19.5485 39.2214 19.1311 39.7265 19.1099 40.3529Z" fill="#0638C4" stroke="black" stroke-width="0.569857" stroke-linecap="round" stroke-linejoin="round"/>
<path d="M31.9561 48.9278C32.5209 47.0218 33.9345 45.3556 35.4994 44.8472C37.0143 44.3549 47.8903 48.2681 50.4073 46.3519C50.4906 46.289 50.565 46.2192 50.6291 46.1429C51.4535 45.162 50.7188 44.0946 49.938 43.3599C49.9361 43.358 49.9335 43.3561 49.9316 43.3541C49.3834 42.84 48.8142 42.4899 48.7481 42.4502C48.8904 42.5483 49.0155 42.6451 49.1206 42.7419C51.0503 44.5164 48.1827 45.1768 45.376 44.6966C42.1846 44.151 39.0209 43.1791 36.9572 43.0227C36.2071 42.9656 35.6019 43.0163 35.1942 43.2342C33.6639 44.0529 32.0272 45.9384 31.9561 48.9278Z" fill="#4C70F5" stroke="black" stroke-width="0.569857" stroke-linecap="round" stroke-linejoin="round"/>
<path d="M31.9561 48.9284C31.9452 48.9662 31.9253 48.8995 31.8945 48.754" stroke="black" stroke-width="0.569857" stroke-linecap="round" stroke-linejoin="round"/>
<path d="M17.9771 42.3742C18.3169 43.0935 19.7215 43.5506 21.4428 43.8653C23.8136 44.2987 26.785 44.4635 28.4044 44.6731C30.3687 44.9276 31.6125 47.9856 31.8952 48.7536C31.6868 47.7574 30.9803 43.062 29.1789 42.9261C28.2102 42.853 25.9144 42.7877 23.7591 42.5011C21.3242 42.1773 19.0682 41.5715 19.1099 40.3528C19.1311 39.7265 19.5484 39.2213 20.1453 38.8174C20.0863 38.8417 18.515 39.5001 17.9572 40.6605C17.9572 40.6605 17.9572 40.6612 17.956 40.6624C17.7239 41.1477 17.6688 41.7215 17.9771 42.3742Z" fill="#4C70F5" stroke="black" stroke-width="0.569857" stroke-linecap="round" stroke-linejoin="round"/>
<path d="M20.1445 38.8175L20.1469 38.8167" stroke="black" stroke-width="0.569857" stroke-linecap="round" stroke-linejoin="round"/>
<path d="M16.4512 45.0772C18.3283 44.6464 20.1182 44.2194 21.4421 43.8649C19.7207 43.5501 18.3161 43.093 17.9763 42.3737C17.668 41.7211 17.7231 41.1473 17.9552 40.662C17.9109 40.7351 16.4935 43.0956 16.4512 45.0772Z" fill="#0638C4" stroke="black" stroke-width="0.569857" stroke-linecap="round" stroke-linejoin="round"/>
<path d="M17.9561 40.6627L17.9577 40.6603" stroke="black" stroke-width="0.569857" stroke-linecap="round" stroke-linejoin="round"/>
<path d="M50.6301 46.1435C50.566 46.2197 50.4917 46.2896 50.4083 46.3524C51.336 46.564 52.2143 46.7839 53.0009 47.0102C53.0022 47.0108 53.0041 47.0109 53.0054 47.0115C52.2078 45.335 49.9326 43.3547 49.9326 43.3547C50.716 44.0894 51.4571 45.16 50.6301 46.1435Z" fill="#0638C4" stroke="black" stroke-width="0.569857" stroke-linecap="round" stroke-linejoin="round"/>
<path d="M30.8549 51.8353C30.8549 52.3519 31.2737 52.7707 31.7902 52.7707C32.3068 52.7707 32.7256 52.3519 32.7256 51.8353V50.2794C32.7256 49.7628 32.3068 49.3441 31.7902 49.3441C31.2737 49.3441 30.8549 49.7628 30.8549 50.2794V51.8353Z" fill="#F5D256" stroke="black" stroke-width="0.569857" stroke-linecap="round" stroke-linejoin="round"/>
<path d="M20.2551 13.8591C20.3103 14.047 20.4795 14.1733 20.6154 14.3143C21.3052 15.0342 21.1565 16.1786 21.3232 17.162C21.3623 17.3922 21.511 17.68 21.7386 17.6249C21.5706 17.898 21.5854 18.2724 21.7745 18.5314C21.9636 18.791 22.3149 18.9192 22.6272 18.8436C22.6291 19.0519 22.538 19.259 22.3842 19.3988C22.5227 19.6866 22.5028 20.045 22.3335 20.3155C22.4797 20.2771 22.6419 20.3136 22.7618 20.4046C23.3202 19.8245 24.0247 19.3558 24.7133 19.1263C26.5314 18.5205 28.2354 22.1561 28.2354 22.1561C28.2354 22.1561 29.0304 20.2623 29.4092 19.5052C29.7881 18.7474 28.3829 17.7339 29.1022 15.8779C29.8221 14.022 39.2936 15.4529 39.6866 15.7106C39.6866 15.7106 40.7706 17.2902 42.0265 19.602C42.3977 18.8647 42.624 18.0352 42.6375 17.2107C42.6452 16.7248 42.5945 16.2106 42.8176 15.7792C42.3964 15.5567 42.5375 14.9336 42.4522 14.4649C42.3522 13.9123 41.8579 13.4219 41.9855 12.8744C41.6124 12.5769 41.4451 12.0455 41.5791 11.5877C41.038 11.3569 40.6841 10.7492 40.7508 10.1645C40.2962 10.0427 39.9238 9.65485 39.8205 9.19583C39.5468 9.37085 39.1891 9.40675 38.8865 9.28943C38.7435 9.23365 38.6082 9.14518 38.4557 9.13877C38.1326 9.12595 37.8857 9.47663 37.5626 9.47919C37.0331 9.48432 36.7984 8.59897 36.2728 8.66372C36.0291 8.69385 35.8625 8.92785 35.6323 9.01312C35.2425 9.15736 34.8457 8.84195 34.5489 8.55089C34.3424 9.03556 33.7078 9.28366 33.2276 9.06697C33.0763 8.99837 32.9417 8.89195 32.7833 8.84195C32.3884 8.71757 31.9871 8.9676 31.6095 9.13749C31.2319 9.30802 30.6895 9.35097 30.4953 8.98555C30.3561 9.38816 29.808 9.45355 29.3939 9.35546C28.9797 9.25673 28.5444 9.06889 28.1469 9.22019C27.7783 9.36059 27.3943 9.77281 27.0789 9.53689C27.0161 9.49009 26.9712 9.42277 26.9064 9.37918C26.7385 9.26507 26.5019 9.3529 26.3532 9.49137C26.2038 9.62985 26.0993 9.8132 25.9384 9.93757C25.5794 10.2145 24.9774 10.0658 24.7896 9.65293C24.4446 10.412 23.3093 10.6543 22.6842 10.103C22.4778 10.3684 22.4675 10.7312 22.3797 11.0556C22.2919 11.3807 22.0348 11.7262 21.7014 11.6813C21.5117 11.6557 21.3386 11.5044 21.1507 11.5435C20.959 11.5826 20.8642 11.7942 20.7994 11.9788C20.6417 12.4263 20.484 12.8738 20.3256 13.3206C20.2647 13.4943 20.2026 13.6822 20.2551 13.8591Z" stroke="black" stroke-width="0.569857" stroke-linecap="round" stroke-linejoin="round"/>
<path opacity="0.52" d="M17.565 64.2474C17.6253 66.547 18.0638 68.9908 17.0252 71.043C16.6688 71.7475 16.0828 72.4066 15.3058 72.547C14.4679 72.6983 13.6589 72.2194 12.9415 71.761C11.8676 71.0744 10.7938 70.3878 9.72 69.7012C8.93723 69.2005 8.13586 68.6825 7.59158 67.9298C6.9428 67.0317 6.72803 65.8899 6.68059 64.7827C6.60815 63.0934 6.88253 61.4067 7.25757 59.7579C7.97752 56.5889 9.11032 53.4341 11.1881 50.9352C11.617 50.4191 12.0914 49.928 12.6684 49.5838C14.2775 48.624 17.1175 47.9015 17.9535 50.1409C18.9395 52.7822 18.2221 56.2383 17.9118 58.9482C17.7105 60.7067 17.5182 62.4742 17.565 64.2474Z" fill="#0B41B7"/>
<path d="M16.131 49.6796L9.75405 61.4481C9.75405 61.4481 -2.76643 43.5161 -2.53692 43.5623C-2.41576 43.586 2.86939 41.9166 7.83206 40.3351C8.10966 41.9141 8.80139 44.0175 10.215 45.8388C11.8517 47.948 14.3718 49.202 16.131 49.6796Z" fill="#CC927A" stroke="black" stroke-width="0.569857" stroke-linecap="round" stroke-linejoin="round"/>
<path d="M28.0226 40.8068C27.6353 41.5402 21.1276 43.1032 19.8435 42.8282L19.3332 43.7706L17.9337 46.3535L17.1888 47.7274C17.1888 47.7274 14.8026 46.7382 12.8012 44.2482C11.9876 43.2359 11.478 42.3089 11.1593 41.5454C10.624 40.2658 10.624 39.4439 10.624 39.4439C11.1138 39.2874 11.5882 39.1355 12.0408 38.9906C12.9326 38.7047 13.7397 38.4463 14.4122 38.2309C15.6656 37.829 16.4522 37.5757 16.4522 37.5757C16.4522 37.5757 16.4349 34.5729 17.9549 33.2836C19.9827 31.5636 20.3154 27.7754 21.1738 27.6324C21.9034 27.5106 22.6259 29.7038 22.4996 31.9021C22.4778 32.29 22.4291 32.6785 22.3489 33.0541C22.3489 33.0541 26.5346 32.7349 26.993 33.1016C27.4513 33.4689 27.8642 34.019 27.1763 34.8902C27.1763 34.8902 28.1367 35.991 27.5417 36.8622C27.5417 36.8622 28.479 38.0437 27.736 38.8746C27.736 38.8746 28.4098 40.0728 28.0226 40.8068Z" fill="#CC927A" stroke="black" stroke-width="0.569857" stroke-linecap="round" stroke-linejoin="round"/>
<path d="M17.9105 49.856C17.6797 49.9253 17.2938 49.9182 16.8053 49.833C16.8034 49.833 16.8014 49.8323 16.7995 49.8317C16.5931 49.7951 16.3687 49.7445 16.1302 49.6797C14.3711 49.2021 11.8509 47.9482 10.2142 45.839C8.80063 44.0176 8.1089 41.9142 7.83131 40.3352C7.7236 39.7243 7.67873 39.1922 7.6768 38.7857C7.67552 38.4684 7.70117 38.2273 7.74476 38.0837C7.98902 37.2804 9.53981 37.3118 10.2873 37.2772C11.0355 37.242 12.0401 38.9909 12.0401 38.9909C11.5875 39.1357 11.113 39.2877 10.6233 39.4441C10.6233 39.4441 10.6233 40.9084 11.8965 42.972C12.1452 43.3766 12.4433 43.8042 12.8004 44.2484C14.8019 46.7384 17.188 47.7276 17.188 47.7276L17.933 46.3538C17.9695 46.3717 19.1356 46.9673 19.3139 47.7276C19.3799 48.0103 18.9581 49.5419 17.9105 49.856Z" fill="#49A2A6" stroke="black" stroke-width="0.569857" stroke-linecap="round" stroke-linejoin="round"/>
<path d="M17.9334 46.3533H17.9326" stroke="black" stroke-width="0.569857" stroke-linecap="round" stroke-linejoin="round"/>
<path d="M17.9104 49.856C17.9104 49.856 16.4051 55.161 15.748 56.9266C15.6653 57.1497 15.5428 57.4831 15.3871 57.8934C15.1845 58.4255 14.9255 59.0864 14.6216 59.8025C14.0555 61.1347 13.3337 62.6579 12.5336 63.894H12.5329C11.7239 65.1415 10.8347 66.0968 9.94293 66.2692C7.76579 66.6904 3.2243 63.2574 0.0323181 59.7583C-0.613901 59.0499 -1.20499 58.3383 -1.70952 57.6562C-2.67693 56.3483 -3.52573 54.561 -4.16874 52.6691C-5.51888 48.6989 -5.96508 44.267 -4.70726 42.8374C-4.29311 42.3675 -3.44944 41.9052 -2.38715 41.4712C-1.73837 41.2064 -1.00753 40.9519 -0.243991 40.7128C3.35124 39.5832 7.67667 38.7857 7.67667 38.7857C7.6786 39.1921 7.72347 39.7242 7.83118 40.3352C8.00299 41.3129 8.33379 42.4918 8.89667 43.6804C9.24222 44.4112 9.67559 45.1459 10.2141 45.839C10.2282 45.8575 10.2423 45.8755 10.2571 45.8934C11.2168 47.1109 12.4701 48.0392 13.6946 48.6944C14.5588 49.1572 15.4082 49.4836 16.1301 49.6797C16.9353 49.899 17.5815 49.9548 17.9104 49.856Z" fill="#4C70F5" stroke="black" stroke-width="0.569857" stroke-linecap="round" stroke-linejoin="round"/>
<path d="M19.3321 43.7705L17.9326 46.3534L17.1877 47.7273C17.1877 47.7273 14.8015 46.7381 12.8 44.2481C11.9865 43.2358 11.4768 42.3088 11.1582 41.5453C11.1922 41.5151 11.2313 41.4908 11.2755 41.4735C11.457 41.4029 11.6589 41.4818 11.8346 41.5651C13.4809 42.346 14.9817 43.6506 16.803 43.7186C17.3691 43.7397 17.9339 43.6365 18.5 43.6538C18.7814 43.6628 19.0603 43.7025 19.3321 43.7705Z" fill="#B27059"/>
<path d="M22.4995 31.9021C21.6019 32.3329 20.5384 32.5887 19.9133 33.3535C19.5761 33.7657 19.4056 34.285 19.2222 34.7851C18.7863 35.973 18.2375 37.1302 17.474 38.1399C17.1073 38.6258 16.6361 39.1047 16.0315 39.1733C15.3725 39.2477 14.7814 38.8015 14.4121 38.2309C15.6654 37.829 16.4521 37.5757 16.4521 37.5757C16.4521 37.5757 16.4347 34.5729 17.9548 33.2836C19.9825 31.5636 20.3153 27.7754 21.1737 27.6324C21.9032 27.5106 22.6258 29.7038 22.4995 31.9021Z" fill="#FFC7B3"/>
<path d="M17.9103 49.856C17.9103 49.856 16.405 55.161 15.7479 56.9266C15.6652 57.1497 15.5427 57.483 15.3869 57.8933C15.2638 57.7805 15.1465 57.6613 15.035 57.5395C14.2009 56.6317 13.5662 55.5611 12.9854 54.4744C12.2251 53.0531 11.5449 51.5895 10.9487 50.0919C10.4146 48.7495 9.94793 47.3814 9.48186 46.0139C9.31261 45.5171 8.8382 44.4202 8.89654 43.6804C9.24209 44.4112 9.67546 45.1459 10.214 45.8389C11.8507 47.9481 14.3708 49.2021 16.13 49.6797C16.9352 49.8989 17.5814 49.9547 17.9103 49.856Z" fill="#0638C4"/>
<path d="M17.9104 49.856C17.6796 49.9253 17.2937 49.9182 16.8052 49.8329C16.8032 49.8329 16.8013 49.8323 16.7994 49.8317C15.9423 49.6105 15.1031 49.3553 14.4504 48.7764C14.2062 48.5597 13.9985 48.3046 13.792 48.0513C13.4587 47.6417 13.1253 47.232 12.7919 46.8224C12.3778 46.3134 11.9579 45.7953 11.7053 45.1902C11.4521 44.5856 11.3847 43.8695 11.679 43.2836C11.7412 43.1585 11.8149 43.0573 11.8963 42.972C12.1451 43.3765 12.4432 43.8041 12.8003 44.2484C14.8018 46.7384 17.1879 47.7276 17.1879 47.7276L17.9328 46.3537C17.9694 46.3717 19.1355 46.9673 19.3137 47.7276C19.3798 48.0103 18.9579 49.5419 17.9104 49.856Z" fill="#2D8787"/>
<path d="M5.85257 57.3614L0.0321159 59.7584C-0.614103 59.05 -1.20519 58.3384 -1.70972 57.6563C-2.67713 56.3485 -3.52593 54.5611 -4.16895 52.6693L5.85257 57.3614Z" fill="#BF9EF9" stroke="black" stroke-width="0.569857" stroke-linecap="round" stroke-linejoin="round"/>
<path d="M3.96007 43.2661L-2.01809 46.6267L-2.38672 41.4711C-1.73794 41.2063 -1.00709 40.9518 -0.243556 40.7127L3.96007 43.2661Z" fill="#F5D256" stroke="black" stroke-width="0.569857" stroke-linecap="round" stroke-linejoin="round"/>
<path d="M14.8016 52.6458L6.44434 50.6039L10.2569 45.8932C11.2166 47.1106 12.4699 48.0389 13.6944 48.6941L14.8016 52.6458Z" fill="#E938B5" stroke="black" stroke-width="0.569857" stroke-linecap="round" stroke-linejoin="round"/>
<path d="M14.6221 59.8025C14.056 61.1347 13.3341 62.658 12.534 63.894H12.5334L10.4627 65.0582L9.88184 56.9234L14.6221 59.8025Z" fill="#49A2A6" stroke="black" stroke-width="0.569857" stroke-linecap="round" stroke-linejoin="round"/>
<path d="M17.9105 49.856C17.5816 49.9548 16.9354 49.899 16.1302 49.6797C14.3711 49.2021 11.8509 47.9482 10.2142 45.839C8.80063 44.0176 8.1089 41.9142 7.83131 40.3352C7.7236 39.7243 7.67873 39.1922 7.6768 38.7857C7.67552 38.4684 7.70117 38.2273 7.74476 38.0837C7.98902 37.2804 9.53981 37.3118 10.2873 37.2772C11.0355 37.242 12.0401 38.9909 12.0401 38.9909C11.5875 39.1357 11.113 39.2877 10.6233 39.4441C10.6233 39.4441 10.6233 41.5385 12.8004 44.2484C14.8019 46.7384 17.188 47.7276 17.188 47.7276L17.933 46.3538C17.9695 46.3717 19.1356 46.9673 19.3139 47.7276C19.3799 48.0103 18.9581 49.5419 17.9105 49.856Z" stroke="black" stroke-width="0.569857" stroke-linecap="round" stroke-linejoin="round"/>
<path d="M15.7481 56.926C15.1564 58.5165 12.5606 65.7621 9.94304 66.2686C7.32547 66.775 1.28833 61.7085 -1.70941 57.6555C-4.70715 53.6026 -6.56438 44.9485 -4.70715 42.8374C-2.84927 40.7269 7.67679 38.7857 7.67679 38.7857C7.67871 39.1921 7.72359 39.7242 7.83129 40.3352C8.10888 41.9142 8.80062 44.0176 10.2142 45.839C11.8509 47.9481 14.371 49.2021 16.1302 49.6797C16.9354 49.899 17.5816 49.9548 17.9105 49.856C17.9105 49.856 16.4052 55.161 15.7481 56.9266V56.926Z" stroke="black" stroke-width="0.569857" stroke-linecap="round" stroke-linejoin="round"/>
<path d="M28.0226 40.8069C27.6353 41.5403 21.1276 43.1032 19.8435 42.8282L17.9337 46.3536L17.1888 47.7274C17.1888 47.7274 14.8026 46.7382 12.8012 44.2482C10.624 41.5383 10.624 39.4439 10.624 39.4439C11.1138 39.2875 11.5882 39.1355 12.0408 38.9906C14.5943 38.1733 16.4522 37.5758 16.4522 37.5758C16.4522 37.5758 16.4349 34.5729 17.9549 33.2837C19.9827 31.5636 20.3154 27.7754 21.1738 27.6325C22.0322 27.4888 22.8804 30.5501 22.3489 33.0542C22.3489 33.0542 26.5346 32.7349 26.993 33.1016C27.4513 33.4689 27.8642 34.019 27.1763 34.8902C27.1763 34.8902 28.1367 35.991 27.5417 36.8622C27.5417 36.8622 28.479 38.0438 27.736 38.8746C27.736 38.8746 28.4098 40.0728 28.0226 40.8069Z" stroke="black" stroke-width="0.569857" stroke-linecap="round" stroke-linejoin="round"/>
</g>
<defs>
<clipPath id="clip0_1609_38300">
<rect y="0.000326157" width="64" height="64" rx="32" fill="white"/>
</clipPath>
</defs>
</svg>
