<svg width="64" height="64" viewBox="0 0 64 64" fill="none" xmlns="http://www.w3.org/2000/svg">
<g clip-path="url(#clip0_1609_38145)">
<rect width="64" height="64" rx="32" fill="#C2D6FF"/>
<path d="M22.0439 23.7353C22.2112 24.1571 22.485 24.5437 22.8203 24.895C23.6146 25.7259 24.7563 26.3548 25.6596 26.7645C25.6577 26.81 25.6552 26.8677 25.6519 26.9382C25.6263 27.569 25.5558 29.1724 25.4359 31.1527C25.216 34.7922 24.8301 39.7036 24.2505 42.1865C24.2704 42.1808 24.2845 42.1763 24.2916 42.1737H24.2922C24.2922 42.1737 24.2948 42.1724 24.296 42.1724C24.2967 42.1724 24.2967 42.1718 24.2967 42.1718L24.3223 42.9481C24.3223 42.9481 30.1492 51.7349 30.0082 52.3459C29.9646 52.5337 29.5139 53.1158 28.8862 53.8396C31.1179 54.6262 33.0514 54.1589 33.0514 54.1589C32.2815 53.2908 31.6987 52.5606 31.6493 52.3459C31.5083 51.7349 37.3352 42.9481 37.3352 42.9481L37.3608 42.1718L37.5269 37.1097C39.0328 37.6156 40.6002 37.8701 42.0113 37.5688C42.6004 37.4431 43.162 37.22 43.6807 36.8783C51.2468 31.8932 39.4719 15.4076 39.4719 15.4076C39.4719 15.4076 39.4604 16.2839 38.5757 16.8462C38.2321 17.0641 37.757 17.2347 37.0999 17.2879C34.749 17.4783 31.382 15.9217 29.4446 15.7313C27.5073 15.5409 27.4117 15.9538 27.4117 15.9538C27.4117 15.9538 28.7779 20.4324 28.5869 21.2896C28.3965 22.1473 28.0156 23.0365 28.0156 23.0365C28.0156 23.0365 27.3483 19.5746 25.7282 19.5426C24.1082 19.5112 21.1226 21.4171 22.0439 23.7353Z" fill="#F3BBB0" stroke="black" stroke-width="0.569857" stroke-linecap="round" stroke-linejoin="round"/>
<path d="M22.8152 68.8954H37.9014V54.5799H22.8152V68.8954Z" fill="#BF9EF9" stroke="black" stroke-width="0.569857" stroke-linecap="round" stroke-linejoin="round"/>
<path d="M9.66476 65.7235C10.813 66.4543 15.7731 65.6856 18.3644 65.2176C17.3271 64.1086 16.5629 63.2168 16.3058 62.7559C15.1435 60.6723 13.2209 56.9059 13.2209 56.9059L17.1873 54.3422L13.7415 51.3771C13.7415 51.3771 17.6874 45.9958 19.2241 44.4136C19.1625 44.4303 17.6611 44.8374 15.6147 45.4272C11.379 46.6472 4.80915 48.6461 3.852 49.5712C3.47119 49.9392 3.11411 50.3783 2.79228 50.829C1.90629 52.0695 1.28892 53.3985 1.18378 53.5735C1.04082 53.812 8.09217 64.7227 9.66476 65.7235Z" fill="#4C70F5" stroke="black" stroke-width="0.569857" stroke-linecap="round" stroke-linejoin="round"/>
<path d="M13.3486 51.441C13.3486 51.441 14.9193 54.5394 15.8931 55.6049C16.8669 56.6697 13.0787 57.1518 12.9402 57.7365C12.8024 58.3212 14.8346 68.1016 16.9938 69.5409C19.153 70.9801 23.4201 67.5932 23.8105 67.0002C24.201 66.4072 24.1914 56.7543 23.8105 56.3306C23.4297 55.9075 19.9576 50.6569 19.6614 50.6146C19.3652 50.5723 13.3486 51.4403 13.3486 51.4403V51.441Z" fill="#2253DD"/>
<path d="M2.79199 50.8285C3.45488 51.2054 4.26009 51.3631 5.02875 51.3176C6.21669 51.2478 7.3386 50.7618 8.39576 50.2169C9.45292 49.6713 10.4838 49.0552 11.6153 48.6885C12.2423 48.4847 12.893 48.3603 13.5168 48.1481C14.1406 47.9359 14.7515 47.623 15.1759 47.1191C15.5663 46.655 15.7709 46.0049 15.6144 45.4267C11.3788 46.6467 4.80886 48.6456 3.85171 49.5707C3.47091 49.9386 3.11382 50.3778 2.79199 50.8285Z" fill="#80A1FF"/>
<path d="M16.3058 62.7559C16.5629 63.2168 17.3271 64.1086 18.3644 65.2176C15.7731 65.6856 10.813 66.4543 9.66476 65.7235C8.09217 64.7227 1.04082 53.812 1.18378 53.5735C1.32675 53.335 2.42237 50.9527 3.852 49.5712C5.27137 48.1993 19.0349 44.4649 19.2241 44.4136C17.6874 45.9958 13.7415 51.3771 13.7415 51.3771L17.1873 54.3422L13.2209 56.9059C13.2209 56.9059 15.1435 60.6723 16.3058 62.7559Z" stroke="black" stroke-width="0.569857" stroke-linecap="round" stroke-linejoin="round"/>
<path d="M22.8193 24.8947C22.484 24.5434 22.2103 24.1569 22.0429 23.735C21.1217 21.4168 24.1073 19.5109 25.7273 19.5423C27.3473 19.5743 28.0147 23.0362 28.0147 23.0362C28.0147 23.0362 28.3955 22.147 28.5859 21.2893C28.777 20.4321 27.4108 15.9535 27.4108 15.9535C27.4108 15.9535 27.5063 15.5406 29.4437 15.731C31.3811 15.9214 34.7481 17.478 37.0989 17.2876C39.4492 17.0965 39.471 15.4073 39.471 15.4073C39.471 15.4073 40.4993 14.5437 41.2314 13.2731C42.0488 11.855 42.4976 9.93042 40.7365 8.13537C39.0261 6.39096 37.4355 6.72241 35.8764 7.64622C34.4615 8.48476 33.0723 9.81246 31.642 10.5196C31.4323 10.6234 31.2073 10.7126 30.9695 10.7901C27.7916 11.8351 22.2705 10.869 19.9556 14.5668C19.7357 14.9187 19.5562 15.2688 19.4132 15.6175C17.9425 19.2076 20.3915 22.5836 22.8193 24.8947Z" fill="#6D1249" stroke="black" stroke-width="0.569857" stroke-linecap="round" stroke-linejoin="round"/>
<path d="M24.0996 42.76C24.1509 42.5888 24.2009 42.3978 24.249 42.1901C24.249 42.1888 24.249 42.1875 24.2503 42.1862" stroke="black" stroke-width="0.569857" stroke-linecap="round" stroke-linejoin="round"/>
<path d="M45.3509 62.7559C45.0938 63.2168 44.3296 64.1086 43.2923 65.2176C45.8836 65.6856 50.8437 66.4543 51.9919 65.7235C53.5645 64.7227 60.6158 53.812 60.4729 53.5735C60.3299 53.335 59.2343 50.9527 57.8047 49.5712C56.3853 48.1993 42.6217 44.4649 42.4326 44.4136C43.9693 45.9958 47.9152 51.3771 47.9152 51.3771L44.4694 54.3422L48.4358 56.9059C48.4358 56.9059 46.5132 60.6723 45.3509 62.7559Z" fill="#4C70F5" stroke="black" stroke-width="0.569857" stroke-linecap="round" stroke-linejoin="round"/>
<path d="M45.3509 62.7559C45.0938 63.2168 44.3296 64.1086 43.2923 65.2176C45.8836 65.6856 50.8437 66.4543 51.9919 65.7235C53.5619 64.724 60.596 53.8434 60.4735 53.5748C60.4735 53.5742 60.4729 53.5742 60.4729 53.5735C60.3299 53.335 59.2343 50.9527 57.8047 49.5712C56.9623 48.757 51.772 47.1107 47.6517 45.8965C44.8297 45.0637 42.5095 44.4348 42.4326 44.4136C43.9693 45.9958 47.9152 51.3771 47.9152 51.3771L44.4694 54.3422L48.4358 56.9059C48.4358 56.9059 46.5132 60.6723 45.3509 62.7559Z" fill="#4C70F5" stroke="black" stroke-width="0.569857" stroke-linecap="round" stroke-linejoin="round"/>
<path d="M13.2207 56.9056C13.2207 56.9056 15.1433 60.672 16.3056 62.7556C16.5627 63.2165 17.3269 64.1083 18.3642 65.2174C22.0132 69.121 29.0332 75.7101 29.1268 75.6165C29.1979 75.5453 26.8804 66.0739 24.9533 57.7814C24.661 56.5223 24.3769 55.2901 24.1122 54.1227C23.1845 50.0332 22.4864 46.7315 22.4357 45.8077C22.2902 43.1517 23.9429 42.3208 24.2487 42.1901C24.2628 42.1843 24.2744 42.1798 24.2821 42.1766C24.2744 42.1792 24.2635 42.1824 24.25 42.1862C24.0173 42.2612 22.9544 42.6068 21.878 43.0145C20.9805 43.3549 20.0733 43.7383 19.631 44.0447C19.529 44.1153 19.3906 44.2422 19.2239 44.4134C17.6872 45.9956 13.7413 51.3769 13.7413 51.3769L17.1871 54.3419L13.2207 56.9056Z" fill="#4C70F5" stroke="black" stroke-width="0.569857" stroke-linecap="round" stroke-linejoin="round"/>
<path d="M42.4307 44.4128C42.4307 44.4128 42.4315 44.4128 42.4331 44.4136" stroke="black" stroke-width="0.569857" stroke-linecap="round" stroke-linejoin="round"/>
<path d="M27.8418 54.9981C27.8418 54.9981 29.0515 58.6786 29.6926 59.0344C30.3337 59.3908 32.2326 59.462 32.423 59.2959C32.6128 59.1293 34.5245 55.7456 34.5245 55.7456C34.0161 55.2199 33.5013 54.666 33.0513 54.1582C33.0513 54.1582 31.1178 54.6256 28.8861 53.839C28.572 54.2012 28.2149 54.598 27.8418 54.9981Z" fill="#E86F3A" stroke="black" stroke-width="0.569857" stroke-linecap="round" stroke-linejoin="round"/>
<path d="M27.3891 68.0993C27.4243 68.2468 30.8708 73.6749 31.183 73.7133C31.4952 73.7524 34.0019 69.2142 34.0019 69.2142L32.4229 59.2959C32.2325 59.4619 30.3336 59.3907 29.6925 59.0343C29.6925 59.0343 27.3544 67.9525 27.3891 68.0993Z" fill="#E86F3A" stroke="black" stroke-width="0.569857" stroke-linecap="round" stroke-linejoin="round"/>
<path d="M47.6523 45.8963C48.178 46.288 48.7448 46.6374 49.2217 46.9919C50.3763 47.8509 51.5316 48.7106 52.6862 49.5703C53.9427 50.5051 55.1986 51.4398 56.4551 52.3745C57.3123 53.0124 58.2278 53.674 59.2913 53.7753C59.6875 53.8131 60.1042 53.7381 60.4741 53.5746C60.4741 53.574 60.4735 53.574 60.4735 53.5733C60.3305 53.3348 59.2349 50.9525 57.8053 49.571C56.9629 48.7568 51.7726 47.1105 47.6523 45.8963Z" fill="#80A1FF"/>
<path d="M21.2179 47.765C21.4339 50.128 22.4738 52.4071 24.1124 54.1227C23.1847 50.0332 22.4866 46.7315 22.4359 45.8077C22.2904 43.1517 23.9431 42.3208 24.2489 42.1901C24.263 42.1843 24.2746 42.1798 24.2823 42.1766C24.2746 42.1792 24.2637 42.1824 24.2502 42.1862C24.0175 42.2612 22.9546 42.6068 21.8782 43.0145C21.3044 44.5217 21.0704 46.159 21.2179 47.765Z" fill="#80A1FF"/>
<path d="M35.877 7.64622C35.9045 7.67314 35.934 7.69751 35.9648 7.71994C36.2744 7.94881 36.6732 8.011 37.0284 8.16101C37.8368 8.50271 38.3753 9.28164 38.7401 10.0792C39.1055 10.8773 39.3452 11.7351 39.794 12.489C40.0453 12.9102 40.4287 13.3301 40.9191 13.3301C41.0288 13.3301 41.1326 13.3096 41.232 13.2731C42.0494 11.855 42.4981 9.93042 40.7371 8.13537C39.0266 6.39096 37.4361 6.72241 35.877 7.64622Z" fill="#932A6E"/>
<path d="M19.4131 15.6178C19.4907 15.7062 19.5791 15.7851 19.6785 15.8511C20.2452 16.2268 21.0229 16.0999 21.6152 15.7652C22.2076 15.4306 22.6782 14.9209 23.2109 14.4978C24.1129 13.7817 25.2085 13.3118 26.349 13.1515C27.0337 13.0553 27.7306 13.0688 28.4159 12.9752C29.1012 12.8822 29.7987 12.6668 30.2994 12.1899C30.6822 11.8251 30.9181 11.3161 30.9694 10.7904C27.7915 11.8353 22.2704 10.8692 19.9554 14.567C19.7356 14.919 19.556 15.269 19.4131 15.6178Z" fill="#932A6E"/>
<path d="M13.2207 56.9056C13.2207 56.9056 15.1433 60.672 16.3056 62.7556C16.5627 63.2165 17.3269 64.1083 18.3642 65.2174C22.0132 69.121 29.0332 75.7101 29.1268 75.6165C29.1979 75.5453 26.8804 66.0739 24.9533 57.7814C23.6358 52.1128 22.5011 46.995 22.4357 45.8077C22.2902 43.1517 23.9429 42.3208 24.2487 42.1901C24.2692 42.1817 24.2833 42.176 24.291 42.1734C24.284 42.176 24.2699 42.1804 24.25 42.1862C23.823 42.324 20.6029 43.3716 19.631 44.0447C19.529 44.1153 19.3906 44.2422 19.2239 44.4134C17.6872 45.9956 13.7413 51.3769 13.7413 51.3769L17.1871 54.3419L13.2207 56.9056Z" stroke="black" stroke-width="0.569857" stroke-linecap="round" stroke-linejoin="round"/>
<path d="M45.3509 62.7559C45.0938 63.2168 44.3296 64.1086 43.2923 65.2176C45.8836 65.6856 50.8437 66.4543 51.9919 65.7235C53.5645 64.7227 60.6158 53.812 60.4729 53.5735C60.3299 53.335 59.2343 50.9527 57.8047 49.5712C56.3853 48.1993 42.6217 44.4649 42.4326 44.4136C43.9693 45.9958 47.9152 51.3771 47.9152 51.3771L44.4694 54.3422L48.4358 56.9059C48.4358 56.9059 46.5132 60.6723 45.3509 62.7559Z" stroke="black" stroke-width="0.569857" stroke-linecap="round" stroke-linejoin="round"/>
<path d="M42.2201 29.0596C42.4118 31.2162 42.3951 33.3921 42.1611 35.5455C42.0887 36.2173 41.9951 36.8969 42.0118 37.5688C42.6009 37.4431 43.1625 37.22 43.6812 36.8783C51.2473 31.8932 39.4724 15.4076 39.4724 15.4076C39.4724 15.4076 39.4609 16.2839 38.5762 16.8462C38.839 17.2282 39.098 17.5982 39.2621 17.9533C40.8777 21.4485 41.8784 25.2246 42.2201 29.0596Z" fill="#F9DFDC"/>
<path d="M25.4355 31.1528C25.6304 30.9604 25.758 30.7104 25.8817 30.4655C26.201 29.8328 26.5216 29.2013 26.8402 28.5685C27.0453 28.1614 27.2537 27.7204 26.9139 27.3203C26.6107 26.9632 26.1324 26.869 25.6516 26.9382C25.626 27.5691 25.5554 29.1724 25.4355 31.1528Z" fill="#F09E8B"/>
<path d="M30.6335 33.3138C30.6335 33.3138 30.988 40.6601 37.3861 41.3954L37.5265 37.1097C37.5265 37.1097 32.0926 34.5235 30.6328 33.3138H30.6335Z" fill="#ED7D66"/>
<path d="M26.9364 23.5662C26.8197 23.0771 26.4998 22.6937 26.0248 22.3398C25.5497 21.986 24.7708 21.8148 24.1669 22.0437C23.8277 22.1725 23.5662 22.454 23.6553 22.7251C23.7322 22.9611 24.0355 23.1149 24.3265 23.2303C25.1913 23.5733 25.8555 23.6336 26.8383 23.6804" fill="#ED7D66"/>
<path d="M48.0207 51.441C48.0207 51.441 46.45 54.5394 45.4762 55.6049C44.5024 56.6697 48.2906 57.1518 48.4291 57.7365C48.5669 58.3212 46.5347 68.1016 44.3755 69.5409C42.2163 70.9801 37.9492 67.5932 37.5588 67.0002C37.1683 66.4072 37.1779 56.7543 37.5588 56.3306C37.9396 55.9075 41.4117 50.6569 41.7079 50.6146C42.0041 50.5723 48.0207 51.4403 48.0207 51.4403V51.441Z" fill="#2253DD"/>
<path d="M32.5299 75.6163C32.6235 75.7099 39.6435 69.1208 43.2925 65.2172C44.3298 64.1081 45.094 63.2163 45.3511 62.7554C46.5134 60.6718 48.436 56.9054 48.436 56.9054L44.4696 54.3417L47.9154 51.3767C47.9154 51.3767 43.9695 45.9954 42.4328 44.4131C42.2662 44.242 42.1277 44.115 42.0257 44.0445C41.9706 44.0061 41.9084 43.9669 41.8398 43.9266C40.7743 43.3009 38.1888 42.4405 37.5202 42.2232C37.4362 42.1956 37.383 42.1789 37.3657 42.1732C37.3823 42.1796 37.4336 42.1995 37.5093 42.2373C37.9734 42.47 39.3543 43.3701 39.221 45.8075C39.1601 46.9096 38.1786 51.3959 36.9849 56.5669C36.8919 56.9683 36.7983 57.3734 36.7034 57.7812C34.7763 66.0737 32.4588 75.5451 32.5299 75.6163Z" fill="#4C70F5" stroke="black" stroke-width="0.569857" stroke-linecap="round" stroke-linejoin="round"/>
<path d="M36.9844 56.5673C36.9876 56.5814 36.9901 56.5961 36.9934 56.6102C38.4775 54.6325 39.7289 52.5406 40.7303 50.366C41.2854 49.1595 41.7663 47.9203 41.9509 46.6259C42.0778 45.7399 42.0618 44.8264 41.8394 43.9269C40.7739 43.3012 38.1883 42.4409 37.5197 42.2235C37.5158 42.228 37.512 42.2325 37.5088 42.2376C37.9729 42.4704 39.3538 43.3704 39.2205 45.8079C39.1596 46.9099 38.1781 51.3962 36.9844 56.5673Z" fill="#80A1FF"/>
<path d="M32.5299 75.6163C32.6235 75.7099 39.6435 69.1208 43.2925 65.2172C44.3298 64.1081 45.094 63.2163 45.3511 62.7554C46.5134 60.6718 48.436 56.9054 48.436 56.9054L44.4696 54.3417L47.9154 51.3767C47.9154 51.3767 43.9695 45.9954 42.4328 44.4131C42.2662 44.242 42.1277 44.115 42.0257 44.0445C41.0083 43.34 37.5285 42.2251 37.3657 42.1732C37.4849 42.2181 39.3761 42.9745 39.221 45.8075C39.1556 46.9948 38.0209 52.1126 36.7034 57.7812C34.7763 66.0737 32.4588 75.5451 32.5299 75.6163Z" stroke="black" stroke-width="0.569857" stroke-linecap="round" stroke-linejoin="round"/>
<path d="M37.5267 37.1097C33.9693 35.9141 30.7549 33.3138 30.7549 33.3138" stroke="black" stroke-width="0.569857" stroke-linecap="round" stroke-linejoin="round"/>
<path d="M25.6592 26.7643C26.4727 27.1336 27.0939 27.3246 27.0939 27.3246" stroke="black" stroke-width="0.569857" stroke-linecap="round" stroke-linejoin="round"/>
<path d="M22.0439 23.7353C22.2112 24.1571 22.485 24.5437 22.8203 24.895C23.6146 25.7259 24.7563 26.3548 25.6596 26.7645C25.6116 27.9646 25.1807 38.2022 24.2505 42.1865C24.2704 42.1808 24.2845 42.1763 24.2916 42.1737H24.2922C24.2922 42.1737 24.2948 42.1724 24.296 42.1724C24.2967 42.1724 24.2967 42.1718 24.2967 42.1718L24.3223 42.9481C24.3223 42.9481 30.1492 51.7349 30.0082 52.3459C29.9646 52.5337 29.5139 53.1158 28.8862 53.8396C31.1179 54.6262 33.0514 54.1589 33.0514 54.1589C32.2815 53.2908 31.6987 52.5606 31.6493 52.3459C31.5083 51.7349 37.3352 42.9481 37.3352 42.9481L37.3608 42.1718L37.5269 37.1097C39.6617 37.8271 41.9196 38.0387 43.6807 36.8783C51.2468 31.8932 39.4719 15.4076 39.4719 15.4076C39.4719 15.4076 39.4501 17.0968 37.0999 17.2879C34.749 17.4783 31.382 15.9217 29.4446 15.7313C27.5073 15.5409 27.4117 15.9538 27.4117 15.9538C27.4117 15.9538 28.7779 20.4324 28.5869 21.2896C28.3965 22.1473 28.0156 23.0365 28.0156 23.0365C28.0156 23.0365 27.3483 19.5746 25.7282 19.5426C24.1082 19.5112 21.1226 21.4171 22.0439 23.7353Z" stroke="black" stroke-width="0.569857" stroke-linecap="round" stroke-linejoin="round"/>
<path d="M31.6484 52.2249C31.6977 52.4396 32.2805 53.1698 33.0504 54.0379C33.5005 54.5456 34.0153 55.0995 34.5237 55.6252C35.3705 56.4997 36.2033 57.2946 36.7027 57.6607C36.904 56.7933 37.1015 55.9387 37.2912 55.1091C38.3426 50.5176 39.1651 46.6929 39.2203 45.687C39.3754 42.8541 37.4842 42.0976 37.365 42.0527C37.365 42.0527 37.3624 42.0514 37.3611 42.0514C37.3605 42.0514 37.3605 42.0508 37.3605 42.0508L37.356 42.1944L37.3348 42.8271C37.3348 42.8271 31.508 51.6139 31.649 52.2249H31.6484Z" fill="#F5D256" stroke="black" stroke-width="0.569857" stroke-linecap="round" stroke-linejoin="round"/>
<path d="M22.4358 45.687C22.4916 46.6955 23.318 50.5388 24.3732 55.147C24.5604 55.965 24.7546 56.8067 24.9534 57.6607C25.5932 57.1914 26.7792 56.0195 27.8415 54.8777C28.2146 54.4777 28.5717 54.0808 28.8858 53.7186C29.5134 52.9948 29.9641 52.4127 30.0077 52.2249C30.1488 51.6139 24.3219 42.8271 24.3219 42.8271L24.2988 42.1303L24.2963 42.0508C24.2963 42.0508 24.2963 42.0514 24.2956 42.0514C24.2943 42.0514 24.293 42.0521 24.2918 42.0527H24.2911C24.2834 42.0553 24.2693 42.061 24.2488 42.0694C23.943 42.2001 22.2903 43.031 22.4358 45.687Z" fill="#F5D256" stroke="black" stroke-width="0.569857" stroke-linecap="round" stroke-linejoin="round"/>
<path d="M43.1559 8.28777C43.9124 9.03079 44.1452 10.2053 43.9067 11.2387C43.6682 12.2721 43.0123 13.1716 42.2232 13.8794C41.434 14.5871 40.5095 15.1256 39.5928 15.659C40.4582 15.9065 41.6103 15.993 42.445 15.6571C43.2797 15.3212 43.9971 14.7006 44.4497 13.923" stroke="black" stroke-width="0.569857" stroke-linecap="round" stroke-linejoin="round"/>
<path d="M22.8194 24.8947C22.4841 24.5434 22.2103 24.1568 22.043 23.735C21.1218 21.4168 24.1073 19.5108 25.7274 19.5422C27.3474 19.5743 28.0148 23.0362 28.0148 23.0362C28.0148 23.0362 28.3956 22.147 28.586 21.2892C28.777 20.4321 27.4109 15.9534 27.4109 15.9534C27.4109 15.9534 27.5064 15.5406 29.4438 15.731C31.3811 15.9214 34.7481 17.4779 37.099 17.2875C39.4493 17.0965 39.471 15.4072 39.471 15.4072C39.471 15.4072 44.0754 11.5395 40.7366 8.13532C37.4734 4.80806 34.6475 9.03285 31.6421 10.5195C28.6366 12.0062 22.4443 10.592 19.9556 14.5667C17.4669 18.5421 20.1563 22.3592 22.8194 24.8947Z" stroke="black" stroke-width="0.569857" stroke-linecap="round" stroke-linejoin="round"/>
<path d="M22.4358 45.687C22.4916 46.6955 23.318 50.5388 24.3732 55.147C24.5809 55.029 24.7476 54.8341 24.8559 54.6187C25.0066 54.318 25.0592 53.9776 25.0963 53.6423C25.2771 51.9928 25.1201 50.3074 24.638 48.7194C24.2854 47.5597 23.7603 46.4454 23.5744 45.2479C23.4051 44.1587 23.5763 42.9374 24.2988 42.1303L24.2963 42.0508C24.2963 42.0508 24.2963 42.0514 24.2956 42.0514C24.2943 42.0514 24.293 42.0521 24.2918 42.0527H24.2911C24.2834 42.0553 24.2693 42.061 24.2488 42.0694C23.943 42.2001 22.2903 43.031 22.4358 45.687Z" fill="#CEA625"/>
<path d="M37.2921 55.1093C38.3435 50.5178 39.166 46.6931 39.2211 45.6872C39.3763 42.8542 37.4851 42.0978 37.3658 42.0529C37.3658 42.0529 37.3632 42.0516 37.362 42.0516C37.3613 42.0516 37.3613 42.051 37.3613 42.051L37.3568 42.1946C37.8684 42.3459 38.2576 42.8312 38.4005 43.3556C38.5608 43.9467 38.4653 44.5756 38.3217 45.1705C38.0396 46.3354 37.578 47.4464 37.1799 48.5766C36.7824 49.7069 36.4446 50.8762 36.4247 52.0744C36.4067 53.1444 36.6677 54.249 37.2927 55.1093H37.2921Z" fill="#CEA625"/>
<path d="M31.6484 52.3455C31.6977 52.5603 32.2805 53.2905 33.0504 54.1585C33.5005 54.6663 34.0153 55.2202 34.5237 55.7459C35.3705 56.6203 36.2033 57.4153 36.7027 57.7813C38.0202 52.1128 39.1549 46.995 39.2203 45.8077C39.3754 42.9747 37.4842 42.2182 37.365 42.1734C37.365 42.1734 37.3624 42.1721 37.3611 42.1721C37.3605 42.1721 37.3605 42.1714 37.3605 42.1714L37.3348 42.9478C37.3348 42.9478 31.508 51.7346 31.649 52.3455H31.6484Z" stroke="black" stroke-width="0.569857" stroke-linecap="round" stroke-linejoin="round"/>
<path d="M22.4358 45.8077C22.5012 46.995 23.6359 52.1128 24.9534 57.7813C25.5932 57.3121 26.7792 56.1402 27.8415 54.9984C28.2146 54.5983 28.5717 54.2015 28.8858 53.8393C29.5134 53.1155 29.9641 52.5334 30.0077 52.3455C30.1488 51.7346 24.3219 42.9478 24.3219 42.9478L24.2963 42.1714C24.2963 42.1714 24.2963 42.1721 24.2956 42.1721C24.2943 42.1721 24.293 42.1721 24.2918 42.1734H24.2911C24.2834 42.1759 24.2693 42.1817 24.2488 42.19C23.943 42.3208 22.2903 43.1517 22.4358 45.8077Z" stroke="black" stroke-width="0.569857" stroke-linecap="round" stroke-linejoin="round"/>
<path d="M26.8249 23.4931C26.3178 22.511 25.2036 21.8763 24.0996 21.9417" stroke="black" stroke-width="0.569857" stroke-linecap="round" stroke-linejoin="round"/>
<path d="M25.6633 22.5473C25.2812 22.6941 24.9491 22.9685 24.7324 23.316" stroke="black" stroke-width="0.569857" stroke-linecap="round" stroke-linejoin="round"/>
<path d="M38.622 30.9061C38.4809 30.8946 37.3013 31.4068 35.9768 30.2214C34.6523 29.0361 35.2088 27.7007 35.2088 27.7007" stroke="black" stroke-width="0.569857" stroke-linecap="round" stroke-linejoin="round"/>
<path d="M36.0752 27.6263C36.0752 27.6263 35.1642 27.2551 34.3955 28.2276" stroke="black" stroke-width="0.569857" stroke-linecap="round" stroke-linejoin="round"/>
<path d="M39.5676 24.3277C39.5676 24.3277 41.4505 27.203 40.9126 27.7017C40.3747 28.2005 39.0566 27.3248 39.0566 27.3248" stroke="black" stroke-width="0.569857" stroke-linecap="round" stroke-linejoin="round"/>
</g>
<defs>
<clipPath id="clip0_1609_38145">
<rect width="64" height="64" rx="32" fill="white"/>
</clipPath>
</defs>
</svg>
