<svg width="64" height="64" viewBox="0 0 64 64" fill="none" xmlns="http://www.w3.org/2000/svg">
<g clip-path="url(#clip0_1609_38371)">
<rect y="0.000434875" width="64" height="64" rx="32" fill="#F8C9D2"/>
<path d="M3.28223 50.555L9.77262 57.4338L16.3649 64.4204L19.7531 68.0118C19.7531 68.0118 39.1794 68.485 42.6702 68.5407C43.0292 68.5459 43.2196 68.5471 43.2029 68.5433C43.026 68.4991 61.0149 55.3843 61.0149 55.3843C61.0149 55.3843 58.6609 49.744 56.4068 48.3393C56.2491 48.2413 55.9587 48.1246 55.5605 47.9944C54.2976 47.5797 51.9544 47.0213 49.3695 46.4424C46.5968 45.8211 43.5446 45.1768 41.2463 44.6614C40.4597 44.4845 39.7615 44.3236 39.1929 44.1832C39.1929 44.1832 39.5724 53.161 32.296 53.2411C32.1691 53.2424 32.0441 53.2398 31.9204 53.2328C31.8877 53.2315 31.8556 53.2296 31.8229 53.227C31.6428 53.2136 31.4665 53.1924 31.2927 53.1635C31.2491 53.1559 31.2062 53.1482 31.1632 53.1398C31.1203 53.1315 31.0773 53.1232 31.0344 53.1135C30.9119 53.0873 30.7908 53.0565 30.6715 53.0225C30.6439 53.0148 30.6157 53.0065 30.5882 52.9975C30.5196 52.977 30.4523 52.9552 30.3849 52.9321C30.3516 52.9212 30.3189 52.9097 30.2862 52.8975C30.2048 52.868 30.1247 52.8372 30.0452 52.8045C30.0054 52.7885 29.9663 52.7718 29.9266 52.7545C29.8868 52.7372 29.8477 52.7199 29.8092 52.702C29.7721 52.6853 29.7355 52.668 29.699 52.6507C29.6676 52.6347 29.6362 52.6193 29.6047 52.6039C29.5765 52.5898 29.5483 52.5757 29.5201 52.5609C29.4964 52.5481 29.4727 52.5359 29.4496 52.5237C29.4169 52.5064 29.3848 52.4885 29.3521 52.4705C29.3239 52.4545 29.2964 52.4391 29.2688 52.4231C29.2444 52.4096 29.2207 52.3955 29.1964 52.3808C29.1733 52.3673 29.1502 52.3539 29.1271 52.3397C29.0816 52.3122 29.0374 52.2846 28.9925 52.2564C28.9643 52.2385 28.9367 52.2205 28.9092 52.2026C28.8733 52.1788 28.8374 52.1551 28.8015 52.1308C28.7668 52.1077 28.7322 52.084 28.6982 52.0602C28.6957 52.0577 28.6931 52.0557 28.6905 52.0545C28.6566 52.0307 28.6232 52.0064 28.5899 51.982C28.5559 51.9577 28.5219 51.9327 28.4886 51.9077C28.4309 51.8641 28.3745 51.8205 28.3187 51.7762C28.286 51.7506 28.254 51.7249 28.2219 51.6987C27.9719 51.4954 27.7328 51.2775 27.5032 51.0486C27.4725 51.0178 27.4417 50.987 27.4116 50.9556C27.3808 50.9249 27.3507 50.8934 27.3205 50.8614C27.3051 50.8454 27.2904 50.83 27.2757 50.814C27.2481 50.7851 27.2205 50.7563 27.1942 50.7268C27.1756 50.7075 27.1583 50.6883 27.1417 50.6697C27.1122 50.6377 27.0827 50.6056 27.0538 50.5729C27.0404 50.5575 27.0269 50.5428 27.0135 50.5274C26.9846 50.4947 26.9564 50.4626 26.9282 50.4299C26.6179 50.0703 26.3288 49.6946 26.0614 49.3132C26.0371 49.2785 26.0127 49.2439 25.989 49.2087C25.964 49.1728 25.939 49.1369 25.9146 49.1003C25.8915 49.067 25.8691 49.0336 25.8473 48.9997C25.8178 48.9554 25.7883 48.9118 25.7595 48.8676C25.7428 48.842 25.7261 48.8163 25.7095 48.7907C25.6864 48.7541 25.6633 48.7182 25.6409 48.6823C25.5723 48.5753 25.5062 48.4682 25.4409 48.3605C25.4287 48.34 25.4165 48.3201 25.405 48.3002C25.3953 48.2842 25.3857 48.2688 25.3767 48.2534C25.3549 48.2175 25.3344 48.1823 25.3139 48.147C25.2928 48.1111 25.2716 48.0759 25.2517 48.0406C25.1697 47.8989 25.0902 47.7579 25.0139 47.6181C25.003 47.5989 24.9927 47.579 24.9825 47.5598C24.9735 47.5444 24.9658 47.5296 24.9575 47.5143C24.8729 47.3572 24.7921 47.202 24.7145 47.0495C24.6972 47.0161 24.6805 46.9834 24.6645 46.9501C24.417 46.4565 24.21 45.9968 24.0426 45.5987C24.024 45.5545 24.0061 45.5109 23.9881 45.4685C23.858 45.1531 23.7542 44.8813 23.6772 44.6704C23.6676 44.6441 23.6586 44.6191 23.6503 44.5954C23.6452 44.5832 23.6413 44.5704 23.6368 44.5588C23.6298 44.539 23.6227 44.5204 23.617 44.5024C23.6099 44.4825 23.6029 44.4633 23.5964 44.4447C23.5881 44.4204 23.5804 44.3979 23.5727 44.3768C23.5528 44.3191 23.5381 44.2736 23.5272 44.2409C23.5253 44.2344 23.5234 44.2287 23.5214 44.2235C23.5131 44.1973 23.5086 44.1832 23.5086 44.1832C23.2176 44.2723 22.8932 44.3601 22.5425 44.4479C20.6808 44.9121 18.0664 45.3564 15.6437 45.7474C15.4764 45.7743 15.3104 45.8013 15.1456 45.8276C14.5096 45.9295 13.8923 46.0282 13.3102 46.1218C12.3979 46.2686 11.5741 46.4045 10.9074 46.527C10.3855 46.6231 9.96046 46.7103 9.66235 46.7885C7.1371 47.4534 3.28223 50.555 3.28223 50.555Z" fill="#BF9EF9" stroke="black" stroke-width="0.569857" stroke-linecap="round" stroke-linejoin="round"/>
<path d="M43.5785 58.2609C44.3831 58.6526 45.4268 58.8866 46.1121 58.3116C46.6519 57.8589 46.7526 57.0864 46.9128 56.4005C47.4328 54.1804 49.0098 52.2315 51.0729 51.2602C51.9941 50.8268 52.9987 50.58 53.8943 50.0966C54.9348 49.5344 55.4412 48.7888 55.5598 47.9945C54.2969 47.5797 51.9537 47.0213 49.3688 46.4424C46.5961 45.8212 43.5439 45.1769 41.2456 44.6615C39.8115 46.1488 38.8902 48.1413 38.7953 50.2088C38.6434 53.5111 40.6064 56.8152 43.5785 58.2609Z" fill="#49A2A6" stroke="black" stroke-width="0.569857" stroke-linecap="round" stroke-linejoin="round"/>
<path d="M16.3643 64.4211L19.7524 68.0125C19.7524 68.0125 39.1787 68.4856 42.6695 68.5414C42.4797 67.0259 41.8553 65.5642 40.8359 64.4243C38.8966 62.2555 35.6386 61.3734 32.8698 62.2683C31.3497 62.7594 29.8759 63.7454 28.2988 63.4915C26.7243 63.2383 25.6184 61.8318 24.199 61.1061C21.8943 59.9277 18.8421 60.8054 17.2534 62.8492C16.8797 63.33 16.5842 63.8602 16.3643 64.4211Z" fill="#49A2A6" stroke="black" stroke-width="0.569857" stroke-linecap="round" stroke-linejoin="round"/>
<path d="M3.28223 50.5553L9.77262 57.4342C9.81237 56.6322 9.79634 55.8245 9.90469 55.0282C10.2784 52.2818 12.2395 49.8097 14.8289 48.8212C15.4943 48.5673 16.322 48.2615 16.4047 47.5544C16.4688 47.0037 16.0181 46.5402 15.5912 46.1863C15.4443 46.0645 15.2963 45.9446 15.1456 45.8279C14.5096 45.9299 13.8923 46.0286 13.3102 46.1222C12.3979 46.269 11.5741 46.4049 10.9074 46.5274C10.3855 46.6235 9.96046 46.7107 9.66235 46.7889C7.1371 47.4537 3.28223 50.5553 3.28223 50.5553Z" fill="#49A2A6" stroke="black" stroke-width="0.569857" stroke-linecap="round" stroke-linejoin="round"/>
<path opacity="0.57" d="M10.9072 46.527C10.9842 47.0027 11.1207 47.4732 11.2848 47.9239C12.0548 50.0401 13.4607 51.9609 15.382 53.136C17.3027 54.3111 19.753 54.6791 21.8667 53.9008C23.1976 53.4104 24.3541 52.4442 25.0798 51.2255C25.6696 50.2357 25.9254 49.3215 25.4048 48.3002C25.3862 48.263 25.3664 48.2252 25.3452 48.188C25.2279 47.9784 25.1067 47.7688 24.9824 47.5598C24.4624 46.6866 23.8758 45.8282 23.1931 45.0922C22.986 44.8685 22.7687 44.6537 22.5424 44.4479C20.6806 44.9121 18.0663 45.3563 15.6436 45.7474C14.832 45.8782 14.0428 46.0038 13.31 46.1218C12.3978 46.2686 11.574 46.4045 10.9072 46.527Z" fill="#835ED3"/>
<path d="M3.28223 50.555L19.7531 68.0118C19.7531 68.0118 43.3805 68.5875 43.2029 68.5433C43.026 68.4991 61.0149 55.3843 61.0149 55.3843C61.0149 55.3843 58.6609 49.744 56.4068 48.3393C55.749 47.9297 52.7686 47.2033 49.3695 46.4424C45.648 45.6089 41.4239 44.7332 39.1929 44.1832C39.1929 44.1832 39.5724 53.161 32.296 53.2411C32.1691 53.2424 32.0441 53.2398 31.9204 53.2328C31.8877 53.2315 31.8556 53.2296 31.8229 53.227C31.6428 53.2136 31.4665 53.1924 31.2927 53.1636C31.2491 53.1559 31.2062 53.1482 31.1632 53.1398C31.1203 53.1315 31.0773 53.1232 31.0344 53.1135C30.9119 53.0873 30.7908 53.0565 30.6715 53.0225C30.6439 53.0148 30.6157 53.0065 30.5882 52.9975C30.5196 52.977 30.4523 52.9552 30.3849 52.9321C30.3516 52.9212 30.3189 52.9097 30.2862 52.8975C30.2048 52.868 30.1247 52.8372 30.0452 52.8045C30.0054 52.7885 29.9663 52.7718 29.9266 52.7545C29.8868 52.7372 29.8477 52.7199 29.8092 52.702C29.7721 52.6853 29.7355 52.668 29.699 52.6507C29.6676 52.6347 29.6361 52.6193 29.6047 52.6039C29.5765 52.5898 29.5483 52.5757 29.5201 52.5609C29.4964 52.5481 29.4727 52.5359 29.4496 52.5237C29.4169 52.5064 29.3848 52.4885 29.3521 52.4705C29.3239 52.4545 29.2964 52.4391 29.2688 52.4231C29.2444 52.4096 29.2207 52.3955 29.1964 52.3808C29.1733 52.3673 29.1502 52.3539 29.1271 52.3397C29.0816 52.3122 29.0374 52.2846 28.9925 52.2564C28.9643 52.2385 28.9367 52.2205 28.9092 52.2026C28.8733 52.1788 28.8374 52.1551 28.8015 52.1308C28.7668 52.1077 28.7322 52.084 28.6982 52.0602C28.6957 52.0577 28.6931 52.0557 28.6905 52.0545C28.6566 52.0307 28.6232 52.0064 28.5899 51.982C28.5559 51.9577 28.5219 51.9327 28.4886 51.9077C28.4309 51.8641 28.3745 51.8205 28.3187 51.7762C28.286 51.7506 28.254 51.7249 28.2219 51.6987C27.9719 51.4954 27.7328 51.2775 27.5032 51.0486C27.4725 51.0178 27.4417 50.987 27.4116 50.9556C27.3808 50.9249 27.3507 50.8934 27.3205 50.8614C27.3051 50.8454 27.2904 50.83 27.2757 50.814C27.2481 50.7851 27.2205 50.7563 27.1942 50.7268C27.1756 50.7075 27.1583 50.6883 27.1417 50.6697C27.1122 50.6377 27.0827 50.6056 27.0538 50.5729C27.0404 50.5575 27.0269 50.5428 27.0135 50.5274C26.9846 50.4947 26.9564 50.4626 26.9282 50.4299C26.6179 50.0703 26.3288 49.6946 26.0614 49.3132C26.0371 49.2785 26.0127 49.2439 25.989 49.2087C25.964 49.1728 25.939 49.1369 25.9146 49.1003C25.8915 49.067 25.8691 49.0336 25.8473 48.9997C25.8178 48.9554 25.7883 48.9118 25.7595 48.8676C25.7428 48.842 25.7261 48.8163 25.7095 48.7907C25.6864 48.7541 25.6633 48.7182 25.6409 48.6823C25.5723 48.5753 25.5062 48.4682 25.4409 48.3605C25.4287 48.34 25.4165 48.3201 25.405 48.3002C25.3953 48.2842 25.3857 48.2688 25.3767 48.2534C25.355 48.2175 25.3344 48.1823 25.3139 48.147C25.2928 48.1111 25.2716 48.0759 25.2517 48.0406C25.1697 47.8989 25.0902 47.7579 25.0139 47.6181C25.003 47.5989 24.9927 47.579 24.9825 47.5598C24.9735 47.5444 24.9658 47.5296 24.9575 47.5143C24.8729 47.3572 24.7921 47.202 24.7145 47.0495C24.6972 47.0161 24.6805 46.9834 24.6645 46.9501C24.417 46.4565 24.21 45.9968 24.0426 45.5987C24.024 45.5545 24.0061 45.5109 23.9881 45.4685C23.858 45.1531 23.7542 44.8813 23.6772 44.6704C23.6676 44.6441 23.6586 44.6191 23.6503 44.5954C23.6452 44.5832 23.6413 44.5704 23.6368 44.5588C23.6298 44.539 23.6227 44.5204 23.617 44.5024C23.6099 44.4825 23.6029 44.4633 23.5964 44.4447C23.5881 44.4204 23.5804 44.3979 23.5727 44.3768C23.5528 44.3191 23.5381 44.2736 23.5272 44.2409C23.5253 44.2344 23.5234 44.2287 23.5214 44.2235C23.5131 44.1973 23.5086 44.1832 23.5086 44.1832C23.2176 44.2723 22.8932 44.3601 22.5425 44.4479C20.6808 44.9121 18.0664 45.3564 15.6437 45.7474C14.8321 45.8782 14.0429 46.0039 13.3102 46.1218C12.3979 46.2686 11.5741 46.4045 10.9074 46.527C10.3855 46.6231 9.96046 46.7103 9.66235 46.7886C7.1371 47.4534 3.28223 50.555 3.28223 50.555Z" stroke="black" stroke-width="0.569857" stroke-linecap="round" stroke-linejoin="round"/>
<path d="M25.0049 43.4751C25.0049 43.4751 27.9109 50.472 32.4069 50.3848C36.9035 50.2976 37.6202 43.6873 37.6202 43.6873C37.3991 43.2001 37.6658 36.9097 37.6658 36.9097C39.5352 37.5438 41.5495 37.7938 43.2323 36.986C43.5215 36.8475 43.8004 36.6776 44.067 36.4731C47.6475 33.7318 44.9011 25.699 42.6996 20.6972C42.699 20.6965 42.699 20.6959 42.699 20.6959C42.2861 19.7561 41.8912 18.9233 41.5617 18.2527C41.1546 17.4251 40.7975 16.7628 40.6507 16.4955C40.216 16.4916 39.6961 16.5038 39.114 16.5327C37.3362 16.6205 34.979 16.8615 32.7101 17.2494H32.7095C32.6973 17.7456 32.5165 22.1877 29.8458 25.0092C28.9739 25.9304 27.884 26.6933 26.8025 27.4748L26.8019 27.4754C26.8019 27.4754 26.8012 27.4921 26.7993 27.5254C26.7762 27.9825 26.5948 31.513 26.2935 35.1467C25.9793 38.9298 25.5351 42.8251 25.0049 43.4751Z" fill="#FFD9D4" stroke="black" stroke-width="0.569857" stroke-linecap="round" stroke-linejoin="round"/>
<path d="M25.0049 43.4751C25.0049 43.4751 27.9109 50.472 32.4069 50.3848C36.9035 50.2976 37.6202 43.6873 37.6202 43.6873C37.3991 43.2001 37.6658 36.9097 37.6658 36.9097C39.5352 37.5438 41.5495 37.7938 43.2323 36.986C43.5215 36.8475 43.8004 36.6776 44.067 36.4731C47.6475 33.7318 44.9011 25.699 42.6996 20.6972C42.699 20.6965 42.699 20.6959 42.699 20.6959C42.2861 19.7561 41.8912 18.9233 41.5617 18.2527C41.1546 17.4251 40.7975 16.7628 40.6507 16.4955C40.216 16.4916 39.6961 16.5038 39.114 16.5327C37.3362 16.6205 34.979 16.8615 32.7101 17.2494H32.7095C32.6973 17.7456 32.5165 22.1877 29.8458 25.0092C28.9739 25.9304 27.884 26.6933 26.8025 27.4748L26.8019 27.4754C26.8019 27.4754 26.8012 27.4921 26.7993 27.5254C26.7762 27.9825 26.5948 31.513 26.2935 35.1467C25.9793 38.9298 25.5351 42.8251 25.0049 43.4751Z" fill="#FFD9D4" stroke="black" stroke-width="0.569857" stroke-linecap="round" stroke-linejoin="round"/>
<path d="M23.5088 44.1832C23.5088 44.1832 23.5133 44.1973 23.5216 44.2236C23.5235 44.2287 23.5255 44.2345 23.5274 44.2409C23.5383 44.2736 23.553 44.3191 23.5729 44.3768C23.5806 44.398 23.5883 44.4204 23.5966 44.4448C23.603 44.4634 23.6101 44.4826 23.6171 44.5025C23.6235 44.5204 23.63 44.539 23.637 44.5589C23.6415 44.5704 23.6453 44.5833 23.6505 44.5955C23.6588 44.6192 23.6678 44.6442 23.6774 44.6705C23.7543 44.8814 23.8582 45.1532 23.9883 45.4686C24.0063 45.5109 24.0242 45.5545 24.0428 45.5988C24.2101 45.9969 24.4172 46.4565 24.6647 46.9502C24.6807 46.9835 24.6974 47.0162 24.7147 47.0495C24.7923 47.2021 24.873 47.3573 24.9577 47.5143C24.9762 47.549 24.9955 47.5836 25.0141 47.6182C25.0904 47.7579 25.1699 47.899 25.2519 48.0407C25.2724 48.0759 25.2929 48.1112 25.3141 48.1471C25.3346 48.1824 25.3558 48.2183 25.3769 48.2535C25.3981 48.2894 25.4199 48.3253 25.441 48.3606C25.5064 48.4683 25.5725 48.5753 25.6411 48.6824C25.6635 48.7183 25.6866 48.7542 25.7096 48.7901C25.7263 48.8164 25.743 48.842 25.7597 48.8677C25.7885 48.9119 25.818 48.9555 25.8475 48.9997C25.8693 49.0337 25.8924 49.0671 25.9148 49.1004C25.9392 49.1369 25.9642 49.1728 25.9892 49.2087C26.0129 49.244 26.0372 49.2786 26.0616 49.3132C26.3289 49.6947 26.6181 50.0704 26.9284 50.43C26.9566 50.4627 26.9848 50.4948 27.0136 50.5275C27.0271 50.5428 27.0406 50.5576 27.054 50.573C27.0829 50.6057 27.1124 50.6377 27.1418 50.6698C27.1585 50.6884 27.1758 50.7076 27.1944 50.7268C27.2207 50.7563 27.2483 50.7852 27.2758 50.814C27.2906 50.8301 27.3053 50.8454 27.3207 50.8615C27.3508 50.8935 27.381 50.9249 27.4117 50.9557C27.4419 50.9871 27.4726 51.0179 27.5034 51.0487C27.7329 51.2775 27.9721 51.4955 28.2221 51.6987C28.2541 51.725 28.2862 51.7507 28.3189 51.7763C28.3747 51.8205 28.4311 51.8641 28.4888 51.9077C28.5221 51.9327 28.5561 51.9577 28.5901 51.9821C28.6234 52.0064 28.6567 52.0308 28.6907 52.0545C28.6933 52.0558 28.6958 52.0577 28.6984 52.0603C28.7324 52.084 28.767 52.1077 28.8016 52.1308C28.8375 52.1552 28.8734 52.1789 28.9093 52.2026C28.9369 52.2206 28.9645 52.2385 28.9927 52.2565C29.0375 52.2847 29.0818 52.3123 29.1273 52.3398C29.1504 52.3539 29.1735 52.3674 29.1965 52.3808C29.2203 52.3956 29.2446 52.4097 29.269 52.4232C29.2965 52.4392 29.3241 52.4546 29.3523 52.4706C29.385 52.4885 29.4171 52.5065 29.4498 52.5238C29.4728 52.536 29.4966 52.5482 29.5203 52.561C29.5485 52.5757 29.5767 52.5898 29.6049 52.6039C29.6363 52.6193 29.6677 52.6347 29.6992 52.6507C29.7357 52.6681 29.7722 52.6854 29.8094 52.702C29.8479 52.72 29.887 52.7373 29.9267 52.7546C29.9665 52.7719 30.0056 52.7886 30.0453 52.8046C30.1248 52.8373 30.205 52.8681 30.2864 52.8976C30.3191 52.9097 30.3518 52.9213 30.3851 52.9322C30.4524 52.9553 30.5197 52.9771 30.5883 52.9976C30.6159 53.0066 30.6441 53.0149 30.6717 53.0226C30.7909 53.0566 30.9121 53.0873 31.0345 53.1136C31.0775 53.1232 31.1204 53.1316 31.1634 53.1399C31.2064 53.1482 31.2493 53.1559 31.2929 53.1636C31.4666 53.1925 31.6429 53.2136 31.8231 53.2271C31.8558 53.2297 31.8878 53.2316 31.9205 53.2329C32.0443 53.2399 32.1693 53.2425 32.2962 53.2412C39.5726 53.1611 39.1931 44.1832 39.1931 44.1832C38.2481 43.9499 37.6602 43.7755 37.6205 43.687C37.6205 43.687 36.9037 50.2973 32.4071 50.3845C27.9112 50.4717 25.0051 43.4748 25.0051 43.4748H25.0045C24.8115 43.7127 24.2743 43.9492 23.5088 44.1832Z" fill="#F5D256" stroke="black" stroke-width="0.569857" stroke-linecap="round" stroke-linejoin="round"/>
<path d="M40.5801 16.3672C40.5801 16.3672 40.6051 16.4121 40.6506 16.4954" stroke="black" stroke-width="0.569857" stroke-linecap="round" stroke-linejoin="round"/>
<path d="M24.4131 23.1917C25.1394 23.0719 25.6145 22.9712 25.6145 22.9712" stroke="black" stroke-width="0.569857" stroke-linecap="round" stroke-linejoin="round"/>
<path d="M19.4639 19.7437C19.5581 19.6918 19.6549 19.6398 19.7536 19.5885" stroke="black" stroke-width="0.569857" stroke-linecap="round" stroke-linejoin="round"/>
<path d="M19.7529 19.5882C24.881 16.9225 36.1559 14.6069 42.5328 14.8422C42.5328 14.8422 40.3871 13.5709 39.3164 12.0983C39.2363 11.9881 39.153 11.8714 39.0658 11.7489C36.0783 11.6451 29.2109 11.8579 22.7622 15.3025C21.8307 17.1751 20.7242 18.9573 19.7529 19.5882Z" fill="#E938B5" stroke="black" stroke-width="0.569857" stroke-linecap="round" stroke-linejoin="round"/>
<path d="M22.7627 15.3025C29.2114 11.8579 36.0788 11.645 39.0662 11.7489C38.913 11.5341 38.7496 11.3021 38.5752 11.0604C37.5219 9.59868 36.0845 7.79144 34.3305 7.31319C32.122 6.71057 28.496 7.8485 28.3953 7.8485C28.3575 7.8485 27.9139 7.94723 27.333 8.20366C26.3804 8.62358 25.0591 9.46918 24.5597 11.0027C24.2109 12.0739 23.5493 13.7209 22.7627 15.3025Z" fill="#F5D256" stroke="black" stroke-width="0.569857" stroke-linecap="round" stroke-linejoin="round"/>
<path d="M40.6514 16.4957C40.7982 16.763 41.1553 17.4252 41.5624 18.2529C41.5624 18.2529 42.9227 17.3015 42.0034 16.6547C41.8624 16.5553 41.3758 16.5027 40.6514 16.4957Z" fill="black" stroke="black" stroke-width="0.569857" stroke-linecap="round" stroke-linejoin="round"/>
<path d="M17.0887 22.3365C17.1836 23.1289 18.1619 23.4636 19.4248 23.5578C20.4531 23.6348 21.6699 23.5514 22.7508 23.4264C23.3694 23.3546 23.9439 23.2693 24.4138 23.1918C24.7561 22.3038 24.9626 21.5076 25.0735 21.0018C25.1523 20.646 25.1844 20.4338 25.1844 20.4338C25.1959 20.3299 25.2241 20.2286 25.2684 20.1286C25.7505 19.0458 28.1103 18.197 30.9151 17.5944C31.4985 17.4687 32.1011 17.354 32.7101 17.2495H32.7108C35.7226 16.7341 38.8896 16.4789 40.6513 16.4956C41.3757 16.5026 41.8623 16.5552 42.0034 16.6546C42.9227 17.3014 41.5623 18.2528 41.5623 18.2528C41.8918 18.9234 42.2867 19.7562 42.6996 20.696C42.6996 20.696 43.5946 20.2729 44.5863 19.6452C46.3012 18.5599 48.304 16.8616 46.4743 15.6743C45.6954 15.1692 44.303 14.9076 42.5335 14.8422C41.6546 14.8095 40.6827 14.8255 39.6461 14.8845C33.1653 15.2519 24.1747 17.2899 19.7537 19.5882C19.6556 19.6523 19.5588 19.7042 19.4639 19.7433C17.8997 20.5998 16.9874 21.489 17.0887 22.3365Z" fill="#F5D256" stroke="black" stroke-width="0.569857" stroke-linecap="round" stroke-linejoin="round"/>
<path d="M11.8873 39.501C12.3264 42.5097 13.1451 45.5279 13.3105 46.1222C14.0433 46.0043 14.8325 45.8786 15.6441 45.7478C16.2653 47.1717 19.3438 53.5422 23.8622 51.4022C24.9681 50.8785 25.522 49.9521 25.7098 48.7911C25.9522 47.2884 25.5835 45.3952 25.0046 43.4758C23.9789 40.0671 22.2935 36.577 22.2063 35.0538C21.9793 31.0874 24.3693 29.2333 26.8022 27.4755H26.8029C24.9783 26.9863 23.9468 26.1241 23.3814 25.2778C22.8563 26.1144 22.189 26.9017 21.3479 27.4889C21.3344 27.4986 21.3203 27.5082 21.3068 27.5171C18.1931 29.6661 12.2489 31.1124 11.6962 34.8147C11.5084 36.0725 11.636 37.7848 11.8873 39.501Z" fill="#E86F3A" stroke="black" stroke-width="0.569857" stroke-linecap="round" stroke-linejoin="round"/>
<path d="M23.3809 25.2778C23.8155 24.5867 24.154 23.8629 24.413 23.1917" stroke="black" stroke-width="0.569857" stroke-linecap="round" stroke-linejoin="round"/>
<path d="M29.6094 22.5608C29.6459 22.6082 29.6696 22.6422 29.6799 22.6589" stroke="black" stroke-width="0.569857" stroke-linecap="round" stroke-linejoin="round"/>
<path d="M22.2064 35.054C22.2519 35.8451 22.7282 37.1671 23.3193 38.7326C23.8668 40.1802 24.5118 41.8374 25.0048 43.476H25.0054C26.0811 42.156 26.8024 27.4757 26.8024 27.4757C26.6152 27.611 26.4286 27.7462 26.2433 27.8834C24.0175 29.531 21.9968 31.3928 22.2064 35.054Z" fill="#E86F3A" stroke="black" stroke-width="0.569857" stroke-linecap="round" stroke-linejoin="round"/>
<path d="M26.8018 27.4745C27.8833 26.693 28.9731 25.9301 29.845 25.0089C32.5158 22.1874 32.6966 17.7453 32.7088 17.2491C32.0997 17.3536 31.4971 17.4684 30.9137 17.594C30.9137 17.594 30.5323 19.9892 29.6091 22.5606C28.9603 24.3691 28.0435 26.2648 26.8018 27.4745Z" fill="#E86F3A" stroke="black" stroke-width="0.569857" stroke-linecap="round" stroke-linejoin="round"/>
<path d="M25.0732 21.002C25.6489 20.7469 26.2516 20.6097 26.776 20.6962C28.1921 20.9296 29.3153 22.1803 29.6102 22.5611C30.2891 20.6706 30.6751 18.8749 30.8315 18.0568C30.8879 17.7626 30.9149 17.5946 30.9149 17.5946C27.8889 18.2453 25.381 19.1813 25.1906 20.3891C25.188 20.4039 25.1861 20.4193 25.1842 20.434C25.1842 20.434 25.1521 20.6462 25.0732 21.002Z" fill="#E86F3A" stroke="black" stroke-width="0.569857" stroke-linecap="round" stroke-linejoin="round"/>
<path d="M37.5534 43.166C37.5675 43.4333 37.5886 43.6179 37.62 43.6872C37.6598 43.7757 38.2477 43.95 39.1926 44.1834C41.4236 44.7334 45.6478 45.6092 49.3693 46.4426C50.4502 45.354 51.2932 44.2706 51.9362 43.2057C56.1302 36.2704 51.8612 30.1224 49.7225 28.3132C49.4539 28.0863 49.1609 27.8183 48.8513 27.5208C46.3401 25.109 42.7622 20.7727 42.6994 20.697C43.9412 23.5178 45.3561 27.3028 45.7112 30.5589C45.9863 33.0765 45.6279 35.278 44.0668 36.473C42.2449 37.868 39.8555 37.6526 37.6656 36.9096C37.6656 36.9096 37.4687 41.5459 37.5534 43.166Z" fill="#E86F3A" stroke="black" stroke-width="0.569857" stroke-linecap="round" stroke-linejoin="round"/>
<path d="M45.9594 45.693C46.0273 45.4661 51.6708 41.5125 45.7959 32.0538" stroke="black" stroke-width="0.569857" stroke-linecap="round" stroke-linejoin="round"/>
<path d="M11.8873 39.5013C12.2777 39.5737 12.679 39.5602 13.0477 39.4192C13.8253 39.123 14.3055 38.3281 14.5318 37.5273C14.7581 36.7273 14.7889 35.8836 14.9895 35.0765C15.455 33.2025 16.8878 31.596 18.697 30.9203C19.2214 30.7241 19.7727 30.6023 20.2836 30.3753C20.7952 30.1478 21.2805 29.792 21.503 29.2784C21.7485 28.7136 21.6242 28.0565 21.3068 27.5174C18.1931 29.6663 12.2489 31.1126 11.6962 34.8149C11.5084 36.0727 11.636 37.7851 11.8873 39.5013Z" fill="#FF8E66"/>
<path d="M49.4394 31.5355C49.9273 32.9279 50.5915 34.2531 51.0768 35.6462C51.873 37.931 52.1756 40.387 51.9576 42.7969C51.9454 42.9277 51.9365 43.0674 51.9365 43.2059C56.1305 36.2706 51.8615 30.1225 49.7228 28.3134C49.4542 28.0864 49.1612 27.8185 48.8515 27.521C48.6887 28.8698 48.9881 30.2482 49.4394 31.5355Z" fill="#FF8E66"/>
<path d="M25.1904 20.3891C25.3622 20.4507 25.5655 20.4609 25.7488 20.4455C27.0804 20.3314 28.208 19.4724 29.3633 18.8005C29.837 18.5242 30.3281 18.2761 30.8314 18.0568C30.8878 17.7626 30.9147 17.5946 30.9147 17.5946C27.8888 18.2453 25.3808 19.1813 25.1904 20.3891Z" fill="#C14216"/>
<path d="M22.2064 35.0534C22.2519 35.8445 22.7282 37.1664 23.3193 38.732C23.3995 38.6961 23.4758 38.6493 23.5463 38.5909C23.8405 38.346 23.9777 37.9531 24.0027 37.571C24.0277 37.1889 23.9547 36.8081 23.8982 36.4298C23.7181 35.2252 23.7123 33.9475 24.2329 32.8468C24.5188 32.2422 24.9496 31.7204 25.3554 31.1889C25.7882 30.6215 26.219 30.0087 26.378 29.3009C26.5004 28.7598 26.4741 28.2623 26.2433 27.8828C24.0175 29.5304 21.9968 31.3921 22.2064 35.0534Z" fill="#C14216"/>
<path d="M37.5534 43.1661C37.647 43.084 37.7297 42.9885 37.7983 42.8808C38.1227 42.3724 38.0919 41.7127 38.3381 41.1614C38.7016 40.3491 39.6234 39.9068 40.5113 39.842C41.3986 39.7773 42.2763 40.0202 43.1424 40.226C44.0079 40.4325 44.9156 40.6049 45.7817 40.401C47.0928 40.0933 48.1006 38.9259 48.4359 37.6219C48.7718 36.3179 48.507 34.9133 47.9332 33.6952C47.3851 32.5323 46.5722 31.5162 45.7112 30.559C45.9863 33.0766 45.6279 35.2781 44.0668 36.4731C42.2449 37.8681 39.8555 37.6527 37.6656 36.9097C37.6656 36.9097 37.4687 41.546 37.5534 43.1661Z" fill="#C14216"/>
<path d="M27.333 8.20366C27.3356 8.20687 27.3388 8.20943 27.3413 8.21264C27.6439 8.52677 28.1369 8.52613 28.5729 8.52164C31.5866 8.49087 34.6036 9.33198 37.1667 10.9168C37.4654 11.1008 37.7898 11.3033 38.1379 11.2629C38.3033 11.2444 38.4521 11.1693 38.5752 11.0604C37.5219 9.59868 36.0845 7.79144 34.3305 7.31319C32.1219 6.71057 28.4959 7.8485 28.3953 7.8485C28.3575 7.8485 27.9138 7.94723 27.333 8.20366Z" fill="#FFE8A9"/>
<path d="M39.6455 14.8845C39.791 15.1057 40.0334 15.2679 40.284 15.3679C40.6232 15.5019 40.9899 15.548 41.3386 15.6538C42.4682 15.9968 43.36 17.0219 43.5433 18.188C43.6062 18.5874 43.6055 19.0324 43.8741 19.3356C44.0536 19.5388 44.3114 19.6273 44.5857 19.6452C46.3007 18.5599 48.3034 16.8616 46.4738 15.6743C45.6948 15.1692 44.3024 14.9076 42.533 14.8422C41.654 14.8095 40.6822 14.8255 39.6455 14.8845Z" fill="#FFE8A9"/>
<path d="M19.4248 23.5578C20.4531 23.6347 21.6699 23.5514 22.7508 23.4263C23.3694 23.3545 23.9438 23.2693 24.4138 23.1917C24.7561 22.3038 24.9625 21.5076 25.0734 21.0017C25.1523 20.6459 25.1844 20.4337 25.1844 20.4337C25.1959 20.3299 25.2241 20.2286 25.2683 20.1286C25.1869 20.0869 25.101 20.0555 25.01 20.0382C23.9733 19.8394 22.761 20.1459 21.8359 20.6075C21.2763 20.887 20.7621 21.2582 20.3281 21.7095C19.8415 22.216 19.4389 22.8583 19.4248 23.5578Z" fill="#E0B836"/>
<path d="M31.7402 33.8194C31.7402 33.8194 33.3673 40.0098 37.5318 41.0695L37.6652 36.9101C37.6652 36.9101 33.9334 35.5408 31.7402 33.8194Z" fill="#FFA8A1"/>
<path d="M26.2939 35.1468C26.4728 35.1551 26.653 35.05 26.7664 34.9057C26.8998 34.7352 26.9594 34.5204 27.0145 34.3114C27.2498 33.4222 27.4569 32.526 27.6357 31.6233C27.8287 30.6476 28.4858 28.8186 27.7518 27.9287C27.4748 27.5928 27.1376 27.4851 26.7998 27.5255C26.7767 27.9826 26.5953 31.5131 26.2939 35.1468Z" fill="#FFA8A1"/>
<path d="M39.1143 16.5327C39.154 16.8641 39.4867 17.3449 39.606 17.6443C39.7688 18.0527 39.9188 18.4662 40.0579 18.8836C40.6131 20.5466 40.9907 22.2627 41.2811 23.9898C41.4465 24.9752 41.5831 25.9657 41.7075 26.9575C42.128 30.3148 42.4165 33.7075 43.2326 36.986C43.5218 36.8475 43.8006 36.6777 44.0673 36.4732C47.6478 33.7319 44.9014 25.699 42.6999 20.6972C42.6992 20.6966 42.6992 20.6959 42.6992 20.6959C42.2864 19.7561 41.8915 18.9233 41.5619 18.2527C41.1548 17.4251 40.7978 16.7628 40.651 16.4955C40.2163 16.4917 39.6964 16.5038 39.1143 16.5327Z" fill="#FFF1F0"/>
<path d="M26.8018 27.4757C27.1935 27.5808 27.6217 27.6687 28.0897 27.7353" stroke="black" stroke-width="0.569857" stroke-linecap="round" stroke-linejoin="round"/>
<path d="M25.0049 43.4751C25.0049 43.4751 27.9109 50.472 32.4069 50.3848C36.9035 50.2976 37.6202 43.6873 37.6202 43.6873C37.3991 43.2001 37.6658 36.9097 37.6658 36.9097C39.5352 37.5438 41.5495 37.7938 43.2323 36.986C43.5215 36.8475 43.8004 36.6776 44.067 36.4731C47.6475 33.7318 44.9011 25.699 42.6996 20.6972C42.699 20.6965 42.699 20.6959 42.699 20.6959C42.2861 19.7561 41.8912 18.9233 41.5617 18.2527C41.1546 17.4251 40.7975 16.7628 40.6507 16.4955C40.216 16.4916 39.6961 16.5038 39.114 16.5327C37.3362 16.6205 34.979 16.8615 32.7101 17.2494H32.7095C32.6973 17.7456 32.5165 22.1877 29.8458 25.0092C28.9739 25.9304 27.884 26.6933 26.8025 27.4748L26.8019 27.4754C26.8019 27.4754 26.8012 27.4921 26.7993 27.5254C26.7762 27.9825 26.5948 31.513 26.2935 35.1467C25.9793 38.9298 25.5351 42.8251 25.0049 43.4751Z" stroke="black" stroke-width="0.569857" stroke-linecap="round" stroke-linejoin="round"/>
<path d="M22.7627 15.3025C29.2114 11.8579 36.0788 11.645 39.0663 11.7489C37.9879 10.2327 36.3743 7.8703 34.3305 7.31319C32.122 6.71057 28.496 7.8485 28.3953 7.8485C28.2947 7.8485 25.363 8.53447 24.5597 11.0027C24.2109 12.0739 23.5493 13.7209 22.7627 15.3025Z" stroke="black" stroke-width="0.569857" stroke-linecap="round" stroke-linejoin="round"/>
<path d="M17.0887 22.3364C17.2605 23.7743 20.3416 23.7051 22.7508 23.4262C23.3694 23.3544 23.9439 23.2691 24.4138 23.1916C24.7561 22.3037 24.9626 21.5074 25.0735 21.0016C25.1523 20.6458 25.1844 20.4336 25.1844 20.4336C25.3196 19.204 27.852 18.2526 30.9151 17.5942C31.4985 17.4686 32.1011 17.3538 32.7101 17.2493H32.7108C35.7226 16.7339 38.8896 16.4787 40.6513 16.4954C41.3757 16.5024 41.8623 16.555 42.0034 16.6544C42.9227 17.3012 41.5623 18.2526 41.5623 18.2526C41.8918 18.9232 42.2867 19.756 42.6996 20.6958C42.6996 20.6958 49.3631 17.5481 46.4743 15.6742C45.6954 15.169 44.303 14.9074 42.5336 14.842C36.1566 14.6067 24.8818 16.9224 19.7537 19.588C19.6556 19.6521 19.5588 19.704 19.4639 19.7432C17.8997 20.5996 16.9874 21.4888 17.0887 22.3364Z" stroke="black" stroke-width="0.569857" stroke-linecap="round" stroke-linejoin="round"/>
<path d="M13.3105 46.1222C14.0432 46.0043 14.8324 45.8786 15.644 45.7478C16.2653 47.1717 19.3438 53.5422 23.8622 51.4022C24.9681 50.8785 25.522 49.9521 25.7098 48.7911C25.9521 47.2884 25.5835 45.3952 25.0046 43.4758C23.9789 40.0671 22.2934 36.577 22.2062 35.0538C21.9793 31.0874 24.3693 29.2333 26.8022 27.4755H26.8029C24.9783 26.9863 23.9468 26.1241 23.3814 25.2778C22.8563 26.1144 22.1889 26.9017 21.3478 27.4889C18.2456 29.6533 12.2514 31.0964 11.6962 34.8147C11.1795 38.2778 13.0508 45.1888 13.3105 46.1222Z" stroke="black" stroke-width="0.569857" stroke-linecap="round" stroke-linejoin="round"/>
<path d="M22.2064 35.054C22.2936 36.5773 23.979 40.0673 25.0047 43.476H25.0054C26.0811 42.156 26.8024 27.4757 26.8024 27.4757C24.3694 29.2336 21.9794 31.0876 22.2064 35.054Z" stroke="black" stroke-width="0.569857" stroke-linecap="round" stroke-linejoin="round"/>
<path d="M25.0732 21.002C25.6489 20.7469 26.2516 20.6097 26.776 20.6962C28.1921 20.9296 29.3153 22.1803 29.6102 22.5611C30.5334 19.9897 30.9149 17.5946 30.9149 17.5946C27.8517 18.253 25.3194 19.2044 25.1842 20.434C25.1842 20.434 25.1521 20.6462 25.0732 21.002Z" stroke="black" stroke-width="0.569857" stroke-linecap="round" stroke-linejoin="round"/>
<path d="M37.62 43.6872C37.6597 43.7757 38.2476 43.95 39.1926 44.1834C41.4236 44.7334 45.6477 45.6092 49.3692 46.4426C57.4912 38.2597 52.1894 30.3999 49.7225 28.3132C47.2748 26.2418 42.7698 20.7817 42.6993 20.697C44.9008 25.6988 47.6473 33.7317 44.0668 36.473C42.2448 37.868 39.8555 37.6526 37.6655 36.9096C37.6655 36.9096 37.3988 43.2 37.62 43.6872Z" stroke="black" stroke-width="0.569857" stroke-linecap="round" stroke-linejoin="round"/>
<path d="M37.6652 36.9097C34.4931 35.8326 31.7402 33.6484 31.7402 33.6484" stroke="black" stroke-width="0.569857" stroke-linecap="round" stroke-linejoin="round"/>
<path d="M31.2686 20.2789V21.7726H31.9949L32.8732 23.8017C33.3803 24.9729 34.4811 25.7224 35.6934 25.7224C36.3594 25.7224 36.9871 25.4967 37.5032 25.1031C38.0186 24.7101 38.4206 24.1491 38.6334 23.4786C38.7148 23.224 38.8668 23.0112 39.0623 22.8625C39.2585 22.7131 39.4963 22.6272 39.7483 22.6272H40.3881C40.64 22.6272 40.8791 22.7125 41.074 22.8625C41.2696 23.0112 41.4215 23.224 41.5029 23.4786C41.7164 24.1491 42.119 24.7101 42.6338 25.1031C43.1499 25.4961 43.7781 25.7224 44.4436 25.7224C45.6553 25.7224 46.7566 24.9723 47.2631 23.8017L48.142 21.7726H48.8684V20.2789C48.8684 20.2789 45.3655 20.1436 44.0205 20.2789C42.4722 20.4334 41.4439 20.9725 41.1227 21.2482C40.9965 21.3565 40.465 21.4072 40.0688 21.4296C39.6732 21.4072 39.1418 21.3572 39.0148 21.2482C38.6943 20.9732 37.6653 20.4334 36.1178 20.2789C34.7721 20.1436 31.2698 20.2789 31.2698 20.2789H31.2686Z" fill="#4C70F5" stroke="black" stroke-width="0.569857" stroke-linecap="round" stroke-linejoin="round"/>
<path d="M39.9185 24.5356C39.9185 24.5356 41.2334 27.7116 40.5884 27.9847C39.9435 28.2578 38.9658 27.0166 38.9658 27.0166" stroke="black" stroke-width="0.569857" stroke-linecap="round" stroke-linejoin="round"/>
<path d="M38.381 32.0542C38.2073 32.0048 35.3288 31.9798 34.7832 29.2257" stroke="black" stroke-width="0.569857" stroke-linecap="round" stroke-linejoin="round"/>
<path d="M35.6774 29.0573C35.4184 29.0444 35.1568 29.0342 34.901 29.0759C34.6452 29.1175 34.392 29.2163 34.2048 29.3958C34.0176 29.5753 33.9054 29.8439 33.9535 30.0984" stroke="black" stroke-width="0.569857" stroke-linecap="round" stroke-linejoin="round"/>
<path d="M22.7503 23.4265C22.765 23.8868 22.9138 24.5772 23.3811 25.2779C23.9466 26.1242 24.9781 26.9864 26.8026 27.475C28.0444 26.2652 28.9612 24.3695 29.61 22.561C29.3151 22.1802 28.1919 20.9294 26.7757 20.6961C26.2513 20.6095 25.6487 20.7467 25.073 21.0019C23.9017 21.5199 22.84 22.5232 22.7625 23.1181C22.7516 23.2027 22.7464 23.3066 22.7503 23.4265Z" fill="#FFD9D4" stroke="black" stroke-width="0.569857" stroke-linecap="round" stroke-linejoin="round"/>
<path d="M27.937 24.2001C27.5023 23.7315 26.9093 23.4122 26.2785 23.309C25.6476 23.2058 24.9835 23.318 24.4219 23.6238" stroke="black" stroke-width="0.569857" stroke-linecap="round" stroke-linejoin="round"/>
<path d="M52.3488 41.6809C52.3027 42.3085 52.3373 42.7477 52.4758 42.7983C53.5143 43.174 54.4439 41.236 54.4664 41.1873C54.5426 39.7589 55.1344 37.9478 55.7082 37.3587C56.5903 36.4522 57.4551 37.0381 57.8199 37.5215C58.184 38.0043 58.8226 43.7959 58.7706 44.4087C58.6655 45.6505 56.8211 47.4732 56.8211 47.4732L63.6577 60.1481C61.9601 66.6007 53.4791 64.2877 53.4791 64.2877C53.4791 64.2877 50.7371 49.6881 50.5749 49.2887C50.4127 48.89 47.9195 47.6777 47.4708 47.0629C47.0214 46.4481 45.7219 43.0894 46.6778 41.4386C46.731 41.3469 46.9964 41.2084 47.3855 41.061C48.8376 40.509 52.0206 39.816 52.4418 40.8417" fill="#FFD9D4"/>
<path d="M52.3488 41.6809C52.3027 42.3085 52.3373 42.7477 52.4758 42.7983C53.5143 43.174 54.4439 41.236 54.4664 41.1873C54.5426 39.7589 55.1344 37.9478 55.7082 37.3587C56.5903 36.4522 57.4551 37.0381 57.8199 37.5215C58.184 38.0043 58.8226 43.7959 58.7706 44.4087C58.6655 45.6505 56.8211 47.4732 56.8211 47.4732L63.6577 60.1481C61.9601 66.6007 53.4791 64.2877 53.4791 64.2877C53.4791 64.2877 50.7371 49.6881 50.5749 49.2887C50.4127 48.89 47.9195 47.6777 47.4708 47.0629C47.0214 46.4481 45.7219 43.0894 46.6778 41.4386C46.731 41.3469 46.9964 41.2084 47.3855 41.061C48.8376 40.509 52.0206 39.816 52.4418 40.8417" stroke="black" stroke-width="0.569857" stroke-linecap="round" stroke-linejoin="round"/>
<path d="M54.4664 41.1874C54.4203 42.0471 54.5594 42.7676 55.0017 42.9991C56.1775 43.6145 57.1135 39.1968 57.1135 39.1968" fill="#FFD9D4"/>
<path d="M54.4664 41.1874C54.4203 42.0471 54.5594 42.7676 55.0017 42.9991C56.1775 43.6145 57.1135 39.1968 57.1135 39.1968" stroke="black" stroke-width="0.569857" stroke-linecap="round" stroke-linejoin="round"/>
<path d="M52.3482 41.6803C51.7238 42.9586 49.2158 43.3625 49.2158 43.3625" stroke="black" stroke-width="0.569857" stroke-linecap="round" stroke-linejoin="round"/>
<path d="M47.3865 41.0606C48.8386 40.5086 52.0209 39.8162 52.4421 40.8413C52.5864 39.8258 52.8595 38.611 53.2044 37.7C53.205 37.698 53.2063 37.6955 53.2069 37.6923C53.2422 37.6 53.2775 37.5108 53.3134 37.4256C53.5474 35.9793 54.1622 31.2198 52.8736 30.907C50.9817 30.4473 50.1791 38.7411 50.0618 38.5507C49.9444 38.3603 48.2834 31.3884 46.8178 31.5179C45.144 31.666 47.3865 41.0606 47.3865 41.0606Z" fill="#FFD9D4" stroke="black" stroke-width="0.569857" stroke-linecap="round" stroke-linejoin="round"/>
<path d="M56.1893 44.6635C56.0886 44.8828 55.9777 45.1021 55.811 45.2771C55.6443 45.4521 55.4142 45.5797 55.1725 45.5707C54.8346 45.5585 54.559 45.2886 54.3878 44.9976C54.2166 44.7065 54.1115 44.3763 53.914 44.102C53.7166 43.8276 53.3794 43.6102 53.0518 43.6923C52.8056 43.7538 52.6299 43.9641 52.428 44.1173C51.8331 44.568 51.006 44.5225 50.2707 44.3911C49.9861 44.3404 49.6931 44.275 49.4617 44.1026C49.1328 43.8571 49.2604 43.7712 49.2161 43.3628C49.1443 42.6992 49.0302 41.6825 49.3552 41.0991C49.6803 40.5157 51.8882 41.2138 52.4421 40.8414C53.3204 40.2496 52.6556 38.7585 53.714 38.7482C54.3718 38.7424 55.0263 38.8495 55.6527 39.047C56.0348 39.1668 56.5111 39.2713 56.8214 39.54C57.1624 39.8349 57.1541 40.2958 57.1368 40.7106C57.1105 41.3465 57.0259 41.9793 56.8861 42.6005C56.7259 43.3096 56.4925 44.0026 56.1886 44.6635H56.1893Z" fill="#FFA8A1"/>
<path d="M52.4756 42.7977C53.5142 43.1733 54.4438 41.2353 54.4662 41.1866C54.5425 39.7582 55.1342 37.9472 55.708 37.358C55.708 37.358 55.2131 36.5118 54.2829 36.3464C53.9393 36.2855 53.6046 36.7362 53.3129 37.4247C53.2764 37.5093 53.2411 37.5991 53.2065 37.6914C53.2058 37.6952 53.2046 37.6971 53.2039 37.6997C52.8597 38.6107 52.5859 39.8249 52.4423 40.841C52.4744 40.9173 52.4898 41.0039 52.4885 41.1013C52.4859 41.3116 52.4353 41.5046 52.3494 41.6802C52.3032 42.3079 52.3378 42.747 52.4763 42.7977H52.4756Z" fill="#FFD9D4" stroke="black" stroke-width="0.569857" stroke-linecap="round" stroke-linejoin="round"/>
<path d="M57.1134 39.1963C57.1134 39.1963 56.3486 43.3743 55.1633 43.1569C53.9779 42.9396 54.401 40.0438 55.2113 38.1551" fill="#FFD9D4"/>
<path d="M57.1134 39.1963C57.1134 39.1963 56.3486 43.3743 55.1633 43.1569C53.9779 42.9396 54.401 40.0438 55.2113 38.1551" stroke="black" stroke-width="0.569857" stroke-linecap="round" stroke-linejoin="round"/>
<path d="M47.6152 40.9773C47.6152 40.9773 52.3163 39.4175 52.5144 41.185C52.7125 42.9531 49.216 43.3628 49.216 43.3628" fill="#FFD9D4"/>
<path d="M47.6152 40.9773C47.6152 40.9773 52.3163 39.4175 52.5144 41.185C52.7125 42.9531 49.216 43.3628 49.216 43.3628" stroke="black" stroke-width="0.569857" stroke-linecap="round" stroke-linejoin="round"/>
<path d="M25.3227 31.7767L22.6391 32.2819L23.87 29.8445L22.5596 27.4487L25.2586 27.8661L27.1325 25.8793L27.5697 28.5751L30.0379 29.7432L27.6088 30.992L27.2607 33.7006L25.3227 31.7767Z" fill="#F5D256" stroke="black" stroke-width="0.569857" stroke-linecap="round" stroke-linejoin="round"/>
</g>
<defs>
<clipPath id="clip0_1609_38371">
<rect y="0.000434875" width="64" height="64" rx="32" fill="white"/>
</clipPath>
</defs>
</svg>
